<svg width="30" height="30" viewBox="0 0 30 30" fill="none" xmlns="http://www.w3.org/2000/svg">
<g clip-path="url(#clip0)">
<path d="M29.5491 18.6288C27.5457 26.6647 19.4063 31.5547 11.3696 29.5513C3.33664 27.5478 -1.55383 19.4084 0.450074 11.373C2.45257 3.33625 10.5915 -1.55471 18.6259 0.448738C26.6621 2.45219 31.5521 10.5926 29.5487 18.6288H29.5491Z" fill="#F7931A"/>
<path d="M21.6138 12.863C21.9119 10.867 20.3923 9.79406 18.3143 9.07828L18.9883 6.37453L17.3421 5.96438L16.6858 8.59687C16.2537 8.48906 15.8093 8.38734 15.3677 8.28656L16.0287 5.63672L14.3838 5.22656L13.7093 7.92938C13.3512 7.84781 12.9996 7.76719 12.6583 7.68234L12.6602 7.67391L10.3905 7.10719L9.95272 8.865C9.95272 8.865 11.1738 9.14484 11.148 9.16219C11.8146 9.32859 11.9355 9.76969 11.9149 10.1194L11.1471 13.1995C11.193 13.2112 11.2526 13.2281 11.3182 13.2544L11.1448 13.2112L10.068 17.5261C9.98647 17.7286 9.77976 18.0323 9.31382 17.917C9.33022 17.9409 8.11757 17.6184 8.11757 17.6184L7.30054 19.5028L9.44272 20.0367C9.84116 20.1366 10.2316 20.2411 10.6155 20.3395L9.93444 23.0747L11.5783 23.4848L12.2534 20.7792C12.7019 20.9011 13.1379 21.0136 13.5644 21.1195L12.8923 23.8125L14.538 24.2227L15.2191 21.4931C18.0255 22.0242 20.1363 21.81 21.0237 19.2722C21.7394 17.2284 20.9885 16.0495 19.5119 15.2803C20.5873 15.0314 21.3973 14.3241 21.6133 12.863H21.6138ZM17.853 18.1359C17.344 20.1797 13.9033 19.0753 12.7873 18.7978L13.691 15.1748C14.8066 15.4533 18.3837 16.0045 17.8535 18.1359H17.853ZM18.3616 12.8334C17.8976 14.6925 15.0335 13.748 14.104 13.5164L14.9234 10.2305C15.8529 10.462 18.8454 10.8942 18.3616 12.8334Z" fill="white"/>
</g>
<defs>
<clipPath id="clip0">
<rect width="30" height="30" fill="white"/>
</clipPath>
</defs>
</svg>
