<svg width="26" height="30" viewBox="0 0 26 30" fill="none" xmlns="http://www.w3.org/2000/svg">
<path d="M25.6106 7.8986C24.388 7.048 23.0806 6.14117 21.8015 5.24137C21.7732 5.22028 21.745 5.19919 21.7096 5.1781C21.5683 5.07265 21.4058 4.96018 21.2079 4.89691L21.1937 4.88988C17.7733 4.0674 14.2964 3.22384 10.9326 2.40839C7.87964 1.67027 4.83379 0.932155 1.78087 0.194035C1.70313 0.172946 1.6254 0.151857 1.54059 0.130768C1.26498 0.0534407 0.94697 -0.0309155 0.607757 0.0112627C0.50882 0.0253221 0.424016 0.0604708 0.34628 0.109679L0.261476 0.179976C0.127205 0.306511 0.0565357 0.468194 0.021201 0.55958L0 0.615818V0.939184L0.0141337 0.988392C1.94341 6.36612 3.92215 11.8212 5.83022 17.1005C7.30015 21.1637 8.8266 25.3745 10.3177 29.5079C10.4096 29.7891 10.6711 29.9719 10.9962 30H11.0668C11.3707 30 11.6392 29.8524 11.7735 29.6134L17.3705 21.4941C18.7345 19.5187 20.0984 17.5363 21.4623 15.561C22.0206 14.7526 22.5789 13.9371 23.1372 13.1287C24.0559 11.7931 25.0028 10.4152 25.9427 9.07256L25.9922 9.00226V8.9179C26.0134 8.67186 26.0205 8.16573 25.6106 7.8986ZM19.0525 10.8581C17.738 11.54 16.3953 12.243 15.0455 12.9389C15.8299 12.1024 16.6214 11.2588 17.4059 10.4223C18.3882 9.36781 19.4129 8.2782 20.4164 7.20968L20.4376 7.1886C20.5224 7.07612 20.6284 6.97067 20.7415 6.8582C20.8192 6.78087 20.904 6.70355 20.9817 6.61216C21.5047 6.97067 22.0347 7.33622 22.5435 7.69474C22.911 7.95483 23.2856 8.21493 23.6672 8.47503C22.1124 9.26236 20.5577 10.0708 19.0525 10.8581ZM15.6745 10.5207C14.6639 11.6103 13.618 12.728 12.5791 13.8317C10.5651 11.3994 8.50859 8.93196 6.51572 6.54889C5.61115 5.46632 4.69951 4.37671 3.79495 3.29414L3.78788 3.28711C3.58294 3.05513 3.38506 2.80206 3.18719 2.56305C3.05998 2.40136 2.92571 2.24671 2.79144 2.08503C3.61121 2.29592 4.43804 2.49275 5.25073 2.68255C5.9645 2.85127 6.70652 3.02701 7.43442 3.20978C11.5332 4.20097 15.6391 5.19216 19.738 6.18335C18.374 7.63147 17.003 9.10068 15.6745 10.5207ZM12.1198 24.2216C12.1975 23.4835 12.2823 22.7243 12.353 21.9791C12.4166 21.3816 12.4802 20.77 12.5438 20.1865C12.6428 19.2516 12.7488 18.2815 12.8336 17.3325L12.8548 17.1638C12.9254 16.5592 12.9961 15.9336 13.0385 15.3079C13.1162 15.2657 13.201 15.2236 13.2929 15.1884C13.3989 15.1392 13.5049 15.097 13.6109 15.0338C15.2434 14.1832 16.8758 13.3326 18.5154 12.489C20.1478 11.6454 21.8227 10.7737 23.4834 9.90909C21.9711 12.0883 20.4517 14.2886 18.9818 16.4327C17.7168 18.2674 16.4165 20.1584 15.1232 22.0213C14.6144 22.7664 14.0844 23.5256 13.5827 24.2567C13.0173 25.0722 12.4378 25.9087 11.8725 26.7452C11.9431 25.9017 12.0279 25.0511 12.1198 24.2216ZM2.26849 3.74404C2.17662 3.49097 2.07768 3.23087 1.99288 2.98483C3.90095 5.27652 5.82316 7.58226 7.69589 9.81771C8.66407 10.9776 9.63224 12.1305 10.6004 13.2974C10.7912 13.5153 10.982 13.7473 11.1658 13.9723C11.406 14.2605 11.6463 14.5628 11.9078 14.851C11.823 15.575 11.7523 16.3061 11.6746 17.0091C11.6251 17.5012 11.5756 17.9933 11.5191 18.4924V18.4994C11.4979 18.8157 11.4555 19.1321 11.4202 19.4414C11.3707 19.8702 11.2576 20.8403 11.2576 20.8403L11.2506 20.8895C11.1234 22.3095 10.9679 23.7436 10.8195 25.1354C10.7559 25.7119 10.6993 26.3024 10.6357 26.8929C10.6004 26.7874 10.558 26.682 10.5227 26.5836C10.4167 26.3024 10.3107 26.0071 10.2117 25.7189L9.45556 23.6311C7.05987 17.0021 4.66418 10.3801 2.26849 3.74404Z" fill="#D62929"/>
</svg>
