<svg width="45" height="45" viewBox="0 0 45 45" fill="none" xmlns="http://www.w3.org/2000/svg">
<g clip-path="url(#clip0_580_3768)">
<path d="M44.322 27.9434C41.3169 39.9971 29.1078 47.3321 17.0527 44.3269C5.00325 41.3218 -2.33246 29.1127 0.673402 17.0597C3.67715 5.00457 15.8855 -2.33185 27.9371 0.673311C39.9915 3.67847 47.3272 15.889 44.322 27.9434Z" fill="#121212"/>
<path d="M7.24617 23.7087H12.497L9.16416 29H5L7.58164 24.887L8.15776 25.6115L7.71291 24.6894L7.24617 23.7087Z" fill="white"/>
<path d="M17.9523 23.7087H12.7015L13.1682 24.6894L13.6131 25.6115L13.037 24.887L10.4553 29H14.6195L15.6842 27.3094L15.5894 26.9289L15.3269 25.853L16.3697 28.0705H16.3625L16.8073 29H21.0517L24.3845 23.7087H21.1246L19.4983 26.2995L19.5713 26.6068L19.8338 27.6827L19.1993 26.3287L17.9523 23.7087Z" fill="white"/>
<path fill-rule="evenodd" clip-rule="evenodd" d="M7.24617 17H18.054L18.4041 17.7245L16.7924 20.2787H10.4331L9.16416 22.2913H5L7.58164 18.1783L8.15776 18.9028L7.71291 17.9807L7.24617 17ZM13.6857 19.0053L14.291 18.0466H11.8406L11.0895 19.2322H15.1078L13.6857 19.0053Z" fill="#DEFF82"/>
<path fill-rule="evenodd" clip-rule="evenodd" d="M18.7337 17H29.5415L29.8916 17.7245L28.2799 20.2787H27.2152L28.1705 22.2913H24.5095L23.649 20.4836L23.5542 20.2787H21.9206L20.6517 22.2913H16.4875L19.0691 18.1783L19.6453 18.9028L19.2004 17.9807L18.7337 17ZM25.1732 19.0053L25.7785 18.0466H23.3281L22.577 19.2322H26.5953L25.1732 19.0053Z" fill="#DEFF82"/>
<path fill-rule="evenodd" clip-rule="evenodd" d="M40.1613 17H30.5057L30.9725 17.9807L31.4173 18.9028L30.8485 18.1783L28.9159 21.2448L29.4118 22.2913H38.8049L39.4612 21.2448H39.4466L41 18.7711L40.6572 18.0466V18.0392L40.1613 17ZM37.5505 18.0466L35.5377 21.2448H31.5194L33.2259 21.0179L35.1002 18.0466H37.5505Z" fill="#DEFF82"/>
</g>
<defs>
<clipPath id="clip0_580_3768">
<rect width="45" height="45" fill="white"/>
</clipPath>
</defs>
</svg>
