<svg width="54" height="55" viewBox="0 0 54 55" fill="none" xmlns="http://www.w3.org/2000/svg">
  <g clip-path="url(#clip0)">
    <path d="M42.6028 36.1939L37.0734 40.0542C35.9474 38.6509 34.1648 37.9444 32.3826 38.1958L26.7444 38.9942C25.863 39.1178 24.9652 39.0416 24.1173 38.7711L23.4958 38.5722C20.3336 37.5515 16.8734 38.1196 14.2035 40.0982L14.0384 38.9307C13.9715 38.457 13.5325 38.1268 13.0584 38.1941L6.87584 39.0691C6.40172 39.136 6.07153 39.575 6.13884 40.0491L8.05944 53.617C8.11955 54.0441 8.48488 54.362 8.91666 54.3624C8.95773 54.3624 8.99836 54.3595 9.039 54.354L15.222 53.4785C15.6961 53.4117 16.0259 52.9731 15.959 52.499L15.8735 51.8953L17.2904 50.7964C17.8445 50.3654 18.5442 50.1661 19.2419 50.241L29.2437 51.3006C29.2627 51.3027 29.2822 51.3039 29.3012 51.3048C31.5588 51.3865 33.7833 50.7452 35.6502 49.4735C35.6836 49.4502 35.7158 49.4244 35.7463 49.3969L48.0687 38.0934C48.4065 37.7831 48.4446 37.2637 48.1555 36.9077C46.7916 35.2258 44.3473 34.9117 42.6028 36.1939ZM9.65451 52.5159L7.97689 40.6646L12.4433 40.0318L14.1205 51.883L9.65451 52.5159ZM34.6207 48.077C33.0798 49.112 31.2519 49.6356 29.3965 49.5734L19.4247 48.5172C18.2814 48.394 17.135 48.72 16.2278 49.4265L15.5937 49.9184L14.4884 42.1107C16.7633 39.9907 20.0077 39.2685 22.9671 40.224L23.5881 40.4229C24.6853 40.7726 25.8469 40.8712 26.9869 40.7112L32.626 39.9128C34.1364 39.7007 35.6007 40.5287 36.198 41.9321L27.9 43.1068C27.5906 43.1466 27.3264 43.3502 27.2083 43.6393C27.0907 43.9284 27.1372 44.2586 27.3307 44.5033C27.5241 44.7484 27.8344 44.8707 28.143 44.8233L37.4112 43.5115C37.8853 43.4446 38.2155 43.0056 38.1482 42.5315C38.1021 42.2076 38.025 41.8889 37.9179 41.5794L43.604 37.6095C43.6103 37.6053 43.6162 37.6011 43.6222 37.5964C44.3736 37.0406 45.3844 36.9889 46.1888 37.4648L34.6207 48.077Z" fill="#F32859"/>
    <path d="M30.3917 36.5915C40.2118 36.5915 48.2016 28.6022 48.2016 18.7815C48.2016 8.96094 40.2118 0.971191 30.3917 0.971191C20.571 0.971191 12.5813 8.96094 12.5813 18.7815C12.5813 28.6017 20.571 36.5915 30.3917 36.5915ZM18.0337 19.6477C18.2199 22.3294 19.277 24.8769 21.0439 26.9025L18.4329 29.5136C15.9793 26.7908 14.5337 23.3081 14.3385 19.6477H18.0337ZM22.2703 28.1289C24.2933 29.8937 26.8375 30.9503 29.5158 31.1383V34.8339C25.8587 34.6366 22.3799 33.1918 19.6592 30.7399L22.2703 28.1289ZM31.2497 31.1395C33.9518 30.9537 36.518 29.8835 38.5516 28.0942L41.1622 30.7056C38.4318 33.1816 34.9305 34.64 31.2497 34.8347V31.1395ZM39.7724 26.8636C41.5199 24.8439 42.5642 22.3116 42.7492 19.6477H46.4444C46.2501 23.2903 44.818 26.7573 42.3843 29.475L39.7724 26.8636ZM42.7488 17.9137C42.5625 15.2324 41.5055 12.6853 39.739 10.6601L42.35 8.04911C44.8032 10.7719 46.2484 14.2537 46.444 17.9137H42.7488ZM38.5126 9.43421C36.4849 7.66516 33.9344 6.6077 31.2497 6.42313V2.72797C34.9127 2.92143 38.3988 4.36707 41.1237 6.82275L38.5126 9.43421ZM29.5158 6.4244C26.8548 6.61109 24.3263 7.655 22.3092 9.40035L19.6973 6.78846C22.4129 4.35733 25.8765 2.92524 29.5158 2.72924V6.4244ZM30.3917 8.127C36.2758 8.127 41.0458 12.897 41.0458 18.7815C41.0458 24.6657 36.2758 29.4357 30.3917 29.4357C24.5071 29.4357 19.7371 24.6657 19.7371 18.7815C19.7435 12.8999 24.51 8.13335 30.3917 8.127ZM18.4671 8.01059L21.0782 10.6216C19.2914 12.6527 18.2216 15.2147 18.0341 17.9137H14.3385C14.5349 14.2359 15.9933 10.7385 18.4671 8.01059Z" fill="#F32859"/>
    <path d="M29.6703 26.5906C29.8312 26.8315 30.1017 26.9758 30.3908 26.9758C30.6803 26.9758 30.9508 26.8315 31.1117 26.5906L36.007 19.2634C36.2021 18.9717 36.2021 18.5915 36.007 18.2999L31.1121 10.9726C30.9513 10.7318 30.6808 10.5874 30.3916 10.5874C30.1021 10.5874 29.8316 10.7318 29.6707 10.9726L24.7754 18.2999C24.5807 18.5915 24.5807 18.9717 24.7754 19.2634L29.6703 26.5906ZM30.3912 13.0151L34.2443 18.782L30.3912 24.5489L26.5386 18.7816L30.3912 13.0151Z" fill="#F32859"/>
  </g>
  <defs>
    <clipPath id="clip0">
      <rect width="53.3913" height="53.3913" fill="white" transform="translate(0.530029 0.971191)"/>
    </clipPath>
  </defs>
</svg>
