<svg width="45" height="45" viewBox="0 0 45 45" fill="none" xmlns="http://www.w3.org/2000/svg">
<g clip-path="url(#clip0_958_7)">
<path d="M44.3223 27.9434C41.3171 39.9971 29.108 47.3321 17.0529 44.3269C5.00349 41.3218 -2.33221 29.1127 0.673647 17.0597C3.6774 5.00457 15.8858 -2.33185 27.9373 0.673311C39.9917 3.67847 47.3274 15.889 44.3223 27.9434Z" fill="url(#paint0_linear_958_7)"/>
<path fill-rule="evenodd" clip-rule="evenodd" d="M31.3223 25.7722L28.5187 27.6184C28.2705 26.0347 28.4836 24.6012 28.6851 23.2454C28.95 21.4626 29.195 19.8142 28.3452 18.1354C27.8375 17.1324 27.0938 15.8265 25.9608 16.5725C24.3718 17.619 24.2839 20.4452 24.5282 23.1959C24.6795 24.1097 24.8561 25.0143 25.0211 25.8587C25.2765 27.1664 25.5037 28.3298 25.565 29.16C25.734 31.7959 25.8453 34.8617 23.5713 36.3592C19.4995 39.0405 16.4267 32.6876 14.5315 28.7694C14.3121 28.3156 14.1084 27.8944 13.9207 27.5238C13.8275 27.3395 13.7264 27.1454 13.621 26.9431C12.4122 24.6221 10.6427 21.2245 13.6742 19.2281L16.4778 17.3819C16.7259 18.9656 16.5129 20.3992 16.3114 21.755C16.0465 23.5378 15.8015 25.1862 16.6513 26.8649C17.159 27.868 17.9027 29.1739 19.0357 28.4278C20.6247 27.3814 20.7125 24.5551 20.4683 21.8044C20.317 20.8906 20.1403 19.9861 19.9754 19.1416C19.72 17.834 19.4927 16.6705 19.4315 15.8404C19.2625 13.2045 19.1512 10.1387 21.4252 8.64117C25.4969 5.95983 28.5697 12.3127 30.4649 16.231C30.6844 16.6848 30.8881 17.1059 31.0757 17.4766C31.169 17.6608 31.2701 17.8549 31.3754 18.0572C32.5842 20.3782 34.3538 23.7759 31.3223 25.7722Z" fill="white"/>
</g>
<defs>
<linearGradient id="paint0_linear_958_7" x1="22.4978" y1="0" x2="22.4978" y2="45.0003" gradientUnits="userSpaceOnUse">
<stop stop-color="#FF434E"/>
<stop offset="1" stop-color="#B91A24"/>
</linearGradient>
<clipPath id="clip0_958_7">
<rect width="45" height="45" fill="white"/>
</clipPath>
</defs>
</svg>
