<svg width="30" height="30" viewBox="0 0 30 30" fill="none" xmlns="http://www.w3.org/2000/svg">
<path d="M15 0C23.2833 0 30 6.71667 30 15C30 23.2833 23.2833 30 15 30C6.71667 30 0 23.2875 0 15C0 6.7125 6.71667 0 15 0Z" fill="#26A17B"/>
<path d="M17.1119 13.3275V11.0942H22.2161V7.69421H8.32022V11.0942H13.4244V13.3275C9.27855 13.5192 6.15771 14.34 6.15771 15.3234C6.15771 16.3067 9.27855 17.1275 13.4244 17.3192V24.465H17.1161V17.3192C21.2577 17.1275 24.3702 16.3067 24.3702 15.3234C24.3661 14.34 21.2536 13.5192 17.1119 13.3275ZM17.1161 16.715C17.0119 16.7192 16.4786 16.7525 15.2869 16.7525C14.3327 16.7525 13.6661 16.7275 13.4286 16.715V16.7192C9.76605 16.5567 7.02855 15.9192 7.02855 15.1567C7.02855 14.3942 9.76188 13.7567 13.4286 13.5942V16.0775C13.6702 16.0942 14.3536 16.1359 15.3036 16.1359C16.4411 16.1359 17.0119 16.09 17.1202 16.0775V13.5859C20.7786 13.7484 23.5077 14.3859 23.5077 15.1484C23.4994 15.9109 20.7702 16.5484 17.1161 16.715Z" fill="white"/>
</svg>
