<svg width="45" height="45" viewBox="0 0 45 45" fill="none" xmlns="http://www.w3.org/2000/svg">
<g clip-path="url(#clip0_958_16)">
<path d="M44.3223 27.9434C41.3171 39.9971 29.108 47.3321 17.0529 44.3269C5.00349 41.3218 -2.33221 29.1127 0.673647 17.0597C3.6774 5.00457 15.8858 -2.33185 27.9373 0.673311C39.9917 3.67847 47.3274 15.889 44.3223 27.9434Z" fill="url(#paint0_linear_958_16)"/>
<mask id="mask0_958_16" style="mask-type:alpha" maskUnits="userSpaceOnUse" x="0" y="0" width="45" height="46">
<path d="M44.3223 27.9434C41.3171 39.9971 29.108 47.3321 17.0529 44.3269C5.00349 41.3218 -2.33221 29.1127 0.673647 17.0597C3.6774 5.00457 15.8858 -2.33185 27.9373 0.673311C39.9917 3.67847 47.3274 15.889 44.3223 27.9434Z" fill="url(#paint1_linear_958_16)"/>
</mask>
<g mask="url(#mask0_958_16)">
<g filter="url(#filter0_d_958_16)">
<path d="M13.486 10L18.0664 13.6788L17.5183 13.9861C15.0197 15.3872 13.8633 16.9957 13.916 18.8254C13.9325 19.3957 14.0848 19.9848 14.3801 20.5942C14.6896 21.2331 15.1692 22.142 15.8212 23.3241L20.8558 30.9667L43.5 -7.5L22.8095 40L11.2711 21.6817L11.2702 21.6804C9.8241 19.4464 9.04942 17.4975 9.00189 15.8478C8.97134 14.7875 9.31112 13.7504 10.0078 12.7418C10.7098 11.7021 11.7107 10.8621 13.0084 10.232L13.486 10Z" fill="white"/>
</g>
</g>
</g>
<defs>
<filter id="filter0_d_958_16" x="9" y="-7.5" width="36.5" height="49.5" filterUnits="userSpaceOnUse" color-interpolation-filters="sRGB">
<feFlood flood-opacity="0" result="BackgroundImageFix"/>
<feColorMatrix in="SourceAlpha" type="matrix" values="0 0 0 0 0 0 0 0 0 0 0 0 0 0 0 0 0 0 127 0" result="hardAlpha"/>
<feOffset dx="1" dy="1"/>
<feGaussianBlur stdDeviation="0.5"/>
<feComposite in2="hardAlpha" operator="out"/>
<feColorMatrix type="matrix" values="0 0 0 0 0 0 0 0 0 0 0 0 0 0 0 0 0 0 0.05 0"/>
<feBlend mode="normal" in2="BackgroundImageFix" result="effect1_dropShadow_958_16"/>
<feBlend mode="normal" in="SourceGraphic" in2="effect1_dropShadow_958_16" result="shape"/>
</filter>
<linearGradient id="paint0_linear_958_16" x1="22.4978" y1="0" x2="22.4978" y2="45.0003" gradientUnits="userSpaceOnUse">
<stop stop-color="#FFDC82"/>
<stop offset="0.731183" stop-color="#FFD464"/>
<stop offset="1" stop-color="#FFD159"/>
</linearGradient>
<linearGradient id="paint1_linear_958_16" x1="22.4978" y1="0" x2="22.4978" y2="45.0003" gradientUnits="userSpaceOnUse">
<stop stop-color="#FFDC82"/>
<stop offset="0.731183" stop-color="#FFD464"/>
<stop offset="1" stop-color="#FFD159"/>
</linearGradient>
<clipPath id="clip0_958_16">
<rect width="45" height="45" fill="white"/>
</clipPath>
</defs>
</svg>
