<svg width="32" height="32" viewBox="0 0 32 32" fill="none" xmlns="http://www.w3.org/2000/svg">
<path d="M0 15.9999C0 22.8793 4.342 28.744 10.4347 31.0047L11.8261 15.9999L10.4347 0.995117C4.342 3.25587 0 9.12049 0 15.9999Z" fill="#6DA544"/>
<path d="M32 16C32 7.1635 24.8365 0 16 0C14.0429 0 12.1681 0.352063 10.4347 0.995188V31.0048C12.1681 31.648 14.0429 32 16 32C24.8365 32 32 24.8365 32 16Z" fill="#D80027"/>
<path d="M10.4348 21.5652C13.5084 21.5652 16 19.0736 16 16C16 12.9264 13.5084 10.4348 10.4348 10.4348C7.36125 10.4348 4.86963 12.9264 4.86963 16C4.86963 19.0736 7.36125 21.5652 10.4348 21.5652Z" fill="#FFDA44"/>
<path d="M7.30432 13.2173V16.6955C7.30432 18.4244 8.70582 19.826 10.4348 19.826C12.1637 19.826 13.5652 18.4245 13.5652 16.6955V13.2173H7.30432Z" fill="#D80027"/>
<path d="M10.4349 17.7389C9.85948 17.7389 9.39136 17.2708 9.39136 16.6954V15.3042H11.4783V16.6955C11.4783 17.2708 11.0102 17.7389 10.4349 17.7389Z" fill="#F0F0F0"/>
</svg>
