<svg width="32" height="32" viewBox="0 0 32 32" fill="none" xmlns="http://www.w3.org/2000/svg">
<path d="M16 32C24.8366 32 32 24.8366 32 16C32 7.16344 24.8366 0 16 0C7.16344 0 0 7.16344 0 16C0 24.8366 7.16344 32 16 32Z" fill="#F0F0F0"/>
<path d="M31.0048 21.5653C31.648 19.8319 32 17.9572 32 16.0001C32 14.0429 31.648 12.1682 31.0048 10.4349H0.995188C0.352063 12.1682 0 14.0429 0 16.0001C0 17.9572 0.352063 19.8319 0.995188 21.5653L16 22.9566L31.0048 21.5653Z" fill="#0052B4"/>
<path d="M15.9999 31.9999C22.8794 31.9999 28.7441 27.6579 31.0047 21.5651H0.995117C3.25581 27.6579 9.12049 31.9999 15.9999 31.9999Z" fill="#D80027"/>
</svg>
