<svg width="30" height="30" viewBox="0 0 30 30" fill="none" xmlns="http://www.w3.org/2000/svg">
<path d="M29.5491 18.6288C27.5457 26.6647 19.4063 31.5547 11.3696 29.5513C3.33664 27.5478 -1.55383 19.4084 0.450073 11.373C2.45257 3.33627 10.5915 -1.55469 18.6259 0.448753C26.6621 2.45221 31.5521 10.5926 29.5487 18.6288H29.5491Z" fill="#F0B90B"/>
<path d="M14.5 6L16.8537 8.40327L10.9269 14.3125L8.57313 11.9658L14.5 6Z" fill="white"/>
<path d="M18.0731 9.5625L20.4269 11.9658L10.9269 21.4375L8.57313 19.0908L18.0731 9.5625Z" fill="white"/>
<path d="M7.35373 13.125L9.70746 15.5283L7.35373 17.875L5 15.5283L7.35373 13.125Z" fill="white"/>
<path d="M21.6463 13.125L24 15.5283L14.5 25L12.1463 22.6533L21.6463 13.125Z" fill="white"/>
</svg>
