<?xml version="1.0" standalone="no"?>
<!DOCTYPE svg PUBLIC "-//W3C//DTD SVG 20010904//EN"
 "http://www.w3.org/TR/2001/REC-SVG-20010904/DTD/svg10.dtd">
<svg version="1.0" xmlns="http://www.w3.org/2000/svg"
 width="576.000000pt" height="576.000000pt" viewBox="0 0 576.000000 576.000000"
 preserveAspectRatio="xMidYMid meet">
<metadata>
Created by potrace 1.14, written by Peter Selinger 2001-2017
</metadata>
<g transform="translate(0.000000,576.000000) scale(0.100000,-0.100000)"
fill="#000000" stroke="none">
<path d="M2775 5300 c4 -7 -3 -9 -19 -6 -14 3 -26 2 -26 -2 0 -4 -13 -8 -30
-8 -45 -2 -81 -14 -75 -24 7 -11 -7 -20 -42 -25 -16 -2 -39 -7 -53 -10 -14 -3
-38 -8 -55 -11 -16 -3 -37 -6 -45 -8 -8 -1 -22 -5 -30 -9 -8 -3 -28 -8 -45
-11 -16 -2 -30 -5 -30 -6 0 -3 -38 -9 -70 -11 -16 -2 -35 -7 -41 -11 -6 -5
-24 -2 -39 6 -27 14 -45 12 -108 -13 -15 -6 -42 -13 -59 -16 -17 -3 -43 -12
-59 -21 -16 -8 -29 -11 -29 -7 0 5 -4 3 -8 -3 -12 -19 -112 -65 -124 -58 -6 4
-8 3 -4 -4 3 -6 -3 -14 -16 -18 -12 -3 -29 -14 -39 -23 -10 -9 -35 -23 -55
-30 -21 -8 -47 -22 -58 -32 -11 -11 -26 -19 -33 -19 -7 0 -13 -5 -13 -12 0 -6
-3 -9 -6 -5 -4 3 -12 1 -19 -6 -7 -7 -22 -19 -35 -27 -12 -8 -40 -32 -63 -53
-23 -21 -58 -50 -77 -65 -54 -41 -299 -292 -305 -312 -3 -11 -15 -22 -25 -25
-11 -3 -19 -10 -17 -14 1 -4 -24 -40 -56 -81 -33 -40 -70 -93 -84 -119 -14
-25 -36 -60 -48 -77 -29 -38 -60 -92 -98 -169 -17 -33 -33 -62 -36 -65 -3 -3
-7 -9 -8 -15 -1 -5 -16 -50 -33 -98 -16 -49 -30 -96 -30 -106 0 -9 -5 -22 -12
-29 -7 -7 -9 -12 -6 -12 4 0 1 -15 -7 -34 -8 -18 -11 -36 -8 -40 4 -3 2 -6 -3
-6 -5 0 -11 -10 -11 -22 -4 -46 -13 -69 -26 -62 -9 5 -9 4 0 -6 8 -8 9 -20 3
-36 -7 -18 -5 -24 10 -29 21 -7 26 -31 11 -54 -5 -8 -15 -12 -23 -9 -9 4 -15
-2 -16 -16 -1 -11 -11 -48 -21 -81 l-19 -60 32 -11 31 -12 -27 -7 c-15 -4 -30
-5 -35 -2 -4 3 -8 -12 -8 -34 -1 -21 3 -39 8 -39 4 0 5 -6 0 -12 -9 -15 -12
-69 -4 -64 3 2 15 0 25 -3 19 -7 32 -41 15 -41 -5 0 -5 -10 -1 -22 9 -26 9
-79 -1 -95 -4 -6 -3 -13 0 -17 14 -14 9 -78 -8 -86 -9 -5 -19 -7 -23 -5 -3 3
-4 2 -2 -1 2 -3 0 -19 -4 -35 -5 -16 -5 -29 -1 -29 4 0 8 -12 8 -27 1 -16 4
-39 7 -53 7 -29 24 -122 30 -165 5 -33 14 -70 16 -70 2 0 7 -20 15 -59 3 -16
10 -37 16 -48 5 -10 7 -18 3 -18 -3 0 -1 -7 6 -15 7 -8 10 -15 6 -15 -3 0 4
-24 15 -52 12 -29 24 -59 27 -67 4 -10 1 -12 -9 -7 -8 5 -8 2 2 -6 9 -7 19
-24 23 -38 8 -26 23 -63 54 -127 9 -20 16 -41 15 -45 -2 -4 2 -8 8 -8 6 0 9
-9 6 -20 -3 -11 -1 -18 3 -15 10 6 91 -139 87 -157 -2 -7 -2 -10 0 -5 9 14 21
6 27 -18 4 -14 11 -25 16 -25 6 0 10 -6 10 -14 0 -7 9 -25 20 -38 10 -14 16
-29 12 -32 -4 -4 0 -6 8 -4 10 2 15 -4 14 -19 0 -12 2 -22 5 -21 18 2 34 -3
28 -8 -3 -3 4 -17 16 -30 51 -57 57 -64 57 -70 0 -3 7 -12 15 -21 8 -8 13 -19
9 -24 -3 -5 -1 -8 4 -7 4 2 58 -46 119 -107 62 -60 128 -123 149 -140 20 -16
48 -40 61 -53 13 -12 26 -22 29 -22 7 0 88 -64 92 -72 2 -5 9 -8 16 -8 7 0 22
-9 34 -20 12 -11 23 -20 24 -20 2 1 16 -3 31 -9 16 -6 33 -9 37 -6 5 3 13 -3
19 -12 6 -10 11 -14 11 -10 0 5 21 -3 48 -17 26 -14 69 -30 96 -36 27 -6 54
-17 60 -26 10 -13 41 -24 74 -26 6 -1 12 -4 12 -7 0 -4 12 -8 26 -9 15 -1 33
-7 40 -13 8 -6 14 -9 14 -6 0 3 37 -8 83 -24 45 -15 81 -32 80 -36 -1 -4 13
-8 30 -9 18 0 41 -3 52 -6 11 -3 39 -9 63 -13 23 -4 45 -11 47 -15 3 -5 14 -6
25 -3 11 3 20 1 20 -3 0 -5 19 -9 42 -10 23 0 44 -6 46 -12 2 -7 11 -8 27 -2
12 5 25 7 28 4 2 -3 47 -7 100 -10 114 -7 118 -7 136 -18 9 -6 12 -5 8 1 -4 6
30 9 91 8 53 0 101 1 107 4 25 13 101 6 118 -11 17 -18 68 -18 150 -2 11 2 27
-2 34 -8 10 -8 12 -8 8 4 -4 9 2 14 17 15 13 1 34 4 48 7 24 5 77 18 93 22 4
1 8 2 10 4 2 2 16 5 53 14 12 2 30 9 40 15 24 13 137 46 147 43 4 -1 7 3 7 9
0 6 6 9 14 6 8 -3 16 -3 18 1 6 14 140 72 150 66 6 -4 8 -2 4 4 -6 10 30 28
46 24 5 -1 7 1 5 6 -1 4 7 16 18 28 11 11 26 30 34 42 8 11 18 20 22 19 3 -1
24 12 45 30 22 17 64 50 94 72 30 22 60 45 67 51 7 5 17 10 23 10 5 0 10 5 10
11 0 6 7 8 16 5 8 -3 13 -2 10 3 -3 5 4 16 17 24 13 8 49 39 80 70 31 30 57
54 57 52 0 -5 144 141 144 146 2 15 56 60 65 54 7 -3 8 0 5 9 -4 10 6 27 24
45 16 17 28 32 25 35 -4 4 16 32 48 66 8 9 18 24 22 33 3 9 28 50 55 89 26 40
58 94 71 120 13 26 27 45 31 43 5 -3 6 5 2 17 -4 16 -2 19 8 13 8 -5 11 -4 7
3 -11 17 3 41 21 35 13 -4 14 -3 4 5 -11 7 -10 16 7 48 12 21 21 45 21 52 0 7
4 11 9 8 5 -4 7 3 4 14 -3 11 -1 20 5 20 5 0 12 12 15 28 3 15 14 45 24 67 9
22 18 45 18 50 4 40 18 85 25 80 6 -3 7 0 5 8 -3 7 1 40 10 73 17 62 20 77 29
134 3 19 8 46 10 60 9 45 19 183 21 294 1 80 6 110 16 117 12 7 12 9 0 9 -9 0
-12 8 -9 25 3 14 2 25 -1 25 -3 0 -7 20 -7 45 -1 25 2 45 7 45 5 0 9 9 9 20 0
11 4 20 9 20 5 0 9 18 9 40 0 22 4 45 8 51 4 8 3 9 -4 5 -11 -7 -16 32 -15
117 0 9 -4 17 -8 17 -4 0 -6 14 -5 30 1 17 -2 30 -7 30 -5 0 -7 6 -4 14 3 8 2
16 -3 18 -8 3 -21 62 -24 110 0 14 -4 24 -8 22 -7 -5 -28 62 -31 97 -1 9 -4
16 -8 13 -8 -5 -19 21 -19 47 0 10 -7 19 -15 19 -10 0 -13 9 -10 30 2 17 0 30
-4 30 -4 0 -13 18 -20 40 -6 22 -17 40 -23 40 -6 0 -9 3 -5 6 5 6 -33 85 -54
110 -6 8 -9 21 -5 29 3 9 2 13 -4 10 -13 -8 -43 41 -34 56 4 7 3 9 -3 6 -8 -5
-43 40 -40 53 1 3 -11 17 -26 32 -15 15 -27 32 -27 39 0 6 -10 20 -22 30 -11
11 -18 19 -15 19 6 0 -8 19 -38 54 -6 6 -28 35 -50 64 -21 28 -42 52 -46 52
-4 0 -11 9 -14 20 -4 11 -11 18 -16 15 -5 -4 -14 5 -21 19 -6 14 -17 26 -25
26 -7 0 -13 6 -13 13 0 13 -17 30 -60 60 -13 9 -20 17 -16 17 5 0 -8 15 -29
33 -22 17 -46 39 -55 47 -9 9 -34 29 -55 45 -22 17 -46 36 -53 43 -8 6 -22 17
-33 23 -11 5 -17 14 -14 19 3 6 0 7 -7 5 -8 -3 -23 4 -35 15 -12 11 -26 20
-31 20 -5 0 -15 7 -22 15 -7 9 -28 23 -46 31 -19 9 -31 20 -28 25 3 5 -2 6
-10 3 -9 -3 -16 -2 -16 4 0 5 -11 13 -25 16 -14 4 -25 11 -25 17 0 6 -4 8 -10
4 -5 -3 -18 2 -28 12 -10 10 -24 19 -30 20 -10 3 -90 37 -177 78 -16 8 -49 19
-72 26 -24 7 -43 16 -43 21 0 5 -4 6 -10 3 -5 -3 -10 -1 -10 5 0 6 -5 8 -10 5
-11 -7 -81 15 -75 24 2 3 -9 7 -23 7 -32 2 -72 11 -109 25 -16 6 -29 10 -30
10 -2 -1 -4 -1 -5 0 -7 2 -37 8 -68 14 -81 14 -97 17 -135 20 -22 2 -51 6 -65
9 -73 16 -322 25 -331 13 -3 -4 -18 -3 -33 3 -19 7 -25 7 -21 0z"/>
<path d="M675 4041 c-3 -5 -2 -12 3 -15 5 -3 9 1 9 9 0 17 -3 19 -12 6z"/>
<path d="M5276 2978 c3 -5 10 -6 15 -3 13 9 11 12 -6 12 -8 0 -12 -4 -9 -9z"/>
<path d="M5275 2780 c-3 -5 -1 -10 4 -10 6 0 11 5 11 10 0 6 -2 10 -4 10 -3 0
-8 -4 -11 -10z"/>
<path d="M940 1426 c0 -2 8 -10 18 -17 15 -13 16 -12 3 4 -13 16 -21 21 -21
13z"/>
<path d="M1675 761 c-3 -5 -2 -12 3 -15 5 -3 9 1 9 9 0 17 -3 19 -12 6z"/>
<path d="M4095 720 c3 -5 8 -10 11 -10 2 0 4 5 4 10 0 6 -5 10 -11 10 -5 0 -7
-4 -4 -10z"/>
<path d="M2195 600 c3 -5 8 -10 11 -10 2 0 4 5 4 10 0 6 -5 10 -11 10 -5 0 -7
-4 -4 -10z"/>
<path d="M3000 486 c0 -2 8 -10 18 -17 15 -13 16 -12 3 4 -13 16 -21 21 -21
13z"/>
</g>
</svg>
