<?xml version="1.0" standalone="no"?>
<!DOCTYPE svg PUBLIC "-//W3C//DTD SVG 20010904//EN"
 "http://www.w3.org/TR/2001/REC-SVG-20010904/DTD/svg10.dtd">
<svg version="1.0" xmlns="http://www.w3.org/2000/svg"
 width="512.000000pt" height="512.000000pt" viewBox="0 0 512.000000 512.000000"
 preserveAspectRatio="xMidYMid meet">
<metadata>
Created by potrace 1.14, written by Peter Selinger 2001-2017
</metadata>
<g transform="translate(0.000000,512.000000) scale(0.100000,-0.100000)"
fill="#000000" stroke="none">
<path d="M0 2560 l0 -2560 2560 0 2560 0 0 2560 0 2560 -2560 0 -2560 0 0
-2560z m2626 1949 c9 -8 27 -30 40 -50 22 -35 25 -36 113 -48 50 -6 143 -25
208 -41 139 -35 154 -36 177 -11 39 43 127 34 166 -16 12 -15 20 -41 20 -63 0
-46 5 -51 188 -173 127 -85 146 -95 168 -87 52 20 94 12 131 -25 36 -36 36
-36 29 -101 l-7 -65 54 -72 c61 -82 117 -167 147 -227 29 -57 55 -80 91 -80
22 0 41 -10 65 -34 46 -46 48 -106 5 -160 -16 -20 -27 -44 -25 -54 2 -9 18
-93 35 -185 l31 -168 37 -23 c50 -32 62 -49 68 -94 7 -50 -15 -92 -61 -117
-20 -11 -38 -27 -41 -36 -6 -19 -75 -359 -82 -406 -4 -25 1 -40 22 -65 23 -27
26 -39 22 -76 -7 -61 -47 -102 -100 -102 -46 0 -45 1 -172 -184 l-95 -139 5
-61 c7 -74 -5 -102 -57 -129 -34 -17 -43 -18 -85 -7 l-48 12 -94 -70 c-51 -39
-130 -90 -174 -114 -101 -55 -117 -70 -117 -112 0 -43 -30 -81 -76 -96 -44
-15 -73 -8 -114 27 l-32 27 -147 -29 c-197 -38 -193 -37 -189 -82 3 -37 5 -38
51 -47 47 -8 48 -9 41 -40 -7 -37 -28 -62 -63 -79 -25 -12 -26 -17 -31 -112
-5 -94 -6 -100 -27 -103 -20 -3 -90 60 -215 195 -9 10 -28 26 -43 37 -33 23
-55 72 -55 125 0 40 -16 66 -48 75 -9 2 -90 21 -178 41 l-162 37 -44 -26 c-60
-35 -108 -34 -150 3 -25 22 -33 39 -37 77 l-6 49 -158 108 -159 108 -46 -12
c-39 -9 -53 -9 -84 4 -52 22 -72 64 -64 137 l7 57 -122 187 c-102 155 -126
186 -146 186 -36 0 -88 25 -107 51 -25 36 -21 102 9 137 14 17 25 39 25 51 0
26 -60 363 -67 374 -2 4 -20 14 -38 21 -65 28 -86 120 -39 175 14 17 31 31 38
31 29 0 44 39 60 150 9 64 27 154 41 200 31 106 31 111 0 156 -29 42 -32 82
-10 124 18 35 46 52 100 59 38 6 43 12 147 161 l107 155 -6 67 c-6 67 -6 67
31 104 32 32 40 36 79 32 23 -3 49 -8 58 -12 10 -4 46 16 110 64 52 38 130 89
173 112 101 55 126 78 126 118 0 42 15 67 50 85 44 23 94 19 128 -10 17 -14
38 -25 48 -25 11 0 99 14 198 32 l178 32 24 37 c35 55 61 71 111 66 24 -3 50
-11 59 -18z"/>
<path d="M2494 4475 c-21 -21 -24 -29 -13 -41 9 -11 30 -14 88 -12 70 3 76 5
73 23 -9 56 -103 75 -148 30z"/>
<path d="M2378 4386 c-33 -17 -31 -58 3 -70 40 -14 59 -2 59 38 0 39 -23 51
-62 32z"/>
<path d="M2482 4388 c-22 -22 -14 -57 13 -64 40 -10 55 1 55 41 0 32 -3 35
-28 35 -15 0 -33 -5 -40 -12z"/>
<path d="M2592 4388 c-21 -21 -14 -48 16 -59 33 -13 53 -2 63 33 6 21 3 27
-15 32 -33 9 -51 7 -64 -6z"/>
<path d="M1881 4364 c-22 -18 -31 -35 -31 -55 0 -35 4 -35 72 -8 29 12 64 25
78 31 l25 10 -28 24 c-37 31 -78 31 -116 -2z"/>
<path d="M2704 4376 c-3 -8 -4 -25 -2 -38 2 -19 9 -23 37 -23 30 0 36 4 42 30
6 20 4 32 -4 37 -20 13 -67 9 -73 -6z"/>
<path d="M2262 4369 c-18 -7 -23 -15 -20 -36 3 -24 8 -29 37 -31 43 -4 55 8
46 47 -7 33 -21 37 -63 20z"/>
<path d="M2833 4363 c-16 -3 -23 -11 -23 -29 0 -13 2 -24 4 -24 2 0 19 -7 38
-14 l35 -15 10 45 c10 44 10 44 -16 43 -14 -1 -36 -4 -48 -6z"/>
<path d="M3197 4350 c-15 -12 -27 -25 -27 -29 0 -13 129 -64 145 -57 23 9 18
40 -12 68 -40 38 -73 44 -106 18z"/>
<path d="M2154 4350 c-38 -15 -41 -63 -4 -75 9 -3 30 -1 45 5 22 8 26 15 21
33 -3 12 -6 28 -6 35 0 14 -25 15 -56 2z"/>
<path d="M2936 4337 c-24 -18 -14 -50 20 -65 14 -7 27 -12 30 -12 6 0 36 71
32 75 -14 12 -66 13 -82 2z"/>
<path d="M2038 4314 c-31 -16 -35 -31 -15 -58 9 -12 23 -17 42 -14 27 3 30 7
33 46 4 48 -10 54 -60 26z"/>
<path d="M3042 4308 c-7 -7 -12 -20 -12 -29 0 -19 36 -49 57 -49 11 0 49 58
41 65 -11 9 -49 25 -60 25 -8 0 -19 -5 -26 -12z"/>
<path d="M1936 4271 c-36 -37 -29 -61 16 -61 51 0 58 9 41 53 -8 20 -18 37
-22 37 -4 0 -20 -13 -35 -29z"/>
<path d="M2487 4282 c-26 -28 -20 -49 14 -61 47 -16 49 -15 49 34 0 41 -2 45
-23 45 -13 0 -31 -8 -40 -18z"/>
<path d="M2590 4280 c-30 -30 -11 -60 35 -60 32 0 35 3 35 28 0 51 -35 67 -70
32z"/>
<path d="M2382 4279 c-18 -7 -23 -15 -20 -36 3 -30 23 -39 63 -29 18 5 22 11
18 28 -6 25 -22 48 -32 47 -3 0 -16 -4 -29 -10z"/>
<path d="M2730 4278 c-43 -12 -52 -20 -45 -40 6 -14 46 -38 65 -38 8 0 26 78
18 84 -1 2 -19 -1 -38 -6z"/>
<path d="M2267 4263 c-12 -12 -7 -50 8 -63 21 -17 65 -4 65 19 0 36 -12 51
-39 51 -15 0 -31 -3 -34 -7z"/>
<path d="M2803 4259 c-18 -18 -16 -56 3 -63 34 -13 52 -6 63 26 6 17 10 33 8
35 -12 11 -64 12 -74 2z"/>
<path d="M3143 4254 c-5 -14 41 -74 57 -74 10 0 41 71 35 81 -10 16 -85 11
-92 -7z"/>
<path d="M2182 4240 c-32 -20 -42 -47 -19 -54 6 -3 27 -7 46 -10 l33 -6 -7 38
c-9 51 -15 55 -53 32z"/>
<path d="M1828 4223 c-21 -22 -25 -32 -17 -46 8 -14 18 -16 47 -11 20 4 40 8
44 11 8 4 -30 73 -41 73 -4 0 -19 -12 -33 -27z"/>
<path d="M2899 4224 c-11 -14 -10 -20 14 -40 39 -33 51 -30 64 16 l10 40 -37
0 c-22 0 -43 -7 -51 -16z"/>
<path d="M2074 4207 c-38 -33 -27 -57 26 -57 37 0 41 2 36 20 -3 11 -9 29 -12
40 -7 26 -17 25 -50 -3z"/>
<path d="M3249 4214 c-10 -12 -6 -21 21 -49 l34 -35 22 38 c25 40 22 45 -33
55 -21 4 -35 1 -44 -9z"/>
<path d="M3004 4196 c-11 -27 1 -50 29 -57 26 -7 30 -4 43 26 19 46 19 45 -26
45 -26 0 -43 -5 -46 -14z"/>
<path d="M1733 4180 c-34 -20 -42 -47 -21 -68 17 -17 39 -15 67 7 22 17 23 19
7 49 -9 18 -18 32 -19 32 -1 0 -17 -9 -34 -20z"/>
<path d="M1976 4171 c-36 -37 -29 -61 17 -61 19 0 36 2 39 5 6 7 -14 85 -22
85 -4 0 -19 -13 -34 -29z"/>
<path d="M2413 4175 c-25 -10 -33 -20 -33 -38 0 -20 6 -26 33 -30 17 -2 33 -3
35 -2 2 2 2 21 0 43 l-3 40 -32 -13z"/>
<path d="M2501 4177 c-14 -6 -26 -17 -28 -24 -7 -20 33 -52 56 -46 17 4 21 13
21 44 0 42 -9 47 -49 26z"/>
<path d="M2585 4177 c-13 -10 -16 -21 -11 -41 6 -23 11 -27 38 -24 27 3 33 8
39 35 4 23 2 33 -8 37 -23 9 -38 7 -58 -7z"/>
<path d="M2700 4167 c-36 -18 -36 -42 0 -57 36 -15 39 -13 47 34 6 40 -4 45
-47 23z"/>
<path d="M3107 4173 c-11 -11 -8 -48 5 -61 20 -20 46 -14 65 14 16 25 16 27
-2 40 -20 15 -57 19 -68 7z"/>
<path d="M3356 4164 c-9 -8 -16 -19 -16 -23 0 -9 59 -66 63 -60 2 2 13 17 25
33 l22 29 -27 19 c-34 22 -47 23 -67 2z"/>
<path d="M2313 4162 c-33 -5 -47 -26 -33 -52 18 -33 64 -24 68 14 4 33 -5 43
-35 38z"/>
<path d="M1876 4131 c-38 -39 -29 -61 24 -61 22 0 40 5 40 10 0 13 -27 80 -33
80 -2 0 -16 -13 -31 -29z"/>
<path d="M2777 4146 c-15 -39 30 -77 58 -50 26 27 15 58 -21 62 -21 2 -33 -2
-37 -12z"/>
<path d="M2196 4137 c-11 -8 -17 -22 -14 -38 2 -19 9 -24 33 -24 28 0 30 3 30
35 0 39 -19 49 -49 27z"/>
<path d="M1626 4110 c-27 -33 -25 -56 5 -65 18 -6 69 17 69 31 0 13 -31 64
-39 64 -5 0 -21 -14 -35 -30z"/>
<path d="M2893 4130 c-30 -12 -29 -36 3 -56 28 -19 36 -14 52 34 10 30 9 32
-11 31 -12 0 -32 -4 -44 -9z"/>
<path d="M3213 4128 c-22 -29 -23 -38 -3 -58 28 -28 47 -25 65 9 14 28 14 31
-7 45 -27 19 -42 20 -55 4z"/>
<path d="M2103 4110 c-37 -15 -24 -70 17 -70 31 0 42 16 35 49 -7 32 -15 36
-52 21z"/>
<path d="M2976 4105 c-9 -9 -16 -21 -16 -26 0 -12 37 -49 50 -49 14 0 43 61
33 70 -19 18 -51 20 -67 5z"/>
<path d="M3456 4104 c-9 -8 -16 -22 -16 -29 0 -13 45 -55 59 -55 8 0 45 60 39
64 -21 16 -54 36 -60 36 -3 0 -14 -7 -22 -16z"/>
<path d="M1774 4076 c-24 -20 -27 -28 -18 -43 14 -23 57 -28 73 -9 14 17 3 67
-16 73 -6 2 -24 -7 -39 -21z"/>
<path d="M3302 4078 c-19 -19 -14 -46 13 -64 24 -16 27 -16 45 1 25 22 25 37
2 58 -22 20 -43 22 -60 5z"/>
<path d="M2002 4071 c-8 -4 -12 -19 -10 -32 2 -19 10 -25 36 -27 37 -4 50 15
32 47 -11 22 -35 27 -58 12z"/>
<path d="M2340 4065 c-102 -19 -237 -55 -256 -70 -13 -9 -15 -18 -7 -41 12
-36 28 -36 146 -1 49 15 138 31 200 37 62 6 116 15 120 19 5 5 7 21 5 37 -3
28 -4 29 -68 31 -36 1 -99 -5 -140 -12z"/>
<path d="M2574 4067 c-3 -8 -4 -26 -2 -39 3 -20 10 -24 58 -30 184 -22 224
-30 311 -57 53 -17 103 -31 111 -31 23 0 42 50 26 66 -35 35 -267 92 -410 101
-74 5 -88 3 -94 -10z"/>
<path d="M3067 4074 c-23 -23 5 -74 41 -74 10 0 35 60 29 67 -8 8 -63 14 -70
7z"/>
<path d="M1536 4049 c-28 -22 -33 -48 -14 -67 19 -19 42 -14 67 12 23 24 23
25 5 50 -23 31 -25 31 -58 5z"/>
<path d="M1916 4031 c-24 -25 -27 -33 -16 -46 13 -16 43 -19 72 -7 16 7 16 10
-5 45 l-23 37 -28 -29z"/>
<path d="M1686 4020 c-14 -17 -23 -37 -20 -45 9 -23 41 -27 68 -10 24 16 25
18 11 45 -22 42 -30 43 -59 10z"/>
<path d="M3540 4031 c-13 -25 -5 -46 26 -66 23 -15 25 -14 49 12 l25 28 -26
23 c-31 27 -60 28 -74 3z"/>
<path d="M3161 4027 c-6 -6 -11 -16 -11 -22 0 -13 48 -61 54 -54 8 9 37 71 34
73 -12 11 -67 13 -77 3z"/>
<path d="M3389 4014 c-8 -10 -6 -22 12 -50 l23 -37 28 33 c15 19 28 37 28 41
0 4 -18 11 -40 17 -31 7 -42 7 -51 -4z"/>
<path d="M1300 3984 c-27 -23 -31 -32 -28 -67 2 -22 8 -42 15 -44 6 -2 37 21
68 52 48 46 55 58 45 70 -19 23 -65 18 -100 -11z"/>
<path d="M1823 3986 c-23 -20 -26 -28 -17 -43 13 -22 46 -28 73 -14 18 10 18
13 5 41 -21 42 -29 44 -61 16z"/>
<path d="M3722 3997 c-23 -13 -22 -14 37 -70 63 -61 75 -66 85 -41 14 38 6 72
-25 98 -33 28 -62 32 -97 13z"/>
<path d="M1446 3979 c-46 -36 -23 -92 31 -73 40 14 49 37 27 67 -23 32 -25 32
-58 6z"/>
<path d="M3252 3984 c-27 -19 -28 -36 -4 -57 26 -24 38 -21 61 11 l20 28 -28
17 c-25 15 -30 15 -49 1z"/>
<path d="M1601 3964 c-23 -29 -25 -42 -12 -63 8 -12 14 -12 43 -1 18 7 35 15
37 16 4 3 -38 74 -44 74 -2 0 -13 -12 -24 -26z"/>
<path d="M2561 3971 c-65 -18 -46 -71 25 -71 l44 0 0 40 c0 43 -10 48 -69 31z"/>
<path d="M3632 3968 c-19 -19 -14 -42 12 -67 l24 -22 28 25 29 26 -28 25 c-31
28 -47 31 -65 13z"/>
<path d="M1937 3932 c-96 -50 -199 -120 -270 -183 -48 -43 -55 -53 -47 -70 25
-46 42 -42 139 35 50 40 128 93 171 117 146 80 142 77 134 102 -15 47 -33 47
-127 -1z"/>
<path d="M2402 3958 c-16 -16 -15 -43 3 -58 9 -8 28 -10 55 -5 38 6 40 9 40
41 0 33 -1 34 -43 34 -24 0 -48 -5 -55 -12z"/>
<path d="M2660 3955 c-7 -8 -10 -25 -6 -39 5 -19 14 -24 48 -29 24 -3 43 -5
44 -4 1 1 5 18 9 38 6 32 4 37 -17 42 -38 11 -65 8 -78 -8z"/>
<path d="M3482 3958 c-17 -17 -15 -53 3 -68 12 -10 21 -10 41 -2 36 17 42 42
15 64 -27 21 -42 23 -59 6z"/>
<path d="M2300 3947 c-58 -29 -23 -84 45 -71 36 6 38 13 19 72 -4 15 -32 15
-64 -1z"/>
<path d="M3104 3935 c-9 -14 -14 -31 -11 -38 3 -7 46 -37 96 -66 50 -29 130
-84 179 -122 48 -38 92 -69 98 -69 6 0 21 11 33 24 l22 23 -53 48 c-29 26 -81
68 -116 93 -65 46 -211 132 -224 132 -4 0 -15 -11 -24 -25z"/>
<path d="M1740 3930 c-34 -34 -7 -69 43 -56 33 8 34 26 3 55 l-24 23 -22 -22z"/>
<path d="M2798 3939 c-21 -12 -23 -42 -5 -58 8 -6 28 -14 44 -17 28 -6 32 -3
43 31 7 20 10 38 8 39 -11 10 -76 14 -90 5z"/>
<path d="M3336 3931 c-23 -26 -20 -50 10 -63 23 -11 28 -9 44 12 20 26 14 42
-20 60 -13 7 -22 4 -34 -9z"/>
<path d="M1361 3890 c-18 -33 -20 -44 -11 -55 18 -22 43 -18 69 9 l23 24 -29
32 -28 32 -24 -42z"/>
<path d="M2178 3914 c-36 -19 -39 -61 -5 -69 25 -6 76 6 78 18 1 4 -1 21 -5
37 -6 34 -25 38 -68 14z"/>
<path d="M1513 3886 c-9 -19 -13 -41 -10 -50 9 -22 43 -20 67 4 l21 21 -23 29
c-13 16 -26 29 -31 29 -4 1 -15 -14 -24 -33z"/>
<path d="M2916 3908 c-35 -20 -9 -70 45 -83 24 -6 28 -3 39 30 7 20 10 37 8
39 -17 12 -78 22 -92 14z"/>
<path d="M1661 3874 c-24 -30 -24 -33 -12 -53 6 -10 19 -12 45 -7 19 4 37 10
40 14 2 4 -9 22 -24 40 l-28 33 -21 -27z"/>
<path d="M3568 3889 c-24 -13 -23 -30 3 -63 l22 -27 28 27 29 28 -22 23 c-24
25 -34 27 -60 12z"/>
<path d="M3717 3882 c-15 -16 -15 -20 4 -51 l20 -34 30 29 30 29 -26 22 c-32
28 -37 28 -58 5z"/>
<path d="M2075 3880 c-30 -12 -47 -36 -43 -62 4 -29 26 -33 71 -14 35 14 35
15 25 50 -12 37 -19 41 -53 26z"/>
<path d="M3411 3866 c-13 -16 -9 -28 17 -59 15 -16 17 -16 44 10 40 39 40 39
-33 59 -9 2 -22 -2 -28 -10z"/>
<path d="M2432 3854 c-15 -10 -22 -24 -20 -37 2 -18 11 -23 46 -25 l42 -3 0
40 c0 36 -3 41 -23 41 -12 0 -33 -7 -45 -16z"/>
<path d="M2532 3858 c-30 -30 -5 -68 44 -68 27 0 32 4 38 31 3 17 6 35 6 40 0
13 -74 11 -88 -3z"/>
<path d="M3020 3851 c-14 -28 -4 -45 36 -64 19 -10 36 -17 38 -17 2 0 13 15
24 34 l20 33 -34 17 c-46 21 -71 20 -84 -3z"/>
<path d="M2327 3839 c-54 -29 -47 -53 17 -57 47 -3 48 -2 42 20 -3 13 -6 31
-6 41 0 21 -6 21 -53 -4z"/>
<path d="M2650 3845 c-18 -22 -8 -49 24 -60 24 -8 31 -6 47 14 10 13 19 32 19
42 0 15 -7 19 -39 19 -21 0 -44 -6 -51 -15z"/>
<path d="M1436 3821 c-23 -25 -17 -65 10 -69 11 -2 32 6 45 17 l24 19 -24 26
c-29 31 -33 32 -55 7z"/>
<path d="M1952 3820 c-25 -15 -32 -27 -32 -50 0 -25 4 -30 25 -30 15 0 39 7
56 15 28 15 29 16 14 45 -21 40 -27 42 -63 20z"/>
<path d="M2765 3824 c-18 -19 -11 -30 34 -57 31 -18 31 -18 40 5 25 69 26 68
-18 68 -23 0 -46 -7 -56 -16z"/>
<path d="M1276 3808 c-20 -28 -20 -43 0 -62 20 -20 27 -20 55 3 l22 18 -22 32
c-27 37 -35 38 -55 9z"/>
<path d="M1582 3807 c-27 -29 -20 -57 13 -57 57 0 70 23 32 58 l-23 22 -22
-23z"/>
<path d="M2223 3818 c-39 -10 -47 -21 -39 -54 5 -17 13 -24 32 -24 44 0 61 15
56 50 -5 37 -9 39 -49 28z"/>
<path d="M3489 3804 c-11 -13 -10 -21 6 -50 18 -33 19 -34 38 -17 38 35 40 51
8 68 -37 18 -36 19 -52 -1z"/>
<path d="M3637 3813 c-14 -13 -7 -50 12 -67 19 -17 21 -17 50 5 17 13 31 26
31 29 0 7 -65 40 -79 40 -4 0 -11 -3 -14 -7z"/>
<path d="M2877 3803 c-15 -15 -5 -43 22 -62 16 -12 33 -21 38 -21 12 0 34 70
27 82 -6 10 -78 11 -87 1z"/>
<path d="M3146 3797 c-15 -11 -16 -17 -6 -39 10 -21 46 -48 65 -48 2 0 13 13
25 30 l21 30 -33 20 c-39 23 -48 24 -72 7z"/>
<path d="M3791 3796 c-9 -11 -8 -22 6 -50 9 -20 20 -36 24 -36 4 0 21 11 36
24 l28 24 -24 26 c-27 29 -53 33 -70 12z"/>
<path d="M2098 3774 c-19 -10 -28 -23 -28 -39 0 -34 28 -46 68 -30 37 16 35
12 21 54 -12 35 -21 37 -61 15z"/>
<path d="M1836 3749 c-20 -15 -26 -29 -24 -48 4 -34 44 -40 80 -11 26 20 26
21 10 50 -20 36 -31 37 -66 9z"/>
<path d="M2540 3752 c-38 -31 -4 -84 43 -66 22 8 33 64 16 75 -21 13 -34 11
-59 -9z"/>
<path d="M2980 3755 c-17 -20 -4 -50 27 -64 25 -12 30 -10 51 15 l24 28 -22
18 c-27 22 -63 23 -80 3z"/>
<path d="M1361 3734 c-16 -20 -18 -31 -10 -45 13 -26 54 -24 73 3 15 20 14 24
-6 45 -27 29 -32 29 -57 -3z"/>
<path d="M1505 3731 c-13 -27 -13 -31 1 -45 21 -21 37 -20 59 4 18 20 18 21
-5 45 -30 32 -36 31 -55 -4z"/>
<path d="M2347 3734 c-25 -17 -36 -31 -33 -41 3 -8 6 -17 6 -19 0 -2 18 -4 40
-4 35 0 40 3 39 23 -1 12 -4 32 -7 45 l-7 22 -38 -26z"/>
<path d="M2432 3748 c-17 -17 -15 -55 4 -62 9 -3 27 -6 40 -6 21 0 24 4 24 40
0 37 -2 40 -28 40 -15 0 -33 -5 -40 -12z"/>
<path d="M1211 3724 c-26 -33 -26 -46 -1 -69 20 -18 21 -18 50 10 17 16 30 32
30 35 0 3 -13 16 -29 28 l-30 22 -20 -26z"/>
<path d="M2626 3734 c-8 -21 -8 -20 10 -38 8 -9 29 -16 45 -16 27 0 29 3 29
35 0 34 -1 35 -39 35 -26 0 -41 -5 -45 -16z"/>
<path d="M3562 3738 c-18 -18 -15 -43 8 -63 20 -18 21 -18 45 5 32 30 31 36
-5 55 -35 18 -33 18 -48 3z"/>
<path d="M1997 3720 c-30 -24 -35 -51 -12 -70 13 -11 22 -10 51 3 33 16 34 17
21 49 -16 40 -27 44 -60 18z"/>
<path d="M2742 3728 c-28 -28 -2 -72 39 -66 28 4 49 56 28 69 -20 12 -53 11
-67 -3z"/>
<path d="M3258 3729 c-25 -14 -22 -36 7 -64 31 -32 48 -31 70 2 18 26 17 27
-9 50 -30 25 -42 28 -68 12z"/>
<path d="M3710 3725 c-11 -13 -10 -22 3 -51 l17 -35 30 23 c35 25 37 38 12 61
-23 21 -46 22 -62 2z"/>
<path d="M2226 3704 c-32 -32 -11 -64 41 -64 36 0 40 10 23 54 -11 30 -40 34
-64 10z"/>
<path d="M2851 3704 c-11 -8 -21 -21 -21 -29 0 -12 49 -55 63 -55 5 0 27 57
27 70 0 4 -11 12 -24 18 -18 8 -28 7 -45 -4z"/>
<path d="M3090 3705 c-18 -21 -8 -47 23 -65 27 -14 29 -14 48 9 25 31 24 38
-11 56 -36 19 -44 19 -60 0z"/>
<path d="M3862 3708 c-17 -17 -15 -42 6 -68 17 -21 18 -21 50 -3 38 21 38 23
11 57 -22 28 -48 33 -67 14z"/>
<path d="M1736 3670 c-48 -58 -13 -105 48 -64 32 20 33 35 3 70 l-23 27 -28
-33z"/>
<path d="M1441 3664 c-27 -34 -13 -67 26 -62 39 5 50 30 27 61 -24 33 -28 33
-53 1z"/>
<path d="M2143 3675 c-33 -14 -39 -28 -27 -59 8 -21 58 -21 74 -1 11 13 11 21
-1 45 -14 28 -15 28 -46 15z"/>
<path d="M1290 3645 c-12 -38 -7 -55 17 -55 16 0 73 31 73 40 0 5 -66 50 -74
50 -2 0 -10 -16 -16 -35z"/>
<path d="M1884 3645 c-20 -20 -23 -28 -14 -45 14 -27 51 -25 78 3 20 21 20 23
2 45 -23 28 -35 28 -66 -3z"/>
<path d="M2368 3636 c-70 -17 -133 -36 -139 -42 -15 -16 -3 -52 20 -59 22 -7
279 39 293 53 5 5 8 22 6 38 -5 43 -36 45 -180 10z"/>
<path d="M2936 3654 c-10 -26 -7 -32 23 -53 l29 -21 21 36 c12 19 19 40 16 45
-10 16 -82 11 -89 -7z"/>
<path d="M3623 3654 c-3 -9 1 -29 9 -46 l14 -30 33 28 33 28 -22 18 c-27 22
-59 23 -67 2z"/>
<path d="M1521 3600 c-27 -32 -63 -79 -79 -102 -45 -66 -122 -206 -122 -221 0
-8 12 -19 27 -26 33 -15 29 -19 106 113 29 49 83 127 120 173 66 81 68 85 51
104 -28 31 -50 22 -103 -41z"/>
<path d="M2583 3654 c-15 -7 -17 -60 -3 -69 6 -4 74 -20 153 -36 l142 -29 18
21 c22 28 22 36 -6 54 -47 30 -270 74 -304 59z"/>
<path d="M3352 3648 c-18 -18 -14 -42 11 -66 29 -28 38 -28 66 2 l22 23 -31
27 c-35 29 -50 32 -68 14z"/>
<path d="M3512 3644 c-12 -8 -22 -21 -22 -29 0 -8 33 -57 74 -109 40 -52 93
-129 116 -173 64 -116 82 -131 123 -100 16 11 15 18 -21 92 -22 44 -61 112
-87 150 -51 75 -143 185 -154 185 -3 0 -17 -7 -29 -16z"/>
<path d="M3776 3644 c-20 -19 -20 -24 0 -52 19 -27 31 -27 64 -2 l25 19 -24
25 c-28 30 -43 32 -65 10z"/>
<path d="M1146 3628 c-25 -35 -20 -67 11 -74 20 -6 31 -2 45 16 24 30 23 45
-7 64 -31 20 -31 20 -49 -6z"/>
<path d="M3183 3639 c-9 -9 -6 -21 15 -50 15 -21 29 -38 32 -38 3 0 18 16 33
35 l29 34 -27 10 c-49 19 -70 21 -82 9z"/>
<path d="M2037 3622 c-23 -25 -21 -49 4 -63 23 -12 69 1 69 19 0 12 -40 62
-49 62 -4 0 -15 -8 -24 -18z"/>
<path d="M3030 3611 c-15 -29 -13 -39 16 -58 26 -17 27 -16 51 12 l25 29 -22
18 c-29 23 -57 23 -70 -1z"/>
<path d="M3931 3611 c-21 -21 -19 -52 5 -72 11 -9 21 -8 44 1 32 13 35 21 20
50 -18 34 -47 43 -69 21z"/>
<path d="M1374 3576 c-10 -58 14 -73 57 -36 l24 20 -28 25 c-37 33 -45 32 -53
-9z"/>
<path d="M1642 3577 c-25 -26 -32 -40 -27 -55 10 -35 43 -37 76 -6 35 33 35
36 7 69 l-23 26 -33 -34z"/>
<path d="M1802 3587 c-25 -27 -29 -65 -7 -73 16 -7 72 12 81 27 5 9 -35 69
-46 69 -4 0 -16 -10 -28 -23z"/>
<path d="M1232 3557 c-18 -70 20 -86 70 -30 16 17 14 19 -22 45 l-38 28 -10
-43z"/>
<path d="M1956 3569 c-29 -23 -34 -50 -12 -68 11 -9 22 -9 50 3 l36 15 -21 35
c-12 20 -22 36 -24 36 -1 0 -14 -9 -29 -21z"/>
<path d="M3686 3582 c-3 -5 -1 -25 5 -45 l10 -37 40 27 40 26 -28 18 c-30 20
-58 24 -67 11z"/>
<path d="M2052 3501 c-150 -101 -153 -104 -120 -138 l26 -25 131 86 c88 58
131 93 131 105 0 17 -29 51 -43 51 -3 0 -59 -36 -125 -79z"/>
<path d="M2925 3550 c-12 -23 -13 -35 -5 -44 5 -8 62 -48 126 -91 l115 -78 26
25 c14 14 22 31 18 37 -5 9 -199 143 -252 175 -8 4 -18 -5 -28 -24z"/>
<path d="M3277 3573 c-13 -13 -7 -50 11 -66 25 -22 34 -21 60 6 l22 23 -23 22
c-23 21 -57 29 -70 15z"/>
<path d="M3122 3558 c-17 -17 -15 -42 6 -61 25 -23 34 -21 63 9 l24 26 -24 19
c-27 22 -52 24 -69 7z"/>
<path d="M3430 3549 c-9 -17 -7 -26 15 -55 14 -19 29 -34 33 -34 4 1 20 11 35
24 l28 23 -26 31 c-31 37 -69 42 -85 11z"/>
<path d="M3842 3558 c-15 -15 -15 -29 -2 -63 l10 -26 42 22 42 21 -35 29 c-39
33 -41 33 -57 17z"/>
<path d="M1084 3514 c-4 -27 -2 -50 4 -56 16 -16 45 -5 62 25 14 26 14 28 -15
52 -16 13 -33 24 -37 25 -4 0 -10 -21 -14 -46z"/>
<path d="M2408 3540 c-110 -19 -300 -104 -351 -157 l-27 -29 62 -22 c39 -14
104 -53 172 -102 59 -44 112 -78 116 -75 4 2 10 37 14 77 10 102 32 192 61
250 23 45 25 70 7 67 -4 -1 -28 -5 -54 -9z m-73 -145 c14 -13 25 -30 25 -38 0
-25 -41 -67 -65 -67 -24 0 -65 42 -65 67 0 19 45 63 65 63 9 0 27 -11 40 -25z"/>
<path d="M2271 3377 c-24 -26 -20 -53 9 -62 45 -14 69 35 32 68 -17 16 -20 15
-41 -6z"/>
<path d="M2501 3515 c-35 -41 -53 -95 -78 -240 -21 -124 -19 -127 67 -123 l55
3 3 98 c4 125 22 128 22 3 0 -105 1 -106 75 -106 62 0 68 12 55 114 -29 236
-116 345 -199 251z"/>
<path d="M2640 3547 c0 -4 13 -40 29 -80 29 -73 43 -136 56 -249 3 -32 10 -60
15 -63 4 -2 41 21 81 54 89 70 146 103 219 126 l54 18 -38 33 c-76 66 -260
146 -367 160 -27 4 -49 4 -49 1z m237 -163 c15 -23 15 -29 2 -52 -21 -37 -43
-48 -76 -36 -65 23 -48 114 22 114 26 0 39 -6 52 -26z"/>
<path d="M2792 3374 c-23 -41 14 -75 54 -49 18 12 22 20 15 38 -10 28 -55 35
-69 11z"/>
<path d="M3985 3517 c-13 -10 -16 -21 -12 -38 12 -44 22 -52 53 -42 35 12 41
35 20 68 -19 28 -34 31 -61 12z"/>
<path d="M1320 3506 c-6 -8 -10 -25 -8 -38 4 -33 51 -37 72 -6 15 21 15 24 -6
40 -28 22 -42 22 -58 4z"/>
<path d="M1711 3494 c-25 -32 -26 -38 -5 -58 20 -21 26 -20 58 5 33 26 33 33
-3 58 l-29 21 -21 -26z"/>
<path d="M1864 3489 c-14 -28 -14 -33 -1 -47 19 -18 62 -9 71 14 6 17 -28 64
-45 64 -5 0 -16 -14 -25 -31z"/>
<path d="M1557 3475 c-21 -44 -21 -59 -3 -74 19 -16 47 -2 71 35 18 27 17 28
-9 51 -15 13 -31 23 -35 23 -4 0 -15 -16 -24 -35z"/>
<path d="M3745 3499 c-4 -6 -4 -26 -1 -45 l7 -34 42 21 41 22 -28 23 c-29 26
-51 30 -61 13z"/>
<path d="M1175 3459 c-7 -39 2 -58 26 -59 11 0 59 41 59 50 0 8 -61 50 -73 50
-3 0 -8 -19 -12 -41z"/>
<path d="M3200 3481 c-14 -26 -13 -27 12 -51 l22 -20 28 27 c15 15 28 30 28
34 0 7 -54 29 -71 29 -5 0 -13 -9 -19 -19z"/>
<path d="M3362 3488 c-17 -17 -15 -39 7 -67 15 -19 21 -21 38 -13 11 6 26 18
33 28 13 14 11 19 -13 40 -31 27 -47 30 -65 12z"/>
<path d="M964 3476 c-50 -22 -66 -87 -34 -136 16 -24 38 -2 70 70 21 47 25 67
17 72 -15 10 -16 10 -53 -6z"/>
<path d="M3898 3469 c-22 -12 -23 -52 -3 -69 16 -13 66 -2 72 16 4 11 -34 64
-45 64 -4 0 -15 -5 -24 -11z"/>
<path d="M3520 3455 c-14 -16 -7 -50 14 -78 14 -18 16 -18 45 -1 37 22 38 33
6 68 -27 29 -47 33 -65 11z"/>
<path d="M1034 3426 c-18 -72 29 -104 66 -44 l20 33 -33 17 c-42 23 -46 22
-53 -6z"/>
<path d="M1791 3424 c-25 -31 -24 -52 2 -68 19 -12 43 -2 61 27 9 13 5 22 -15
43 l-26 26 -22 -28z"/>
<path d="M1266 3408 c-4 -22 -2 -37 9 -47 13 -13 18 -13 42 5 38 29 38 38 -2
57 -20 9 -37 17 -39 17 -2 0 -6 -14 -10 -32z"/>
<path d="M1641 3414 c-27 -34 -27 -60 0 -74 16 -9 26 -8 43 4 35 22 37 48 5
74 l-27 22 -21 -26z"/>
<path d="M3280 3415 c-15 -18 -6 -61 15 -69 17 -6 65 20 65 35 0 14 -38 49
-54 49 -7 0 -19 -7 -26 -15z"/>
<path d="M3802 3418 c-14 -14 -16 -47 -3 -66 6 -11 15 -10 45 4 l36 18 -27 28
c-30 32 -34 33 -51 16z"/>
<path d="M4048 3422 c-13 -2 -18 -13 -18 -40 0 -55 9 -64 48 -50 33 13 40 34
22 67 -11 22 -28 29 -52 23z"/>
<path d="M4133 3422 c-17 -11 40 -158 59 -154 23 5 38 35 38 73 0 29 -7 43
-31 63 -32 27 -46 31 -66 18z"/>
<path d="M3432 3398 c-17 -17 -15 -39 8 -68 18 -24 20 -25 47 -8 36 22 38 29
13 61 -23 29 -49 34 -68 15z"/>
<path d="M1127 3363 c-7 -42 -3 -53 22 -53 16 0 61 39 61 53 0 7 -54 37 -68
37 -5 0 -12 -16 -15 -37z"/>
<path d="M1486 3375 c-20 -30 -21 -59 -1 -75 20 -17 48 -5 68 29 17 29 17 30
-9 50 -34 27 -38 26 -58 -4z"/>
<path d="M3930 3365 c-11 -13 -10 -22 3 -50 16 -34 16 -34 47 -19 34 17 37 30
14 62 -18 26 -46 29 -64 7z"/>
<path d="M1727 3352 c-22 -24 -22 -68 -1 -76 18 -7 90 33 77 43 -4 3 -20 16
-34 29 -25 22 -26 22 -42 4z"/>
<path d="M1857 3338 c-74 -101 -147 -214 -147 -228 0 -22 20 -40 45 -40 14 1
43 34 102 122 86 127 90 143 43 168 -16 8 -23 5 -43 -22z"/>
<path d="M3199 3349 c-6 -12 -9 -28 -6 -38 9 -34 158 -251 173 -251 33 0 56
21 50 45 -16 65 -161 265 -191 265 -8 0 -19 -9 -26 -21z"/>
<path d="M3587 3353 c-11 -11 -8 -42 8 -73 l15 -30 35 17 c19 9 35 19 35 22 0
3 -9 21 -20 39 -19 30 -55 43 -73 25z"/>
<path d="M1223 3324 c-31 -48 28 -90 61 -42 22 31 21 35 -14 53 -28 15 -30 14
-47 -11z"/>
<path d="M1571 3302 c-5 -26 -6 -51 -2 -55 16 -16 55 -2 71 25 14 25 13 28 -5
43 -50 39 -53 38 -64 -13z"/>
<path d="M3350 3335 c-12 -14 -6 -70 9 -79 9 -6 71 33 71 44 0 8 -53 50 -63
50 -2 0 -10 -7 -17 -15z"/>
<path d="M990 3320 c-6 -12 -10 -33 -8 -48 2 -21 9 -28 30 -30 21 -3 30 3 42
27 15 29 15 30 -10 50 -33 26 -41 26 -54 1z"/>
<path d="M3842 3328 c-14 -14 -16 -47 -4 -66 7 -10 16 -9 45 3 40 17 41 34 2
59 -29 19 -28 19 -43 4z"/>
<path d="M1977 3310 c-34 -27 -35 -64 -3 -143 26 -62 84 -153 121 -187 l23
-22 12 36 c12 37 44 56 63 37 6 -6 15 -11 19 -11 19 0 5 27 -34 67 -60 61 -39
65 25 4 30 -28 56 -51 59 -51 10 0 88 80 88 89 0 19 -137 123 -205 156 -95 47
-133 52 -168 25z"/>
<path d="M3045 3316 c-92 -29 -255 -139 -272 -183 -6 -15 37 -67 70 -85 15 -8
28 0 73 42 65 62 87 59 26 -3 -39 -40 -53 -67 -34 -67 4 0 13 5 19 11 18 18
41 3 60 -35 20 -43 26 -40 95 58 43 62 88 170 88 213 0 20 -46 63 -67 62 -10
0 -36 -6 -58 -13z"/>
<path d="M4087 3309 c-19 -11 -23 -59 -6 -76 6 -6 24 -7 42 -3 31 6 36 17 22
57 -7 20 -39 32 -58 22z"/>
<path d="M3490 3290 c-8 -16 -7 -27 7 -50 20 -35 18 -34 60 -12 l32 17 -25 33
c-29 37 -58 41 -74 12z"/>
<path d="M1090 3280 c-26 -49 -1 -83 46 -62 36 17 33 57 -6 70 -25 9 -31 8
-40 -8z"/>
<path d="M1420 3260 c-7 -16 -9 -41 -6 -55 10 -40 56 -31 78 15 l16 35 -31 17
c-42 23 -43 23 -57 -12z"/>
<path d="M1665 3263 c-4 -15 -8 -36 -10 -46 -6 -30 29 -40 59 -16 14 11 26 24
26 29 0 4 -16 20 -35 34 l-34 27 -6 -28z"/>
<path d="M3972 3264 c-10 -18 -4 -61 9 -70 5 -3 9 0 9 7 0 7 10 9 30 6 24 -5
30 -3 30 11 0 47 -58 81 -78 46z"/>
<path d="M3406 3244 c-20 -19 -20 -35 -2 -59 12 -16 17 -17 45 -6 35 15 40 40
13 64 -23 21 -36 21 -56 1z"/>
<path d="M1184 3236 c-11 -30 1 -61 24 -64 50 -7 73 51 26 68 -34 13 -44 13
-50 -4z"/>
<path d="M1881 3208 c-67 -88 -151 -301 -151 -385 0 -28 10 -29 58 -4 58 29
139 50 236 61 50 6 92 12 94 14 6 7 -19 47 -64 103 -48 59 -107 169 -119 221
-3 17 -10 32 -14 32 -4 0 -22 -19 -40 -42z m87 -180 c7 -7 12 -25 12 -42 0
-59 -59 -87 -100 -46 -24 24 -25 48 -4 78 17 25 71 31 92 10z"/>
<path d="M1897 2999 c-26 -37 4 -70 44 -48 14 7 19 19 17 37 -4 35 -40 42 -61
11z"/>
<path d="M3176 3190 c-17 -57 -58 -125 -148 -247 -18 -24 -29 -45 -26 -48 3
-4 52 -13 108 -20 56 -8 140 -28 188 -45 47 -16 88 -30 89 -30 9 0 0 65 -18
130 -27 97 -91 229 -138 281 l-36 41 -19 -62z m69 -174 c32 -49 -11 -107 -68
-92 -15 3 -30 18 -37 36 -10 25 -10 34 4 55 23 35 79 35 101 1z"/>
<path d="M3167 3013 c-15 -14 -7 -62 12 -68 40 -12 70 20 51 56 -10 18 -50 26
-63 12z"/>
<path d="M3646 3234 c-10 -25 -7 -59 7 -77 10 -15 17 -16 45 -6 38 13 41 35
11 73 -23 29 -54 34 -63 10z"/>
<path d="M3875 3234 c-10 -10 -13 -24 -9 -38 10 -33 18 -37 52 -25 27 9 32 15
26 33 -14 47 -40 58 -69 30z"/>
<path d="M956 3232 c-2 -4 -7 -21 -10 -38 -9 -40 21 -71 52 -55 22 12 37 45
27 60 -8 14 -64 40 -69 33z"/>
<path d="M1292 3223 c-41 -78 -92 -311 -92 -423 0 -66 7 -80 40 -80 20 0 40
34 40 68 0 73 30 234 61 328 19 55 28 99 23 104 -5 5 -21 12 -36 15 -20 5 -29
2 -36 -12z"/>
<path d="M1522 3219 c-29 -46 -3 -101 38 -79 21 11 41 49 33 63 -2 4 -17 14
-32 21 -25 13 -28 13 -39 -5z"/>
<path d="M3558 3199 c-21 -12 -23 -48 -4 -74 12 -16 17 -17 45 -6 36 16 39 29
10 65 -23 29 -26 30 -51 15z"/>
<path d="M3780 3192 l-23 -18 20 -55 c30 -80 43 -145 56 -271 l12 -113 40 0
40 0 -3 65 c-7 154 -69 402 -103 408 -9 2 -26 -6 -39 -16z"/>
<path d="M4115 3197 c-14 -11 -16 -21 -11 -51 7 -36 8 -37 39 -31 54 12 57 17
31 58 -27 41 -32 43 -59 24z"/>
<path d="M1057 3192 c-15 -26 -15 -62 -1 -76 8 -9 19 -16 24 -16 11 0 50 51
50 65 -1 12 -68 37 -73 27z"/>
<path d="M1608 3154 c-25 -53 36 -88 68 -39 17 27 17 28 -7 46 -33 25 -47 24
-61 -7z"/>
<path d="M4004 3166 c-3 -8 -4 -25 -2 -38 2 -19 10 -24 41 -26 32 -3 37 0 37
18 0 35 -19 60 -46 60 -13 0 -27 -6 -30 -14z"/>
<path d="M1372 3131 c-16 -52 -15 -59 8 -71 29 -15 54 2 67 45 11 34 10 36
-17 50 -41 21 -45 20 -58 -24z"/>
<path d="M1150 3125 c0 -62 47 -66 80 -6 8 15 3 20 -29 30 -52 15 -51 16 -51
-24z"/>
<path d="M3449 3148 c-2 -19 2 -73 6 -76 1 -2 21 5 43 14 l41 16 -21 29 c-22
30 -67 40 -69 17z"/>
<path d="M3913 3143 c-7 -2 -13 -20 -13 -39 0 -29 3 -34 23 -34 13 0 31 6 40
13 14 10 15 16 4 37 -13 25 -31 33 -54 23z"/>
<path d="M1472 3098 c-10 -34 2 -68 26 -76 16 -5 54 37 50 56 -2 9 -17 24 -35
35 l-32 18 -9 -33z"/>
<path d="M2417 3121 c-77 -16 -45 -21 144 -21 151 1 190 3 174 12 -23 14 -263
21 -318 9z"/>
<path d="M3692 3118 c-15 -15 -15 -40 -1 -71 9 -21 15 -23 47 -17 30 5 36 10
34 25 -11 60 -51 92 -80 63z"/>
<path d="M920 3083 c0 -71 39 -84 70 -24 22 44 21 46 -33 56 l-37 7 0 -39z"/>
<path d="M3591 3086 c-8 -9 -10 -28 -5 -51 6 -34 8 -36 38 -29 54 11 59 24 25
68 -23 29 -41 33 -58 12z"/>
<path d="M4142 3088 c-14 -14 -16 -57 -4 -76 6 -8 19 -10 40 -6 27 5 32 11 32
35 0 46 -41 74 -68 47z"/>
<path d="M1026 3074 c-22 -56 16 -102 54 -64 30 30 26 56 -11 69 -39 14 -36
14 -43 -5z"/>
<path d="M1572 3043 c4 -59 26 -68 62 -26 28 32 26 36 -27 58 l-38 16 3 -48z"/>
<path d="M2338 3073 c-31 -8 -20 -21 24 -28 26 -5 50 -17 65 -34 12 -14 31
-36 42 -48 38 -44 147 -42 185 4 45 53 56 62 98 74 53 16 56 18 38 29 -15 10
-419 12 -452 3z"/>
<path d="M1675 3038 c-26 -64 -47 -164 -49 -233 l-1 -70 35 0 c41 0 38 -7 73
178 l24 128 -28 15 c-38 19 -38 19 -54 -18z"/>
<path d="M3492 3058 c-13 -13 -16 -64 -4 -71 4 -3 22 -2 40 0 25 4 32 10 32
28 0 42 -42 69 -68 43z"/>
<path d="M4032 3054 c-5 -9 -7 -27 -4 -40 4 -22 9 -25 41 -22 33 3 36 5 34 32
-3 44 -52 64 -71 30z"/>
<path d="M1125 3034 c11 -50 14 -54 34 -54 18 0 59 55 49 65 -2 2 -23 7 -46
11 l-43 7 6 -29z"/>
<path d="M1336 3011 c-3 -22 -3 -46 0 -54 12 -33 59 -30 69 4 3 10 8 28 11 39
4 16 -2 23 -30 35 -19 8 -37 15 -39 15 -3 0 -7 -18 -11 -39z"/>
<path d="M3385 3036 c-19 -14 -19 -16 5 -138 33 -169 32 -168 75 -168 43 0 43
6 16 160 -29 160 -44 184 -96 146z"/>
<path d="M3923 3034 c-10 -26 11 -49 43 -49 32 0 44 26 24 50 -17 20 -59 19
-67 -1z"/>
<path d="M2264 3016 c-42 -19 -64 -53 -64 -98 0 -21 -4 -38 -10 -38 -6 0 -10
30 -10 71 0 44 -4 68 -10 64 -5 -3 -10 -42 -10 -86 0 -64 3 -81 16 -86 27 -10
48 11 56 58 14 82 97 118 148 64 28 -29 50 -32 50 -7 0 51 -103 87 -166 58z"/>
<path d="M2734 3016 c-30 -13 -44 -33 -44 -62 0 -21 15 -17 48 11 57 48 135
20 148 -53 11 -70 13 -73 47 -70 29 3 33 7 40 49 9 48 -6 129 -23 129 -5 0
-10 -33 -12 -72 -3 -75 -7 -75 -27 0 -7 25 -22 49 -37 58 -33 22 -102 27 -140
10z"/>
<path d="M897 2978 c-10 -67 39 -94 68 -38 24 47 24 47 -46 66 -12 3 -18 -4
-22 -28z"/>
<path d="M1436 2975 c-8 -43 5 -65 39 -65 18 0 26 9 35 36 14 41 8 51 -37 60
-29 6 -31 4 -37 -31z"/>
<path d="M3721 2996 c-13 -15 -6 -82 9 -91 4 -3 22 -2 39 1 26 6 31 11 31 35
0 30 -30 69 -54 69 -7 0 -19 -6 -25 -14z"/>
<path d="M1005 2972 c-15 -39 5 -82 39 -82 10 0 37 62 33 75 -8 18 -65 25 -72
7z"/>
<path d="M3622 2978 c-14 -14 -16 -57 -3 -77 6 -10 19 -12 45 -7 32 6 36 10
30 29 -17 58 -47 80 -72 55z"/>
<path d="M1546 2964 c-19 -50 12 -98 47 -71 22 17 30 52 15 64 -26 21 -55 24
-62 7z"/>
<path d="M4155 2944 c-3 -20 -5 -37 -3 -39 2 -2 20 -6 41 -10 37 -7 37 -7 37
27 0 39 -15 58 -46 58 -17 0 -23 -8 -29 -36z"/>
<path d="M2275 2945 c-30 -29 -31 -45 -4 -79 40 -51 119 -25 119 39 0 28 -40
65 -69 65 -12 0 -33 -11 -46 -25z m83 -44 c-2 -8 -11 -19 -20 -25 -14 -8 -22
-7 -35 6 -16 16 -16 19 1 37 15 16 21 18 37 8 11 -7 18 -18 17 -26z"/>
<path d="M2751 2944 c-24 -31 -24 -33 -11 -69 19 -50 95 -50 118 0 32 71 -60
129 -107 69z m69 -29 c18 -21 -16 -61 -37 -44 -14 12 -18 41 -6 52 11 12 30 8
43 -8z"/>
<path d="M3526 2957 c-12 -9 -17 -23 -14 -42 3 -27 7 -30 38 -30 32 0 35 3 35
29 0 38 -33 62 -59 43z"/>
<path d="M4052 2958 c-24 -24 -11 -78 18 -78 35 0 50 12 50 39 0 30 -16 51
-40 51 -9 0 -21 -5 -28 -12z"/>
<path d="M1110 2935 c-14 -36 -3 -55 31 -55 23 0 32 6 39 26 13 33 -2 54 -36
54 -17 0 -28 -8 -34 -25z"/>
<path d="M3969 2953 c-17 -4 -29 -31 -29 -65 0 -14 7 -16 38 -11 20 3 39 7 41
9 5 4 -20 63 -28 67 -3 2 -13 2 -22 0z"/>
<path d="M2587 2913 c-11 -10 -8 -171 3 -178 5 -3 10 24 12 67 3 69 4 73 28
76 20 3 23 1 13 -9 -20 -21 -15 -29 17 -29 43 0 56 30 26 59 -22 20 -84 30
-99 14z"/>
<path d="M1310 2898 c0 -7 3 -30 6 -50 5 -30 11 -38 28 -38 32 0 46 19 46 62
0 38 0 38 -40 38 -25 0 -40 -5 -40 -12z"/>
<path d="M2424 2896 c-12 -31 1 -51 34 -54 31 -3 33 -2 22 17 -9 18 -8 21 9
21 24 0 31 -19 31 -86 0 -52 11 -71 24 -38 11 28 6 130 -6 142 -18 18 -107 16
-114 -2z"/>
<path d="M1420 2855 c0 -49 10 -60 45 -51 16 4 26 16 30 37 8 36 7 38 -39 49
l-36 8 0 -43z"/>
<path d="M880 2866 c0 -55 36 -89 64 -60 25 24 21 70 -6 78 -44 11 -58 7 -58
-18z"/>
<path d="M3747 2873 c-4 -3 -7 -25 -7 -49 0 -42 0 -42 41 -46 l41 -4 -7 40
c-3 22 -11 46 -17 53 -11 14 -40 17 -51 6z"/>
<path d="M997 2863 c-4 -3 -7 -19 -7 -34 0 -31 28 -53 54 -43 22 8 31 51 16
69 -13 15 -51 20 -63 8z"/>
<path d="M1524 2856 c-3 -8 -4 -25 -2 -38 2 -18 9 -23 32 -23 23 0 31 6 39 29
7 21 6 30 -4 37 -22 14 -59 11 -65 -5z"/>
<path d="M3642 2858 c-7 -7 -12 -27 -12 -45 0 -32 1 -33 40 -33 36 0 40 2 40
26 0 53 -38 82 -68 52z"/>
<path d="M4176 2862 c-2 -4 -7 -24 -11 -45 l-7 -37 41 0 c40 0 41 1 41 33 0
18 -5 38 -12 45 -13 13 -44 16 -52 4z"/>
<path d="M1097 2853 c-12 -12 -7 -50 8 -63 19 -15 61 -6 69 16 12 32 -3 54
-38 54 -18 0 -36 -3 -39 -7z"/>
<path d="M1913 2840 c-151 -40 -208 -94 -173 -161 14 -25 91 -63 171 -84 86
-23 264 -26 264 -5 0 8 -9 15 -20 15 -16 0 -21 8 -23 40 -5 60 -13 65 -113 65
-53 0 -89 4 -89 10 0 6 36 10 89 10 104 0 114 7 109 77 l-3 48 -70 2 c-44 1
-97 -5 -142 -17z"/>
<path d="M2996 2852 c-4 -7 -3 -67 3 -114 1 -5 41 -8 90 -8 50 0 93 -4 96 -10
4 -6 -26 -10 -82 -10 -101 0 -113 -7 -113 -61 0 -31 -4 -38 -22 -41 -13 -2
-23 -10 -23 -18 0 -12 17 -15 100 -13 131 3 232 26 292 66 62 42 76 77 42 113
-31 34 -104 70 -176 89 -62 16 -198 20 -207 7z"/>
<path d="M3530 2846 c-6 -8 -10 -25 -8 -38 2 -19 10 -24 41 -26 36 -3 37 -2
37 31 0 45 -43 65 -70 33z"/>
<path d="M3962 2848 c-22 -22 -13 -47 21 -62 40 -17 49 -12 41 22 -12 49 -37
65 -62 40z"/>
<path d="M4062 2848 c-7 -7 -12 -25 -12 -40 0 -26 3 -28 39 -28 31 0 40 4 44
22 12 45 -39 78 -71 46z"/>
<path d="M2228 2828 c-26 -20 -32 -62 -13 -82 14 -13 39 -16 146 -16 l130 0
-3 37 c-3 34 -7 39 -48 54 -39 14 -48 15 -78 2 -33 -14 -44 -13 -102 11 -9 4
-23 1 -32 -6z"/>
<path d="M2678 2821 c-48 -16 -65 -41 -52 -75 9 -23 255 -24 278 0 22 21 20
57 -3 78 -19 17 -22 17 -65 1 -41 -16 -47 -16 -77 -1 -18 9 -33 15 -33 15 -1
-1 -22 -9 -48 -18z"/>
<path d="M2952 2808 c-18 -18 -16 -152 3 -168 13 -11 15 -1 15 84 0 53 -1 96
-3 96 -2 0 -8 -5 -15 -12z"/>
<path d="M824 2799 c-28 -10 -54 -47 -54 -77 0 -34 26 -79 50 -85 28 -7 31 5
28 95 -3 72 -4 75 -24 67z"/>
<path d="M2151 2720 c1 -94 1 -95 16 -60 17 39 13 124 -6 143 -8 8 -11 -13
-10 -83z"/>
<path d="M4270 2715 c0 -47 2 -85 5 -85 18 0 55 26 64 47 18 38 13 72 -14 98
-45 46 -55 35 -55 -60z"/>
<path d="M1300 2751 c0 -52 8 -71 30 -71 28 0 50 28 50 65 0 25 -5 34 -22 39
-50 13 -58 8 -58 -33z"/>
<path d="M1406 2765 c-16 -42 6 -85 44 -85 24 0 46 59 28 76 -23 22 -65 27
-72 9z"/>
<path d="M875 2760 c-13 -22 6 -70 31 -76 34 -9 56 12 52 50 -3 28 -7 31 -40
34 -20 2 -39 -2 -43 -8z"/>
<path d="M980 2758 c0 -6 5 -27 12 -45 22 -60 89 -30 74 33 -5 20 -12 24 -46
24 -24 0 -40 -5 -40 -12z"/>
<path d="M1515 2743 c-14 -56 53 -90 77 -39 15 35 5 53 -36 58 -30 3 -36 1
-41 -19z"/>
<path d="M1090 2746 c0 -52 39 -83 68 -54 17 17 15 55 -4 62 -29 11 -64 6 -64
-8z"/>
<path d="M3540 2740 c-37 -37 -20 -76 29 -65 24 5 31 12 31 30 0 20 -23 55
-36 55 -2 0 -13 -9 -24 -20z"/>
<path d="M3652 2744 c-15 -11 -22 -26 -22 -50 0 -33 1 -34 40 -34 40 0 40 0
40 40 0 49 -25 67 -58 44z"/>
<path d="M3965 2744 c-26 -27 -15 -58 21 -62 37 -4 48 15 34 53 -11 29 -32 32
-55 9z"/>
<path d="M4071 2744 c-15 -11 -21 -24 -19 -42 3 -23 8 -27 39 -30 32 -3 37 0
43 23 7 29 3 41 -23 54 -13 7 -24 6 -40 -5z"/>
<path d="M3752 2738 c-7 -7 -12 -29 -12 -50 0 -38 0 -38 40 -38 40 0 40 0 40
38 0 40 -14 62 -40 62 -9 0 -21 -5 -28 -12z"/>
<path d="M4171 2736 c-7 -8 -11 -27 -9 -43 3 -24 8 -28 39 -31 32 -3 37 0 43
23 4 14 2 34 -4 45 -12 23 -52 26 -69 6z"/>
<path d="M1212 2698 c-28 -28 -2 -243 47 -392 24 -75 28 -81 51 -78 50 6 54
22 26 111 -30 94 -56 233 -56 297 0 33 -5 46 -22 58 -27 19 -31 19 -46 4z"/>
<path d="M1630 2700 c-12 -8 -10 -30 15 -162 26 -133 33 -153 50 -156 11 -1
29 4 40 12 19 14 19 16 -8 157 -15 79 -33 147 -40 151 -16 10 -39 10 -57 -2z"/>
<path d="M2213 2698 c3 -10 81 -13 347 -13 266 0 344 3 348 13 3 9 -71 12
-348 12 -277 0 -351 -3 -347 -12z"/>
<path d="M3430 2695 c-7 -9 -19 -41 -25 -73 -10 -45 -13 -50 -14 -24 -1 17 -5
32 -9 32 -5 0 -48 -13 -96 -30 -49 -16 -127 -35 -175 -41 -146 -18 -139 -10
-78 -82 67 -79 120 -167 142 -234 10 -29 21 -53 25 -53 12 0 74 88 104 147 14
29 40 92 56 140 33 99 38 96 14 -9 -17 -76 -15 -84 32 -94 l31 -6 34 134 c35
138 39 186 17 200 -20 12 -44 9 -58 -7z m-185 -209 c32 -49 -10 -107 -68 -93
-31 8 -50 49 -37 81 16 43 80 50 105 12z"/>
<path d="M3167 2484 c-13 -13 -7 -51 9 -65 23 -19 49 1 49 37 0 24 -5 30 -25
32 -14 2 -29 0 -33 -4z"/>
<path d="M3846 2688 c-2 -13 -11 -75 -20 -139 -9 -63 -30 -158 -46 -210 -16
-52 -30 -101 -30 -110 0 -14 38 -39 60 -39 30 0 120 347 120 461 0 42 -15 59
-52 59 -21 0 -29 -6 -32 -22z"/>
<path d="M880 2626 c0 -47 34 -74 62 -49 10 9 18 30 18 50 0 32 -1 33 -40 33
-39 0 -40 -1 -40 -34z"/>
<path d="M987 2653 c-12 -12 -7 -40 11 -63 33 -41 84 -2 67 50 -5 15 -15 20
-39 20 -18 0 -36 -3 -39 -7z"/>
<path d="M1097 2653 c-12 -12 -7 -50 8 -63 19 -15 61 -6 69 16 12 32 -3 54
-38 54 -18 0 -36 -3 -39 -7z"/>
<path d="M1300 2636 c0 -63 45 -105 77 -73 12 12 13 24 6 54 -8 35 -12 38 -46
41 -34 3 -37 1 -37 -22z"/>
<path d="M1410 2636 c0 -34 10 -55 30 -66 26 -14 50 13 50 56 0 33 -1 34 -40
34 -36 0 -40 -3 -40 -24z"/>
<path d="M1516 2645 c-14 -37 25 -82 59 -69 17 7 30 47 21 69 -7 20 -72 20
-80 0z"/>
<path d="M2312 2648 c-7 -7 -12 -40 -12 -80 l0 -68 -34 0 c-26 0 -35 5 -40 23
l-7 22 -11 -23 c-16 -32 7 -53 66 -59 91 -11 116 17 116 126 0 51 -13 71 -45
71 -12 0 -26 -5 -33 -12z"/>
<path d="M2438 2650 c-19 -5 -23 -13 -23 -45 l0 -40 145 0 145 0 3 38 c2 24
-1 39 -10 42 -20 7 -235 11 -260 5z"/>
<path d="M2743 2653 c-9 -3 -13 -29 -13 -79 0 -96 15 -114 95 -114 64 0 98 23
88 61 l-6 23 -15 -22 c-9 -14 -25 -22 -43 -22 -29 0 -29 0 -29 63 0 34 -4 67
-8 73 -8 13 -52 24 -69 17z"/>
<path d="M2902 2648 c-16 -16 -15 -43 3 -58 13 -11 15 -7 15 29 0 45 -1 46
-18 29z"/>
<path d="M2200 2615 c0 -33 2 -36 15 -25 18 15 16 51 -2 58 -9 2 -13 -8 -13
-33z"/>
<path d="M2257 2643 c-4 -3 -7 -30 -7 -58 0 -28 3 -55 7 -58 14 -15 33 18 33
58 0 40 -19 73 -33 58z"/>
<path d="M2845 2638 c-9 -24 -1 -113 10 -111 14 4 19 103 6 116 -7 7 -12 5
-16 -5z"/>
<path d="M3532 2638 c-23 -23 -14 -55 19 -68 26 -11 32 -11 40 1 21 33 3 79
-31 79 -9 0 -21 -5 -28 -12z"/>
<path d="M3948 2625 c-14 -31 -5 -41 45 -48 41 -6 42 -4 26 42 -14 40 -54 44
-71 6z"/>
<path d="M4068 2639 c-11 -6 -18 -22 -18 -38 0 -29 18 -41 61 -41 22 0 30 44
12 70 -16 22 -29 24 -55 9z"/>
<path d="M3636 2618 c-23 -33 -20 -65 7 -72 49 -13 57 -8 57 32 0 60 -35 82
-64 40z"/>
<path d="M4170 2614 c-19 -49 -13 -64 25 -64 28 0 36 4 41 24 14 56 -46 92
-66 40z"/>
<path d="M1730 2602 c0 -82 77 -276 146 -366 l37 -49 53 104 c29 57 78 135
109 173 30 38 53 72 50 74 -2 3 -49 11 -104 18 -55 7 -139 26 -187 43 -49 17
-92 31 -96 31 -4 0 -8 -12 -8 -28z m234 -108 c33 -33 8 -104 -36 -104 -53 0
-82 53 -53 96 18 28 65 33 89 8z"/>
<path d="M1891 2476 c-16 -20 -5 -53 20 -61 27 -9 51 13 47 44 -2 20 -9 27
-29 29 -14 2 -31 -4 -38 -12z"/>
<path d="M3753 2622 c-7 -4 -16 -26 -21 -49 -9 -38 -8 -42 12 -47 11 -3 31 -6
44 -6 19 0 22 5 22 45 0 34 -5 47 -19 55 -23 12 -23 12 -38 2z"/>
<path d="M1116 2547 c-26 -19 -6 -67 28 -67 32 0 51 32 36 60 -12 23 -38 26
-64 7z"/>
<path d="M1558 2553 c-21 -2 -38 -7 -38 -10 0 -3 9 -21 21 -39 34 -56 68 -39
69 34 0 12 -3 21 -7 20 -5 -1 -25 -3 -45 -5z"/>
<path d="M3945 2530 c-20 -39 -20 -38 23 -49 52 -15 52 -15 45 22 -12 63 -43
76 -68 27z"/>
<path d="M919 2541 l-37 -6 12 -34 c23 -70 76 -63 76 10 0 22 -3 38 -7 38 -5
-1 -24 -5 -44 -8z"/>
<path d="M994 2537 c-3 -8 0 -26 5 -40 20 -52 90 -26 77 28 -5 21 -12 25 -42
25 -19 0 -37 -6 -40 -13z"/>
<path d="M1457 2543 c-34 -4 -37 -6 -31 -31 13 -59 15 -62 45 -62 28 0 29 1
29 50 0 28 -1 49 -2 48 -2 -1 -20 -3 -41 -5z"/>
<path d="M2436 2534 c-9 -9 -15 -19 -12 -21 9 -10 67 9 63 20 -6 19 -33 19
-51 1z"/>
<path d="M2635 2539 c-10 -15 -3 -19 41 -25 l39 -5 -24 20 c-26 23 -46 27 -56
10z"/>
<path d="M3511 2518 c-23 -38 -20 -42 33 -57 l39 -10 -6 41 c-5 36 -19 57 -39
58 -3 0 -15 -15 -27 -32z"/>
<path d="M2134 2494 c-128 -155 -184 -251 -184 -317 0 -101 158 -76 315 50 80
65 83 86 13 118 l-53 24 -37 -36 c-50 -49 -62 -33 -13 17 34 35 37 41 24 56
-8 9 -16 44 -19 77 l-5 61 -41 -50z"/>
<path d="M2936 2486 c-3 -32 -11 -67 -17 -78 -9 -17 -5 -27 32 -64 27 -27 37
-44 28 -44 -8 0 -28 14 -44 30 -16 17 -37 30 -47 30 -22 0 -94 -35 -103 -51
-10 -16 40 -65 116 -115 189 -123 298 -107 255 39 -21 72 -78 165 -151 244
l-62 67 -7 -58z"/>
<path d="M4052 2528 c-7 -7 -12 -25 -12 -41 0 -27 2 -28 38 -25 30 2 38 7 40
26 6 42 -37 69 -66 40z"/>
<path d="M1316 2503 c15 -67 61 -96 84 -54 24 45 -1 81 -56 81 -32 0 -34 -2
-28 -27z"/>
<path d="M4162 2505 c-31 -40 -28 -61 9 -69 45 -9 46 -8 52 20 3 17 -3 34 -17
51 l-22 26 -22 -28z"/>
<path d="M3611 2484 l-21 -35 35 -15 c48 -20 55 -18 55 14 -1 78 -34 96 -69
36z"/>
<path d="M2450 2492 c-24 -7 -40 -33 -40 -65 0 -42 17 -67 46 -67 31 0 48 39
39 91 -7 38 -19 50 -45 41z"/>
<path d="M2636 2487 c-24 -17 -19 -105 7 -121 54 -34 86 84 31 120 -16 11 -23
12 -38 1z"/>
<path d="M3733 2494 c-16 -7 -37 -74 -27 -84 5 -4 23 -11 41 -15 31 -6 32 -5
39 31 10 53 -14 84 -53 68z"/>
<path d="M1120 2440 c0 -32 18 -60 39 -60 25 0 43 24 39 52 -2 19 -10 24 -40
26 -33 3 -38 0 -38 -18z"/>
<path d="M1583 2450 c-47 -19 -17 -98 30 -81 25 9 35 54 16 77 -13 16 -15 16
-46 4z"/>
<path d="M3931 2434 c-11 -15 -21 -30 -21 -34 0 -7 80 -34 85 -28 2 2 0 21 -4
43 -8 49 -31 56 -60 19z"/>
<path d="M1027 2443 l-28 -4 23 -40 c16 -29 28 -39 43 -37 16 2 21 12 23 46 3
45 4 45 -61 35z"/>
<path d="M3490 2423 c-25 -32 -26 -49 -2 -56 9 -2 25 -8 34 -12 23 -9 43 37
28 64 -16 31 -38 32 -60 4z"/>
<path d="M2218 2428 c15 -15 156 -18 160 -3 1 6 -33 11 -85 13 -70 2 -85 0
-75 -10z"/>
<path d="M2521 2422 c-9 -17 -9 -27 0 -44 l12 -23 9 27 c6 17 6 34 0 44 -9 16
-11 15 -21 -4z"/>
<path d="M2574 2416 c-3 -14 -1 -32 4 -42 9 -16 11 -15 21 4 8 16 9 28 1 42
-14 26 -18 25 -26 -4z"/>
<path d="M2747 2434 c-14 -15 7 -24 52 -24 60 0 111 10 111 21 0 10 -153 12
-163 3z"/>
<path d="M4037 2422 c-26 -29 -22 -60 10 -68 20 -6 31 -2 45 16 18 23 18 23
-3 47 -27 28 -31 28 -52 5z"/>
<path d="M900 2419 c0 -7 9 -27 21 -45 27 -44 54 -45 63 -3 11 56 9 59 -39 59
-27 0 -45 -5 -45 -11z"/>
<path d="M1461 2421 c-24 -16 7 -81 39 -81 27 0 41 24 34 59 -5 25 -11 31 -33
31 -14 0 -32 -4 -40 -9z"/>
<path d="M1373 2403 c-31 -4 -31 -5 -21 -41 5 -20 16 -43 23 -51 17 -17 52 -6
60 20 7 21 -12 80 -24 77 -3 0 -20 -3 -38 -5z"/>
<path d="M3579 2379 c-12 -29 -11 -33 10 -50 34 -27 48 -23 61 16 14 42 1 65
-35 65 -16 0 -26 -9 -36 -31z"/>
<path d="M4144 2398 c-4 -7 -14 -23 -22 -35 -13 -21 -12 -23 9 -32 73 -27 70
-27 67 26 -3 40 -6 48 -25 51 -11 2 -25 -3 -29 -10z"/>
<path d="M2271 2384 c-8 -4 11 -20 50 -43 l64 -36 182 0 c171 0 183 1 205 21
13 12 33 25 45 28 11 4 27 13 33 21 11 13 4 15 -48 15 -51 0 -65 -4 -88 -25
-26 -24 -32 -25 -154 -25 -115 0 -130 2 -155 22 -27 21 -105 34 -134 22z"/>
<path d="M1728 2368 c-16 -5 -28 -16 -28 -24 0 -19 162 -262 179 -269 8 -3 25
5 39 18 l23 24 -83 126 c-46 69 -87 127 -93 130 -5 2 -22 0 -37 -5z"/>
<path d="M3697 2368 c-21 -16 -40 -69 -30 -79 5 -5 22 -11 39 -15 28 -5 31 -3
44 35 10 33 11 43 0 56 -15 18 -31 19 -53 3z"/>
<path d="M1168 2358 c-33 -11 -35 -27 -10 -58 16 -20 21 -21 41 -11 17 10 21
20 19 43 -3 36 -12 40 -50 26z"/>
<path d="M1618 2347 c-32 -12 -34 -23 -12 -55 30 -44 86 -15 68 35 -11 31 -20
34 -56 20z"/>
<path d="M3270 2248 c-41 -62 -77 -119 -78 -126 -6 -21 39 -64 53 -52 7 6 50
67 96 136 79 120 82 127 64 140 -42 31 -58 19 -135 -98z"/>
<path d="M3900 2330 l-21 -30 23 -9 c66 -25 68 -24 68 8 0 67 -34 82 -70 31z"/>
<path d="M3446 2321 l-27 -28 37 -22 c40 -24 48 -20 61 28 4 17 1 28 -12 38
-25 18 -27 17 -59 -16z"/>
<path d="M1040 2330 c-13 -8 -12 -13 6 -37 37 -50 74 -40 74 20 0 24 -4 27
-32 27 -18 0 -40 -5 -48 -10z"/>
<path d="M1512 2314 c-30 -13 -32 -17 -21 -32 57 -75 79 -75 79 -1 0 54 -4 56
-58 33z"/>
<path d="M4000 2304 c-6 -14 -10 -27 -10 -29 0 -9 61 -36 69 -31 13 9 19 52 9
70 -15 26 -57 20 -68 -10z"/>
<path d="M943 2313 c-16 -6 -16 -25 -2 -57 29 -62 90 -30 73 38 -5 20 -12 26
-33 25 -14 0 -32 -3 -38 -6z"/>
<path d="M3543 2271 c-13 -16 -23 -31 -23 -34 0 -6 72 -49 76 -45 1 2 4 26 6
53 3 44 1 50 -17 52 -12 2 -29 -9 -42 -26z"/>
<path d="M4106 2278 c-25 -35 -20 -54 20 -66 33 -10 36 -9 45 14 12 33 11 48
-3 62 -19 19 -45 14 -62 -10z"/>
<path d="M1403 2280 c-21 -8 -22 -12 -11 -37 19 -44 29 -53 58 -53 35 0 43 20
24 65 -15 36 -30 41 -71 25z"/>
<path d="M1202 2263 l-42 -15 21 -29 c22 -31 56 -39 65 -15 3 8 4 27 2 43 l-3
30 -43 -14z"/>
<path d="M2322 2240 c-88 -69 -172 -119 -231 -137 -70 -21 -68 -19 -46 -43 49
-55 231 -140 352 -165 86 -18 99 -13 73 30 -33 54 -58 137 -70 242 -7 54 -16
102 -20 106 -4 4 -30 -10 -58 -33z m24 -125 c21 -32 11 -72 -22 -87 -58 -27
-114 35 -80 87 23 35 79 35 102 0z"/>
<path d="M2277 2112 c-10 -10 -17 -26 -17 -35 0 -20 36 -41 56 -33 20 8 17 50
-4 70 -18 15 -20 15 -35 -2z"/>
<path d="M2415 2269 c-19 -30 23 -241 63 -314 33 -61 63 -79 106 -62 56 22
113 177 119 322 l2 60 -65 0 -65 0 -5 -95 c-6 -110 -18 -102 -22 15 l-3 80
-62 3 c-38 2 -64 -1 -68 -9z"/>
<path d="M1663 2253 c-18 -9 -33 -20 -33 -24 0 -4 14 -19 31 -33 24 -21 34
-24 45 -15 15 12 18 46 8 73 -7 19 -10 19 -51 -1z"/>
<path d="M2726 2233 c-3 -21 -6 -52 -6 -69 0 -55 -39 -188 -70 -237 l-30 -49
42 7 c139 21 285 79 386 153 l53 39 -73 27 c-45 16 -110 53 -170 96 -53 39
-103 70 -111 70 -9 0 -17 -15 -21 -37z m148 -115 c9 -12 16 -30 16 -40 0 -26
-36 -58 -65 -58 -30 0 -65 32 -65 60 0 53 84 81 114 38z"/>
<path d="M2801 2104 c-34 -44 5 -87 43 -48 19 19 20 33 2 57 -17 22 -21 22
-45 -9z"/>
<path d="M3876 2251 c-24 -27 -17 -52 18 -64 21 -7 30 -6 37 4 19 31 3 79 -26
79 -7 0 -20 -9 -29 -19z"/>
<path d="M3658 2248 c-9 -7 -23 -25 -32 -40 -16 -25 -16 -27 6 -42 32 -23 53
-20 66 9 15 33 15 58 0 73 -15 15 -20 15 -40 0z"/>
<path d="M3393 2224 c-16 -25 -16 -27 8 -45 31 -24 51 -20 63 13 19 54 -39 80
-71 32z"/>
<path d="M1088 2233 c-24 -6 -23 -45 1 -67 37 -34 78 2 60 52 -8 21 -24 25
-61 15z"/>
<path d="M3971 2211 c-17 -31 -13 -45 19 -64 l30 -18 10 27 c17 43 9 69 -22
72 -18 2 -30 -3 -37 -17z"/>
<path d="M1328 2209 c-10 -5 -18 -19 -18 -30 0 -47 137 -269 224 -363 43 -47
46 -48 68 -34 34 22 34 46 1 82 -53 56 -89 109 -153 221 -83 147 -83 147 -122
124z"/>
<path d="M1562 2204 c-28 -19 -28 -26 1 -60 43 -50 89 -4 57 57 -13 23 -28 24
-58 3z"/>
<path d="M977 2203 c-11 -3 -16 -10 -13 -20 3 -8 6 -19 6 -24 0 -5 9 -18 20
-29 36 -36 79 5 60 55 -9 25 -29 29 -73 18z"/>
<path d="M3485 2170 c-16 -16 -27 -31 -24 -33 26 -21 71 -48 74 -46 1 2 8 22
14 43 7 29 7 43 -1 53 -16 20 -32 16 -63 -17z"/>
<path d="M3701 2128 c-46 -84 -97 -160 -165 -242 -52 -64 -55 -71 -43 -90 27
-40 52 -32 102 31 68 86 159 221 189 280 l26 52 -22 15 c-38 27 -52 19 -87
-46z"/>
<path d="M4071 2164 c-28 -36 -27 -43 12 -59 28 -12 33 -12 45 3 7 9 12 31 10
47 -4 41 -38 46 -67 9z"/>
<path d="M1228 2169 c-38 -21 -11 -74 34 -67 26 3 37 41 18 64 -14 16 -28 17
-52 3z"/>
<path d="M1468 2164 c-33 -17 -33 -18 -11 -55 21 -34 48 -46 69 -28 17 14 13
61 -7 86 -14 16 -17 16 -51 -3z"/>
<path d="M1712 2158 l-34 -21 29 -23 c34 -28 59 -30 72 -6 10 19 -5 63 -24 68
-5 1 -25 -7 -43 -18z"/>
<path d="M906 2148 c-39 -55 -3 -138 60 -138 40 0 40 -5 1 95 -26 67 -38 76
-61 43z"/>
<path d="M3343 2144 l-27 -27 34 -30 34 -30 12 34 c17 48 17 57 -6 69 -17 9
-25 6 -47 -16z"/>
<path d="M3837 2152 c-24 -27 -21 -38 14 -52 36 -15 51 -2 47 40 -4 31 -37 38
-61 12z"/>
<path d="M1133 2132 l-33 -17 20 -33 c22 -36 28 -38 55 -19 14 11 16 21 11 50
-8 42 -9 42 -53 19z"/>
<path d="M3571 2108 l-21 -33 28 -22 c15 -13 31 -21 37 -20 15 5 38 74 32 92
-11 27 -53 18 -76 -17z"/>
<path d="M3925 2101 c-15 -30 -15 -31 16 -46 39 -21 61 -6 57 39 -2 25 -8 32
-30 34 -21 3 -30 -3 -43 -27z"/>
<path d="M1623 2108 c-27 -13 -29 -26 -7 -56 18 -26 56 -29 75 -6 11 13 11 20
-2 42 -17 31 -34 36 -66 20z"/>
<path d="M1029 2099 c-21 -8 -25 -15 -21 -35 7 -35 44 -59 71 -44 24 12 26 28
9 65 -12 27 -19 29 -59 14z"/>
<path d="M4125 2038 c-27 -59 -31 -75 -21 -86 29 -29 106 34 106 87 0 28 -25
71 -41 71 -6 0 -25 -33 -44 -72z"/>
<path d="M1776 2073 c-29 -25 -29 -26 -10 -40 30 -22 65 -28 75 -12 9 15 3 46
-13 67 -14 17 -19 15 -52 -15z"/>
<path d="M3428 2083 c-28 -33 -27 -40 1 -67 l29 -27 21 35 c18 28 20 39 11 56
-13 25 -42 26 -62 3z"/>
<path d="M1273 2080 c-28 -12 -29 -34 -3 -60 16 -16 25 -18 39 -11 25 14 33
38 21 62 -12 21 -23 23 -57 9z"/>
<path d="M1926 2065 c-17 -25 -16 -27 16 -57 41 -38 128 -98 187 -128 l45 -22
18 22 c10 12 18 28 18 36 0 15 -231 174 -254 174 -7 0 -21 -11 -30 -25z"/>
<path d="M3025 2004 c-66 -47 -121 -89 -123 -94 -6 -16 18 -50 34 -50 39 0
258 143 271 177 7 17 -24 53 -46 53 -9 0 -70 -39 -136 -86z"/>
<path d="M3797 2072 c-24 -26 -21 -47 9 -61 20 -9 30 -9 40 0 20 17 17 57 -5
69 -25 13 -25 13 -44 -8z"/>
<path d="M4026 2056 l-26 -34 35 -21 35 -20 15 29 c20 39 19 57 -4 70 -27 14
-25 14 -55 -24z"/>
<path d="M3285 2068 c-11 -6 -22 -13 -24 -15 -8 -6 42 -53 56 -53 22 0 38 46
23 65 -15 18 -28 19 -55 3z"/>
<path d="M1528 2053 l-26 -16 26 -39 c30 -46 61 -48 76 -7 7 20 5 32 -10 52
-22 31 -30 32 -66 10z"/>
<path d="M1167 2033 c-30 -8 -2 -73 32 -73 32 0 43 16 36 49 -7 31 -21 36 -68
24z"/>
<path d="M1695 2016 l-30 -25 33 -33 c26 -27 35 -31 50 -22 26 16 26 48 0 78
l-23 26 -30 -24z"/>
<path d="M3511 2014 c-39 -32 -39 -45 -2 -72 l30 -22 20 29 c24 33 27 61 9 79
-17 17 -22 15 -57 -14z"/>
<path d="M3885 2010 c-16 -17 -27 -31 -24 -33 26 -21 71 -48 73 -46 2 2 7 23
11 46 5 35 3 43 -13 52 -16 8 -24 5 -47 -19z"/>
<path d="M1850 1995 c-23 -24 -23 -25 -5 -45 22 -24 48 -26 69 -4 21 20 20 30
-4 54 -26 26 -32 25 -60 -5z"/>
<path d="M1082 1994 c-31 -14 -32 -15 -19 -47 14 -35 48 -47 73 -27 19 16 17
40 -4 66 -16 20 -20 20 -50 8z"/>
<path d="M1321 1987 c-34 -37 -4 -80 40 -57 21 12 25 50 7 68 -17 17 -21 15
-47 -11z"/>
<path d="M3199 1991 l-22 -18 22 -31 c19 -28 24 -30 42 -19 25 15 35 53 19 72
-16 20 -33 19 -61 -4z"/>
<path d="M3344 1985 c-15 -23 -15 -27 0 -50 19 -29 37 -32 58 -7 22 24 27 44
16 65 -13 26 -55 21 -74 -8z"/>
<path d="M3740 1975 c-13 -14 -22 -26 -19 -28 44 -35 70 -47 73 -35 16 51 16
68 -3 78 -26 13 -24 14 -51 -15z"/>
<path d="M3970 1961 c-17 -32 -12 -50 19 -66 28 -14 31 -14 45 7 9 12 16 30
16 38 0 40 -61 55 -80 21z"/>
<path d="M1610 1953 c-14 -9 -26 -17 -28 -19 -8 -6 34 -57 52 -64 27 -10 56 5
56 29 0 19 -36 71 -49 71 -3 0 -18 -8 -31 -17z"/>
<path d="M1233 1943 c-28 -19 -29 -44 -5 -66 24 -22 35 -21 56 2 16 18 16 21
1 50 -18 35 -21 36 -52 14z"/>
<path d="M1932 1930 l-22 -28 26 -21 c33 -26 36 -26 60 0 20 22 14 42 -22 65
-16 10 -22 8 -42 -16z"/>
<path d="M1776 1921 l-27 -29 36 -22 c29 -18 38 -20 51 -9 20 17 14 59 -12 75
-18 13 -23 11 -48 -15z"/>
<path d="M3116 1927 c-17 -13 -17 -15 -2 -45 19 -37 23 -38 54 -16 32 22 27
68 -8 72 -14 2 -33 -3 -44 -11z"/>
<path d="M3426 1911 c-29 -30 -28 -38 2 -74 15 -16 17 -16 44 10 30 28 36 61
16 81 -18 18 -32 15 -62 -17z"/>
<path d="M3823 1914 c-16 -26 -16 -27 6 -45 30 -24 48 -24 61 0 15 29 12 58
-6 65 -29 11 -43 6 -61 -20z"/>
<path d="M1372 1906 l-33 -24 29 -21 c53 -37 79 -24 64 33 -10 38 -20 40 -60
12z"/>
<path d="M3266 1908 l-27 -23 23 -32 c13 -18 25 -33 28 -33 3 0 16 17 29 37
38 59 -1 96 -53 51z"/>
<path d="M2224 1895 c-30 -46 -13 -56 150 -91 82 -18 155 -30 162 -27 19 7 18
69 -1 77 -9 3 -71 17 -139 31 -68 13 -130 27 -139 31 -10 3 -22 -4 -33 -21z"/>
<path d="M3691 1898 l-33 -21 32 -31 c30 -30 31 -30 46 -12 17 24 18 60 1 74
-9 8 -22 5 -46 -10z"/>
<path d="M1138 1892 c-21 -12 -26 -22 -22 -37 10 -35 30 -48 59 -41 25 6 27
10 20 44 -11 59 -14 61 -57 34z"/>
<path d="M2730 1886 c-167 -35 -160 -33 -160 -64 0 -50 10 -51 168 -20 81 17
151 33 156 38 13 13 -17 65 -39 67 -11 1 -67 -9 -125 -21z"/>
<path d="M2019 1869 c-22 -31 -22 -32 -4 -45 26 -19 62 -17 74 3 11 21 -1 48
-29 63 -15 8 -22 5 -41 -21z"/>
<path d="M1696 1851 l-27 -28 27 -22 c59 -46 109 -5 64 52 -27 34 -30 34 -64
-2z"/>
<path d="M1861 1849 c-13 -17 -21 -32 -19 -33 1 -1 16 -12 32 -24 22 -17 32
-19 47 -11 34 18 21 65 -27 92 -6 3 -21 -7 -33 -24z"/>
<path d="M3021 1866 c-10 -12 -8 -22 7 -51 l18 -37 28 32 c15 18 26 40 24 49
-4 21 -61 27 -77 7z"/>
<path d="M3916 1858 c-9 -12 -16 -28 -16 -34 0 -16 48 -46 61 -38 16 10 30 55
24 75 -9 26 -50 24 -69 -3z"/>
<path d="M1293 1853 c-29 -20 -29 -47 -1 -67 28 -20 33 -20 51 -1 18 17 12 47
-11 68 -15 13 -20 13 -39 0z"/>
<path d="M2114 1827 c-14 -30 -15 -39 -4 -52 17 -20 59 -16 74 7 9 15 5 24
-21 50 l-32 31 -17 -36z"/>
<path d="M1436 1827 c-28 -23 -28 -23 -9 -46 15 -19 25 -23 46 -17 22 5 27 12
27 36 0 43 -29 55 -64 27z"/>
<path d="M3178 1839 c-33 -13 -34 -22 -7 -60 l20 -29 30 22 c22 16 29 29 27
48 -3 28 -27 35 -70 19z"/>
<path d="M3331 1824 l-31 -25 22 -30 c26 -35 28 -35 62 -4 39 37 32 85 -14 85
-5 0 -22 -12 -39 -26z"/>
<path d="M3767 1832 c-23 -25 -22 -30 10 -59 l26 -25 19 23 c26 34 20 73 -13
77 -15 2 -32 -5 -42 -16z"/>
<path d="M3622 1817 l-22 -23 30 -29 c26 -25 33 -27 41 -15 17 27 21 60 9 75
-17 21 -33 19 -58 -8z"/>
<path d="M2916 1822 c-2 -4 3 -25 12 -46 l17 -39 32 27 c43 36 35 66 -18 66
-21 0 -40 -4 -43 -8z"/>
<path d="M1202 1799 c-17 -12 -32 -24 -32 -29 0 -10 47 -60 58 -60 4 0 16 6
25 13 15 10 16 17 6 47 -17 50 -20 52 -57 29z"/>
<path d="M1959 1783 l-31 -27 22 -18 c24 -19 57 -23 79 -9 18 12 8 52 -18 68
-17 11 -25 9 -52 -14z"/>
<path d="M2210 1778 c-22 -37 -18 -45 27 -54 28 -6 34 -3 45 21 11 24 10 29
-12 46 -33 25 -37 24 -60 -13z"/>
<path d="M1631 1776 c-11 -12 -21 -27 -21 -33 0 -27 243 -205 338 -247 50 -23
75 -15 80 25 2 21 -9 30 -80 69 -84 46 -222 143 -247 174 -28 33 -47 37 -70
12z"/>
<path d="M1791 1774 c-27 -34 -26 -38 5 -58 54 -36 108 0 67 46 -34 38 -50 40
-72 12z"/>
<path d="M2842 1791 c-8 -5 -12 -22 -10 -42 3 -30 6 -34 28 -31 32 5 50 20 50
41 0 34 -38 52 -68 32z"/>
<path d="M1349 1762 l-32 -29 37 -23 c34 -21 39 -21 53 -7 14 13 14 20 3 47
-18 43 -25 44 -61 12z"/>
<path d="M3073 1773 c-19 -17 -20 -20 -7 -51 l15 -33 32 18 c25 15 32 26 32
49 0 24 -5 30 -26 32 -14 2 -35 -5 -46 -15z"/>
<path d="M3340 1705 c-63 -47 -151 -104 -195 -127 -85 -45 -99 -66 -71 -103
14 -20 15 -20 83 14 135 66 353 224 353 256 0 12 -36 45 -50 45 -3 0 -57 -38
-120 -85z"/>
<path d="M3857 1767 l-28 -22 30 -35 c25 -29 32 -33 41 -20 18 28 24 81 9 91
-19 12 -20 12 -52 -14z"/>
<path d="M1500 1749 c-37 -32 -34 -41 17 -55 50 -13 70 23 36 64 l-18 21 -35
-30z"/>
<path d="M2309 1753 c-5 -16 -12 -34 -14 -40 -5 -14 50 -18 79 -7 23 9 20 40
-6 58 -32 23 -47 20 -59 -11z"/>
<path d="M2730 1730 c0 -36 3 -40 24 -40 26 0 56 23 56 44 0 20 -22 36 -52 36
-26 0 -28 -3 -28 -40z"/>
<path d="M3233 1749 c-32 -20 -32 -22 -18 -49 21 -41 30 -43 64 -14 33 27 39
52 19 72 -17 17 -28 15 -65 -9z"/>
<path d="M3706 1754 c-22 -21 -20 -37 7 -62 23 -22 24 -22 40 -4 42 46 -4 110
-47 66z"/>
<path d="M2415 1728 c-16 -40 -8 -50 36 -46 27 2 35 8 37 27 4 25 -19 51 -45
51 -8 0 -20 -15 -28 -32z"/>
<path d="M2632 1748 c-7 -7 -12 -25 -12 -41 0 -26 2 -28 36 -25 51 4 68 32 35
59 -27 22 -42 24 -59 7z"/>
<path d="M3550 1745 c-11 -13 -9 -20 10 -40 30 -32 47 -32 62 0 8 19 8 28 -2
40 -16 19 -54 19 -70 0z"/>
<path d="M2055 1720 c-15 -29 -15 -30 14 -45 38 -19 46 -19 65 1 21 20 20 30
-4 54 -29 29 -57 25 -75 -10z"/>
<path d="M2520 1724 c-16 -40 -6 -56 31 -52 61 6 65 69 5 76 -21 3 -28 -2 -36
-24z"/>
<path d="M2973 1724 c-14 -6 -17 -52 -5 -71 14 -22 77 17 77 47 0 21 -5 25
-30 27 -16 1 -36 0 -42 -3z"/>
<path d="M1268 1702 c-34 -20 -35 -26 -3 -57 28 -29 47 -31 65 -10 11 13 10
22 -3 50 -19 40 -22 41 -59 17z"/>
<path d="M1890 1690 l-21 -29 40 -21 c44 -22 67 -19 77 13 5 16 -1 27 -22 44
-38 30 -48 29 -74 -7z"/>
<path d="M2165 1680 c-19 -37 -15 -46 26 -55 71 -16 83 58 12 79 -18 6 -25 1
-38 -24z"/>
<path d="M1411 1676 l-22 -24 36 -22 c29 -18 38 -20 50 -10 21 18 19 57 -4 70
-28 14 -35 13 -60 -14z"/>
<path d="M1570 1675 c-13 -14 -22 -26 -19 -28 35 -28 54 -35 71 -26 31 17 18
79 -17 79 -6 0 -22 -11 -35 -25z"/>
<path d="M2863 1685 c-19 -13 -20 -19 -11 -45 11 -32 23 -36 62 -19 32 15 38
32 20 58 -18 25 -41 27 -71 6z"/>
<path d="M3128 1684 c-31 -16 -33 -22 -16 -59 14 -30 27 -31 62 -4 29 23 35
63 10 73 -21 8 -25 8 -56 -10z"/>
<path d="M3780 1673 l-22 -28 27 -23 27 -23 24 22 c26 25 31 48 12 67 -20 20
-45 14 -68 -15z"/>
<path d="M3483 1678 c-30 -14 -29 -19 7 -53 29 -28 30 -28 45 -9 36 46 1 88
-52 62z"/>
<path d="M3643 1674 c-39 -17 -40 -21 -8 -57 28 -32 37 -30 55 13 11 26 11 34
-1 44 -12 11 -20 11 -46 0z"/>
<path d="M2005 1641 c-22 -43 -19 -49 24 -62 49 -14 71 -7 71 24 0 17 -11 30
-40 46 l-39 22 -16 -30z"/>
<path d="M2280 1651 c-18 -35 -12 -50 25 -57 39 -7 65 7 65 37 0 37 -72 53
-90 20z"/>
<path d="M2754 1660 c-16 -6 -19 -15 -16 -45 4 -35 6 -36 36 -30 52 11 74 55
37 75 -23 12 -29 12 -57 0z"/>
<path d="M2386 1619 c-8 -39 -6 -41 40 -43 71 -2 73 66 2 72 -33 3 -36 1 -42
-29z"/>
<path d="M2500 1605 l0 -44 33 6 c94 18 91 53 -5 77 -27 6 -28 5 -28 -39z"/>
<path d="M2631 1632 c-6 -12 -11 -30 -11 -41 0 -17 6 -21 34 -21 32 0 66 20
66 39 0 13 -23 29 -52 36 -20 5 -29 2 -37 -13z"/>
<path d="M1650 1615 c-19 -20 -21 -27 -11 -39 29 -35 81 -26 81 14 0 15 -29
50 -42 50 -2 0 -15 -11 -28 -25z"/>
<path d="M3012 1627 c-22 -7 -31 -15 -27 -25 3 -7 8 -25 11 -38 5 -20 11 -23
28 -18 58 17 82 54 54 82 -14 14 -21 14 -66 -1z"/>
<path d="M1331 1606 l-23 -25 33 -21 c38 -23 57 -23 72 1 8 13 6 24 -6 43 -22
33 -47 33 -76 2z"/>
<path d="M1505 1600 c-16 -16 -27 -31 -24 -34 12 -10 49 -26 62 -26 24 0 29
31 9 61 l-18 29 -29 -30z"/>
<path d="M3418 1618 c-34 -12 -34 -20 -6 -58 24 -33 32 -31 54 11 12 24 13 34
3 45 -13 16 -14 16 -51 2z"/>
<path d="M2117 1576 l-16 -34 31 -11 c42 -15 63 -14 78 4 16 20 4 50 -26 63
-39 18 -49 15 -67 -22z"/>
<path d="M3557 1594 c-29 -16 -27 -35 9 -64 14 -13 19 -11 40 13 19 23 22 32
14 48 -13 23 -25 23 -63 3z"/>
<path d="M3708 1594 c-35 -18 -35 -24 0 -58 32 -30 41 -25 62 28 8 23 8 31 -2
38 -18 11 -29 10 -60 -8z"/>
<path d="M1733 1560 c-28 -35 -29 -46 -2 -61 16 -8 28 -8 45 0 30 13 30 29 1
63 l-22 27 -22 -29z"/>
<path d="M2879 1578 c-13 -10 -14 -20 -7 -46 8 -31 12 -33 36 -27 68 17 84 78
22 83 -19 2 -42 -3 -51 -10z"/>
<path d="M1282 1558 c-15 -15 -16 -62 -2 -89 25 -46 120 -63 120 -21 0 10 -24
41 -53 70 -41 41 -55 50 -65 40z"/>
<path d="M2248 1563 c-3 -4 -8 -20 -12 -35 -5 -24 -3 -28 21 -34 16 -3 33 -7
38 -9 20 -5 45 16 45 40 0 13 -3 26 -8 29 -16 10 -80 17 -84 9z"/>
<path d="M3326 1554 c-14 -14 -14 -18 -1 -45 9 -16 18 -29 21 -29 15 0 54 35
54 49 0 38 -46 54 -74 25z"/>
<path d="M3765 1509 c-57 -58 -59 -61 -41 -75 11 -8 26 -14 33 -14 23 0 72 29
83 49 16 31 10 101 -9 101 -4 0 -33 -27 -66 -61z"/>
<path d="M1417 1532 l-27 -28 24 -23 c27 -26 63 -25 80 2 13 20 2 42 -30 64
-18 11 -23 10 -47 -15z"/>
<path d="M1576 1531 c-26 -27 -27 -30 -10 -39 59 -31 100 -6 69 41 -22 34 -25
34 -59 -2z"/>
<path d="M2753 1552 c-8 -5 -10 -21 -6 -45 6 -39 13 -41 81 -16 24 9 29 38 10
57 -13 13 -66 16 -85 4z"/>
<path d="M2366 1519 c-9 -48 -9 -49 37 -49 71 0 92 41 32 66 -50 21 -62 18
-69 -17z"/>
<path d="M2500 1515 c-18 -47 -14 -55 33 -55 46 0 67 13 67 41 0 22 -5 25 -52
34 -34 7 -39 5 -48 -20z"/>
<path d="M2632 1528 c-7 -7 -12 -26 -12 -44 l0 -32 43 9 c54 12 73 35 50 61
-18 20 -63 24 -81 6z"/>
<path d="M3473 1530 c-28 -11 -28 -14 -2 -56 23 -38 32 -37 55 8 26 50 4 71
-53 48z"/>
<path d="M1811 1501 l-22 -30 25 -16 c14 -9 33 -15 43 -13 26 5 24 57 -3 75
-20 13 -24 12 -43 -16z"/>
<path d="M2056 1514 c-9 -8 -16 -26 -16 -39 0 -21 11 -27 93 -54 103 -35 271
-70 348 -73 40 -2 54 2 65 17 17 23 17 27 1 49 -10 14 -35 20 -103 27 -112 11
-220 34 -303 65 -75 28 -66 28 -85 8z"/>
<path d="M3251 1506 c-18 -20 -21 -28 -12 -44 13 -25 31 -32 54 -20 22 11 22
50 -1 71 -17 16 -20 15 -41 -7z"/>
<path d="M3623 1513 c-18 -9 -33 -19 -33 -22 0 -3 12 -19 25 -34 25 -28 25
-28 50 -10 31 22 40 49 25 68 -15 18 -26 18 -67 -2z"/>
<path d="M2960 1498 c-82 -29 -227 -58 -292 -58 -45 0 -63 -5 -78 -20 -24 -24
-24 -30 -6 -55 13 -18 19 -18 102 -7 121 16 355 74 361 89 7 19 -5 60 -19 65
-7 3 -38 -4 -68 -14z"/>
<path d="M1661 1469 c-24 -33 -24 -33 21 -59 40 -23 69 20 40 59 -26 35 -35
35 -61 0z"/>
<path d="M1502 1450 l-23 -30 31 -19 c61 -36 108 11 56 56 -34 29 -36 28 -64
-7z"/>
<path d="M1895 1450 c-20 -38 -20 -36 16 -49 55 -19 83 31 37 63 -31 22 -35
20 -53 -14z"/>
<path d="M3385 1466 c-16 -12 -17 -17 -6 -45 16 -36 29 -39 59 -11 25 23 28
40 10 58 -16 16 -40 15 -63 -2z"/>
<path d="M3151 1456 c-9 -11 -8 -23 4 -53 l16 -38 30 33 c24 27 27 36 19 52
-12 23 -52 26 -69 6z"/>
<path d="M3538 1442 l-38 -17 26 -32 c14 -18 29 -33 34 -33 5 0 18 16 30 35
18 29 20 38 10 50 -15 18 -15 18 -62 -3z"/>
<path d="M1751 1408 c-23 -38 -19 -45 28 -50 49 -4 64 22 31 57 -13 14 -27 25
-31 25 -4 0 -16 -15 -28 -32z"/>
<path d="M1987 1405 c-9 -20 -17 -38 -17 -41 0 -3 19 -4 43 -2 38 3 42 6 45
30 3 22 -2 30 -23 38 -14 5 -27 10 -29 10 -1 0 -10 -16 -19 -35z"/>
<path d="M3061 1416 c-18 -21 5 -75 29 -69 31 8 49 35 39 61 -10 25 -50 30
-68 8z"/>
<path d="M3297 1413 c-16 -8 -27 -17 -25 -21 2 -4 10 -19 17 -34 8 -16 18 -28
22 -28 13 0 59 61 54 71 -14 22 -41 27 -68 12z"/>
<path d="M1596 1386 l-26 -34 25 -16 c30 -20 59 -20 75 -1 10 12 8 21 -14 50
-15 19 -29 35 -30 35 -2 0 -15 -15 -30 -34z"/>
<path d="M2081 1373 c-15 -52 -14 -53 13 -53 59 0 73 30 33 68 -31 29 -34 28
-46 -15z"/>
<path d="M1845 1360 c-23 -44 -19 -50 30 -50 37 0 45 3 45 18 0 17 -38 62 -53
62 -4 0 -13 -13 -22 -30z"/>
<path d="M2963 1354 c8 -48 13 -51 45 -33 18 10 27 23 27 39 0 22 -5 25 -39
28 l-39 3 6 -37z"/>
<path d="M3445 1378 c-16 -6 -31 -12 -33 -13 -2 -1 7 -19 19 -39 18 -30 24
-34 40 -26 10 6 26 22 35 35 13 20 14 28 4 40 -14 17 -23 18 -65 3z"/>
<path d="M2180 1351 c-16 -32 -12 -50 15 -57 35 -9 55 2 55 29 0 45 -50 65
-70 28z"/>
<path d="M2864 1337 c3 -16 6 -33 6 -38 0 -18 59 -9 69 10 14 25 -6 48 -47 53
-33 5 -34 4 -28 -25z"/>
<path d="M3191 1357 c-14 -18 8 -79 28 -75 22 5 53 52 45 71 -7 20 -57 23 -73
4z"/>
<path d="M2274 1330 c-3 -14 -7 -30 -9 -37 -5 -17 18 -23 154 -39 134 -16 149
-21 180 -60 20 -25 21 -39 21 -261 0 -194 3 -241 16 -269 16 -33 45 -51 64
-39 13 8 13 548 0 597 -6 20 -26 50 -45 67 -37 32 -33 31 -248 53 l-128 14 -5
-26z"/>
<path d="M1692 1321 c-20 -27 -20 -30 -4 -43 29 -25 50 -28 73 -10 l21 18 -27
32 c-15 18 -30 32 -34 32 -4 0 -17 -13 -29 -29z"/>
<path d="M2786 1337 c-11 -8 -17 -22 -14 -38 2 -19 9 -24 32 -24 36 0 56 27
40 53 -15 22 -35 26 -58 9z"/>
<path d="M1940 1311 c-6 -17 -9 -34 -6 -39 10 -16 57 -24 72 -11 20 17 17 57
-5 69 -32 17 -48 12 -61 -19z"/>
<path d="M2681 1331 l-25 -7 32 -34 c29 -33 32 -34 48 -18 31 30 -7 71 -55 59z"/>
<path d="M3099 1320 c-19 -11 -14 -59 7 -67 22 -8 61 5 68 23 15 39 -34 68
-75 44z"/>
<path d="M3342 1313 c-20 -17 -20 -20 -7 -51 l15 -33 30 17 c35 21 47 49 30
69 -17 20 -43 19 -68 -2z"/>
<path d="M2042 1275 c-17 -37 -15 -42 16 -53 36 -12 62 1 62 31 0 50 -58 65
-78 22z"/>
<path d="M3006 1281 c-10 -11 -16 -30 -14 -43 2 -18 9 -23 32 -23 38 0 54 25
38 59 -14 31 -33 33 -56 7z"/>
<path d="M1790 1260 l-21 -29 31 -16 c37 -19 66 -12 76 17 5 16 0 27 -16 40
-31 25 -45 23 -70 -12z"/>
<path d="M3238 1265 c-27 -15 -27 -15 -10 -45 20 -35 40 -38 73 -11 21 16 22
22 11 45 -13 29 -34 32 -74 11z"/>
<path d="M2143 1244 c-16 -25 -16 -27 3 -41 45 -33 105 7 70 46 -26 28 -52 26
-73 -5z"/>
<path d="M2899 1254 c-19 -18 -13 -63 8 -71 23 -9 63 18 63 42 0 42 -42 59
-71 29z"/>
<path d="M1906 1242 c-3 -5 -10 -21 -16 -36 -9 -25 -7 -28 22 -41 22 -9 39
-10 50 -4 21 11 24 52 6 67 -20 15 -56 24 -62 14z"/>
<path d="M2250 1224 c-22 -57 -21 -57 122 -73 49 -6 97 -15 108 -21 29 -16 40
-72 40 -217 0 -72 3 -139 6 -148 6 -14 53 -45 69 -45 3 0 5 98 5 219 0 285 5
278 -208 300 -135 14 -131 15 -142 -15z"/>
<path d="M2802 1237 c-18 -8 -22 -17 -20 -41 2 -25 8 -32 29 -34 29 -3 64 29
56 52 -9 24 -39 35 -65 23z"/>
<path d="M2730 1197 c0 -40 15 -50 25 -16 5 14 1 27 -9 37 -15 15 -16 13 -16
-21z"/>
<path d="M3129 1220 c-15 -9 -15 -14 -4 -47 14 -42 17 -42 58 -12 38 28 34 63
-8 66 -16 2 -37 -2 -46 -7z"/>
<path d="M2000 1169 c-15 -35 -4 -49 41 -49 47 0 68 49 30 70 -35 18 -58 12
-71 -21z"/>
<path d="M3021 1181 c-11 -7 -12 -17 -5 -43 8 -27 14 -32 34 -30 38 5 67 38
54 60 -12 19 -62 27 -83 13z"/>
<path d="M1790 1160 c0 -76 95 -119 150 -68 l23 22 -73 33 c-84 38 -100 40
-100 13z"/>
<path d="M2111 1139 c-17 -48 -15 -50 37 -47 40 3 47 6 50 25 2 16 -5 26 -27
37 -42 22 -47 20 -60 -15z"/>
<path d="M2911 1146 c-6 -7 -8 -26 -5 -43 6 -29 8 -30 41 -22 49 10 67 41 41
67 -16 16 -63 15 -77 -2z"/>
<path d="M3178 1127 c-43 -18 -78 -35 -78 -39 0 -16 54 -42 88 -42 25 0 41 7
58 28 22 25 34 87 17 85 -5 -1 -43 -15 -85 -32z"/>
<path d="M2241 1141 c-5 -4 -15 -19 -21 -35 -13 -36 -6 -42 69 -51 97 -12 121
-34 121 -111 0 -63 31 -114 69 -114 16 0 15 265 -1 278 -16 12 -223 41 -237
33z"/>
<path d="M2790 1108 c0 -13 3 -33 6 -45 l6 -22 40 20 c30 15 39 25 36 42 -2
18 -10 23 -45 25 -39 3 -43 1 -43 -20z"/>
<path d="M2732 1097 c-7 -8 -7 -17 3 -30 11 -15 14 -15 25 -2 13 15 7 45 -8
45 -5 0 -14 -6 -20 -13z"/>
<path d="M2748 899 c-22 -12 -24 -57 -3 -66 19 -7 55 24 55 47 0 10 -7 21 -16
24 -19 7 -15 8 -36 -5z"/>
</g>
</svg>
