<svg height="512pt" viewBox="-1 0 511 512" width="512pt" xmlns="http://www.w3.org/2000/svg" xmlns:xlink="http://www.w3.org/1999/xlink"><linearGradient id="lg1"><stop offset="0" stop-color="#00e7b2"/><stop offset=".4139" stop-color="#1fa999"/><stop offset="1" stop-color="#4f4a72"/></linearGradient><linearGradient id="linear0" gradientUnits="userSpaceOnUse" x1="243.858322567" x2="611.7026879533" xlink:href="#lg1" y1="323.3013649943" y2="670.0051390505"/><linearGradient id="lg2"><stop offset="0" stop-color="#3b395f" stop-opacity="0"/><stop offset="1" stop-color="#3b395f"/></linearGradient><linearGradient id="linear1" gradientUnits="userSpaceOnUse" x1="264.9285765157" x2="296.9283778118" xlink:href="#lg2" y1="233.6832248476" y2="-82.3155769436"/><linearGradient id="linear2" gradientUnits="userSpaceOnUse" x1="224.5268647961" x2="156.5271492728" xlink:href="#lg2" y1="241.2489019589" y2="-32.7500666977"/><linearGradient id="linear3" gradientUnits="userSpaceOnUse" x1="253.993117622" x2="254.993070708" xlink:href="#lg2" y1="316.5588957542" y2="5.5600597844"/><linearGradient id="linear4" gradientUnits="userSpaceOnUse" x1="291.4241270323" x2="-256.5288224116" xlink:href="#lg2" y1="422.149533025" y2="164.5155280494"/><linearGradient id="linear5" gradientUnits="userSpaceOnUse" x1="289.0687265167" x2="592.8245155292" xlink:href="#lg1" y1="394.3544442794" y2="680.6529360895"/><linearGradient id="linear6" gradientTransform="matrix(-1.001957 0 0 -1.001957 510.648183 510.998043)" gradientUnits="userSpaceOnUse" x1="206.0486" x2="461.6208" xlink:href="#lg1" y1="102.1854" y2="343.0696"/><linearGradient id="lg3"><stop offset="0" stop-color="#ffc738"/><stop offset=".2344" stop-color="#fec33a"/><stop offset=".4454" stop-color="#fbb840"/><stop offset=".6474" stop-color="#f6a649"/><stop offset=".8426" stop-color="#f08d56"/><stop offset="1" stop-color="#e97264"/></linearGradient><radialGradient id="radial0" cx="283.2769140782" cy="389.0908635713" gradientUnits="userSpaceOnUse" r="142.1718869494" xlink:href="#lg3"/><linearGradient id="linear7" gradientUnits="userSpaceOnUse" x1="368.3933616196" x2="221.6530517287" y1="471.6403974744" y2="324.9000875835"><stop offset="0" stop-color="#e97264" stop-opacity="0"/><stop offset="1" stop-color="#b53759"/></linearGradient><linearGradient id="lg4"><stop offset="0" stop-color="#4f4a72"/><stop offset="1" stop-color="#3b395f"/></linearGradient><linearGradient id="linear8" gradientUnits="userSpaceOnUse" x1="321.6034726551" x2="226.086611258" xlink:href="#lg4" y1="402.0907546678" y2="402.0907546678"/><linearGradient id="linear9" gradientUnits="userSpaceOnUse" x1="152.7718144368" x2="152.7718144368" xlink:href="#lg4" y1="260.2798728255" y2="589.6863622122"/><linearGradient id="linear10" gradientUnits="userSpaceOnUse" x1="422.5371139856" x2="422.5371139856" xlink:href="#lg4" y1="382.6715254637" y2="712.0781150461"/><linearGradient id="linear11" gradientUnits="userSpaceOnUse" x1="269.2793743968" x2="39.8073748202" xlink:href="#lg2" y1="556.8538344534" y2="327.3819350725"/><linearGradient id="linear12" gradientUnits="userSpaceOnUse" x1="104.0826157831" x2="104.0826157831" xlink:href="#lg3" y1="371.3363859227" y2="418.9780385329"/><linearGradient id="lg5"><stop offset="0" stop-color="#fca17a" stop-opacity="0"/><stop offset=".152" stop-color="#f69373" stop-opacity=".152941"/><stop offset=".416" stop-color="#ef816b" stop-opacity=".415686"/><stop offset=".6926" stop-color="#ea7666" stop-opacity=".694118"/><stop offset="1" stop-color="#e97264"/></linearGradient><linearGradient id="linear13" gradientUnits="userSpaceOnUse" x1="108.8749761141" x2="93.2406394775" xlink:href="#lg5" y1="332.3669717346" y2="505.1685839783"/><linearGradient id="linear14" gradientUnits="userSpaceOnUse" x1="108.2890316605" x2="94.5663287842" xlink:href="#lg5" y1="338.8434213912" y2="490.5165659845"/><linearGradient id="linear15" gradientUnits="userSpaceOnUse" x1="104.0826157831" x2="104.0826157831" xlink:href="#lg3" y1="422.0021451503" y2="469.6436975648"/><linearGradient id="linear16" gradientUnits="userSpaceOnUse" x1="108.8749761141" x2="93.2406394775" xlink:href="#lg5" y1="383.0327309622" y2="555.8341428145"/><linearGradient id="linear17" gradientUnits="userSpaceOnUse" x1="108.2890316605" x2="94.5663287842" xlink:href="#lg5" y1="389.5091806188" y2="541.1822250164"/><linearGradient id="linear18" gradientUnits="userSpaceOnUse" x1="104.0826157831" x2="104.0826157831" xlink:href="#lg3" y1="472.6679043779" y2="520.3094567924"/><linearGradient id="linear19" gradientUnits="userSpaceOnUse" x1="108.8749761141" x2="93.2406394775" xlink:href="#lg5" y1="433.6983899941" y2="606.5000022378"/><linearGradient id="linear20" gradientUnits="userSpaceOnUse" x1="108.2890316605" x2="94.5663287842" xlink:href="#lg5" y1="440.1748396507" y2="591.8480844397"/><linearGradient id="linear21" gradientUnits="userSpaceOnUse" x1="112.2034772681" x2="47.2037211985" xlink:href="#lg2" y1="217.9714369349" y2="80.4719760636"/><linearGradient id="lg6"><stop offset="0" stop-color="#ffb5b0"/><stop offset="1" stop-color="#ff70ac"/></linearGradient><linearGradient id="linear22" gradientUnits="userSpaceOnUse" x1="52.020629476" x2="94.1798739693" xlink:href="#lg6" y1="162.4467874315" y2="204.6060319248"/><linearGradient id="linear23" gradientUnits="userSpaceOnUse" x1="310.5222290179" x2="352.6814735112" xlink:href="#lg6" y1="84.0528701859" y2="126.2121146792"/><linearGradient id="linear24" gradientUnits="userSpaceOnUse" x1="408.0448079376" x2="471.0667008892" xlink:href="#lg6" y1="55.0351935089" y2="118.0570864605"/><path d="m448.660156 510.996094h-389.722656c-9.203125 0-16.660156-7.457032-16.660156-16.65625v-323.335938c0-9.203125 7.457031-16.660156 16.660156-16.660156h389.722656c9.199219 0 16.65625 7.457031 16.65625 16.660156v323.335938c.003906 9.199218-7.457031 16.65625-16.65625 16.65625zm0 0" fill="url(#linear0)"/><path d="m42.277344 192v302.335938c0 9.203124 7.457031 16.660156 16.660156 16.660156h389.722656c9.199219 0 16.65625-7.457032 16.65625-16.660156v-302.335938zm0 0" fill="url(#linear1)"/><path d="m42.277344 222v272.339844c0 9.199218 7.457031 16.65625 16.660156 16.65625h389.722656c9.199219 0 16.65625-7.457032 16.65625-16.65625v-272.339844zm0 0" fill="url(#linear2)"/><path d="m42.277344 260v234.339844c0 9.199218 7.457031 16.65625 16.660156 16.65625h389.722656c9.199219 0 16.65625-7.457032 16.65625-16.65625v-234.339844zm0 0" fill="url(#linear3)"/><path d="m465.316406 304v190.339844c0 9.199218-7.457031 16.65625-16.65625 16.65625h-389.722656c-9.199219 0-16.65625-7.457032-16.65625-16.65625v-190.339844zm0 0" fill="url(#linear4)"/><path d="m492.136719 512h-389.71875c-9.203125 0-16.660157-7.457031-16.660157-16.660156v-186.5c0-9.199219 7.457032-16.65625 16.660157-16.65625h389.71875c9.203125 0 16.660156 7.457031 16.660156 16.65625v186.5c0 9.199218-7.457031 16.660156-16.660156 16.660156zm0 0" fill="url(#linear5)"/><path d="m125.039062 317.722656h344.472657c7.558593 0 13.6875 6.125 13.6875 13.683594v141.367188c0 7.558593-6.128907 13.6875-13.6875 13.6875h-344.472657c-7.558593 0-13.683593-6.128907-13.683593-13.6875v-141.367188c0-7.558594 6.125-13.683594 13.683593-13.683594zm0 0" fill="url(#linear6)"/><path d="m368.277344 402.089844c0 39.210937-31.789063 71-71 71-39.210938 0-71-31.789063-71-71 0-39.210938 31.789062-71 71-71 39.210937 0 71 31.789062 71 71zm0 0" fill="url(#radial0)"/><path d="m318.332031 356.183594c-3.265625-1.171875-6.75-1.96875-10.441406-2.40625-.511719-.328125-1.042969-.554688-1.601563-.664063v-.171875c0-.8125-3.621093-4.722656-4.476562-5.355468-.859375-.632813-1.785156-.949219-2.777344-.949219-1.082031 0-2.007812.316406-2.777344.949219-.765624.632812-1.148437 1.351562-1.148437 2.164062v3.929688c-7.3125.8125-13.429687 3.25-18.351563 7.308593-4.917968 4.066407-7.378906 10.019531-7.378906 17.859375 0 2.792969.316406 5.339844.949219 7.636719.628906 2.296875 1.667969 4.300781 3.113281 6.011719 1.445313 1.710937 2.820313 3.175781 4.128906 4.394531.125.113281 17.539063 17.550781 17.539063 17.550781v22.652344c-4-.273438-7.523437-1.304688-10.570313-3.109375-3.046874-1.800781-5.441406-3.488281-7.183593-5.066406-1.746094-1.578125-3.152344-2.367188-4.222657-2.367188-1.617187 0-3.050781.855469-4.308593 2.570313-1.253907 1.710937-1.882813 3.421875-1.882813 5.132812 0 2.910156 1.75 5.773438 5.234375 8.597656l69.148438 69.148438h134.570312l-151.113281-151.117188c-.921875-1.910156-3.058594-3.480468-6.449219-4.699218zm0 0" fill="url(#linear7)"/><path d="m266.945312 434.257812c0-1.710937.625-3.421874 1.878907-5.132812 1.257812-1.714844 2.691406-2.570312 4.308593-2.570312 1.074219 0 2.480469.789062 4.222657 2.363281 1.742187 1.578125 4.136719 3.269531 7.183593 5.070312 3.046876 1.800781 6.570313 2.835938 10.570313 3.105469v-31.753906c-2.707031-.992188-4.785156-1.78125-6.226563-2.367188-1.445312-.582031-3.367187-1.441406-5.757812-2.566406s-4.242188-2.296875-5.550781-3.515625c-1.308594-1.214844-2.6875-2.679687-4.128907-4.390625-1.445312-1.710938-2.484374-3.714844-3.117187-6.015625-.632813-2.296875-.945313-4.84375-.945313-7.636719 0-7.839844 2.457032-13.792968 7.378907-17.855468 4.917969-4.0625 11.035156-6.5 18.347656-7.3125v-3.925782c0-.8125.386719-1.535156 1.152344-2.167968.765625-.628907 1.691406-.949219 2.777343-.949219.992188 0 1.914063.320312 2.773438.949219.859375.632812 1.289062 1.355468 1.289062 2.167968v3.65625c5.503907.179688 10.582032 1.105469 15.234376 2.773438 4.648437 1.671875 6.972656 3.996094 6.972656 6.976562 0 1.625-.546875 3.316406-1.640625 5.074219-1.09375 1.761719-2.550781 2.640625-4.371094 2.640625-.71875 0-2.695313-.765625-5.929687-2.300781-3.234376-1.535157-6.65625-2.4375-10.265626-2.707031v27.441406c3.589844 1.351562 6.574219 2.636718 8.953126 3.851562 2.378906 1.21875 4.894531 2.90625 7.542968 5.070313 2.648438 2.160156 4.644532 4.886719 5.992188 8.175781 1.34375 3.285156 2.019531 7.140625 2.019531 11.554688 0 8.0625-2.199219 14.476562-6.597656 19.230468-4.402344 4.757813-10.371094 7.679688-17.914063 8.765625v4.527344c0 .796875-.429687 1.503906-1.285156 2.128906-.859375.617188-1.785156.929688-2.777344.929688-1.082031 0-2.007812-.3125-2.773437-.929688-.769531-.621093-1.152344-1.328125-1.152344-2.128906v-4.117187c-7.851563-.09375-14.511719-1.890626-19.972656-5.394532-5.464844-3.5-8.191407-7.074218-8.191407-10.714844zm15.84375-56.757812c0 3.515625 1.089844 6.195312 3.28125 8.039062 2.1875 1.847657 5.472657 3.582032 9.851563 5.207032v-24.621094c-8.757813 1.082031-13.132813 4.875-13.132813 11.375zm19.5 59.324219c7.941407-1.441407 11.914063-5.902344 11.914063-13.378907 0-3.960937-1.039063-7.070312-3.113281-9.320312-2.078125-2.253906-5.011719-4.191406-8.800782-5.8125zm0 0" fill="url(#linear8)"/><path d="m172.273438 351.421875h-39.003907c-2.441406 0-4.421875-1.976563-4.421875-4.421875v-12.214844c0-2.441406 1.980469-4.417968 4.421875-4.417968h39.003907c2.441406 0 4.421874 1.976562 4.421874 4.417968v12.214844c0 2.445312-1.980468 4.421875-4.421874 4.421875zm0 0" fill="url(#linear9)"/><path d="m461.28125 473.816406h-77.488281c-2.441407 0-4.421875-1.980468-4.421875-4.421875v-12.214843c0-2.441407 1.980468-4.421876 4.421875-4.421876h77.488281c2.445312 0 4.421875 1.980469 4.421875 4.421876v12.214843c0 2.441407-1.976563 4.421875-4.421875 4.421875zm0 0" fill="url(#linear10)"/><path d="m102.417969 512h250.589843l-147.09375-147.09375c-1.925781-2.949219-5.25-4.902344-9.035156-4.902344h-111.121094v135.335938c0 9.203125 7.457032 16.660156 16.660157 16.660156zm0 0" fill="url(#linear11)"/><path d="m196.878906 410.667969h-185.589844c-5.960937 0-10.789062-4.832031-10.789062-10.789063v-29.085937c0-5.960938 4.832031-10.789063 10.789062-10.789063h185.589844c5.957032 0 10.785156 4.828125 10.785156 10.789063v29.085937c0 5.957032-4.828124 10.789063-10.785156 10.789063zm0 0" fill="url(#linear12)"/><path d="m167.683594 410.667969h-127.203125c-4.988281 0-9.035157-4.042969-9.035157-9.035157v-32.597656c0-4.988281 4.046876-9.035156 9.035157-9.035156h127.203125c4.992187 0 9.035156 4.046875 9.035156 9.035156v32.597656c0 4.992188-4.042969 9.035157-9.035156 9.035157zm0 0" fill="url(#linear13)"/><path d="m125.78125 410.667969h-43.398438c-3.054687 0-5.53125-2.476563-5.53125-5.53125v-39.601563c0-3.054687 2.476563-5.53125 5.53125-5.53125h43.398438c3.054688 0 5.535156 2.476563 5.535156 5.53125v39.601563c0 3.054687-2.480468 5.53125-5.535156 5.53125zm0 0" fill="url(#linear14)"/><path d="m196.878906 461.335938h-185.589844c-5.960937 0-10.789062-4.832032-10.789062-10.789063v-29.089844c0-5.957031 4.832031-10.789062 10.789062-10.789062h185.589844c5.957032 0 10.785156 4.832031 10.785156 10.789062v29.089844c0 5.957031-4.828124 10.789063-10.785156 10.789063zm0 0" fill="url(#linear15)"/><path d="m167.683594 461.335938h-127.203125c-4.988281 0-9.035157-4.046876-9.035157-9.035157v-32.597656c0-4.992187 4.046876-9.035156 9.035157-9.035156h127.203125c4.992187 0 9.035156 4.042969 9.035156 9.035156v32.597656c0 4.988281-4.042969 9.035157-9.035156 9.035157zm0 0" fill="url(#linear16)"/><path d="m125.78125 461.335938h-43.398438c-3.054687 0-5.53125-2.480469-5.53125-5.535157v-39.601562c0-3.054688 2.476563-5.53125 5.53125-5.53125h43.398438c3.054688 0 5.535156 2.476562 5.535156 5.53125v39.601562c0 3.054688-2.480468 5.535157-5.535156 5.535157zm0 0" fill="url(#linear17)"/><path d="m196.878906 512h-185.589844c-5.960937 0-10.789062-4.832031-10.789062-10.789062v-29.089844c0-5.957032 4.832031-10.785156 10.789062-10.785156h185.589844c5.957032 0 10.785156 4.828124 10.785156 10.785156v29.089844c0 5.957031-4.828124 10.789062-10.785156 10.789062zm0 0" fill="url(#linear18)"/><path d="m167.683594 512h-127.203125c-4.988281 0-9.035157-4.042969-9.035157-9.035156v-32.597656c0-4.988282 4.046876-9.03125 9.035157-9.03125h127.203125c4.992187 0 9.035156 4.042968 9.035156 9.03125v32.597656c0 4.992187-4.042969 9.035156-9.035156 9.035156zm0 0" fill="url(#linear19)"/><path d="m125.78125 512h-43.398438c-3.054687 0-5.53125-2.476562-5.53125-5.53125v-39.601562c0-3.054688 2.476563-5.53125 5.53125-5.53125h43.398438c3.054688 0 5.535156 2.476562 5.535156 5.53125v39.601562c0 3.054688-2.480468 5.53125-5.535156 5.53125zm0 0" fill="url(#linear20)"/><path d="m191.007812 260h-88.578124l-38.769532-39.019531c-.09375.027343-.183594.046875-.269531.058593v.007813c-.023437 0-.042969.011719-.0625.011719-.109375.019531-.230469.03125-.347656.03125h-.101563c-1 0-1.871094-.703125-2.109375-1.671875-.101562-.429688-.210937-.847657-.332031-1.269531-.308594-1.160157-.640625-2.300782-1.007812-3.417969l-.179688-.542969c-.242188-.738281-.492188-1.46875-.761719-2.1875v-.011719c-.300781-.796875-.601562-1.589843-.929687-2.367187-.199219-.082032-.410156-.160156-.621094-.230469l-14.660156-14.660156v-23.730469c0-9.199219 7.460937-16.660156 16.660156-16.660156h19.738281c.863281 1.03125 1.761719 2.019531 2.691407 2.980468h.289062c.640625.769532 1.3125 1.507813 1.992188 2.238282.269531.25.550781.5.820312.742187h.167969c.191406.230469.378906.4375.570312.660157 5.152344 4.4375 11 7.851562 17.308594 9.957031.882813.292969 1.453125 1.121093 1.453125 2.042969zm0 0" fill="url(#linear21)"/><path d="m102.519531 170.917969c-18-6.007813-32.207031-22.574219-37.425781-43.617188-.242188-.976562-1.105469-1.671875-2.109375-1.671875h-.105469c-1.003906 0-1.867187.695313-2.109375 1.671875-5.21875 21.042969-19.425781 37.609375-37.425781 43.617188-.875.292969-1.453125 1.125-1.453125 2.046875v.789062c0 .917969.578125 1.753906 1.453125 2.042969 18 6.007813 32.207031 22.574219 37.425781 43.617187.242188.976563 1.105469 1.671876 2.109375 1.671876h.105469c1.003906 0 1.867187-.695313 2.109375-1.671876 5.21875-21.042968 19.425781-37.609374 37.425781-43.617187.875-.292969 1.453125-1.125 1.453125-2.046875v-.789062c0-.917969-.578125-1.75-1.453125-2.042969zm0 0" fill="url(#linear22)"/><path d="m361.023438 92.523438c-18.003907-6.007813-32.207032-22.570313-37.429688-43.617188-.242188-.976562-1.101562-1.671875-2.109375-1.671875h-.105469c-1.003906 0-1.867187.695313-2.109375 1.671875-5.21875 21.046875-19.425781 37.609375-37.425781 43.617188-.875.292968-1.449219 1.125-1.449219 2.046874v.789063c0 .921875.574219 1.753906 1.449219 2.046875 18 6.007812 32.207031 22.570312 37.425781 43.617188.242188.976562 1.105469 1.671874 2.109375 1.671874h.105469c1.007813 0 1.871094-.695312 2.109375-1.671874 5.21875-21.046876 19.425781-37.609376 37.429688-43.617188.871093-.292969 1.449218-1.125 1.449218-2.046875v-.789063c0-.921874-.578125-1.753906-1.449218-2.046874zm0 0" fill="url(#linear23)"/><path d="m483.535156 67.699219c-26.910156-8.980469-48.144531-33.742188-55.945312-65.199219-.363282-1.460938-1.652344-2.5-3.15625-2.5h-.15625c-1.503906 0-2.792969 1.039062-3.152344 2.496094-7.804688 31.460937-29.039062 56.222656-55.949219 65.203125-1.304687.433593-2.167969 1.679687-2.167969 3.058593v1.175782c0 1.378906.863282 2.621094 2.167969 3.058594 26.910157 8.980468 48.144531 33.746093 55.949219 65.199218.359375 1.460938 1.648438 2.5 3.152344 2.5h.15625c1.503906 0 2.792968-1.039062 3.15625-2.5 7.800781-31.457031 29.035156-56.21875 55.945312-65.199218 1.304688-.4375 2.167969-1.679688 2.167969-3.058594v-1.175782c0-1.378906-.863281-2.621093-2.167969-3.058593zm0 0" fill="url(#linear24)"/></svg>