<svg height="511pt" viewBox="0 -18 511.99908 511" width="511pt" xmlns="http://www.w3.org/2000/svg" xmlns:xlink="http://www.w3.org/1999/xlink"><linearGradient id="lg1"><stop offset="0" stop-color="#ffc738"/><stop offset="1" stop-color="#e97264"/></linearGradient><linearGradient id="linear0" gradientTransform="matrix(.709873 .709873 -.709873 .709873 1171.646532 -64.254706)" gradientUnits="userSpaceOnUse" x1="-509.2914" x2="-303.8274" xlink:href="#lg1" y1="1025.782" y2="1057.3326"/><linearGradient id="linear1" gradientTransform="matrix(.709873 .709873 -.709873 .709873 1171.646532 -64.254706)" gradientUnits="userSpaceOnUse" x1="-452.8415" x2="-436.695" xlink:href="#lg1" y1="1030.3037" y2="1030.3037"/><linearGradient id="linear2" gradientTransform="matrix(-.709873 -.709873 -.709873 .709873 2264.100832 1028.199493)" gradientUnits="userSpaceOnUse" x1="2006.2177" x2="2022.3643" xlink:href="#lg1" y1="970.4716" y2="970.4716"/><linearGradient id="lg2"><stop offset="0" stop-color="#e97264" stop-opacity="0"/><stop offset="1" stop-color="#b53759"/></linearGradient><linearGradient id="linear3" gradientTransform="matrix(.709873 .709873 -.709873 .709873 1171.646532 -64.254706)" gradientUnits="userSpaceOnUse" x1="-359.0802" x2="-493.7622" xlink:href="#lg2" y1="978.6835" y2="844.0013"/><linearGradient id="linear4" gradientTransform="matrix(.709873 .709873 -.709873 .709873 1171.646532 -64.254706)" gradientUnits="userSpaceOnUse" x1="-506.8509" x2="-227.5925" xlink:href="#lg1" y1="713.1804" y2="992.4387"/><linearGradient id="linear5" gradientTransform="matrix(.709873 .709873 -.709873 .709873 1171.646532 -64.254706)" gradientUnits="userSpaceOnUse" x1="-390.0153" x2="-654.2774" xlink:href="#lg1" y1="830.016" y2="565.7538"/><radialGradient id="radial0" cx="-444.7682" cy="722.8245" gradientTransform="matrix(.709873 .709873 -.709873 .709873 1171.646532 -64.254706)" gradientUnits="userSpaceOnUse" r="60.0196"><stop offset="0" stop-color="#b53759"/><stop offset="1" stop-color="#e97264" stop-opacity="0"/></radialGradient><linearGradient id="linear6" gradientUnits="userSpaceOnUse" x1="425.947627809" x2="374.5875806422" xlink:href="#lg2" y1="130.998867127" y2="79.6388199602"/><linearGradient id="lg3"><stop offset="0" stop-color="#00e7b2"/><stop offset=".4139" stop-color="#1fa999"/><stop offset="1" stop-color="#4f4a72"/></linearGradient><linearGradient id="linear7" gradientUnits="userSpaceOnUse" x1="260.510819468" x2="260.510819468" xlink:href="#lg3" y1="81.5056129192" y2="282.1936364072"/><linearGradient id="linear8" gradientUnits="userSpaceOnUse" x1="448.3597848902" x2="254.762362096" xlink:href="#lg3" y1="344.9740994616" y2="151.3766766674"/><path d="m85.992188 433.839844 9.488281-9.488282c2.609375-2.605468 6.273437-3.863281 9.929687-3.398437 7.730469.976563 14.304688-5.601563 13.332032-13.332031-.464844-3.65625.792968-7.324219 3.398437-9.929688l9.488281-9.488281c3.316406-3.316406 8.695313-3.316406 12.011719 0 3.320313 3.320313 8.699219 3.320313 12.015625 0l19.703125-19.699219c3.316406-3.320312 3.316406-8.699218 0-12.015625-3.316406-3.316406-3.316406-8.695312 0-12.015625l18.125-18.125c3.316406-3.316406 8.695313-3.316406 12.015625 0 3.316406 3.316406 8.695312 3.316406 12.011719 0l47.472656-47.472656-67.933594-67.929688-184.402343 184.402344c-6.128907 6.128906-9.800782 14.292969-10.316407 22.945313l-2.2968748 38.390625c-.6523442 10.867187 8.3398438 19.863281 19.2070318 19.210937l38.394531-2.296875c8.652343-.519531 16.8125-4.1875 22.941406-10.316406l5.414063-5.414062c3.320312-3.316407 3.320312-8.695313 0-12.015626-3.316407-3.316406-3.316407-8.695312 0-12.011718zm0 0" fill="url(#linear0)"/><path d="m16.207031 459.722656c-3.164062-3.167968-3.164062-8.296875 0-11.464844l205.171875-205.167968c3.164063-3.167969 8.296875-3.167969 11.460938 0 3.164062 3.164062 3.164062 8.292968 0 11.460937l-205.171875 205.171875c-3.164063 3.164063-8.296875 3.164063-11.460938 0zm0 0" fill="url(#linear1)"/><path d="m40.25 398.816406c3.164062 3.164063 8.296875 3.164063 11.460938 0l205.171874-205.171875c3.164063-3.164062 3.164063-8.296875 0-11.460937-3.167968-3.164063-8.296874-3.164063-11.464843 0l-205.167969 205.171875c-3.167969 3.164062-3.167969 8.296875 0 11.460937zm0 0" fill="url(#linear2)"/><path d="m179.007812 340.824219 14.476563-14.476563c3.316406-3.316406 8.695313-3.316406 12.015625 0 3.316406 3.320313 8.695312 3.320313 12.011719 0l47.472656-47.46875-67.933594-67.933594-18.042969 18.042969zm0 0" fill="url(#linear3)"/><path d="m403.585938 72.339844c-54.128907-54.132813-141.898438-54.132813-196.03125 0-54.128907 54.132812-54.132813 141.902344 0 196.03125 54.132812 54.132812 141.902343 54.132812 196.03125 0 54.132812-54.128906 54.132812-141.898438 0-196.03125zm-88.578126 88.578125c-15.34375-15.347657-15.355468-40.226563 0-55.582031 15.347657-15.347657 40.226563-15.335938 55.574219.007812 15.34375 15.347656 15.355469 40.226562.007813 55.574219-15.355469 15.355469-40.234375 15.347656-55.582032 0zm0 0" fill="url(#linear4)"/><path d="m386.453125 89.472656c-44.671875-44.671875-117.09375-44.671875-161.765625 0-44.671875 44.675782-44.671875 117.09375 0 161.765625 44.671875 44.675781 117.09375 44.675781 161.765625 0 44.671875-44.671875 44.671875-117.089843 0-161.765625zm-71.445313 71.445313c-15.34375-15.347657-15.355468-40.226563 0-55.582031 15.347657-15.347657 40.226563-15.335938 55.574219.007812 15.34375 15.347656 15.355469 40.226562.007813 55.574219-15.355469 15.355469-40.234375 15.347656-55.582032 0zm0 0" fill="url(#linear5)"/><path d="m385.398438 90.527344c-23.527344-23.527344-61.675782-23.542969-85.203126-.015625-23.546874 23.546875-23.53125 61.695312 0 85.222656 23.527344 23.53125 61.675782 23.546875 85.21875 0 23.53125-23.527344 23.515626-61.675781-.015624-85.207031zm-70.390626 70.390625c-15.34375-15.347657-15.355468-40.226563 0-55.582031 15.347657-15.347657 40.226563-15.335938 55.574219.007812 15.34375 15.347656 15.355469 40.226562.007813 55.574219-15.355469 15.355469-40.234375 15.347656-55.582032 0zm0 0" fill="url(#radial0)"/><path d="m371.722656 106.546875c4.125 4.476563 7.019532 9.679687 8.679688 15.175781l63.027344 63.03125c4.113281-39.597656-8.785157-80.617187-38.6875-111.226562zm0 0" fill="url(#linear6)"/><path d="m154.605469 242.921875 5.234375 5.238281-19.816406 19.816406-5.234376-5.238281c-28.84375-28.832031-44.804687-67.105469-44.996093-107.859375-.414063-84.90625 70.328125-154.378906 155.246093-154.378906h136.511719c20.421875 0 37.960938 11.71875 45.777344 30.59375s3.703125 39.5625-10.742187 54.007812l-40.371094 40.371094c-5.472656 5.472656-14.34375 5.472656-19.816406 0-2.738282-2.734375-4.117188-6.324218-4.117188-9.914062 0-3.585938 1.378906-7.175782 4.117188-9.914063l6.359374-6.367187h.007813l33.621094-33.632813.046875-.046875c6.3125-6.300781 8.398437-15.855468 4.878906-24.054687-3.5-8.152344-10.855469-13.007813-19.761719-13.007813h-136.726562c-69.203125 0-126.464844 55.398438-126.992188 124.59375-.257812 33.914063 12.828125 65.839844 36.773438 89.792969zm0 0" fill="url(#linear7)"/><path d="m512 225.675781c0 33.957031-13.234375 65.886719-37.246094 89.90625l-74.6875 74.691407c-18.984375 18.984374-43.9375 28.484374-68.878906 28.484374s-49.894531-9.5-68.878906-28.484374l-65.839844-65.839844c3.027344-1.167969 6.582031-.527344 9.027344 1.914062 1.65625 1.660156 3.832031 2.492188 6.007812 2.492188 2.175782 0 4.351563-.832032 6-2.492188l10.261719-10.257812 54.367187 54.355468c27.050782 27.050782 71.058594 27.050782 98.105469 0l74.6875-74.6875c18.71875-18.71875 29.035157-43.605468 29.035157-70.082031 0-27.453125-18.59375-57.285156-41.640626-78.007812-2.535156-15.375-7.667968-30.402344-15.417968-44.386719 42.121094 20.734375 85.097656 71.660156 85.097656 122.394531zm0 0" fill="url(#linear8)"/></svg>