<svg
  width="35"
  height="35"
  viewBox="0 0 35 35"
  fill="none"
  xmlns="http://www.w3.org/2000/svg"
>
  <path
    d="M24.7917 0C22.1769 0 19.8071 0.49 17.955 1.41312C16.1044 2.33625 14.5833 3.83979 14.5833 5.83333V11.6667C14.5833 11.8548 14.646 12.0371 14.6752 12.2135C13.2155 11.8426 11.7145 11.6588 10.2083 11.6667C7.59354 11.6667 5.22375 12.1567 3.37167 13.0798C1.52104 14.0029 0 15.5065 0 17.5V29.1667C0 31.1602 1.52104 32.6637 3.37313 33.5869C5.22375 34.51 7.59354 35 10.2083 35C12.8231 35 15.1929 34.51 17.045 33.5869C18.8942 32.6637 20.4167 31.1602 20.4167 29.1667V28.5746C21.8433 28.9603 23.3139 29.1593 24.7917 29.1667C27.4065 29.1667 29.7763 28.6767 31.6283 27.7535C33.4775 26.8304 35 25.3269 35 23.3333V5.83333C35 3.83979 33.479 2.33625 31.6269 1.41312C29.7777 0.49 27.4079 0 24.7917 0ZM24.7917 2.91667C27.0127 2.91667 28.9902 3.395 30.3056 4.05563C31.6225 4.71625 32.0833 5.41188 32.0833 5.83333C32.0833 6.25625 31.6225 6.95042 30.3056 7.61104C28.9917 8.27167 27.0127 8.75 24.7917 8.75C22.5706 8.75 20.5931 8.27167 19.2777 7.61104C17.9608 6.95042 17.5 6.25479 17.5 5.83333C17.5 5.41042 17.9608 4.71625 19.2777 4.05563C20.5917 3.395 22.5706 2.91667 24.7917 2.91667ZM17.5 9.98083C17.6531 10.0654 17.796 10.1748 17.9565 10.2535C19.8071 11.1767 22.1769 11.6667 24.7917 11.6667C27.4065 11.6667 29.7763 11.1767 31.6283 10.2535C31.7873 10.1748 31.9302 10.0654 32.0833 9.98083V11.6667C32.0833 12.0896 31.6225 12.7838 30.3056 13.4444C28.9902 14.105 27.0127 14.5833 24.7917 14.5833C22.5706 14.5833 20.5931 14.105 19.2777 13.4444C17.9608 12.7838 17.5 12.0881 17.5 11.6667V9.98083ZM10.2083 14.5833C12.4294 14.5833 14.4069 15.0617 15.7223 15.7223C17.0392 16.3829 17.5 17.0785 17.5 17.5C17.5 17.9229 17.0392 18.6171 15.7223 19.2777C14.4069 19.9383 12.4294 20.4167 10.2083 20.4167C7.98729 20.4167 6.00979 19.9383 4.69438 19.2777C3.3775 18.6171 2.91667 17.9215 2.91667 17.5C2.91667 17.0771 3.3775 16.3829 4.69438 15.7223C6.00833 15.0617 7.98729 14.5833 10.2083 14.5833ZM32.0833 15.8142V17.5C32.0833 17.9229 31.6225 18.6171 30.3056 19.2777C28.9902 19.9383 27.0127 20.4167 24.7917 20.4167C23.3061 20.4247 21.8289 20.1938 20.4167 19.7327V17.5C20.4167 17.3119 20.354 17.1296 20.3248 16.9531C21.681 17.306 23.1846 17.5 24.7917 17.5C27.4065 17.5 29.7763 17.01 31.6283 16.0869C31.7873 16.0081 31.9302 15.8988 32.0833 15.8142ZM2.91667 21.6475C3.06979 21.7321 3.21271 21.8415 3.37313 21.9202C5.22375 22.8433 7.59354 23.3333 10.2083 23.3333C12.8231 23.3333 15.1929 22.8433 17.045 21.9202C17.204 21.8415 17.3469 21.7321 17.5 21.6475V23.3333C17.5 23.7563 17.0392 24.4504 15.7223 25.111C14.4069 25.7717 12.4294 26.25 10.2083 26.25C7.98729 26.25 6.00979 25.7717 4.69438 25.111C3.3775 24.4504 2.91667 23.7548 2.91667 23.3333V21.6475ZM32.0833 21.6475V23.3333C32.0833 23.7563 31.6225 24.4504 30.3056 25.111C28.9902 25.7717 27.0127 26.25 24.7917 26.25C23.1335 26.25 21.6358 26.0167 20.4167 25.6113V22.7865C21.7554 23.1394 23.2138 23.3333 24.7917 23.3333C27.4065 23.3333 29.7763 22.8433 31.6283 21.9202C31.7873 21.8415 31.9302 21.7321 32.0833 21.6475ZM2.91667 27.4808C3.06979 27.5654 3.21271 27.6748 3.37313 27.7535C5.22375 28.6767 7.59354 29.1667 10.2083 29.1667C12.8231 29.1667 15.1929 28.6767 17.045 27.7535C17.204 27.6748 17.3469 27.5654 17.5 27.4808V29.1667C17.5 29.5896 17.0392 30.2838 15.7223 30.9444C14.4069 31.605 12.4294 32.0833 10.2083 32.0833C7.98729 32.0833 6.00979 31.605 4.69438 30.9444C3.3775 30.2838 2.91667 29.5881 2.91667 29.1667V27.4808Z"
    fill="#58C1B9"
  />
</svg>
