<svg width="35" height="35" viewBox="0 0 35 35" fill="none" xmlns="http://www.w3.org/2000/svg">
  <path fill-rule="evenodd" clip-rule="evenodd" d="M32.1343 10.8835C31.8999 11.1179 31.5819 11.2496 31.2504 11.2496H30.0004V27.4998H32.5004V29.9999H2.50003V27.4998H5.00007V11.2496H3.75005C3.41852 11.2496 3.10058 11.1179 2.86615 10.8835C2.63173 10.6491 2.50003 10.3311 2.50003 9.9996V6.24955C2.50014 5.99265 2.5794 5.74203 2.72702 5.53178C2.87464 5.32154 3.08345 5.16188 3.32504 5.07453L17.0752 0.0744692C17.3499 -0.0248231 17.6506 -0.0248231 17.9252 0.0744692L31.6754 5.07453C31.917 5.16188 32.1258 5.32154 32.2734 5.53178C32.4211 5.74203 32.5003 5.99265 32.5004 6.24955V9.9996C32.5004 10.3311 32.3687 10.6491 32.1343 10.8835ZM17.5002 2.5745L5.00007 7.12456V8.74958H30.0004V7.12456L17.5002 2.5745ZM15.0002 11.2496V27.4998H20.0003V11.2496H15.0002ZM12.5002 11.2496H7.5001V27.4998H12.5002V11.2496ZM22.5003 27.4998H27.5004V11.2496H22.5003V27.4998ZM35.0005 35V32.5H0V35H35.0005Z" fill="#58C1B9"/>
</svg>
