<svg width="35" height="35" viewBox="0 0 35 35" fill="none" xmlns="http://www.w3.org/2000/svg">
  <path d="M16.25 18.0125L23.2375 25L25 23.2375L18.75 16.975V6.25H16.25V18.0125Z" fill="#58C1B9"/>
  <path fill-rule="evenodd" clip-rule="evenodd"
        d="M7.77753 32.0507C10.6554 33.9736 14.0388 35 17.5 35C22.1413 35 26.5925 33.1563 29.8744 29.8744C33.1563 26.5925 35 22.1413 35 17.5C35 14.0388 33.9736 10.6554 32.0507 7.77753C30.1278 4.89967 27.3947 2.65665 24.197 1.33212C20.9993 0.00758231 17.4806 -0.338976 14.0859 0.336266C10.6913 1.01151 7.57306 2.67822 5.12564 5.12564C2.67822 7.57306 1.01151 10.6913 0.336266 14.0859C-0.338976 17.4806 0.00758231 20.9993 1.33212 24.197C2.65665 27.3947 4.89967 30.1278 7.77753 32.0507ZM9.16645 5.02796C11.6332 3.37974 14.5333 2.50001 17.5 2.50001C21.4783 2.50001 25.2936 4.08036 28.1066 6.8934C30.9196 9.70645 32.5 13.5218 32.5 17.5C32.5 20.4667 31.6203 23.3668 29.972 25.8336C28.3238 28.3003 25.9811 30.2229 23.2403 31.3582C20.4994 32.4935 17.4834 32.7906 14.5737 32.2118C11.6639 31.633 8.99119 30.2044 6.8934 28.1066C4.79562 26.0088 3.36701 23.3361 2.78823 20.4264C2.20945 17.5166 2.5065 14.5006 3.64181 11.7598C4.77713 9.01886 6.69972 6.67618 9.16645 5.02796Z"
        fill="#58C1B9"/>
</svg>
