<svg width="180" height="12" viewBox="0 0 180 12" fill="none" xmlns="http://www.w3.org/2000/svg">
<path d="M3.71513 0H12.3998L10.4337 4.28216L8.6244 6.09129L5.97074 8.74689L10.0236 5.16183L11.8691 3.53527L12.3395 3.13693L15.8978 0H22.0736L19.239 2.50622V2.48963L15.4998 5.74274L12.8341 8.08299L16.0426 5.65975L18.7083 11.9834L10.88 12L8.9742 7.46888L6.88746 12H0L4.26998 2.6722L5.22289 4.31535L4.4871 2.22407L3.71513 0Z" fill="white"/>
<path d="M24.5034 9.62656H31.029L30.064 6.85477L27.7119 9.04564L24.5034 9.62656ZM37.9164 12H18.3758L28.2426 2.77178L29.28 4.58091L28.5563 2.48963L27.6878 0H33.743L37.9164 12Z" fill="white"/>
<path d="M42.4222 0H51.1069L45.5945 12H38.7071L42.9771 2.6722L43.93 4.31535L43.1942 2.22407L42.4222 0Z" fill="white"/>
<path d="M60.8175 2.37344H52.2172L52.1689 2.22407L51.397 0H67.331L57.3798 9.04564L54.1351 9.62656H61.3602L65.3407 8.31535L63.64 12H47.6095L57.5848 2.95436L60.8175 2.37344Z" fill="white"/>
<path d="M67.995 0H85.8589L84.7733 2.37344H75.5941L74.3517 5.06224H81.4925L80.4069 7.43569H73.2661L72.4941 9.11203L69.6716 9.62656H82.8072L81.7216 12H66.065L65.2931 9.77593L68.5498 2.6722L69.4907 4.31535L68.7669 2.22407L67.995 0Z" fill="white"/>
<path d="M86.3475 0H95.0322L97.0949 5.94191L98.1443 9.01245L97.71 6.57261L97.5894 5.87552L100.279 0H105.671L100.159 12H93.1385L92.4027 9.89212H92.4148L90.6899 4.86307L91.1241 7.3029L91.2809 8.16598L89.5199 12H82.6324L86.9024 2.6722L87.8553 4.31535L87.1195 2.22407L86.3475 0Z" fill="white"/>
<path d="M106.007 0H123.883L122.798 2.37344H113.606L112.364 5.06224H119.505L118.419 7.43569H111.278L109.18 12H102.292L106.562 2.6722L107.515 4.31535L106.779 2.22407L106.007 0Z" fill="white"/>
<path d="M123.523 0H132.208L128.022 9.11203L125.2 9.62656H131.834L136.261 0H142.726L141.966 1.64315L140.627 4.58091L138.311 9.62656L135.778 12H119.808L124.078 2.6722L125.031 4.31535L124.295 2.22407L123.523 0Z" fill="white"/>
<path d="M142.983 0H151.668L153.73 5.94191L154.78 9.01245L154.345 6.57261L154.225 5.87552L156.915 0H162.306L156.794 12H149.774L149.038 9.89212H149.05L147.325 4.86307L147.759 7.3029L147.916 8.16598L146.155 12H139.268L143.538 2.6722L144.491 4.31535L143.755 2.22407L142.983 0Z" fill="white"/>
<path d="M162.643 0H178.613L179.433 2.35685V2.37344L180 4.0166L177.431 9.62656H177.455L176.369 12H158.928L163.198 2.6722L164.15 4.31535L163.415 2.22407L162.643 0ZM170.953 9.62656L174.295 2.37344H170.242L167.142 9.11203L164.319 9.62656H170.953Z" fill="white"/>
</svg>
