<svg width="90" height="70" viewBox="0 0 90 70" fill="none" xmlns="http://www.w3.org/2000/svg">
<path d="M17.696 26V17.108H19.556V20.768L22.268 17.108H24.428L21.752 20.564L24.476 26H22.4L20.492 22.148L19.556 23.432V26H17.696ZM41.5029 26L44.2749 17.048H46.2909L49.0629 26H47.1309L46.7229 24.62H43.7829L43.3869 26H41.5029ZM44.2269 22.964H46.2669L45.2589 19.592L44.2269 22.964ZM66.8259 26V17.108H68.6979V26H66.8259ZM17.276 53V51.584L21.116 45.824H17.444V44.108H23.36V45.656L19.556 51.32H23.468V53H17.276ZM41.2694 53V44.108H46.7534V45.824H43.1054V47.6H46.5974V49.304H43.1054V51.32H46.7654V53H41.2694ZM64.7491 53V44.108H66.7411L69.6571 49.232V44.108H71.4451V53H69.7171L66.5371 47.456V53H64.7491Z" fill="white"/>
<rect x="1" y="1" width="88" height="68" stroke="white" stroke-width="2"/>
</svg>
