<svg width="160" height="22" viewBox="0 0 160 22" fill="none" xmlns="http://www.w3.org/2000/svg">
<path d="M4.11169 0H23.8959L24.5366 1.32832L21.5864 6.01098H9.94549L7.62265 9.70075H0L4.72577 2.1602L5.7804 3.48851L4.96607 1.79793L4.11169 0ZM15.8994 3.67636L17.0075 1.91868H12.522L11.147 4.0923H18.5026L15.8994 3.67636Z" fill="white"/>
<path d="M25.14 0H44.9242L45.5649 1.32832L42.6147 6.01098H40.6656L42.4144 9.70075H35.7129L34.1377 6.38666L33.9641 6.01098H30.9738L28.6509 9.70075H21.0283L25.7541 2.1602L26.8087 3.48851L25.9944 1.79793L25.14 0ZM36.9277 3.67636L38.0358 1.91868H33.5503L32.1753 4.0923H39.5309L36.9277 3.67636Z" fill="white"/>
<path d="M46.6891 0H64.3641L65.2718 1.90527V1.91868L65.8993 3.247L63.0558 7.78207H63.0825L61.881 9.70075H44.6867L43.7789 7.78207L47.3166 2.1602L48.3578 3.48851L47.5435 1.79793L46.6891 0ZM55.9004 7.78207L59.5849 1.91868H55.0994L51.6686 7.36613L48.5447 7.78207H55.9004Z" fill="white"/>
<path d="M4.11169 12.2992H13.7234L7.62265 22H0L4.72577 14.4594L5.7804 15.7878L4.96607 14.0972L4.11169 12.2992Z" fill="white"/>
<path d="M14.0979 12.2992H23.7096L25.9924 17.1027L27.1538 19.5849L26.6732 17.6125L26.5397 17.049L29.5167 12.2992H35.484L29.3832 22H21.6137L20.7994 20.296H20.8127L18.9037 16.2305L19.3843 18.2029L19.5579 18.9006L17.6088 22H9.98616L14.7119 14.4594L15.7666 15.7878L14.9522 14.0972L14.0979 12.2992Z" fill="white"/>
<path d="M35.8562 12.2992H53.5311L54.4389 14.2045V14.2179L55.0664 15.5462L52.2229 20.0813H52.2496L51.0481 22H31.7445L36.4703 14.4594L37.5249 15.7878L36.7106 14.0972L35.8562 12.2992ZM45.0541 20.0813L48.752 14.2179H44.2665L40.8356 19.6654L37.7118 20.0813H45.0541Z" fill="white"/>
<path d="M56.5195 12.2992H66.1312L61.4989 19.6654L58.3751 20.0813H65.7174L70.6167 12.2992H77.7721L76.9311 13.6276L75.4493 16.0024L72.8861 20.0813L70.0827 22H52.4078L57.1336 14.4594L58.1882 15.7878L57.3739 14.0972L56.5195 12.2992Z" fill="white"/>
<path d="M78.0562 12.2992H99.3089L98.4812 13.6276L97.9472 14.4594L97.6935 14.8888L91.4726 15.3047L90.952 14.2179H86.4665L85.532 15.7073L82.3949 16.1232H96.9193L94.4229 20.0813L94.4095 20.1082L91.6328 22H73.9445L75.146 20.0813L75.3062 19.8264L75.5732 19.4104L81.7808 18.9945L82.3014 20.0813H86.7869L87.8148 18.4578L90.9386 18.0285H76.4276L78.6703 14.4594L79.7249 15.7878L78.9106 14.0972L78.0562 12.2992Z" fill="white"/>
<path d="M99.7805 12.2992H119.044L119.952 14.2045H110.861L113.838 14.6875L109.245 22H101.609L106.509 14.2045H100.702L100.635 14.0972L99.7805 12.2992Z" fill="white"/>
<path d="M120.426 12.2992H140.21L140.851 13.6276L137.9 18.3102H135.951L137.7 22H130.999L129.423 18.6859L129.25 18.3102H126.259L123.937 22H116.314L121.04 14.4594L122.094 15.7878L121.28 14.0972L120.426 12.2992ZM132.213 15.9756L133.321 14.2179H128.836L127.461 16.3915H134.817L132.213 15.9756Z" fill="white"/>
<path d="M160 12.2992L145.796 22H138.961L141.23 20.457L145.355 17.7064L148.319 15.7341L144.301 18.0687L143.326 16.0024L142.525 14.3253L141.564 12.2992H148.266L149.467 14.8217L153.178 12.2992H160Z" fill="white"/>
</svg>
