<svg width="90" height="90" viewBox="0 0 90 90" fill="none" xmlns="http://www.w3.org/2000/svg">
<circle cx="45" cy="45" r="44" stroke="white" stroke-width="2"/>
<path d="M87.7975 58.9058C85.233 66.7986 80.5358 73.8285 74.2251 79.2183C67.9145 84.6081 60.2364 88.1477 52.0395 89.446C43.8427 90.7442 35.4465 89.7505 27.7792 86.5746C20.1119 83.3987 13.4722 78.1643 8.5942 71.4503C3.71617 64.7362 0.789832 56.804 0.138714 48.5306C-0.512404 40.2571 1.13706 31.9648 4.90475 24.5703C8.67244 17.1759 14.4116 10.9673 21.4877 6.63113C28.5637 2.29493 36.7011 -2.38424e-05 45.0001 1.85711e-10L45.0001 4.5C37.531 4.49998 30.2074 6.56544 23.8389 10.468C17.4704 14.3706 12.3052 19.9583 8.91428 26.6133C5.52336 33.2683 4.03884 40.7314 4.62484 48.1775C5.21085 55.6236 7.84455 62.7626 12.2348 68.8053C16.625 74.8479 22.6007 79.5588 29.5013 82.4171C36.4018 85.2754 43.9584 86.1698 51.3356 85.0014C58.7127 83.833 65.6231 80.6472 71.3026 75.7965C76.9822 70.9457 81.2097 64.6187 83.5178 57.5152L87.7975 58.9058Z" fill="#FFDC82"/>
</svg>
