<svg width="80" height="80" viewBox="0 0 80 80" fill="none" xmlns="http://www.w3.org/2000/svg">
<circle cx="40" cy="40" r="39" stroke="white" stroke-width="2"/>
<path d="M40 0C48.4472 1.00731e-07 56.6775 2.6742 63.5114 7.63932C70.3453 12.6044 75.4319 19.6056 78.0423 27.6393C80.6526 35.6731 80.6526 44.3269 78.0423 52.3607C75.4319 60.3944 70.3453 67.3956 63.5114 72.3607C56.6775 77.3258 48.4472 80 40 80C31.5528 80 23.3225 77.3258 16.4886 72.3607C9.65468 67.3956 4.56806 60.3944 1.95774 52.3607C-0.65258 44.3269 -0.652579 35.673 1.95774 27.6393L9.56619 30.1115C7.47794 36.5384 7.47794 43.4616 9.56619 49.8885C11.6544 56.3155 15.7237 61.9164 21.1909 65.8885C26.658 69.8606 33.2423 72 40 72C46.7577 72 53.342 69.8606 58.8091 65.8885C64.2763 61.9164 68.3456 56.3155 70.4338 49.8885C72.5221 43.4616 72.5221 36.5384 70.4338 30.1115C68.3456 23.6845 64.2763 18.0836 58.8091 14.1115C53.342 10.1394 46.7577 8 40 8V0Z" fill="#DEFF82"/>
</svg>
