<svg width="80" height="80" viewBox="0 0 80 80" fill="none" xmlns="http://www.w3.org/2000/svg">
<circle cx="40" cy="40" r="39" stroke="white" stroke-width="2"/>
<path d="M40 0C50.4998 1.25209e-07 60.5787 4.12849 68.0613 11.4945C75.5438 18.8604 79.8301 28.8732 79.9951 39.3717C80.16 49.8703 76.1903 60.0127 68.9428 67.6101C61.6953 75.2074 51.7511 79.6505 41.2564 79.9803C30.7618 80.3101 20.5582 76.5002 12.848 69.3729C5.13769 62.2456 0.539009 52.3724 0.0444041 41.8842C-0.450201 31.3961 3.19894 21.1339 10.2043 13.3127C17.2096 5.49141 27.0093 0.738213 37.4884 0.0789293L37.9907 8.06314C29.6074 8.59057 21.7677 12.3931 16.1634 18.6501C10.5591 24.9072 7.63984 33.1168 8.03552 41.5074C8.43121 49.8979 12.1102 57.7965 18.2784 63.4983C24.4466 69.2002 32.6094 72.2481 41.0051 71.9842C49.4009 71.7204 57.3562 68.1659 63.1542 62.088C68.9522 56.0102 72.128 47.8962 71.9961 39.4974C71.8641 31.0985 68.4351 23.0883 62.449 17.1956C56.4629 11.3028 48.3999 8 40 8V0Z" fill="#DEFF82"/>
</svg>
