<svg width="80" height="80" viewBox="0 0 80 80" fill="none" xmlns="http://www.w3.org/2000/svg">
<circle cx="40" cy="40" r="39" stroke="white" stroke-width="2"/>
<path d="M40 0C46.7376 8.03447e-08 53.366 1.70189 59.2701 4.94773C65.1743 8.19358 70.1629 12.8782 73.7731 18.5669C77.3833 24.2556 79.498 30.7641 79.9211 37.4884C80.3441 44.2126 79.0618 50.9348 76.1931 57.0312C73.3244 63.1275 68.9622 68.4004 63.5114 72.3607C58.0606 76.3209 51.6978 78.8401 45.0133 79.6846C38.3289 80.529 31.5395 79.6713 25.275 77.1911C19.0106 74.7108 13.4742 70.6883 9.17948 65.497L15.3436 60.3976C18.7793 64.5507 23.2085 67.7686 28.22 69.7529C33.2316 71.7371 38.6631 72.4232 44.0107 71.7477C49.3582 71.0721 54.4485 69.0567 58.8091 65.8885C63.1698 62.7203 66.6595 58.502 68.9545 53.6249C71.2494 48.7479 72.2753 43.3701 71.9369 37.9907C71.5984 32.6113 69.9066 27.4045 67.0185 22.8535C64.1304 18.3026 60.1395 14.5549 55.4161 11.9582C50.6928 9.36151 45.3901 8 40 8V0Z" fill="#DEFF82"/>
</svg>
