<svg width="140" height="140" viewBox="0 0 140 140" fill="none" xmlns="http://www.w3.org/2000/svg">
<circle cx="70" cy="70" r="69" stroke="white" stroke-width="2"/>
<path d="M140 70C140 79.1925 138.189 88.2951 134.672 96.7878C131.154 105.281 125.998 112.997 119.497 119.497C112.997 125.998 105.281 131.154 96.7878 134.672C88.295 138.189 79.1925 140 70 140L70 133C78.2732 133 86.4655 131.37 94.109 128.204C101.753 125.038 108.698 120.398 114.548 114.548C120.398 108.698 125.038 101.753 128.204 94.1091C131.37 86.4656 133 78.2733 133 70H140Z" fill="#DEFF82"/>
<path fill-rule="evenodd" clip-rule="evenodd" d="M76.5767 36.7011L73.9972 30H66.0025L63.4231 36.7011C58.9384 37.5819 54.7714 39.347 51.1089 41.8056L44.5422 38.8892L38.8891 44.5423L41.8053 51.1086C39.3463 54.7708 37.5813 58.9384 36.7006 63.4233L30 66.0027V73.9973L36.6995 76.5761C37.5806 81.0614 39.3452 85.2303 41.8048 88.893L38.8891 95.4578L44.5422 101.111L51.1091 98.1944C54.7714 100.653 58.9384 102.418 63.423 103.299L66.0027 110H73.9975L76.5761 103.3C81.0616 102.42 85.2302 100.655 88.8928 98.1952L95.4577 101.111L101.111 95.4577L98.1942 88.8906C100.653 85.2283 102.418 81.0613 103.299 76.5767L110 73.9972V66.0025L103.3 63.4239C102.419 58.9384 100.655 54.7698 98.1952 51.107L101.111 44.5422L95.4577 38.8892L88.8906 41.8056C85.2283 39.347 81.0613 37.5819 76.5767 36.7011ZM70 45.8066C56.6384 45.8066 45.8064 56.6384 45.8064 70C45.8064 83.3616 56.6384 94.1934 70 94.1934C83.3616 94.1934 94.1936 83.3616 94.1936 70C94.1936 56.6384 83.3616 45.8066 70 45.8066Z" fill="white"/>
<path fill-rule="evenodd" clip-rule="evenodd" d="M73.3334 86.6404L75.8072 89.2423L79.5002 87.7126L79.4096 84.1236C81.3127 82.8586 82.8999 81.2459 84.1213 79.4094L87.7127 79.5001L89.2425 75.807L86.6389 73.3318C87.0741 71.1696 87.092 68.9066 86.6407 66.6664L89.2424 64.1928L87.7127 60.4997L84.1245 60.5904C82.8593 58.687 81.2465 57.0989 79.4094 55.8776L79.5002 52.2871L75.8071 50.7574L73.3317 53.3612C71.1695 52.9262 68.9068 52.9082 66.6667 53.3594L64.1928 50.7575L60.4997 52.2872L60.5904 55.8754C58.687 57.1406 57.099 58.7534 55.8777 60.5904L52.2873 60.4997L50.7576 64.1928L53.3614 66.6683C52.9264 68.8305 52.9083 71.0932 53.3595 73.3333L50.7575 75.8071L52.2873 79.5002L55.8754 79.4095C57.1407 81.3129 58.7534 82.9009 60.5905 84.1223L60.4998 87.7127L64.1929 89.2423L66.6684 86.6386C68.8306 87.0736 71.0933 87.0916 73.3334 86.6404ZM74.6292 81.1758C80.8014 78.6192 83.7326 71.5429 81.1759 65.3707C78.6193 59.1984 71.543 56.2674 65.3708 58.824C59.1985 61.3806 56.2674 68.4569 58.824 74.6292C61.3806 80.8014 68.4569 83.7325 74.6292 81.1758Z" fill="#DEFF82"/>
<path fill-rule="evenodd" clip-rule="evenodd" d="M72.4646 77.2283L73.7211 78.2439L75.2789 77.3445L75.0276 75.7485C75.8024 75.0724 76.4158 74.2596 76.8529 73.3685L78.4605 73.1981L78.9261 71.4606L77.6191 70.5092C77.6863 69.5189 77.5614 68.5083 77.2284 67.5353L78.2439 66.2789L77.3445 64.7211L75.7489 64.9723C75.0727 64.1974 74.2598 63.5836 73.3685 63.1466L73.1981 61.5394L71.4606 61.0738L70.5091 62.3809C69.5189 62.3138 68.5083 62.4387 67.5354 62.7716L66.2789 61.756L64.721 62.6555L64.9723 64.251C64.1974 64.9273 63.5836 65.7401 63.1466 66.6314L61.5394 66.8018L61.0739 68.5393L62.381 69.4909C62.3139 70.4811 62.4387 71.4916 62.7716 72.4646L61.756 73.7211L62.6555 75.2789L64.251 75.0277C64.9273 75.8025 65.7401 76.4163 66.6314 76.8533L66.8019 78.4605L68.5394 78.9261L69.4909 77.619C70.4811 77.686 71.4917 77.5612 72.4646 77.2283ZM72.7217 74.7142C75.3253 73.211 76.2174 69.8818 74.7142 67.2782C73.211 64.6746 69.8818 63.7826 67.2782 65.2857C64.6746 66.7889 63.7825 70.1182 65.2857 72.7217C66.7889 75.3253 70.1181 76.2174 72.7217 74.7142Z" fill="#DEFF82"/>
</svg>
