<svg width="140" height="140" viewBox="0 0 140 140" fill="none" xmlns="http://www.w3.org/2000/svg">
<circle cx="70" cy="70" r="69" stroke="white" stroke-width="2"/>
<path d="M0 70C2.99531e-06 60.8074 1.81061 51.7049 5.32845 43.2121C8.84628 34.7193 14.0024 27.0026 20.5026 20.5025C27.0027 14.0024 34.7194 8.84624 43.2122 5.32841C51.705 1.81059 60.8075 -8.87627e-06 70.0001 0L70.0001 7C61.7268 6.99999 53.5345 8.62953 45.891 11.7956C38.2475 14.9616 31.3024 19.6022 25.4523 25.4522C19.6022 31.3023 14.9617 38.2474 11.7956 45.8909C8.62955 53.5344 7 61.7267 7 70H0Z" fill="#DEFF82"/>
<path fill-rule="evenodd" clip-rule="evenodd" d="M83.0196 47.8251L68.9829 65.1809L70.4479 52.7276C70.448 52.7237 70.4482 52.719 70.4491 52.7169L70.4494 52.715L70.4449 52.7134H60.51L73.7829 35.714L73.0844 47.8251H83.0196ZM71.766 31.6195C61.3785 31.6195 52.9357 40.0642 52.9357 50.444C52.9357 60.8248 61.3786 69.2694 71.766 69.2694C82.145 69.2694 90.588 60.8248 90.588 50.444C90.588 40.064 82.145 31.6195 71.766 31.6195Z" fill="#DEFF82"/>
<path fill-rule="evenodd" clip-rule="evenodd" d="M107.137 90.8019L81.4137 106.777C78.9208 108.308 76.195 108.691 73.2948 107.914L50.7833 101.881C50.4177 101.785 50.0355 101.836 49.7113 102.023L38.7006 108.38L30 93.3228L50.4675 81.4703C53.3428 79.8058 56.4506 78.4107 59.7331 79.4742C60.7055 79.79 61.8605 80.1889 63.082 80.6117C67.1622 82.0194 72.2395 83.7721 77.4498 84.9155C78.2642 85.0933 78.9622 85.6044 79.4109 86.3506C79.9178 87.1733 80.0591 88.1739 79.8098 89.0953C79.3444 90.8213 77.6077 91.91 75.8542 91.5733C75.8294 91.5675 58.2537 86.8666 58.2537 86.8666C57.5058 86.6638 56.733 87.1117 56.5253 87.8621C56.3259 88.6141 56.7747 89.3869 57.5225 89.588L74.8903 94.2399C78.7794 95.2844 81.9953 95.4657 85.9675 93.1496L99.0427 85.5361C104.56 82.3202 108.375 83.0266 109.588 85.0433C110.511 86.5871 109.962 89.0592 107.137 90.8019Z" fill="white"/>
</svg>
