<svg width="140" height="140" viewBox="0 0 140 140" fill="none" xmlns="http://www.w3.org/2000/svg">
<circle cx="70" cy="70" r="69" stroke="white" stroke-width="2"/>
<path d="M70 140C60.8075 140 51.7049 138.189 43.2121 134.672C34.7193 131.154 27.0026 125.998 20.5025 119.497C14.0024 112.997 8.84624 105.281 5.32842 96.7878C1.81059 88.295 -7.37863e-06 79.1925 0 69.9999H7C6.99999 78.2732 8.62953 86.4655 11.7956 94.109C14.9616 101.753 19.6022 108.698 25.4523 114.548C31.3023 120.398 38.2474 125.038 45.8909 128.204C53.5344 131.37 61.7267 133 70 133V140Z" fill="#DEFF82"/>
<g clip-path="url(#clip0_408_537)">
<path fill-rule="evenodd" clip-rule="evenodd" d="M38.6081 72.0627L38.6614 60.6181C38.6706 58.2222 38.2643 54.2883 35.5789 53.3419C35.2487 53.2255 34.9032 53.1656 34.5532 53.1602C32.7604 53.1325 30.7756 54.6041 30.7224 56.4813L30.0035 79.5324C29.9378 81.8564 30.7909 83.9105 32.4324 85.552L43.9259 97.0452V109.255H58.0123L58.0385 89.4247C58.0424 86.8389 57.7181 84.2342 55.6878 82.4042C55.0167 81.7994 54.3206 81.218 53.6298 80.6356C51.454 78.802 49.2929 76.9525 47.3571 74.8686C46.9203 74.3983 46.5118 73.8078 46.0007 73.4302C44.642 72.4266 42.7598 72.435 41.5256 73.6675C40.3746 74.8169 41.1159 76.201 41.6326 76.7175L51.2996 86.3844C51.8017 86.8863 51.2996 87.5 51.2996 88.2099C51.2996 88.9197 49.9762 88.7117 49.4742 88.2099L40.609 79.3453C38.0084 76.7445 38.5928 75.941 38.6081 72.0627ZM101.392 72.0627L101.339 60.6181C101.329 58.2222 101.735 54.2883 104.421 53.3419C104.751 53.2255 105.097 53.1656 105.447 53.1602C107.239 53.1325 109.224 54.6041 109.277 56.4814L109.997 79.5325C110.062 81.8567 109.209 83.9106 107.567 85.5522L96.074 97.0453V109.255L81.9876 109.255L81.9613 89.4249C81.9574 86.8391 82.2818 84.2344 84.3121 82.4044C84.9832 81.7995 85.6793 81.2181 86.3701 80.6358C88.5459 78.8022 90.707 76.9527 92.6428 74.8688C93.0796 74.3985 93.4881 73.808 93.9992 73.4303C95.3578 72.4267 97.2401 72.4352 98.4743 73.6677C99.6253 74.817 98.8839 76.2011 98.3673 76.7177L88.7003 86.3845C88.1984 86.8866 88.7003 87.5002 88.7003 88.21C88.7003 88.9199 90.0237 88.712 90.5257 88.21L99.3909 79.345C101.992 76.7447 101.407 75.941 101.392 72.0627Z" fill="white"/>
<path fill-rule="evenodd" clip-rule="evenodd" d="M70 30.7449L88.0822 41.1849L70 51.6242L51.9178 41.185L70 30.7449ZM71.2906 74.7385L89.3726 64.2991V43.4199L71.2906 53.8591V74.7385ZM50.6273 43.4199V64.2992L68.7094 74.7386V53.8591L50.6273 43.4199Z" fill="#DEFF82"/>
</g>
<defs>
<clipPath id="clip0_408_537">
<rect width="80" height="80" fill="white" transform="translate(30 30)"/>
</clipPath>
</defs>
</svg>
