<svg width="499" height="500" viewBox="0 0 499 500" fill="none" xmlns="http://www.w3.org/2000/svg">
<mask id="mask0_524_5209" style="mask-type:alpha" maskUnits="userSpaceOnUse" x="0" y="0" width="499" height="500">
<rect width="499" height="500" fill="url(#paint0_linear_524_5209)"/>
</mask>
<g mask="url(#mask0_524_5209)">
<path d="M3.02207 254.734H2.4624V311.769H3.02207V254.734Z" fill="#44F3FF"/>
<path d="M496.537 0H495.978V34.9679H496.537V0Z" fill="#44F3FF"/>
<path d="M487.694 9.39258H487.135V67.3329H487.694V9.39258Z" fill="#44F3FF"/>
<path d="M478.852 38.9287H478.292V73.444H478.852V38.9287Z" fill="#FF4444"/>
<path d="M470.121 12.7876H469.562V73.4439H470.121V12.7876Z" fill="#44F3FF"/>
<path d="M461.278 30.5544H460.718V82.2707H461.278V30.5544Z" fill="#44F3FF"/>
<path d="M452.436 33.4968H451.876V104.791H452.436V33.4968Z" fill="#44F3FF"/>
<path d="M443.705 80.1206H443.145V100.151H443.705V80.1206Z" fill="#44F3FF"/>
<path d="M434.862 63.5986H434.302V122.557H434.862V63.5986Z" fill="#44F3FF"/>
<path d="M426.019 69.3699H425.459V129.347H426.019V69.3699Z" fill="#44F3FF"/>
<path d="M417.176 89.9661H416.617V134.1H417.176V89.9661Z" fill="#FF4444"/>
<path d="M408.445 73.4438H407.886V104.111H408.445V73.4438Z" fill="#44F3FF"/>
<path d="M399.603 69.1436H399.043V132.629H399.603V69.1436Z" fill="#44F3FF"/>
<path d="M390.76 112.938H390.2V130.705H390.76V112.938Z" fill="#44F3FF"/>
<path d="M382.029 116.899H381.47V138.74H382.029V116.899Z" fill="#44F3FF"/>
<path d="M373.186 98.6797H372.627V203.018H373.186V98.6797Z" fill="#44F3FF"/>
<path d="M364.344 157.073H363.784V186.948H364.344V157.073Z" fill="#44F3FF"/>
<path d="M355.501 169.747H354.941V197.812H355.501V169.747Z" fill="#44F3FF"/>
<path d="M346.77 159.449H346.21V208.676H346.77V159.449Z" fill="#44F3FF"/>
<path d="M337.927 171.445H337.368V213.995H337.927V171.445Z" fill="#44F3FF"/>
<path d="M329.085 198.491H328.525V254.621H329.085V198.491Z" fill="#44F3FF"/>
<path d="M320.242 205.054H319.682V245.567H320.242V205.054Z" fill="#FF4444"/>
<path d="M311.511 161.486H310.951V259.374H311.511V161.486Z" fill="#FF4444"/>
<path d="M302.668 157.978H302.109V227.688H302.668V157.978Z" fill="#FF4444"/>
<path d="M293.826 168.842H293.266V195.549H293.826V168.842Z" fill="#FF4444"/>
<path d="M285.095 159.562H284.535V196.793H285.095V159.562Z" fill="#44F3FF"/>
<path d="M276.252 154.357H275.692V206.526H276.252V154.357Z" fill="#44F3FF"/>
<path d="M267.409 180.837H266.85V213.994H267.409V180.837Z" fill="#FF4444"/>
<path d="M258.566 164.655H258.007V222.595H258.566V164.655Z" fill="#44F3FF"/>
<path d="M249.836 182.308H249.276V199.509H249.836V182.308Z" fill="#FF4444"/>
<path d="M240.993 170.766H240.433V194.53H240.993V170.766Z" fill="#FF4444"/>
<path d="M232.15 155.262H231.59V202.791H232.15V155.262Z" fill="#FF4444"/>
<path d="M223.419 148.472H222.86V192.606H223.419V148.472Z" fill="#44F3FF"/>
<path d="M214.577 151.528H214.017V202.565H214.577V151.528Z" fill="#FF4444"/>
<path d="M205.734 135.911H205.174V199.396H205.734V135.911Z" fill="#44F3FF"/>
<path d="M196.891 147.68H196.331V200.302H196.891V147.68Z" fill="#44F3FF"/>
<path d="M188.16 174.726H187.601V203.696H188.16V174.726Z" fill="#FF4444"/>
<path d="M179.317 160.694H178.758V203.131H179.317V160.694Z" fill="#FF4444"/>
<path d="M170.475 153.791H169.915V228.253H170.475V153.791Z" fill="#44F3FF"/>
<path d="M161.632 150.849H161.072V263.9H161.632V150.849Z" fill="#44F3FF"/>
<path d="M152.901 166.126H152.342V324.783H152.901V166.126Z" fill="#44F3FF"/>
<path d="M144.058 235.156H143.499V298.642H144.058V235.156Z" fill="#44F3FF"/>
<path d="M135.216 218.861H134.656V293.323H135.216V218.861Z" fill="#FF4444"/>
<path d="M126.485 206.186H125.925V274.424H126.485V206.186Z" fill="#44F3FF"/>
<path d="M117.642 207.544H117.083V282.007H117.642V207.544Z" fill="#FF4444"/>
<path d="M108.799 206.073H108.24V238.664H108.799V206.073Z" fill="#44F3FF"/>
<path d="M99.9566 197.133H99.397V266.842H99.9566V197.133Z" fill="#44F3FF"/>
<path d="M91.2257 232.44H90.666V263.448H91.2257V232.44Z" fill="#44F3FF"/>
<path d="M82.3829 227.688H81.8232V286.986H82.3829V227.688Z" fill="#44F3FF"/>
<path d="M73.5401 223.161H72.9805V311.429H73.5401V223.161Z" fill="#FF4444"/>
<path d="M64.8094 254.734H64.2498V311.769H64.8094V254.734Z" fill="#44F3FF"/>
<path d="M55.9667 278.159H55.407V299.321H55.9667V278.159Z" fill="#FF4444"/>
<path d="M47.1239 222.029H46.5642V348.887H47.1239V222.029Z" fill="#44F3FF"/>
<path d="M38.2811 255.187H37.7214V298.415H38.2811V255.187Z" fill="#44F3FF"/>
<path d="M29.5504 244.549H28.9907V331.007H29.5504V244.549Z" fill="#44F3FF"/>
<path d="M20.7076 252.81H20.1479V340.173H20.7076V252.81Z" fill="#FF4444"/>
<path d="M11.8648 250.32H11.3052V307.355H11.8648V250.32Z" fill="#FF4444"/>
<path d="M5.59668 274.651H0V291.965H5.59668V274.651Z" fill="#44F3FF"/>
<path d="M499 12.2217H493.403V22.8592H499V12.2217Z" fill="#44F3FF"/>
<path d="M490.269 29.5359H484.672V47.0764H490.269V29.5359Z" fill="#44F3FF"/>
<path d="M481.427 50.9241H475.83V61.3352H481.427V50.9241Z" fill="#FF4444"/>
<path d="M472.583 33.9495H466.987V52.3953H472.583V33.9495Z" fill="#44F3FF"/>
<path d="M463.741 48.5476H458.144V64.2775H463.741V48.5476Z" fill="#44F3FF"/>
<path d="M455.01 58.2798H449.414V79.8942H455.01V58.2798Z" fill="#44F3FF"/>
<path d="M446.167 87.0237H440.571V93.1346H446.167V87.0237Z" fill="#44F3FF"/>
<path d="M437.325 84.1946H431.728V102.075H437.325V84.1946Z" fill="#44F3FF"/>
<path d="M428.594 90.1924H422.997V108.412H428.594V90.1924Z" fill="#44F3FF"/>
<path d="M419.751 105.356H414.154V118.71H419.751V105.356Z" fill="#FF4444"/>
<path d="M410.908 84.1946H405.312V93.4741H410.908V84.1946Z" fill="#44F3FF"/>
<path d="M402.065 91.324H396.469V110.562H402.065V91.324Z" fill="#44F3FF"/>
<path d="M393.335 119.162H387.738V124.594H393.335V119.162Z" fill="#44F3FF"/>
<path d="M384.492 124.594H378.895V131.271H384.492V124.594Z" fill="#44F3FF"/>
<path d="M375.649 135.006H370.052V166.579H375.649V135.006Z" fill="#44F3FF"/>
<path d="M366.918 167.484H361.322V176.537H366.918V167.484Z" fill="#44F3FF"/>
<path d="M358.076 179.479H352.479V187.967H358.076V179.479Z" fill="#44F3FF"/>
<path d="M349.233 176.537H343.636V191.475H349.233V176.537Z" fill="#44F3FF"/>
<path d="M340.39 186.269H334.793V199.17H340.39V186.269Z" fill="#44F3FF"/>
<path d="M331.659 218.068H326.062V235.043H331.659V218.068Z" fill="#44F3FF"/>
<path d="M322.816 219.2H317.22V231.422H322.816V219.2Z" fill="#FF4444"/>
<path d="M313.974 195.662H308.377V225.311H313.974V195.662Z" fill="#FF4444"/>
<path d="M305.243 182.195H299.646V203.357H305.243V182.195Z" fill="#FF4444"/>
<path d="M296.4 178.121H290.804V186.156H296.4V178.121Z" fill="#FF4444"/>
<path d="M287.558 172.576H281.961V183.893H287.558V172.576Z" fill="#44F3FF"/>
<path d="M278.715 172.576H273.118V188.419H278.715V172.576Z" fill="#44F3FF"/>
<path d="M269.984 192.267H264.387V202.339H269.984V192.267Z" fill="#FF4444"/>
<path d="M261.141 184.798H255.544V202.339H261.141V184.798Z" fill="#44F3FF"/>
<path d="M252.298 188.306H246.702V193.512H252.298V188.306Z" fill="#FF4444"/>
<path d="M243.456 179.027H237.859V186.269H243.456V179.027Z" fill="#FF4444"/>
<path d="M234.725 171.784H229.128V186.156H234.725V171.784Z" fill="#FF4444"/>
<path d="M225.882 163.863H220.285V177.216H225.882V163.863Z" fill="#44F3FF"/>
<path d="M217.039 169.294H211.443V184.798H217.039V169.294Z" fill="#FF4444"/>
<path d="M208.308 158.091H202.712V177.329H208.308V158.091Z" fill="#44F3FF"/>
<path d="M199.466 166.013H193.869V181.969H199.466V166.013Z" fill="#44F3FF"/>
<path d="M190.623 184.798H185.026V193.625H190.623V184.798Z" fill="#FF4444"/>
<path d="M181.78 175.519H176.184V188.419H181.78V175.519Z" fill="#FF4444"/>
<path d="M173.049 179.819H167.453V202.339H173.049V179.819Z" fill="#44F3FF"/>
<path d="M164.207 190.23H158.61V224.519H164.207V190.23Z" fill="#44F3FF"/>
<path d="M155.364 221.35H149.767V269.445H155.364V221.35Z" fill="#44F3FF"/>
<path d="M146.633 257.337H141.036V276.575H146.633V257.337Z" fill="#44F3FF"/>
<path d="M137.79 244.775H132.194V267.295H137.79V244.775Z" fill="#FF4444"/>
<path d="M128.947 229.951H123.351V250.66H128.947V229.951Z" fill="#44F3FF"/>
<path d="M120.105 233.459H114.508V255.979H120.105V233.459Z" fill="#FF4444"/>
<path d="M111.374 217.389H105.777V227.235H111.374V217.389Z" fill="#44F3FF"/>
<path d="M102.531 221.35H96.9346V242.512H102.531V221.35Z" fill="#44F3FF"/>
<path d="M93.6885 243.304H88.0918V252.697H93.6885V243.304Z" fill="#44F3FF"/>
<path d="M84.8457 248.283H79.249V266.277H84.8457V248.283Z" fill="#44F3FF"/>
<path d="M76.1147 253.942H70.5181V280.649H76.1147V253.942Z" fill="#FF4444"/>
<path d="M67.272 274.651H61.6753V291.965H67.272V274.651Z" fill="#44F3FF"/>
<path d="M58.4292 285.515H52.8325V291.965H58.4292V285.515Z" fill="#FF4444"/>
<path d="M49.6985 266.277H44.1018V304.753H49.6985V266.277Z" fill="#44F3FF"/>
<path d="M40.8557 270.237H35.259V283.364H40.8557V270.237Z" fill="#44F3FF"/>
<path d="M32.0129 274.651H26.4163V300.792H32.0129V274.651Z" fill="#44F3FF"/>
<path d="M23.1702 283.251H17.5735V309.732H23.1702V283.251Z" fill="#FF4444"/>
<path d="M14.4395 270.237H8.84277V287.551H14.4395V270.237Z" fill="#FF4444"/>
</g>
<defs>
<linearGradient id="paint0_linear_524_5209" x1="250" y1="292.264" x2="-10.9125" y2="346.534" gradientUnits="userSpaceOnUse">
<stop stop-color="#C4C4C4"/>
<stop offset="1" stop-color="#C4C4C4" stop-opacity="0"/>
</linearGradient>
</defs>
</svg>
