<svg width="505" height="502" viewBox="0 0 505 502" fill="none" xmlns="http://www.w3.org/2000/svg">
<mask id="mask0_524_5442" style="mask-type:alpha" maskUnits="userSpaceOnUse" x="0" y="0" width="505" height="502">
<rect width="505" height="502" fill="url(#paint0_linear_524_5442)"/>
</mask>
<g mask="url(#mask0_524_5442)">
<path d="M227.452 239.61L145 287.24L330.68 392.869L335.549 393.517L227.452 239.61Z" fill="url(#paint1_linear_524_5442)"/>
<path d="M149.869 284V286.592L335.549 393.517L418.001 346.211L149.869 284Z" fill="#676D7A"/>
<path d="M418.001 343.618L335.549 390.924V393.516L418.001 346.211V343.618Z" fill="#606C74"/>
<path d="M232.321 236.37L149.869 284L335.549 390.925L418.001 343.619L232.321 236.37Z" fill="#C9C9C9"/>
<path d="M232.321 236.37L149.869 284L335.549 389.953L415.404 343.619L232.321 236.37Z" fill="#9BA1A8"/>
<path d="M240.112 218.55C237.515 216.93 235.243 216.93 233.619 217.902C233.619 217.902 231.672 219.198 231.347 219.198C229.724 220.17 230.049 222.438 230.049 225.354C230.049 231.51 232.97 237.666 238.164 240.907C243.358 243.823 249.85 241.555 249.85 235.398C249.85 228.918 245.63 221.466 240.112 218.55ZM240.112 238.315C235.892 236.046 232.646 230.214 232.646 225.354C232.646 222.762 233.619 221.142 235.243 220.17C236.541 219.522 236.866 220.494 238.813 221.466C243.033 223.734 246.604 228.918 246.604 233.778C246.604 238.639 244.332 240.583 240.112 238.315Z" fill="#5E5E6D"/>
<path d="M238.164 219.846C232.97 216.93 228.426 219.198 228.426 225.354C228.426 231.51 232.646 238.962 238.164 241.879C243.358 244.795 247.903 242.527 247.903 236.37C247.903 230.214 243.358 222.762 238.164 219.846ZM238.164 239.286C233.944 237.018 230.698 231.186 230.698 226.326C230.698 221.466 233.944 219.522 238.164 222.114C242.384 224.382 245.63 230.214 245.63 235.074C245.63 239.935 242.384 241.879 238.164 239.286Z" fill="#E8F4FF"/>
<path d="M281.987 209.801L264.458 213.041L241.735 226.326L233.62 232.158L273.547 279.14L296.27 266.18V245.119L301.139 240.907L303.736 222.114L281.987 209.801Z" fill="#5C5C60"/>
<path d="M296.27 277.52L273.547 290.481V279.14L296.27 266.18V277.52Z" fill="#535357"/>
<path d="M288.804 206.561C288.48 206.561 279.39 199.109 279.39 199.109L274.846 201.701V208.829L259.914 202.997L255.044 204.617L250.5 207.209L260.238 224.706L276.144 241.879L284.26 233.778L300.815 243.823L305.36 241.231L306.658 232.158L299.192 218.55L288.804 206.561Z" fill="#7B0808"/>
<path d="M259.264 222.762L241.735 226.326L233.62 232.158V243.175L241.086 260.347L273.547 279.14V258.079L278.416 253.867L281.013 235.398L259.264 222.762Z" fill="#D3DDE7"/>
<path d="M256.018 239.61C256.018 236.046 253.421 231.51 250.175 229.566C248.552 228.594 246.929 228.594 245.955 229.242L244.007 230.214L244.657 231.186C244.657 231.51 244.332 232.158 244.332 232.806C244.332 236.37 246.929 240.906 250.175 242.85C250.824 243.174 251.149 243.499 251.798 243.499L252.447 244.471L254.395 243.174C255.369 242.85 256.018 241.554 256.018 239.61Z" fill="#7B0808"/>
<path d="M254.07 240.907C254.07 244.471 251.473 246.091 248.227 244.147C244.981 242.203 242.384 237.666 242.384 234.102C242.384 230.538 244.981 228.918 248.227 230.862C251.473 232.806 254.07 237.342 254.07 240.907Z" fill="#930101"/>
<path d="M252.772 240.259C252.772 243.175 250.824 244.147 248.227 242.851C245.63 241.555 243.683 237.99 243.683 235.074C243.683 232.158 245.63 231.186 248.227 232.482C250.824 233.778 252.772 237.342 252.772 240.259Z" fill="#810101"/>
<path d="M251.149 237.666C251.149 236.694 250.499 235.398 249.526 234.75C249.201 234.426 248.552 234.426 248.227 234.75L246.929 235.398L249.201 239.287L250.175 238.638C250.175 238.638 250.175 238.638 250.499 238.638C250.824 238.638 251.149 238.314 251.149 237.666Z" fill="#7B0808"/>
<path d="M249.85 238.314C249.85 239.287 249.201 239.611 248.227 239.287C247.253 238.638 246.604 237.666 246.604 236.37C246.604 235.398 247.253 235.074 248.227 235.398C249.201 236.046 249.85 237.342 249.85 238.314Z" fill="#930101"/>
<path d="M284.259 209.153C283.935 209.153 274.846 201.701 274.846 201.701L270.301 211.421L255.369 205.589L250.5 207.209L248.876 216.282L255.693 227.298L271.599 244.471L279.715 236.37L292.05 243.499L300.815 243.823L302.113 234.75L294.323 220.818L284.259 209.153Z" fill="#930101"/>
<path d="M268.353 214.337C268.353 214.985 267.704 215.309 267.055 214.985C266.406 214.661 265.756 213.689 265.756 212.717C265.756 212.069 266.406 211.745 267.055 212.069C268.029 212.717 268.353 213.689 268.353 214.337Z" fill="#E8F4FF"/>
<path d="M266.081 234.102C266.081 234.75 265.432 235.074 264.782 234.75C264.133 234.426 263.484 233.454 263.484 232.482C263.484 231.51 264.133 231.51 264.782 231.834C265.432 232.482 266.081 233.454 266.081 234.102Z" fill="#E8F4FF"/>
<path d="M299.841 237.342C299.841 237.99 299.192 238.314 298.543 237.99C297.893 237.666 297.244 236.694 297.244 235.722C297.244 235.074 297.893 234.75 298.543 235.074C299.192 235.722 299.841 236.694 299.841 237.342Z" fill="#E8F4FF"/>
<path d="M291.076 219.846C291.076 220.494 290.427 220.818 289.778 220.494C289.129 220.17 288.479 219.198 288.479 218.226C288.479 217.578 289.129 217.254 289.778 217.578C290.752 218.226 291.076 219.198 291.076 219.846Z" fill="#E8F4FF"/>
<path d="M288.804 238.314C288.804 238.962 288.154 239.286 287.505 238.962C286.856 238.638 286.207 237.666 286.207 236.694C286.207 236.046 286.856 235.722 287.505 236.046C288.154 236.37 288.804 237.342 288.804 238.314Z" fill="#E8F4FF"/>
<path d="M254.07 214.337C254.07 214.985 253.421 215.309 252.772 214.985C252.123 214.661 251.473 213.689 251.473 212.717C251.473 211.745 252.123 211.745 252.772 212.069C253.421 212.393 254.07 213.365 254.07 214.337Z" fill="#E8F4FF"/>
<path d="M281.014 257.107L276.794 259.699L275.171 195.869L279.391 193.601L288.804 200.729L281.014 257.107Z" fill="#BDCFD9"/>
<path d="M276.793 259.699L267.38 252.571L275.17 195.869L284.584 202.997L276.793 259.699Z" fill="#E8F4FF"/>
<path d="M288.804 200.729L284.584 202.997L276.793 259.699L281.013 257.107L288.804 200.729Z" fill="#666678"/>
<path d="M273.547 290.481L241.086 271.688V260.347L273.547 279.14V290.481Z" fill="#565663"/>
<path d="M276.469 133.658L278.741 134.954V216.281L276.469 214.985V133.658Z" fill="#82909C"/>
<path d="M249.526 242.202C246.929 240.906 244.981 237.342 244.981 234.426C244.981 233.454 245.306 232.482 245.63 231.834C244.332 232.158 243.683 233.13 243.683 235.074C243.683 237.99 245.63 241.554 248.227 242.85C249.85 243.822 251.149 243.498 252.123 242.85C251.149 242.85 250.5 242.526 249.526 242.202Z" fill="#7B0808"/>
<path d="M281.013 218.55C281.013 216.281 279.39 213.689 277.442 212.717C276.468 212.069 275.495 212.069 274.845 212.393L273.547 213.041L273.871 213.689C273.871 214.013 273.871 214.337 273.871 214.661C273.871 216.929 275.495 219.522 277.442 220.494C277.767 220.818 278.091 220.818 278.416 220.818L278.741 221.466L280.039 220.818C280.688 220.17 281.013 219.522 281.013 218.55Z" fill="#7B0808"/>
<path d="M280.039 219.197C280.039 221.465 278.416 222.114 276.468 221.141C274.521 220.169 272.898 217.577 272.898 215.309C272.898 213.041 274.521 212.393 276.468 213.365C278.416 214.337 280.039 216.929 280.039 219.197Z" fill="#FC0F0F"/>
<path d="M279.066 218.55C279.066 220.17 277.767 220.818 276.469 220.17C274.846 219.198 273.872 217.254 273.872 215.634C273.872 214.013 275.17 213.365 276.469 214.013C278.092 214.986 279.066 216.93 279.066 218.55Z" fill="#AC0F0F"/>
<path d="M277.118 219.845C275.495 218.873 274.521 216.929 274.521 215.309C274.521 214.661 274.845 214.337 274.845 214.013C274.196 214.013 273.547 214.661 273.547 215.957C273.547 217.577 274.845 219.845 276.144 220.493C277.118 221.141 277.767 220.817 278.416 220.493C278.416 220.169 277.767 220.169 277.118 219.845Z" fill="#7B0808"/>
<path d="M288.804 125.234L224.531 162.495L230.049 165.735L278.741 135.602L288.804 125.234Z" fill="#66727C"/>
<path d="M288.804 121.021L230.049 161.523L224.531 158.283V162.495L230.049 165.735L288.804 125.234V121.021Z" fill="#96ACBC"/>
<path d="M224.531 158.283L230.049 161.523L294.323 124.262L288.804 121.021L273.223 124.91L240.112 144.026L224.531 158.283Z" fill="#96ACBC"/>
<path d="M361.193 187.768L334.9 172.54L336.847 162.495L359.57 175.78L361.193 187.768Z" fill="#C3D0E3"/>
<path d="M345.936 171.243L344.962 175.456L344.313 179.344L340.418 200.405L338.795 207.857V208.829L338.146 212.393L332.303 242.85L331.329 248.035L330.679 251.275L330.355 252.895L323.213 290.804L322.564 295.341L320.292 307.005L314.449 310.245L339.119 165.735L345.936 171.243Z" fill="#606C74"/>
<path d="M373.204 280.112L322.889 251.275V246.091L373.204 275.252V280.112Z" fill="#C3D0E3"/>
<path d="M381.644 337.463L314.449 298.581V293.397L381.644 332.278V337.463Z" fill="#C3D0E3"/>
<path d="M376.125 329.038L328.082 254.191H325.81L326.135 256.459L372.555 330.982L376.125 329.038Z" fill="#C3D0E3"/>
<path d="M367.361 271.688L335.873 213.689L332.952 212.393L362.816 267.152L367.361 271.688Z" fill="#C3D0E3"/>
<path d="M359.246 219.845L342.041 180.316L339.12 179.02L354.701 215.633L359.246 219.845Z" fill="#C3D0E3"/>
<path d="M387.487 345.563L381.644 349.127L355.026 176.428L361.843 179.02L387.487 345.563Z" fill="#D1E9FF"/>
<path d="M368.01 277.196L317.37 294.369L320.941 292.101L367.036 273.632L368.01 275.576V277.196Z" fill="#C3D0E3"/>
<path d="M360.544 227.946L329.057 249.655L325.486 251.599L359.895 223.734L360.544 227.946Z" fill="#66727C"/>
<path d="M354.376 187.768L336.522 209.153L332.952 211.097L353.727 183.232L354.376 187.768Z" fill="#66727C"/>
<path d="M357.623 189.712L331.329 174.484L333.277 164.439L356 177.724L357.623 189.712Z" fill="#D1E9FF"/>
<path d="M339.769 174.484L339.12 179.02L338.47 182.908L334.575 203.969L332.952 211.097V212.393L332.303 215.633L326.46 246.415L325.486 251.599L324.837 254.839L324.512 256.459L317.37 294.369L316.721 298.581L314.449 310.245L307.307 306.357L333.277 169.299L339.769 174.484Z" fill="#899BA6"/>
<path d="M369.633 282.38L319.318 253.219V248.359L369.633 277.196V282.38Z" fill="#899BA6"/>
<path d="M378.073 339.406L310.878 300.849V295.665L378.073 334.222V339.406Z" fill="#899BA6"/>
<path d="M372.555 330.982L324.512 256.459L324.837 254.839L325.811 254.191L371.906 325.474L372.555 330.982Z" fill="#D1E9FF"/>
<path d="M363.79 273.632L332.302 215.633L332.951 212.393L362.816 267.151L363.79 273.632Z" fill="#D1E9FF"/>
<path d="M355.999 224.382L338.47 182.908L339.119 179.02L354.701 215.633L355.999 224.382Z" fill="#D1E9FF"/>
<path d="M381.644 349.127L374.827 344.915L372.555 330.982L371.906 325.474L364.439 279.464V277.52L363.79 273.632L362.816 267.151L356.973 229.89L356.324 226.002L356 224.382L354.701 215.633L350.806 190.036L350.156 185.176L349.183 179.992L356 182.26L381.644 349.127Z" fill="#899BA6"/>
<path d="M364.44 279.464L316.721 298.581L317.37 294.369L363.466 275.9L364.44 277.52V279.464Z" fill="#D1E9FF"/>
<path d="M356.973 229.89L325.486 251.599L326.46 246.415L356.324 226.002L356.973 229.89Z" fill="#D1E9FF"/>
<path d="M350.806 190.036L332.952 211.097L334.575 203.969L350.156 185.176L350.806 190.036Z" fill="#D1E9FF"/>
<path d="M294.323 124.261L230.049 161.523V165.735L294.323 128.474V124.261Z" fill="#ADBDCC"/>
<path d="M294.323 128.474L230.049 165.735L240.112 164.439L284.259 138.842L294.323 128.474Z" fill="#ADBDCC"/>
<path d="M230.049 161.523L294.323 124.261L278.741 128.15L245.63 147.266L230.049 161.523Z" fill="#ADBDCC"/>
<path d="M444.944 393.517V388.657L437.478 389.305L431.959 388.333V393.193C431.959 394.165 432.609 395.137 433.907 395.785C436.504 397.405 440.724 397.405 443.321 395.785C444.295 395.461 444.944 394.489 444.944 393.517Z" fill="url(#paint2_linear_524_5442)"/>
<path d="M442.997 391.249C440.724 392.545 437.153 392.545 434.557 391.573C434.232 391.573 433.907 391.249 433.583 391.249C430.986 389.629 430.986 387.36 433.583 385.74C434.232 385.416 434.557 385.092 435.206 385.092C437.803 384.444 440.724 384.444 442.997 385.74C445.593 387.36 445.593 389.629 442.997 391.249Z" fill="#C6D6CB"/>
<path d="M442.996 388.008V362.735L437.802 363.059L433.907 362.735V388.008C433.907 388.656 434.232 389.304 435.205 389.952C436.829 390.925 439.75 390.925 441.698 389.952C442.672 389.304 442.996 388.656 442.996 388.008Z" fill="url(#paint3_linear_524_5442)"/>
<path d="M441.698 364.68C440.075 365.652 437.802 365.652 435.855 365.004C435.53 365.004 435.53 364.68 435.206 364.68C433.583 363.708 433.583 362.088 435.206 361.115C435.53 360.791 435.855 360.791 436.179 360.791C437.802 360.143 440.075 360.467 441.373 361.115C443.321 362.088 443.321 363.708 441.698 364.68Z" fill="#C6D6CB"/>
<path d="M438.452 360.467V365.003H436.179C435.855 365.003 435.855 364.679 435.53 364.679C433.907 363.707 433.907 362.087 435.53 361.115C435.855 360.791 436.179 360.791 436.504 360.791H438.452V360.467Z" fill="#867298"/>
<path d="M442.997 360.467H433.907L434.557 362.735C434.557 363.383 434.881 363.707 435.855 364.355C437.478 365.327 440.075 365.327 441.698 364.355C442.347 364.031 442.672 363.383 442.997 363.059V360.467Z" fill="url(#paint4_linear_524_5442)"/>
<path d="M441.698 362.088C440.075 363.06 437.154 363.06 435.206 362.088C435.206 362.088 435.206 362.088 434.881 362.088C433.583 361.116 433.258 359.82 434.557 358.847L434.881 358.523C436.504 357.551 439.426 357.551 441.373 358.523C443.321 359.496 443.321 361.116 441.698 362.088Z" fill="#C6D6CB"/>
<path d="M319.967 256.459L286.532 237.018V231.834L319.967 251.275V256.459Z" fill="#82909C"/>
<path d="M319.967 211.421L293.674 196.192L295.621 186.148L318.344 199.433L319.967 211.421Z" fill="#C3D0E3"/>
<path d="M304.711 194.896L303.737 199.109L303.087 203.321L299.192 224.058L297.569 231.51V232.806L296.92 236.046L291.077 266.827L290.103 272.012L289.454 275.252L289.129 276.548L281.987 314.781L281.338 318.994L279.066 330.658L273.223 333.898L297.894 189.712L304.711 194.896Z" fill="#606C74"/>
<path d="M331.978 304.089L281.663 274.928V270.068L331.978 298.905V304.089Z" fill="#C3D0E3"/>
<path d="M340.418 361.115L273.223 322.558V317.374L340.418 355.931V361.115Z" fill="#C3D0E3"/>
<path d="M334.899 352.691L286.857 278.168L284.584 277.844L284.909 280.112L331.329 354.635L334.899 352.691Z" fill="#C3D0E3"/>
<path d="M326.135 295.341L294.647 237.342L291.726 236.046L321.59 291.128L326.135 295.341Z" fill="#C3D0E3"/>
<path d="M318.019 243.498L300.815 203.969L297.893 202.673L313.475 239.286L318.019 243.498Z" fill="#C3D0E3"/>
<path d="M346.261 369.54L340.418 372.78L313.8 200.405L320.617 202.673L346.261 369.54Z" fill="#D1E9FF"/>
<path d="M326.784 301.173L276.145 318.022L279.715 316.077L325.811 297.609L326.784 299.229V301.173Z" fill="#C3D0E3"/>
<path d="M319.318 251.599L287.831 273.308L284.26 275.252L318.669 247.711L319.318 251.599Z" fill="#66727C"/>
<path d="M313.15 211.745L295.296 232.806L291.726 234.75L312.501 206.885L313.15 211.745Z" fill="#66727C"/>
<path d="M298.543 198.46L297.894 202.673L297.244 206.561L293.349 227.622L291.726 234.75V236.046L291.077 239.61L285.234 270.067L284.26 275.252L283.61 278.492L283.286 280.112L276.144 318.021L275.495 322.558L273.223 333.898L266.081 330.01L292.05 192.952L298.543 198.46Z" fill="#8A98A5"/>
<path d="M328.407 306.033L278.092 277.196V272.012L328.407 300.849V306.033Z" fill="#8A98A5"/>
<path d="M336.847 363.383L269.652 324.502V319.318L336.847 358.199V363.383Z" fill="#8A98A5"/>
<path d="M331.329 354.635L283.286 280.112L283.611 278.492L284.585 277.844L330.355 349.451L331.329 354.635Z" fill="#D1E9FF"/>
<path d="M322.564 297.284L291.077 239.61L291.726 236.046L321.59 291.128L322.564 297.284Z" fill="#D1E9FF"/>
<path d="M314.774 248.035L297.244 206.561L297.894 202.673L313.475 239.286L314.774 248.035Z" fill="#D1E9FF"/>
<path d="M340.418 372.78L333.601 368.891L331.329 354.635L330.355 349.451L323.214 303.117V301.173L322.564 297.284L321.591 291.128L315.748 253.867L315.098 249.654L314.774 248.034L313.475 239.286L309.58 213.689L308.931 208.829L307.957 203.645L314.774 206.237L340.418 372.78Z" fill="#8A98A5"/>
<path d="M323.213 303.117L275.495 322.558L276.144 318.022L322.24 299.553L323.213 301.173V303.117Z" fill="#D1E9FF"/>
<path d="M315.747 253.867L284.26 275.252L285.234 270.067L315.098 249.655L315.747 253.867Z" fill="#D1E9FF"/>
<path d="M309.58 213.689L291.726 234.75L293.349 227.622L308.931 208.829L309.58 213.689Z" fill="#D1E9FF"/>
<path d="M361.194 187.768L316.397 213.365L314.774 201.377L359.571 175.78L361.194 187.768Z" fill="#E7F0FF"/>
<path d="M336.847 162.495L291.726 188.416L314.773 201.377L359.57 175.78L336.847 162.495Z" fill="#BDCFD9"/>
<path d="M248.228 115.837L255.369 93.8042L388.136 216.605L381.32 238.962L248.228 115.837Z" fill="#E3F2FF"/>
<path d="M255.369 93.8043L267.055 87L400.147 209.801L388.136 216.605L255.369 93.8043Z" fill="#C7DDEA"/>
<path d="M249.526 112.273L254.07 97.6924L387.162 220.494L382.293 235.074L249.526 112.273Z" fill="#C7DDEA"/>
<path d="M315.422 169.299C313.15 166.383 312.825 162.495 314.449 160.875C316.072 159.255 318.993 160.551 321.265 163.467C323.538 166.383 323.862 170.271 322.239 171.891C320.616 173.511 317.695 172.215 315.422 169.299Z" fill="#426574"/>
<path d="M292.7 156.987L296.595 170.271L329.057 200.405L338.47 199.109L292.7 156.987Z" fill="#C7DDEA"/>
<path d="M248.228 115.837L249.851 122.641L258.615 130.742L262.835 129.446L248.228 115.837Z" fill="#C7DDEA"/>
<path d="M251.149 131.066C248.877 128.15 248.552 124.262 250.175 122.642C251.798 121.021 254.72 122.318 256.992 125.234C259.264 128.15 259.589 132.038 257.966 133.658C256.343 135.278 253.421 133.982 251.149 131.066Z" fill="#82909C"/>
<path d="M252.447 129.77C251.149 128.15 250.824 125.882 251.798 125.234C252.772 124.262 254.395 124.91 255.694 126.53C256.992 128.15 257.317 130.418 256.343 131.066C255.369 132.038 253.421 131.39 252.447 129.77Z" fill="#ADBDCC"/>
<path d="M316.396 213.365L290.103 198.46L291.726 188.416L314.773 201.377L316.396 213.365Z" fill="#C5D0E0"/>
<path d="M296.27 191.98L294.647 191.008V348.155L296.27 347.507V191.98Z" fill="#96ACBC"/>
<path d="M310.553 200.405L308.93 199.433V356.579L310.553 355.607V200.405Z" fill="#96ACBC"/>
<path d="M308.93 204.941L294.647 196.192L296.27 195.22L308.93 202.349V204.941Z" fill="#8EAFC1"/>
<path d="M308.93 226.326L294.647 217.253L296.27 216.281L308.93 223.734V226.326Z" fill="#8EAFC1"/>
<path d="M308.93 247.387L294.647 238.638L296.27 237.666L308.93 245.119V247.387Z" fill="#8EAFC1"/>
<path d="M308.93 268.771L294.647 260.023L296.27 259.051L308.93 266.179V268.771Z" fill="#8EAFC1"/>
<path d="M308.93 290.156L294.647 281.084L296.27 280.112L308.93 287.564V290.156Z" fill="#8EAFC1"/>
<path d="M308.93 311.217L294.647 302.469L296.27 301.497L308.93 308.949V311.217Z" fill="#8EAFC1"/>
<path d="M308.93 332.602L294.647 323.854L296.27 322.882L308.93 330.334V332.602Z" fill="#8EAFC1"/>
<path d="M308.93 353.987L294.647 344.915L296.27 344.267L308.93 351.395V353.987Z" fill="#8EAFC1"/>
<path d="M294.647 192.953L293.024 191.98V347.507L294.647 348.155V192.953Z" fill="#CED8E7"/>
<path d="M308.93 201.053L307.307 200.405V355.607L308.93 356.579V201.053Z" fill="#CED8E7"/>
<path d="M307.307 205.913L294.647 198.461V196.193L307.307 203.321V205.913Z" fill="#CED8E7"/>
<path d="M307.307 226.974L294.647 219.846V217.254L307.307 224.706V226.974Z" fill="#CED8E7"/>
<path d="M307.307 248.359L294.647 240.907V238.638L307.307 246.091V248.359Z" fill="#CED8E7"/>
<path d="M307.307 269.744L294.647 262.291V260.023L307.307 267.151V269.744Z" fill="#CED8E7"/>
<path d="M307.307 290.805L294.647 283.676V281.084L307.307 288.537V290.805Z" fill="#CED8E7"/>
<path d="M307.307 312.189L294.647 305.061V302.469L307.307 309.921V312.189Z" fill="#CED8E7"/>
<path d="M307.307 333.574L294.647 326.122V323.854L307.307 330.982V333.574Z" fill="#CED8E7"/>
<path d="M307.307 354.959L294.647 347.507V344.915L307.307 352.367V354.959Z" fill="#CED8E7"/>
<path d="M233.62 256.135C233.62 249.331 228.75 241.23 222.907 237.99C219.986 236.37 217.064 236.046 215.117 237.342L166.749 265.207L167.723 266.827C167.398 267.799 167.398 268.772 167.398 269.744C167.398 276.548 172.267 284.648 178.111 287.888C179.084 288.536 180.058 288.86 180.707 289.184L181.681 290.804L230.373 262.615C232.646 261.643 233.62 259.375 233.62 256.135Z" fill="#7B0808"/>
<path d="M184.927 284C184.927 290.804 180.058 293.396 174.215 290.156C168.372 286.916 163.503 278.492 163.503 272.012C163.503 265.531 168.372 262.615 174.215 265.855C180.383 269.095 184.927 277.52 184.927 284Z" fill="#FC0F0F"/>
<path d="M182.655 282.704C182.655 287.888 179.084 290.157 174.215 287.564C169.671 284.972 165.775 278.492 165.775 273.308C165.775 268.124 169.346 265.856 174.215 268.448C179.084 271.04 182.655 277.52 182.655 282.704Z" fill="#AC0F0F"/>
<path d="M179.409 278.492C179.409 276.548 178.11 274.28 176.487 273.308C175.513 272.984 174.864 272.66 174.539 272.984L172.267 274.28L176.487 281.408L178.435 280.436C178.435 280.436 178.759 280.436 178.759 280.112C179.084 279.788 179.409 279.14 179.409 278.492Z" fill="#7B0808"/>
<path d="M172.267 274.28C175.513 273.308 179.084 279.464 176.487 281.732C173.566 282.704 169.995 276.548 172.267 274.28Z" fill="#FC0F0F"/>
<path d="M176.487 286.268C171.943 283.676 168.047 277.196 168.047 272.012C168.047 270.068 168.697 268.448 169.346 267.476C167.074 268.124 165.775 270.068 165.775 273.308C165.775 278.492 169.346 284.972 174.215 287.564C177.137 289.184 179.734 288.86 181.032 287.24C180.058 287.564 178.435 287.24 176.487 286.268Z" fill="#7B0808"/>
<path d="M189.472 247.711C186.875 246.091 184.603 246.091 182.98 247.063C182.98 247.063 181.032 248.359 180.708 248.359C179.084 249.331 179.409 251.599 179.409 254.515C179.409 260.671 182.331 266.828 187.524 270.068C192.718 272.984 199.211 270.716 199.211 264.56C198.886 258.079 194.666 250.627 189.472 247.711ZM189.472 267.476C185.252 265.208 182.006 259.375 182.006 254.515C182.006 251.923 182.98 250.303 184.603 249.331C185.901 248.683 186.226 249.655 188.174 250.627C192.394 252.895 195.964 258.079 195.964 262.939C195.964 267.8 193.692 269.744 189.472 267.476Z" fill="#5E5E6D"/>
<path d="M187.524 249.007C182.33 246.091 177.786 248.359 177.786 254.515C177.786 260.671 182.006 268.124 187.524 271.04C192.718 273.956 197.263 271.688 197.263 265.531C196.938 259.375 192.718 251.923 187.524 249.007ZM187.524 268.448C183.304 266.18 180.058 260.347 180.058 255.487C180.058 250.627 183.304 248.683 187.524 251.275C191.744 253.543 194.99 259.375 194.99 264.235C194.99 269.096 191.42 271.04 187.524 268.448Z" fill="#E8F4FF"/>
<path d="M231.347 238.962L213.494 242.203L191.095 255.163L182.98 261.319L222.583 308.301L245.306 295.341V274.28L250.175 270.068L253.096 251.275L231.347 238.962Z" fill="#5C5C60"/>
<path d="M245.306 306.681L222.583 319.642V308.301L245.306 295.341V306.681Z" fill="#535357"/>
<path d="M237.839 235.722C237.515 235.722 228.426 228.27 228.426 228.27L223.881 230.862V237.99L208.949 232.158L204.08 233.778L199.535 236.046L209.273 253.543L225.179 270.716L233.295 262.615L249.85 272.66L254.395 270.068L255.693 260.995L248.227 247.387L237.839 235.722Z" fill="#7B0808"/>
<path d="M208.624 251.923L191.095 255.163L182.98 261.319V272.012L190.121 289.508L222.583 308.301V287.24L227.452 283.028L230.373 264.559L208.624 251.923Z" fill="#D3DDE7"/>
<path d="M205.054 268.771C205.054 265.207 202.457 260.671 199.211 258.727C197.588 257.755 195.964 257.755 194.991 258.403L193.043 259.375L193.692 260.347C193.692 260.671 193.368 261.319 193.368 261.967C193.368 265.531 195.965 270.068 199.211 272.012C199.86 272.336 200.184 272.66 200.834 272.66L201.483 273.632L203.431 272.336C204.729 272.012 205.054 270.716 205.054 268.771Z" fill="#7B0808"/>
<path d="M203.106 270.068C203.106 273.632 200.509 275.252 197.262 273.308C194.016 271.364 191.419 266.828 191.419 263.263C191.419 259.699 194.016 258.079 197.262 260.023C200.509 261.967 203.106 266.18 203.106 270.068Z" fill="#FC0F0F"/>
<path d="M201.807 269.42C201.807 272.336 199.86 273.308 197.263 272.012C194.666 270.716 192.718 267.152 192.718 264.235C192.718 261.319 194.666 260.347 197.263 261.643C199.86 262.939 201.807 266.504 201.807 269.42Z" fill="#AC0F0F"/>
<path d="M200.184 266.828C200.184 265.856 199.535 264.559 198.561 263.911C198.237 263.587 197.587 263.587 197.263 263.911L195.964 264.559L198.237 268.448L199.211 267.8C199.211 267.8 199.211 267.8 199.535 267.8C200.184 267.8 200.184 267.476 200.184 266.828Z" fill="#7B0808"/>
<path d="M198.886 267.476C198.886 268.448 198.237 268.772 197.263 268.448C196.289 267.8 195.64 266.828 195.64 265.532C195.64 264.559 196.289 264.235 197.263 264.559C198.237 265.208 198.886 266.504 198.886 267.476Z" fill="#FC0F0F"/>
<path d="M233.295 238.314C232.97 238.314 223.881 230.862 223.881 230.862L219.336 240.582L204.404 234.75L199.535 236.046L198.236 245.119L205.053 256.135L220.959 273.308L229.075 265.207L241.41 272.336L250.175 272.66L251.473 263.587L244.007 249.979L233.295 238.314Z" fill="#930101"/>
<path d="M217.714 243.499C217.714 244.147 217.064 244.471 216.415 244.147C215.766 243.823 215.117 242.851 215.117 241.879C215.117 241.231 215.766 240.907 216.415 241.231C217.064 241.879 217.714 242.851 217.714 243.499Z" fill="#E8F4FF"/>
<path d="M215.116 263.263C215.116 263.911 214.467 264.235 213.818 263.911C213.169 263.587 212.52 262.615 212.52 261.643C212.52 260.995 213.169 260.671 213.818 260.995C214.467 261.643 215.116 262.615 215.116 263.263Z" fill="#E8F4FF"/>
<path d="M248.877 266.504C248.877 267.152 248.227 267.476 247.578 267.152C246.929 266.828 246.28 265.856 246.28 264.884C246.28 264.236 246.929 263.911 247.578 264.236C248.552 264.884 248.877 265.856 248.877 266.504Z" fill="#E8F4FF"/>
<path d="M240.437 249.007C240.437 249.655 239.787 249.979 239.138 249.655C238.489 249.331 237.84 248.359 237.84 247.387C237.84 246.739 238.489 246.415 239.138 246.739C239.787 247.387 240.437 248.359 240.437 249.007Z" fill="#E8F4FF"/>
<path d="M237.84 267.476C237.84 268.124 237.19 268.448 236.541 268.124C235.892 267.8 235.243 266.828 235.243 265.856C235.243 265.208 235.892 264.884 236.541 265.208C237.19 265.532 237.84 266.504 237.84 267.476Z" fill="#E8F4FF"/>
<path d="M203.106 243.499C203.106 244.147 202.457 244.471 201.807 244.147C201.158 243.823 200.509 242.851 200.509 241.879C200.509 241.231 201.158 240.907 201.807 241.231C202.781 241.555 203.106 242.527 203.106 243.499Z" fill="#E8F4FF"/>
<path d="M230.374 286.268L226.154 288.536L224.531 225.03L228.751 222.762L238.164 229.566L230.374 286.268Z" fill="#BDCFD9"/>
<path d="M226.154 288.536L216.74 281.732L224.53 225.03L233.944 232.158L226.154 288.536Z" fill="#E8F4FF"/>
<path d="M238.165 229.566L233.945 232.158L226.154 288.536L230.374 286.268L238.165 229.566Z" fill="#666678"/>
<path d="M222.583 319.642L190.121 300.849V289.509L222.583 308.301V319.642Z" fill="#E8F4FF"/>
<path d="M225.504 162.819L228.101 164.115V245.443L225.504 244.146V162.819Z" fill="#82909C"/>
<path d="M198.561 271.364C195.964 270.068 194.017 266.504 194.017 263.587C194.017 262.615 194.341 261.643 194.666 260.995C193.367 261.319 192.718 262.291 192.718 264.235C192.718 267.152 194.666 270.716 197.263 272.012C198.886 272.984 200.184 272.66 201.158 272.012C200.509 272.012 199.535 271.688 198.561 271.364Z" fill="#7B0808"/>
<path d="M230.374 247.711C230.374 245.443 228.751 242.851 226.803 241.879C225.829 241.231 224.855 241.231 224.206 241.555L222.908 242.203L223.232 242.851C223.232 243.175 223.232 243.499 223.232 243.823C223.232 246.091 224.855 248.683 226.803 249.655C227.128 249.979 227.452 249.979 227.777 249.979L228.102 250.627L229.4 249.979C229.725 249.331 230.374 248.683 230.374 247.711Z" fill="#7B0808"/>
<path d="M229.075 248.359C229.075 250.627 227.452 251.275 225.504 250.303C223.557 249.331 221.934 246.739 221.934 244.471C221.934 242.203 223.557 241.554 225.504 242.527C227.452 243.499 229.075 246.091 229.075 248.359Z" fill="#FC0F0F"/>
<path d="M228.426 247.711C228.426 249.331 227.127 249.979 225.829 249.331C224.206 248.359 223.232 246.415 223.232 244.795C223.232 243.175 224.53 242.527 225.829 243.175C227.127 244.147 228.426 246.091 228.426 247.711Z" fill="#AC0F0F"/>
<path d="M226.478 249.007C224.855 248.035 223.882 246.091 223.882 244.471C223.882 243.823 224.206 243.499 224.206 243.175C223.557 243.175 222.908 243.823 222.908 245.119C222.908 246.739 224.206 249.007 225.505 249.655C226.478 250.303 227.128 249.979 227.777 249.655C227.452 249.331 226.803 249.331 226.478 249.007Z" fill="#7B0808"/>
<path d="M419.948 180.964L407.938 187.768L392.031 202.349L390.084 220.818L393.33 231.834L385.539 224.706L382.293 279.14C387.811 284.324 400.796 294.045 400.796 294.045C400.796 294.045 418.65 285.944 428.713 278.816C434.556 274.604 440.074 269.096 442.347 262.291C450.462 236.37 439.101 198.785 419.948 180.964ZM407.288 281.732L395.927 272.012L397.225 236.37C397.225 236.37 420.273 253.543 427.09 271.04C413.781 280.112 407.288 281.732 407.288 281.732ZM427.739 235.074C416.378 228.594 403.718 212.717 403.718 212.717L413.456 199.757L419.948 207.533C420.273 207.857 430.661 236.694 427.739 235.074Z" fill="#7B0808"/>
<path d="M395.927 272.012L384.241 278.816L395.602 288.537L407.288 281.732L395.927 272.012Z" fill="#9A0606"/>
<path d="M428.389 235.074C428.389 235.398 428.064 235.398 428.064 235.398C416.702 228.918 404.042 213.041 404.042 213.041L392.032 219.846L392.681 229.566L393.33 232.158L392.681 231.51L393.006 238.962L397.226 244.471L397.55 236.37C397.55 236.37 409.561 245.119 418.65 256.783L424.169 244.795L429.362 236.046L428.389 235.074Z" fill="#9A0606"/>
<path d="M408.263 187.768L380.346 209.153L388.461 216.605L381.644 238.638L373.854 231.51L378.723 282.38C384.241 287.564 395.603 296.313 395.603 296.313C395.603 296.313 424.818 287.888 430.661 269.419C438.776 243.174 427.415 205.589 408.263 187.768ZM395.603 288.536L384.241 278.816L385.54 243.174C385.54 243.174 408.587 260.347 415.404 277.844C401.77 286.916 395.603 288.536 395.603 288.536ZM424.169 244.794C411.833 244.47 392.032 219.845 392.032 219.845L408.587 198.136C408.587 197.812 425.467 216.929 424.169 244.794Z" fill="#FC0F0F"/>
<path d="M385.864 235.074C383.267 232.806 381.969 228.918 382.618 226.326C383.267 223.734 386.189 223.734 388.786 226.002C391.382 228.27 392.681 232.158 392.032 234.75C391.058 237.342 388.461 237.342 385.864 235.074Z" fill="#426574"/>
<path d="M439.425 256.783L437.478 257.755V359.819C437.478 359.819 437.478 360.144 437.802 360.468C438.451 361.116 439.425 360.468 439.425 360.144V256.783Z" fill="#82909C"/>
</g>
<defs>
<linearGradient id="paint0_linear_524_5442" x1="415.5" y1="38" x2="253" y2="502" gradientUnits="userSpaceOnUse">
<stop stop-color="#C4C4C4"/>
<stop offset="1" stop-color="#C4C4C4" stop-opacity="0"/>
</linearGradient>
<linearGradient id="paint1_linear_524_5442" x1="145" y1="316.588" x2="335.575" y2="316.588" gradientUnits="userSpaceOnUse">
<stop offset="0.112" stop-color="#D6D6D6"/>
<stop offset="0.987" stop-color="#9A94A8"/>
</linearGradient>
<linearGradient id="paint2_linear_524_5442" x1="431.872" y1="392.765" x2="445.064" y2="392.765" gradientUnits="userSpaceOnUse">
<stop offset="0.1615" stop-color="#6F7A80"/>
<stop offset="0.4183" stop-color="#8B999E"/>
<stop offset="0.698" stop-color="#A5B4B8"/>
<stop offset="0.862" stop-color="#AEBEC2"/>
</linearGradient>
<linearGradient id="paint3_linear_524_5442" x1="433.982" y1="376.566" x2="442.952" y2="376.566" gradientUnits="userSpaceOnUse">
<stop offset="0.1615" stop-color="#6F7A80"/>
<stop offset="0.4183" stop-color="#8B999E"/>
<stop offset="0.698" stop-color="#A5B4B8"/>
<stop offset="0.862" stop-color="#AEBEC2"/>
</linearGradient>
<linearGradient id="paint4_linear_524_5442" x1="434.055" y1="362.285" x2="443.13" y2="362.832" gradientUnits="userSpaceOnUse">
<stop offset="0.1615" stop-color="#6F7A80"/>
<stop offset="0.4183" stop-color="#8B999E"/>
<stop offset="0.698" stop-color="#A5B4B8"/>
<stop offset="0.862" stop-color="#AEBEC2"/>
</linearGradient>
</defs>
</svg>
