<svg width="505" height="502" viewBox="0 0 505 502" fill="none" xmlns="http://www.w3.org/2000/svg">
<mask id="mask0_444_2824" style="mask-type:alpha" maskUnits="userSpaceOnUse" x="0" y="0" width="505" height="502">
<rect width="505" height="502" fill="url(#paint0_linear_444_2824)"/>
</mask>
<g mask="url(#mask0_444_2824)">
<path opacity="0.3" d="M252.803 138L316.46 174.5V289.7L252.803 253.2V138Z" fill="url(#paint1_linear_444_2824)"/>
<path opacity="0.3" d="M252.803 138L189.248 174.5V289.7L252.803 253.2V138Z" fill="url(#paint2_linear_444_2824)"/>
<path d="M189.248 493.6L252.803 529.9V514.6L189.248 478.3V493.6Z" fill="#EDCE93"/>
<path d="M211.513 493.4L250.779 515.8V526.4L211.513 504V493.4Z" fill="#B98332"/>
<path d="M208.78 491.8V502.4L191.272 492.4V481.8L208.78 491.8Z" fill="#B98332"/>
<path d="M252.803 442L316.46 478.3L252.803 514.6L189.248 478.3L252.803 442Z" fill="#D4DBDF"/>
<path opacity="0.65" d="M313.323 476.5L252.803 511L192.386 476.5L252.803 442L313.323 476.5Z" fill="#B98332"/>
<path d="M316.46 494.2L252.803 529.9V514.6L316.46 478.3V494.2Z" fill="#DFC462"/>
<path d="M204.732 493.8L206.453 494.8V492.8L204.732 491.8V493.8Z" fill="#F5CF48"/>
<path d="M201.899 492.2L203.619 493.2V491.2L201.899 490.2V492.2Z" fill="#F5CF48"/>
<path d="M199.065 490.5L200.786 491.5V489.6L199.065 488.6V490.5Z" fill="#F5CF48"/>
<path d="M196.231 488.9L197.952 489.9V487.9L196.231 486.9V488.9Z" fill="#F5CF48"/>
<path d="M193.398 487.3L195.118 488.3V486.3L193.398 485.3V487.3Z" fill="#F5CF48"/>
<path d="M204.732 497.4L206.453 498.4V496.4L204.732 495.4V497.4Z" fill="#F5CF48"/>
<path d="M201.899 495.7L203.619 496.7V494.7L201.899 493.8V495.7Z" fill="#F5CF48"/>
<path d="M199.065 494.1L200.786 495.1V493.1L199.065 492.1V494.1Z" fill="#F5CF48"/>
<path d="M196.231 492.5L197.952 493.5V491.5L196.231 490.5V492.5Z" fill="#F5CF48"/>
<path d="M193.398 490.9L195.118 491.9V489.9L193.398 488.9V490.9Z" fill="#F5CF48"/>
<path opacity="0.4" d="M313.322 476.5L316.46 478.3L259.179 511H252.803L313.322 476.5Z" fill="url(#paint3_linear_444_2824)"/>
<path d="M189.248 471.6L252.803 507.9V492.6L189.248 456.3V471.6Z" fill="#EDCE93"/>
<path d="M211.513 471.4L250.779 493.8V504.4L211.513 482V471.4Z" fill="#B98332"/>
<path d="M208.78 469.8V480.4L191.272 470.4V459.8L208.78 469.8Z" fill="#B98332"/>
<path d="M252.803 420L316.46 456.3L252.803 492.6L189.248 456.3L252.803 420Z" fill="#D4DBDF"/>
<path opacity="0.65" d="M313.323 454.5L252.803 489L192.386 454.5L252.803 420L313.323 454.5Z" fill="#B98332"/>
<path d="M316.46 472.2L252.803 507.9V492.6L316.46 456.3V472.2Z" fill="#DFC462"/>
<path d="M204.732 471.8L206.453 472.8V470.8L204.732 469.8V471.8Z" fill="#F5CF48"/>
<path d="M201.899 470.2L203.619 471.2V469.2L201.899 468.2V470.2Z" fill="#F5CF48"/>
<path d="M199.065 468.5L200.786 469.5V467.6L199.065 466.6V468.5Z" fill="#F5CF48"/>
<path d="M196.231 466.9L197.952 467.9V465.9L196.231 464.9V466.9Z" fill="#F5CF48"/>
<path d="M193.398 465.3L195.118 466.3V464.3L193.398 463.3V465.3Z" fill="#F5CF48"/>
<path d="M204.732 475.4L206.453 476.4V474.4L204.732 473.4V475.4Z" fill="#F5CF48"/>
<path d="M201.899 473.7L203.619 474.7V472.7L201.899 471.8V473.7Z" fill="#F5CF48"/>
<path d="M199.065 472.1L200.786 473.1V471.1L199.065 470.1V472.1Z" fill="#F5CF48"/>
<path d="M196.231 470.5L197.952 471.5V469.5L196.231 468.5V470.5Z" fill="#F5CF48"/>
<path d="M193.398 468.9L195.118 469.9V467.9L193.398 466.9V468.9Z" fill="#F5CF48"/>
<path d="M246.63 498.3L248.452 499.3V497.3L246.63 496.3V498.3Z" fill="#F5CF48"/>
<path d="M243.898 496.7L245.618 497.7V495.7L243.898 494.7V496.7Z" fill="#F5CF48"/>
<path d="M241.064 495.1L242.784 496.1V494.1L241.064 493.1V495.1Z" fill="#F5CF48"/>
<path opacity="0.4" d="M313.322 454.5L316.46 456.3L259.179 489H252.803L313.322 454.5Z" fill="url(#paint4_linear_444_2824)"/>
<path d="M189.248 449.3L252.803 485.6V470.3L189.248 434V449.3Z" fill="#EDCE93"/>
<path d="M211.513 449.1L250.779 471.5V482.1L211.513 459.7V449.1Z" fill="#B98332"/>
<path d="M208.78 447.5V458.1L191.272 448.1V437.5L208.78 447.5Z" fill="#B98332"/>
<path d="M252.803 397.7L316.46 434L252.803 470.3L189.248 434L252.803 397.7Z" fill="#D4DBDF"/>
<path opacity="0.65" d="M313.323 432.2L252.803 466.7L192.386 432.2L252.803 397.7L313.323 432.2Z" fill="#B98332"/>
<path d="M316.46 449.9L252.803 485.6V470.3L316.46 434V449.9Z" fill="#DFC462"/>
<path d="M204.732 449.5L206.453 450.5V448.5L204.732 447.5V449.5Z" fill="#F5CF48"/>
<path d="M201.899 447.9L203.619 448.9V446.9L201.899 445.9V447.9Z" fill="#F5CF48"/>
<path d="M199.065 446.2L200.786 447.2V445.3L199.065 444.3V446.2Z" fill="#F5CF48"/>
<path d="M196.231 444.6L197.952 445.6V443.6L196.231 442.6V444.6Z" fill="#F5CF48"/>
<path d="M193.398 443L195.118 444V442L193.398 441V443Z" fill="#F5CF48"/>
<path d="M204.732 453.1L206.453 454.1V452.1L204.732 451.1V453.1Z" fill="#F5CF48"/>
<path d="M201.899 451.4L203.619 452.4V450.4L201.899 449.5V451.4Z" fill="#F5CF48"/>
<path d="M199.065 449.8L200.786 450.8V448.8L199.065 447.8V449.8Z" fill="#F5CF48"/>
<path d="M196.231 448.2L197.952 449.2V447.2L196.231 446.2V448.2Z" fill="#F5CF48"/>
<path d="M193.398 446.6L195.118 447.6V445.6L193.398 444.6V446.6Z" fill="#F5CF48"/>
<path d="M246.63 476L248.452 477V475L246.63 474V476Z" fill="#F5CF48"/>
<path d="M243.898 474.4L245.618 475.4V473.4L243.898 472.4V474.4Z" fill="#F5CF48"/>
<path d="M241.064 472.8L242.784 473.8V471.8L241.064 470.8V472.8Z" fill="#F5CF48"/>
<path opacity="0.4" d="M313.322 432.2L316.46 434L259.179 466.7H252.803L313.322 432.2Z" fill="url(#paint5_linear_444_2824)"/>
<path d="M189.248 427.2L252.803 463.5V448.1L189.248 411.8V427.2Z" fill="#EDCE93"/>
<path d="M211.513 426.9L250.779 449.3V459.9L211.513 437.5V426.9Z" fill="#B98332"/>
<path d="M208.78 425.4V436L191.272 426V415.4L208.78 425.4Z" fill="#B98332"/>
<path d="M252.803 375.5L316.46 411.8L252.803 448.1L189.248 411.8L252.803 375.5Z" fill="#D4DBDF"/>
<path opacity="0.65" d="M313.323 410L252.803 444.5L192.386 410L252.803 375.5L313.323 410Z" fill="#B98332"/>
<path d="M316.46 427.8L252.803 463.5V448.1L316.46 411.8V427.8Z" fill="#DFC462"/>
<path d="M204.732 427.3L206.453 428.3V426.3L204.732 425.3V427.3Z" fill="#F5CF48"/>
<path d="M201.899 425.7L203.619 426.7V424.7L201.899 423.7V425.7Z" fill="#F5CF48"/>
<path d="M199.065 424.1L200.786 425.1V423.1L199.065 422.1V424.1Z" fill="#F5CF48"/>
<path d="M196.231 422.5L197.952 423.5V421.5L196.231 420.5V422.5Z" fill="#F5CF48"/>
<path d="M193.398 420.9L195.118 421.9V419.9L193.398 418.9V420.9Z" fill="#F5CF48"/>
<path d="M204.732 430.9L206.453 431.9V429.9L204.732 428.9V430.9Z" fill="#F5CF48"/>
<path d="M201.899 429.3L203.619 430.3V428.3L201.899 427.3V429.3Z" fill="#F5CF48"/>
<path d="M199.065 427.7L200.786 428.7V426.7L199.065 425.7V427.7Z" fill="#F5CF48"/>
<path d="M196.231 426.1L197.952 427.1V425.1L196.231 424.1V426.1Z" fill="#F5CF48"/>
<path d="M193.398 424.5L195.118 425.5V423.5L193.398 422.5V424.5Z" fill="#F5CF48"/>
<path d="M246.63 453.9L248.452 454.9V452.9L246.63 451.9V453.9Z" fill="#F5CF48"/>
<path d="M243.898 452.3L245.618 453.3V451.3L243.898 450.3V452.3Z" fill="#F5CF48"/>
<path d="M241.064 450.7L242.784 451.7V449.7L241.064 448.7V450.7Z" fill="#F5CF48"/>
<path opacity="0.4" d="M313.322 410L316.46 411.8L259.179 444.5H252.803L313.322 410Z" fill="url(#paint6_linear_444_2824)"/>
<path d="M189.248 405L252.803 441.3V426L189.248 389.7V405Z" fill="#EDCE93"/>
<path d="M211.513 404.8L250.779 427.2V437.8L211.513 415.4V404.8Z" fill="#B98332"/>
<path d="M208.78 403.3V413.9L191.272 403.9V393.3L208.78 403.3Z" fill="#B98332"/>
<path d="M252.803 353.4L316.46 389.7L252.803 426L189.248 389.7L252.803 353.4Z" fill="#D4DBDF"/>
<path opacity="0.65" d="M313.323 387.9L252.803 422.4L192.386 387.9L252.803 353.4L313.323 387.9Z" fill="#B98332"/>
<path d="M316.46 405.6L252.803 441.3V426L316.46 389.7V405.6Z" fill="#DFC462"/>
<path d="M204.732 405.2L206.453 406.2V404.2L204.732 403.2V405.2Z" fill="#F5CF48"/>
<path d="M201.899 403.6L203.619 404.6V402.6L201.899 401.6V403.6Z" fill="#F5CF48"/>
<path d="M199.065 402L200.786 403V401L199.065 400V402Z" fill="#F5CF48"/>
<path d="M196.231 400.4L197.952 401.4V399.4L196.231 398.4V400.4Z" fill="#F5CF48"/>
<path d="M193.398 398.8L195.118 399.8V397.8L193.398 396.8V398.8Z" fill="#F5CF48"/>
<path d="M204.732 408.8L206.453 409.8V407.8L204.732 406.8V408.8Z" fill="#F5CF48"/>
<path d="M201.899 407.2L203.619 408.2V406.2L201.899 405.2V407.2Z" fill="#F5CF48"/>
<path d="M199.065 405.6L200.786 406.6V404.6L199.065 403.6V405.6Z" fill="#F5CF48"/>
<path d="M196.231 404L197.952 404.9V403L196.231 402V404Z" fill="#F5CF48"/>
<path d="M193.398 402.3L195.118 403.3V401.3L193.398 400.3V402.3Z" fill="#F5CF48"/>
<path d="M246.63 431.7L248.452 432.7V430.7L246.63 429.8V431.7Z" fill="#F5CF48"/>
<path d="M243.898 430.1L245.618 431.1V429.1L243.898 428.1V430.1Z" fill="#F5CF48"/>
<path d="M241.064 428.5L242.784 429.5V427.5L241.064 426.5V428.5Z" fill="#F5CF48"/>
<path opacity="0.4" d="M313.322 387.9L316.46 389.7L259.179 422.4H252.803L313.322 387.9Z" fill="url(#paint7_linear_444_2824)"/>
<path d="M189.248 382.9L252.803 419.2V403.9L189.248 367.6V382.9Z" fill="#EDCE93"/>
<path d="M211.513 382.7L250.779 405.1V415.7L211.513 393.3V382.7Z" fill="#B98332"/>
<path d="M208.78 381.1V391.7L191.272 381.7V371.1L208.78 381.1Z" fill="#B98332"/>
<path d="M252.803 331.3L316.46 367.6L252.803 403.9L189.248 367.6L252.803 331.3Z" fill="#D4DBDF"/>
<path opacity="0.65" d="M313.323 365.8L252.803 400.2L192.386 365.8L252.803 331.3L313.323 365.8Z" fill="#B98332"/>
<path d="M316.46 383.5L252.803 419.2V403.9L316.46 367.6V383.5Z" fill="#DFC462"/>
<path d="M204.732 383.1L206.453 384.1V382.1L204.732 381.1V383.1Z" fill="#F5CF48"/>
<path d="M201.899 381.5L203.619 382.4V380.5L201.899 379.5V381.5Z" fill="#F5CF48"/>
<path d="M199.065 379.8L200.786 380.8V378.8L199.065 377.8V379.8Z" fill="#F5CF48"/>
<path d="M196.231 378.2L197.952 379.2V377.2L196.231 376.2V378.2Z" fill="#F5CF48"/>
<path d="M193.398 376.6L195.118 377.6V375.6L193.398 374.6V376.6Z" fill="#F5CF48"/>
<path d="M204.732 386.6L206.453 387.6V385.7L204.732 384.7V386.6Z" fill="#F5CF48"/>
<path d="M201.899 385L203.619 386V384L201.899 383V385Z" fill="#F5CF48"/>
<path d="M199.065 383.4L200.786 384.4V382.4L199.065 381.4V383.4Z" fill="#F5CF48"/>
<path d="M196.231 381.8L197.952 382.8V380.8L196.231 379.8V381.8Z" fill="#F5CF48"/>
<path d="M193.398 380.2L195.118 381.2V379.2L193.398 378.2V380.2Z" fill="#F5CF48"/>
<path d="M246.63 409.6L248.452 410.6V408.6L246.63 407.6V409.6Z" fill="#F5CF48"/>
<path d="M243.898 408L245.618 409V407L243.898 406V408Z" fill="#F5CF48"/>
<path d="M241.064 406.4L242.784 407.4V405.4L241.064 404.4V406.4Z" fill="#F5CF48"/>
<path opacity="0.4" d="M313.322 365.8L316.46 367.6L259.179 400.2H252.803L313.322 365.8Z" fill="url(#paint8_linear_444_2824)"/>
<path d="M189.248 360.8L252.803 397.1V381.7L189.248 345.4V360.8Z" fill="#EDCE93"/>
<path d="M211.513 360.5L250.779 382.9V393.5L211.513 371.1V360.5Z" fill="#B98332"/>
<path d="M208.78 359V369.6L191.272 359.6V349L208.78 359Z" fill="#B98332"/>
<path d="M252.803 309.1L316.46 345.4L252.803 381.7L189.248 345.4L252.803 309.1Z" fill="#D4DBDF"/>
<path opacity="0.65" d="M313.323 343.6L252.803 378.1L192.386 343.6L252.803 309.1L313.323 343.6Z" fill="#B98332"/>
<path d="M316.46 361.4L252.803 397.1V381.7L316.46 345.4V361.4Z" fill="#DFC462"/>
<path d="M204.732 360.9L206.453 361.9V359.9L204.732 358.9V360.9Z" fill="#F5CF48"/>
<path d="M201.899 359.3L203.619 360.3V358.3L201.899 357.3V359.3Z" fill="#F5CF48"/>
<path d="M199.065 357.7L200.786 358.7V356.7L199.065 355.7V357.7Z" fill="#F5CF48"/>
<path d="M196.231 356.1L197.952 357.1V355.1L196.231 354.1V356.1Z" fill="#F5CF48"/>
<path d="M193.398 354.5L195.118 355.5V353.5L193.398 352.5V354.5Z" fill="#F5CF48"/>
<path d="M204.732 364.5L206.453 365.5V363.5L204.732 362.5V364.5Z" fill="#F5CF48"/>
<path d="M201.899 362.9L203.619 363.9V361.9L201.899 360.9V362.9Z" fill="#F5CF48"/>
<path d="M199.065 361.3L200.786 362.3V360.3L199.065 359.3V361.3Z" fill="#F5CF48"/>
<path d="M196.231 359.7L197.952 360.7V358.7L196.231 357.7V359.7Z" fill="#F5CF48"/>
<path d="M193.398 358.1L195.118 359.1V357.1L193.398 356.1V358.1Z" fill="#F5CF48"/>
<path d="M246.63 387.5L248.452 388.5V386.5L246.63 385.5V387.5Z" fill="#F5CF48"/>
<path d="M243.898 385.9L245.618 386.9V384.9L243.898 383.9V385.9Z" fill="#F5CF48"/>
<path d="M241.064 384.3L242.784 385.2V383.3L241.064 382.3V384.3Z" fill="#F5CF48"/>
<path opacity="0.4" d="M313.322 343.6L316.46 345.4L259.179 378.1H252.803L313.322 343.6Z" fill="url(#paint9_linear_444_2824)"/>
<path d="M189.248 338.6L252.803 374.9V359.6L189.248 323.3V338.6Z" fill="#EDCE93"/>
<path d="M211.513 338.4L250.779 360.8V371.4L211.513 349V338.4Z" fill="#B98332"/>
<path d="M208.78 336.9V347.5L191.272 337.5V326.9L208.78 336.9Z" fill="#B98332"/>
<path d="M252.803 287L316.46 323.3L252.803 359.6L189.248 323.3L252.803 287Z" fill="#D4DBDF"/>
<path opacity="0.65" d="M313.323 321.5L252.803 356L192.386 321.5L252.803 287L313.323 321.5Z" fill="#B98332"/>
<path d="M316.46 339.2L252.803 374.9V359.6L316.46 323.3V339.2Z" fill="#DFC462"/>
<path d="M204.732 338.8L206.453 339.8V337.8L204.732 336.8V338.8Z" fill="#F5CF48"/>
<path d="M201.899 337.2L203.619 338.2V336.2L201.899 335.2V337.2Z" fill="#F5CF48"/>
<path d="M199.065 335.6L200.786 336.6V334.6L199.065 333.6V335.6Z" fill="#F5CF48"/>
<path d="M196.231 334L197.952 335V333L196.231 332V334Z" fill="#F5CF48"/>
<path d="M193.398 332.3L195.118 333.3V331.4L193.398 330.4V332.3Z" fill="#F5CF48"/>
<path d="M204.732 342.4L206.453 343.4V341.4L204.732 340.4V342.4Z" fill="#F5CF48"/>
<path d="M201.899 340.8L203.619 341.8V339.8L201.899 338.8V340.8Z" fill="#F5CF48"/>
<path d="M199.065 339.2L200.786 340.2V338.2L199.065 337.2V339.2Z" fill="#F5CF48"/>
<path d="M196.231 337.5L197.952 338.5V336.5L196.231 335.6V337.5Z" fill="#F5CF48"/>
<path d="M193.398 335.9L195.118 336.9V334.9L193.398 333.9V335.9Z" fill="#F5CF48"/>
<path d="M246.63 365.3L248.452 366.3V364.3L246.63 363.3V365.3Z" fill="#F5CF48"/>
<path d="M243.898 363.7L245.618 364.7V362.7L243.898 361.7V363.7Z" fill="#F5CF48"/>
<path d="M241.064 362.1L242.784 363.1V361.1L241.064 360.1V362.1Z" fill="#F5CF48"/>
<path opacity="0.4" d="M313.322 321.5L316.46 323.3L259.179 356H252.803L313.322 321.5Z" fill="url(#paint10_linear_444_2824)"/>
<path d="M189.248 316.5L252.803 352.8V337.5L189.248 301.2V316.5Z" fill="#EDCE93"/>
<path d="M211.513 316.3L250.779 338.6V349.2L211.513 326.9V316.3Z" fill="#B98332"/>
<path d="M208.78 314.7V325.3L191.272 315.3V304.7L208.78 314.7Z" fill="#B98332"/>
<path d="M252.803 264.9L316.46 301.2L252.803 337.5L189.248 301.2L252.803 264.9Z" fill="#D4DBDF"/>
<path opacity="0.65" d="M313.323 299.4L252.803 333.8L192.386 299.4L252.803 264.9L313.323 299.4Z" fill="#B98332"/>
<path d="M316.46 317.1L252.803 352.8V337.5L316.46 301.2V317.1Z" fill="#DFC462"/>
<path d="M204.732 316.7L206.453 317.7V315.7L204.732 314.7V316.7Z" fill="#F5CF48"/>
<path d="M201.899 315L203.619 316V314L201.899 313.1V315Z" fill="#F5CF48"/>
<path d="M199.065 313.4L200.786 314.4V312.4L199.065 311.4V313.4Z" fill="#F5CF48"/>
<path d="M196.231 311.8L197.952 312.8V310.8L196.231 309.8V311.8Z" fill="#F5CF48"/>
<path d="M193.398 310.2L195.118 311.2V309.2L193.398 308.2V310.2Z" fill="#F5CF48"/>
<path d="M204.732 320.2L206.453 321.2V319.2L204.732 318.2V320.2Z" fill="#F5CF48"/>
<path d="M201.899 318.6L203.619 319.6V317.6L201.899 316.6V318.6Z" fill="#F5CF48"/>
<path d="M199.065 317L200.786 318V316L199.065 315V317Z" fill="#F5CF48"/>
<path d="M196.231 315.4L197.952 316.4V314.4L196.231 313.4V315.4Z" fill="#F5CF48"/>
<path d="M193.398 313.8L195.118 314.8V312.8L193.398 311.8V313.8Z" fill="#F5CF48"/>
<path d="M246.63 343.2L248.452 344.2V342.2L246.63 341.2V343.2Z" fill="#F5CF48"/>
<path d="M243.898 341.6L245.618 342.6V340.6L243.898 339.6V341.6Z" fill="#F5CF48"/>
<path d="M241.064 340L242.784 341V339L241.064 338V340Z" fill="#F5CF48"/>
<path opacity="0.4" d="M313.322 299.4L316.46 301.2L259.179 333.8H252.803L313.322 299.4Z" fill="url(#paint11_linear_444_2824)"/>
<path d="M189.248 294.4L252.803 330.7V315.3L189.248 279V294.4Z" fill="#EDCE93"/>
<path d="M211.513 294.1L250.779 316.5V327.1L211.513 304.7V294.1Z" fill="#B98332"/>
<path d="M208.78 292.6V303.2L191.272 293.2V282.6L208.78 292.6Z" fill="#B98332"/>
<path d="M252.803 242.7L316.46 279L252.803 315.3L189.248 279L252.803 242.7Z" fill="#D4DBDF"/>
<path d="M316.46 295L252.803 330.7V315.3L316.46 279V295Z" fill="#DFC462"/>
<path d="M204.732 294.5L206.453 295.5V293.5L204.732 292.5V294.5Z" fill="#F5CF48"/>
<path d="M201.899 292.9L203.619 293.9V291.9L201.899 290.9V292.9Z" fill="#F5CF48"/>
<path d="M199.065 291.3L200.786 292.3V290.3L199.065 289.3V291.3Z" fill="#F5CF48"/>
<path d="M196.231 289.7L197.952 290.7V288.7L196.231 287.7V289.7Z" fill="#F5CF48"/>
<path d="M193.398 288.1L195.118 289.1V287.1L193.398 286.1V288.1Z" fill="#F5CF48"/>
<path d="M204.732 298.1L206.453 299.1V297.1L204.732 296.1V298.1Z" fill="#F5CF48"/>
<path d="M201.899 296.5L203.619 297.5V295.5L201.899 294.5V296.5Z" fill="#F5CF48"/>
<path d="M199.065 294.9L200.786 295.9V293.9L199.065 292.9V294.9Z" fill="#F5CF48"/>
<path d="M196.231 293.3L197.952 294.3V292.3L196.231 291.3V293.3Z" fill="#F5CF48"/>
<path d="M193.398 291.7L195.118 292.7V290.7L193.398 289.7V291.7Z" fill="#F5CF48"/>
<path d="M246.63 321.1L248.452 322.1V320.1L246.63 319.1V321.1Z" fill="#F5CF48"/>
<path d="M243.898 319.5L245.618 320.5V318.5L243.898 317.5V319.5Z" fill="#F5CF48"/>
<path d="M241.064 317.8L242.784 318.8V316.8L241.064 315.9V317.8Z" fill="#F5CF48"/>
<g clip-path="url(#clip0_444_2824)">
<path opacity="0.3" d="M333.813 41L396.713 77.5V192.7L333.813 156.2V41Z" fill="url(#paint12_linear_444_2824)"/>
<path opacity="0.3" d="M333.813 41L271.013 77.5V192.7L333.813 156.2V41Z" fill="url(#paint13_linear_444_2824)"/>
<path d="M271.013 508.2L333.813 544.5V529.2L271.013 492.9V508.2Z" fill="#EDCE93"/>
<path d="M290.313 506.4V517L273.013 507V496.4L290.313 506.4Z" fill="#B98332"/>
<path d="M333.813 456.6L396.713 492.9L333.813 529.2L271.013 492.9L333.813 456.6Z" fill="#D4DBDF"/>
<path opacity="0.65" d="M393.613 491.1L333.813 525.6L274.113 491.1L333.813 456.6L393.613 491.1Z" fill="#B98332"/>
<path d="M396.713 508.8L333.813 544.5V529.2L396.713 492.9V508.8Z" fill="#DFC462"/>
<path d="M277.913 503.5L279.613 504.5V502.5L277.913 501.5V503.5Z" fill="#F5CF48"/>
<path d="M275.113 501.9L276.813 502.9V500.9L275.113 499.9V501.9Z" fill="#F5CF48"/>
<path opacity="0.4" d="M393.613 491.1L396.713 492.9L340.113 525.6H333.813L393.613 491.1Z" fill="url(#paint14_linear_444_2824)"/>
<path d="M271.013 486.2L333.813 522.5V507.2L271.013 470.9V486.2Z" fill="#EDCE93"/>
<path d="M293.013 486L331.813 508.4V519L293.013 496.6V486Z" fill="#B98332"/>
<path d="M290.313 484.4V495L273.013 485V474.4L290.313 484.4Z" fill="#B98332"/>
<path d="M333.813 434.6L396.713 470.9L333.813 507.2L271.013 470.9L333.813 434.6Z" fill="#D4DBDF"/>
<path opacity="0.65" d="M393.613 469.1L333.813 503.6L274.113 469.1L333.813 434.6L393.613 469.1Z" fill="#B98332"/>
<path d="M396.713 486.8L333.813 522.5V507.2L396.713 470.9V486.8Z" fill="#DFC462"/>
<path d="M286.313 486.4L288.013 487.4V485.4L286.313 484.4V486.4Z" fill="#F5CF48"/>
<path d="M283.513 484.8L285.213 485.8V483.8L283.513 482.8V484.8Z" fill="#F5CF48"/>
<path d="M280.713 483.1L282.413 484.1V482.2L280.713 481.2V483.1Z" fill="#F5CF48"/>
<path d="M277.913 481.5L279.613 482.5V480.5L277.913 479.5V481.5Z" fill="#F5CF48"/>
<path d="M275.113 479.9L276.813 480.9V478.9L275.113 477.9V479.9Z" fill="#F5CF48"/>
<path d="M286.313 490L288.013 491V489L286.313 488V490Z" fill="#F5CF48"/>
<path d="M283.513 488.3L285.213 489.3V487.3L283.513 486.4V488.3Z" fill="#F5CF48"/>
<path d="M280.713 486.7L282.413 487.7V485.7L280.713 484.7V486.7Z" fill="#F5CF48"/>
<path d="M277.913 485.1L279.613 486.1V484.1L277.913 483.1V485.1Z" fill="#F5CF48"/>
<path d="M275.113 483.5L276.813 484.5V482.5L275.113 481.5V483.5Z" fill="#F5CF48"/>
<path opacity="0.4" d="M393.613 469.1L396.713 470.9L340.113 503.6H333.813L393.613 469.1Z" fill="url(#paint15_linear_444_2824)"/>
<path d="M271.013 463.9L333.813 500.2V484.9L271.013 448.6V463.9Z" fill="#EDCE93"/>
<path d="M293.013 463.7L331.813 486.1V496.7L293.013 474.3V463.7Z" fill="#B98332"/>
<path d="M290.313 462.1V472.7L273.013 462.7V452.1L290.313 462.1Z" fill="#B98332"/>
<path d="M333.813 412.3L396.713 448.6L333.813 484.9L271.013 448.6L333.813 412.3Z" fill="#D4DBDF"/>
<path opacity="0.65" d="M393.613 446.8L333.813 481.3L274.113 446.8L333.813 412.3L393.613 446.8Z" fill="#B98332"/>
<path d="M396.713 464.5L333.813 500.2V484.9L396.713 448.6V464.5Z" fill="#DFC462"/>
<path d="M286.313 464.1L288.013 465.1V463.1L286.313 462.1V464.1Z" fill="#F5CF48"/>
<path d="M283.513 462.5L285.213 463.5V461.5L283.513 460.5V462.5Z" fill="#F5CF48"/>
<path d="M280.713 460.8L282.413 461.8V459.9L280.713 458.9V460.8Z" fill="#F5CF48"/>
<path d="M277.913 459.2L279.613 460.2V458.2L277.913 457.2V459.2Z" fill="#F5CF48"/>
<path d="M275.113 457.6L276.813 458.6V456.6L275.113 455.6V457.6Z" fill="#F5CF48"/>
<path d="M286.313 467.7L288.013 468.7V466.7L286.313 465.7V467.7Z" fill="#F5CF48"/>
<path d="M283.513 466L285.213 467V465L283.513 464.1V466Z" fill="#F5CF48"/>
<path d="M280.713 464.4L282.413 465.4V463.4L280.713 462.4V464.4Z" fill="#F5CF48"/>
<path d="M277.913 462.8L279.613 463.8V461.8L277.913 460.8V462.8Z" fill="#F5CF48"/>
<path d="M275.113 461.2L276.813 462.2V460.2L275.113 459.2V461.2Z" fill="#F5CF48"/>
<path d="M327.713 490.6L329.513 491.6V489.6L327.713 488.6V490.6Z" fill="#F5CF48"/>
<path d="M325.013 489L326.713 490V488L325.013 487V489Z" fill="#F5CF48"/>
<path d="M322.213 487.4L323.913 488.4V486.4L322.213 485.4V487.4Z" fill="#F5CF48"/>
<path opacity="0.4" d="M393.613 446.8L396.713 448.6L340.113 481.3H333.813L393.613 446.8Z" fill="url(#paint16_linear_444_2824)"/>
<path d="M271.013 441.8L333.813 478.1V462.7L271.013 426.4V441.8Z" fill="#EDCE93"/>
<path d="M293.013 441.5L331.813 463.9V474.5L293.013 452.1V441.5Z" fill="#B98332"/>
<path d="M290.313 440V450.6L273.013 440.6V430L290.313 440Z" fill="#B98332"/>
<path d="M333.813 390.1L396.713 426.4L333.813 462.7L271.013 426.4L333.813 390.1Z" fill="#D4DBDF"/>
<path opacity="0.65" d="M393.613 424.6L333.813 459.1L274.113 424.6L333.813 390.1L393.613 424.6Z" fill="#B98332"/>
<path d="M396.713 442.4L333.813 478.1V462.7L396.713 426.4V442.4Z" fill="#DFC462"/>
<path d="M286.313 441.9L288.013 442.9V440.9L286.313 439.9V441.9Z" fill="#F5CF48"/>
<path d="M283.513 440.3L285.213 441.3V439.3L283.513 438.3V440.3Z" fill="#F5CF48"/>
<path d="M280.713 438.7L282.413 439.7V437.7L280.713 436.7V438.7Z" fill="#F5CF48"/>
<path d="M277.913 437.1L279.613 438.1V436.1L277.913 435.1V437.1Z" fill="#F5CF48"/>
<path d="M275.113 435.5L276.813 436.5V434.5L275.113 433.5V435.5Z" fill="#F5CF48"/>
<path d="M286.313 445.5L288.013 446.5V444.5L286.313 443.5V445.5Z" fill="#F5CF48"/>
<path d="M283.513 443.9L285.213 444.9V442.9L283.513 441.9V443.9Z" fill="#F5CF48"/>
<path d="M280.713 442.3L282.413 443.3V441.3L280.713 440.3V442.3Z" fill="#F5CF48"/>
<path d="M277.913 440.7L279.613 441.7V439.7L277.913 438.7V440.7Z" fill="#F5CF48"/>
<path d="M275.113 439.1L276.813 440.1V438.1L275.113 437.1V439.1Z" fill="#F5CF48"/>
<path d="M327.713 468.5L329.513 469.5V467.5L327.713 466.5V468.5Z" fill="#F5CF48"/>
<path d="M325.013 466.9L326.713 467.9V465.9L325.013 464.9V466.9Z" fill="#F5CF48"/>
<path d="M322.213 465.3L323.913 466.3V464.3L322.213 463.3V465.3Z" fill="#F5CF48"/>
<path opacity="0.4" d="M393.613 424.6L396.713 426.4L340.113 459.1H333.813L393.613 424.6Z" fill="url(#paint17_linear_444_2824)"/>
<path d="M271.013 419.6L333.813 455.9V440.6L271.013 404.3V419.6Z" fill="#EDCE93"/>
<path d="M293.013 419.4L331.813 441.8V452.4L293.013 430V419.4Z" fill="#B98332"/>
<path d="M290.313 417.9V428.5L273.013 418.5V407.9L290.313 417.9Z" fill="#B98332"/>
<path d="M333.813 368L396.713 404.3L333.813 440.6L271.013 404.3L333.813 368Z" fill="#D4DBDF"/>
<path opacity="0.65" d="M393.613 402.5L333.813 437L274.113 402.5L333.813 368L393.613 402.5Z" fill="#B98332"/>
<path d="M396.713 420.2L333.813 455.9V440.6L396.713 404.3V420.2Z" fill="#DFC462"/>
<path d="M286.313 419.8L288.013 420.8V418.8L286.313 417.8V419.8Z" fill="#F5CF48"/>
<path d="M283.513 418.2L285.213 419.2V417.2L283.513 416.2V418.2Z" fill="#F5CF48"/>
<path d="M280.713 416.6L282.413 417.6V415.6L280.713 414.6V416.6Z" fill="#F5CF48"/>
<path d="M277.913 415L279.613 416V414L277.913 413V415Z" fill="#F5CF48"/>
<path d="M275.113 413.4L276.813 414.4V412.4L275.113 411.4V413.4Z" fill="#F5CF48"/>
<path d="M286.313 423.4L288.013 424.4V422.4L286.313 421.4V423.4Z" fill="#F5CF48"/>
<path d="M283.513 421.8L285.213 422.8V420.8L283.513 419.8V421.8Z" fill="#F5CF48"/>
<path d="M280.713 420.2L282.413 421.2V419.2L280.713 418.2V420.2Z" fill="#F5CF48"/>
<path d="M277.913 418.6L279.613 419.5V417.6L277.913 416.6V418.6Z" fill="#F5CF48"/>
<path d="M275.113 416.9L276.813 417.9V415.9L275.113 414.9V416.9Z" fill="#F5CF48"/>
<path d="M327.713 446.3L329.513 447.3V445.3L327.713 444.4V446.3Z" fill="#F5CF48"/>
<path d="M325.013 444.7L326.713 445.7V443.7L325.013 442.7V444.7Z" fill="#F5CF48"/>
<path d="M322.213 443.1L323.913 444.1V442.1L322.213 441.1V443.1Z" fill="#F5CF48"/>
<path opacity="0.4" d="M393.613 402.5L396.713 404.3L340.113 437H333.813L393.613 402.5Z" fill="url(#paint18_linear_444_2824)"/>
<path d="M271.013 396.6L333.813 432.9V417.6L271.013 381.3V396.6Z" fill="#EDCE93"/>
<path d="M293.013 396.4L331.813 418.8V429.4L293.013 407V396.4Z" fill="#B98332"/>
<path d="M290.313 394.8V405.4L273.013 395.4V384.8L290.313 394.8Z" fill="#B98332"/>
<path d="M333.813 345L396.713 381.3L333.813 417.6L271.013 381.3L333.813 345Z" fill="#D4DBDF"/>
<path opacity="0.65" d="M393.613 379.5L333.813 414L274.113 379.5L333.813 345L393.613 379.5Z" fill="#B98332"/>
<path d="M396.713 397.2L333.813 432.9V417.6L396.713 381.3V397.2Z" fill="#DFC462"/>
<path d="M286.313 396.8L288.013 397.8V395.8L286.313 394.8V396.8Z" fill="#F5CF48"/>
<path d="M283.513 395.2L285.213 396.2V394.2L283.513 393.2V395.2Z" fill="#F5CF48"/>
<path d="M280.713 393.5L282.413 394.5V392.6L280.713 391.6V393.5Z" fill="#F5CF48"/>
<path d="M277.913 391.9L279.613 392.9V390.9L277.913 389.9V391.9Z" fill="#F5CF48"/>
<path d="M275.113 390.3L276.813 391.3V389.3L275.113 388.3V390.3Z" fill="#F5CF48"/>
<path d="M286.313 400.4L288.013 401.4V399.4L286.313 398.4V400.4Z" fill="#F5CF48"/>
<path d="M283.513 398.7L285.213 399.7V397.7L283.513 396.8V398.7Z" fill="#F5CF48"/>
<path d="M280.713 397.1L282.413 398.1V396.1L280.713 395.1V397.1Z" fill="#F5CF48"/>
<path d="M277.913 395.5L279.613 396.5V394.5L277.913 393.5V395.5Z" fill="#F5CF48"/>
<path d="M275.113 393.9L276.813 394.9V392.9L275.113 391.9V393.9Z" fill="#F5CF48"/>
<path d="M327.713 423.3L329.513 424.3V422.3L327.713 421.3V423.3Z" fill="#F5CF48"/>
<path d="M325.013 421.7L326.713 422.7V420.7L325.013 419.7V421.7Z" fill="#F5CF48"/>
<path d="M322.213 420.1L323.913 421.1V419.1L322.213 418.1V420.1Z" fill="#F5CF48"/>
<path opacity="0.4" d="M393.613 379.5L396.713 381.3L340.113 414H333.813L393.613 379.5Z" fill="url(#paint19_linear_444_2824)"/>
<path d="M271.013 374.6L333.813 410.9V395.6L271.013 359.3V374.6Z" fill="#EDCE93"/>
<path d="M293.013 374.4L331.813 396.8V407.4L293.013 385V374.4Z" fill="#B98332"/>
<path d="M290.313 372.8V383.4L273.013 373.4V362.8L290.313 372.8Z" fill="#B98332"/>
<path d="M333.813 323L396.713 359.3L333.813 395.6L271.013 359.3L333.813 323Z" fill="#D4DBDF"/>
<path opacity="0.65" d="M393.613 357.5L333.813 392L274.113 357.5L333.813 323L393.613 357.5Z" fill="#B98332"/>
<path d="M396.713 375.2L333.813 410.9V395.6L396.713 359.3V375.2Z" fill="#DFC462"/>
<path d="M286.313 374.8L288.013 375.8V373.8L286.313 372.8V374.8Z" fill="#F5CF48"/>
<path d="M283.513 373.2L285.213 374.2V372.2L283.513 371.2V373.2Z" fill="#F5CF48"/>
<path d="M280.713 371.5L282.413 372.5V370.6L280.713 369.6V371.5Z" fill="#F5CF48"/>
<path d="M277.913 369.9L279.613 370.9V368.9L277.913 367.9V369.9Z" fill="#F5CF48"/>
<path d="M275.113 368.3L276.813 369.3V367.3L275.113 366.3V368.3Z" fill="#F5CF48"/>
<path d="M286.313 378.4L288.013 379.4V377.4L286.313 376.4V378.4Z" fill="#F5CF48"/>
<path d="M283.513 376.7L285.213 377.7V375.7L283.513 374.8V376.7Z" fill="#F5CF48"/>
<path d="M280.713 375.1L282.413 376.1V374.1L280.713 373.1V375.1Z" fill="#F5CF48"/>
<path d="M277.913 373.5L279.613 374.5V372.5L277.913 371.5V373.5Z" fill="#F5CF48"/>
<path d="M275.113 371.9L276.813 372.9V370.9L275.113 369.9V371.9Z" fill="#F5CF48"/>
<path d="M327.713 401.3L329.513 402.3V400.3L327.713 399.3V401.3Z" fill="#F5CF48"/>
<path d="M325.013 399.7L326.713 400.7V398.7L325.013 397.7V399.7Z" fill="#F5CF48"/>
<path d="M322.213 398.1L323.913 399.1V397.1L322.213 396.1V398.1Z" fill="#F5CF48"/>
<path opacity="0.4" d="M393.613 357.5L396.713 359.3L340.113 392H333.813L393.613 357.5Z" fill="url(#paint20_linear_444_2824)"/>
<path d="M271.013 352.3L333.813 388.6V373.3L271.013 337V352.3Z" fill="#EDCE93"/>
<path d="M293.013 352.1L331.813 374.5V385.1L293.013 362.7V352.1Z" fill="#B98332"/>
<path d="M290.313 350.5V361.1L273.013 351.1V340.5L290.313 350.5Z" fill="#B98332"/>
<path d="M333.813 300.7L396.713 337L333.813 373.3L271.013 337L333.813 300.7Z" fill="#D4DBDF"/>
<path opacity="0.65" d="M393.613 335.2L333.813 369.7L274.113 335.2L333.813 300.7L393.613 335.2Z" fill="#B98332"/>
<path d="M396.713 352.9L333.813 388.6V373.3L396.713 337V352.9Z" fill="#DFC462"/>
<path d="M286.313 352.5L288.013 353.5V351.5L286.313 350.5V352.5Z" fill="#F5CF48"/>
<path d="M283.513 350.9L285.213 351.9V349.9L283.513 348.9V350.9Z" fill="#F5CF48"/>
<path d="M280.713 349.2L282.413 350.2V348.3L280.713 347.3V349.2Z" fill="#F5CF48"/>
<path d="M277.913 347.6L279.613 348.6V346.6L277.913 345.6V347.6Z" fill="#F5CF48"/>
<path d="M275.113 346L276.813 347V345L275.113 344V346Z" fill="#F5CF48"/>
<path d="M286.313 356.1L288.013 357.1V355.1L286.313 354.1V356.1Z" fill="#F5CF48"/>
<path d="M283.513 354.4L285.213 355.4V353.4L283.513 352.5V354.4Z" fill="#F5CF48"/>
<path d="M280.713 352.8L282.413 353.8V351.8L280.713 350.8V352.8Z" fill="#F5CF48"/>
<path d="M277.913 351.2L279.613 352.2V350.2L277.913 349.2V351.2Z" fill="#F5CF48"/>
<path d="M275.113 349.6L276.813 350.6V348.6L275.113 347.6V349.6Z" fill="#F5CF48"/>
<path d="M327.713 379L329.513 380V378L327.713 377V379Z" fill="#F5CF48"/>
<path d="M325.013 377.4L326.713 378.4V376.4L325.013 375.4V377.4Z" fill="#F5CF48"/>
<path d="M322.213 375.8L323.913 376.8V374.8L322.213 373.8V375.8Z" fill="#F5CF48"/>
<path opacity="0.4" d="M393.613 335.2L396.713 337L340.113 369.7H333.813L393.613 335.2Z" fill="url(#paint21_linear_444_2824)"/>
<path d="M271.013 330.2L333.813 366.5V351.1L271.013 314.8V330.2Z" fill="#EDCE93"/>
<path d="M293.013 329.9L331.813 352.3V362.9L293.013 340.5V329.9Z" fill="#B98332"/>
<path d="M290.313 328.4V339L273.013 329V318.4L290.313 328.4Z" fill="#B98332"/>
<path d="M333.813 278.5L396.713 314.8L333.813 351.1L271.013 314.8L333.813 278.5Z" fill="#D4DBDF"/>
<path opacity="0.65" d="M393.613 313L333.813 347.5L274.113 313L333.813 278.5L393.613 313Z" fill="#B98332"/>
<path d="M396.713 330.8L333.813 366.5V351.1L396.713 314.8V330.8Z" fill="#DFC462"/>
<path d="M286.313 330.3L288.013 331.3V329.3L286.313 328.3V330.3Z" fill="#F5CF48"/>
<path d="M283.513 328.7L285.213 329.7V327.7L283.513 326.7V328.7Z" fill="#F5CF48"/>
<path d="M280.713 327.1L282.413 328.1V326.1L280.713 325.1V327.1Z" fill="#F5CF48"/>
<path d="M277.913 325.5L279.613 326.5V324.5L277.913 323.5V325.5Z" fill="#F5CF48"/>
<path d="M275.113 323.9L276.813 324.9V322.9L275.113 321.9V323.9Z" fill="#F5CF48"/>
<path d="M286.313 333.9L288.013 334.9V332.9L286.313 331.9V333.9Z" fill="#F5CF48"/>
<path d="M283.513 332.3L285.213 333.3V331.3L283.513 330.3V332.3Z" fill="#F5CF48"/>
<path d="M280.713 330.7L282.413 331.7V329.7L280.713 328.7V330.7Z" fill="#F5CF48"/>
<path d="M277.913 329.1L279.613 330.1V328.1L277.913 327.1V329.1Z" fill="#F5CF48"/>
<path d="M275.113 327.5L276.813 328.5V326.5L275.113 325.5V327.5Z" fill="#F5CF48"/>
<path d="M327.713 356.9L329.513 357.9V355.9L327.713 354.9V356.9Z" fill="#F5CF48"/>
<path d="M325.013 355.3L326.713 356.3V354.3L325.013 353.3V355.3Z" fill="#F5CF48"/>
<path d="M322.213 353.7L323.913 354.7V352.7L322.213 351.7V353.7Z" fill="#F5CF48"/>
<path opacity="0.4" d="M393.613 313L396.713 314.8L340.113 347.5H333.813L393.613 313Z" fill="url(#paint22_linear_444_2824)"/>
<path d="M271.013 308L333.813 344.3V329L271.013 292.7V308Z" fill="#EDCE93"/>
<path d="M293.013 307.8L331.813 330.2V340.8L293.013 318.4V307.8Z" fill="#B98332"/>
<path d="M290.313 306.3V316.9L273.013 306.9V296.3L290.313 306.3Z" fill="#B98332"/>
<path d="M333.813 256.4L396.713 292.7L333.813 329L271.013 292.7L333.813 256.4Z" fill="#D4DBDF"/>
<path opacity="0.65" d="M393.613 290.9L333.813 325.4L274.113 290.9L333.813 256.4L393.613 290.9Z" fill="#B98332"/>
<path d="M396.713 308.6L333.813 344.3V329L396.713 292.7V308.6Z" fill="#DFC462"/>
<path d="M286.313 308.2L288.013 309.2V307.2L286.313 306.2V308.2Z" fill="#F5CF48"/>
<path d="M283.513 306.6L285.213 307.6V305.6L283.513 304.6V306.6Z" fill="#F5CF48"/>
<path d="M280.713 305L282.413 306V304L280.713 303V305Z" fill="#F5CF48"/>
<path d="M277.913 303.4L279.613 304.4V302.4L277.913 301.4V303.4Z" fill="#F5CF48"/>
<path d="M275.113 301.8L276.813 302.8V300.8L275.113 299.8V301.8Z" fill="#F5CF48"/>
<path d="M286.313 311.8L288.013 312.8V310.8L286.313 309.8V311.8Z" fill="#F5CF48"/>
<path d="M283.513 310.2L285.213 311.2V309.2L283.513 308.2V310.2Z" fill="#F5CF48"/>
<path d="M280.713 308.6L282.413 309.6V307.6L280.713 306.6V308.6Z" fill="#F5CF48"/>
<path d="M277.913 307L279.613 307.9V306L277.913 305V307Z" fill="#F5CF48"/>
<path d="M275.113 305.3L276.813 306.3V304.3L275.113 303.3V305.3Z" fill="#F5CF48"/>
<path d="M327.713 334.7L329.513 335.7V333.7L327.713 332.8V334.7Z" fill="#F5CF48"/>
<path d="M325.013 333.1L326.713 334.1V332.1L325.013 331.1V333.1Z" fill="#F5CF48"/>
<path d="M322.213 331.5L323.913 332.5V330.5L322.213 329.5V331.5Z" fill="#F5CF48"/>
<path opacity="0.4" d="M393.613 290.9L396.713 292.7L340.113 325.4H333.813L393.613 290.9Z" fill="url(#paint23_linear_444_2824)"/>
<path d="M271.013 285.9L333.813 322.2V306.9L271.013 270.6V285.9Z" fill="#EDCE93"/>
<path d="M293.013 285.7L331.813 308.1V318.7L293.013 296.3V285.7Z" fill="#B98332"/>
<path d="M290.313 284.1V294.7L273.013 284.7V274.1L290.313 284.1Z" fill="#B98332"/>
<path d="M333.813 234.3L396.713 270.6L333.813 306.9L271.013 270.6L333.813 234.3Z" fill="#D4DBDF"/>
<path opacity="0.65" d="M393.613 268.8L333.813 303.2L274.113 268.8L333.813 234.3L393.613 268.8Z" fill="#B98332"/>
<path d="M396.713 286.5L333.813 322.2V306.9L396.713 270.6V286.5Z" fill="#DFC462"/>
<path d="M286.313 286.1L288.013 287.1V285.1L286.313 284.1V286.1Z" fill="#F5CF48"/>
<path d="M283.513 284.5L285.213 285.4V283.5L283.513 282.5V284.5Z" fill="#F5CF48"/>
<path d="M280.713 282.8L282.413 283.8V281.8L280.713 280.8V282.8Z" fill="#F5CF48"/>
<path d="M277.913 281.2L279.613 282.2V280.2L277.913 279.2V281.2Z" fill="#F5CF48"/>
<path d="M275.113 279.6L276.813 280.6V278.6L275.113 277.6V279.6Z" fill="#F5CF48"/>
<path d="M286.313 289.6L288.013 290.6V288.7L286.313 287.7V289.6Z" fill="#F5CF48"/>
<path d="M283.513 288L285.213 289V287L283.513 286V288Z" fill="#F5CF48"/>
<path d="M280.713 286.4L282.413 287.4V285.4L280.713 284.4V286.4Z" fill="#F5CF48"/>
<path d="M277.913 284.8L279.613 285.8V283.8L277.913 282.8V284.8Z" fill="#F5CF48"/>
<path d="M275.113 283.2L276.813 284.2V282.2L275.113 281.2V283.2Z" fill="#F5CF48"/>
<path d="M327.713 312.6L329.513 313.6V311.6L327.713 310.6V312.6Z" fill="#F5CF48"/>
<path d="M325.013 311L326.713 312V310L325.013 309V311Z" fill="#F5CF48"/>
<path d="M322.213 309.4L323.913 310.4V308.4L322.213 307.4V309.4Z" fill="#F5CF48"/>
<path opacity="0.4" d="M393.613 268.8L396.713 270.6L340.113 303.2H333.813L393.613 268.8Z" fill="url(#paint24_linear_444_2824)"/>
<path d="M271.013 263.8L333.813 300.1V284.7L271.013 248.4V263.8Z" fill="#EDCE93"/>
<path d="M293.013 263.5L331.813 285.9V296.5L293.013 274.1V263.5Z" fill="#B98332"/>
<path d="M290.313 262V272.6L273.013 262.6V252L290.313 262Z" fill="#B98332"/>
<path d="M333.813 212.1L396.713 248.4L333.813 284.7L271.013 248.4L333.813 212.1Z" fill="#D4DBDF"/>
<path opacity="0.65" d="M393.613 246.6L333.813 281.1L274.113 246.6L333.813 212.1L393.613 246.6Z" fill="#B98332"/>
<path d="M396.713 264.4L333.813 300.1V284.7L396.713 248.4V264.4Z" fill="#DFC462"/>
<path d="M286.313 263.9L288.013 264.9V262.9L286.313 261.9V263.9Z" fill="#F5CF48"/>
<path d="M283.513 262.3L285.213 263.3V261.3L283.513 260.3V262.3Z" fill="#F5CF48"/>
<path d="M280.713 260.7L282.413 261.7V259.7L280.713 258.7V260.7Z" fill="#F5CF48"/>
<path d="M277.913 259.1L279.613 260.1V258.1L277.913 257.1V259.1Z" fill="#F5CF48"/>
<path d="M275.113 257.5L276.813 258.5V256.5L275.113 255.5V257.5Z" fill="#F5CF48"/>
<path d="M286.313 267.5L288.013 268.5V266.5L286.313 265.5V267.5Z" fill="#F5CF48"/>
<path d="M283.513 265.9L285.213 266.9V264.9L283.513 263.9V265.9Z" fill="#F5CF48"/>
<path d="M280.713 264.3L282.413 265.3V263.3L280.713 262.3V264.3Z" fill="#F5CF48"/>
<path d="M277.913 262.7L279.613 263.7V261.7L277.913 260.7V262.7Z" fill="#F5CF48"/>
<path d="M275.113 261.1L276.813 262.1V260.1L275.113 259.1V261.1Z" fill="#F5CF48"/>
<path d="M327.713 290.5L329.513 291.5V289.5L327.713 288.5V290.5Z" fill="#F5CF48"/>
<path d="M325.013 288.9L326.713 289.9V287.9L325.013 286.9V288.9Z" fill="#F5CF48"/>
<path d="M322.213 287.3L323.913 288.2V286.3L322.213 285.3V287.3Z" fill="#F5CF48"/>
<path opacity="0.4" d="M393.613 246.6L396.713 248.4L340.113 281.1H333.813L393.613 246.6Z" fill="url(#paint25_linear_444_2824)"/>
<path d="M271.013 241.6L333.813 277.9V262.6L271.013 226.3V241.6Z" fill="#EDCE93"/>
<path d="M293.013 241.4L331.813 263.8V274.4L293.013 252V241.4Z" fill="#B98332"/>
<path d="M290.313 239.9V250.5L273.013 240.5V229.9L290.313 239.9Z" fill="#B98332"/>
<path d="M333.813 190L396.713 226.3L333.813 262.6L271.013 226.3L333.813 190Z" fill="#D4DBDF"/>
<path opacity="0.65" d="M393.613 224.5L333.813 259L274.113 224.5L333.813 190L393.613 224.5Z" fill="#B98332"/>
<path d="M396.713 242.2L333.813 277.9V262.6L396.713 226.3V242.2Z" fill="#DFC462"/>
<path d="M286.313 241.8L288.013 242.8V240.8L286.313 239.8V241.8Z" fill="#F5CF48"/>
<path d="M283.513 240.2L285.213 241.2V239.2L283.513 238.2V240.2Z" fill="#F5CF48"/>
<path d="M280.713 238.6L282.413 239.6V237.6L280.713 236.6V238.6Z" fill="#F5CF48"/>
<path d="M277.913 237L279.613 238V236L277.913 235V237Z" fill="#F5CF48"/>
<path d="M275.113 235.3L276.813 236.3V234.4L275.113 233.4V235.3Z" fill="#F5CF48"/>
<path d="M286.313 245.4L288.013 246.4V244.4L286.313 243.4V245.4Z" fill="#F5CF48"/>
<path d="M283.513 243.8L285.213 244.8V242.8L283.513 241.8V243.8Z" fill="#F5CF48"/>
<path d="M280.713 242.2L282.413 243.2V241.2L280.713 240.2V242.2Z" fill="#F5CF48"/>
<path d="M277.913 240.5L279.613 241.5V239.5L277.913 238.6V240.5Z" fill="#F5CF48"/>
<path d="M275.113 238.9L276.813 239.9V237.9L275.113 236.9V238.9Z" fill="#F5CF48"/>
<path d="M327.713 268.3L329.513 269.3V267.3L327.713 266.3V268.3Z" fill="#F5CF48"/>
<path d="M325.013 266.7L326.713 267.7V265.7L325.013 264.7V266.7Z" fill="#F5CF48"/>
<path d="M322.213 265.1L323.913 266.1V264.1L322.213 263.1V265.1Z" fill="#F5CF48"/>
<path opacity="0.4" d="M393.613 224.5L396.713 226.3L340.113 259H333.813L393.613 224.5Z" fill="url(#paint26_linear_444_2824)"/>
<path d="M271.013 219.5L333.813 255.8V240.5L271.013 204.2V219.5Z" fill="#EDCE93"/>
<path d="M293.013 219.3L331.813 241.6V252.2L293.013 229.9V219.3Z" fill="#B98332"/>
<path d="M290.313 217.7V228.3L273.013 218.3V207.7L290.313 217.7Z" fill="#B98332"/>
<path d="M333.813 167.9L396.713 204.2L333.813 240.5L271.013 204.2L333.813 167.9Z" fill="#D4DBDF"/>
<path opacity="0.65" d="M393.613 202.4L333.813 236.8L274.113 202.4L333.813 167.9L393.613 202.4Z" fill="#B98332"/>
<path d="M396.713 220.1L333.813 255.8V240.5L396.713 204.2V220.1Z" fill="#DFC462"/>
<path d="M286.313 219.7L288.013 220.7V218.7L286.313 217.7V219.7Z" fill="#F5CF48"/>
<path d="M283.513 218L285.213 219V217L283.513 216.1V218Z" fill="#F5CF48"/>
<path d="M280.713 216.4L282.413 217.4V215.4L280.713 214.4V216.4Z" fill="#F5CF48"/>
<path d="M277.913 214.8L279.613 215.8V213.8L277.913 212.8V214.8Z" fill="#F5CF48"/>
<path d="M275.113 213.2L276.813 214.2V212.2L275.113 211.2V213.2Z" fill="#F5CF48"/>
<path d="M286.313 223.2L288.013 224.2V222.2L286.313 221.2V223.2Z" fill="#F5CF48"/>
<path d="M283.513 221.6L285.213 222.6V220.6L283.513 219.6V221.6Z" fill="#F5CF48"/>
<path d="M280.713 220L282.413 221V219L280.713 218V220Z" fill="#F5CF48"/>
<path d="M277.913 218.4L279.613 219.4V217.4L277.913 216.4V218.4Z" fill="#F5CF48"/>
<path d="M275.113 216.8L276.813 217.8V215.8L275.113 214.8V216.8Z" fill="#F5CF48"/>
<path d="M327.713 246.2L329.513 247.2V245.2L327.713 244.2V246.2Z" fill="#F5CF48"/>
<path d="M325.013 244.6L326.713 245.6V243.6L325.013 242.6V244.6Z" fill="#F5CF48"/>
<path d="M322.213 243L323.913 244V242L322.213 241V243Z" fill="#F5CF48"/>
<path opacity="0.4" d="M393.613 202.4L396.713 204.2L340.113 236.8H333.813L393.613 202.4Z" fill="url(#paint27_linear_444_2824)"/>
<path d="M271.013 197.4L333.813 233.7V218.3L271.013 182V197.4Z" fill="#EDCE93"/>
<path d="M293.013 197.1L331.813 219.5V230.1L293.013 207.7V197.1Z" fill="#B98332"/>
<path d="M290.313 195.6V206.2L273.013 196.2V185.6L290.313 195.6Z" fill="#B98332"/>
<path d="M333.813 145.7L396.713 182L333.813 218.3L271.013 182L333.813 145.7Z" fill="#D4DBDF"/>
<path d="M396.713 198L333.813 233.7V218.3L396.713 182V198Z" fill="#DFC462"/>
<path d="M286.313 197.5L288.013 198.5V196.5L286.313 195.5V197.5Z" fill="#F5CF48"/>
<path d="M283.513 195.9L285.213 196.9V194.9L283.513 193.9V195.9Z" fill="#F5CF48"/>
<path d="M280.713 194.3L282.413 195.3V193.3L280.713 192.3V194.3Z" fill="#F5CF48"/>
<path d="M277.913 192.7L279.613 193.7V191.7L277.913 190.7V192.7Z" fill="#F5CF48"/>
<path d="M275.113 191.1L276.813 192.1V190.1L275.113 189.1V191.1Z" fill="#F5CF48"/>
<path d="M286.313 201.1L288.013 202.1V200.1L286.313 199.1V201.1Z" fill="#F5CF48"/>
<path d="M283.513 199.5L285.213 200.5V198.5L283.513 197.5V199.5Z" fill="#F5CF48"/>
<path d="M280.713 197.9L282.413 198.9V196.9L280.713 195.9V197.9Z" fill="#F5CF48"/>
<path d="M277.913 196.3L279.613 197.3V195.3L277.913 194.3V196.3Z" fill="#F5CF48"/>
<path d="M275.113 194.7L276.813 195.7V193.7L275.113 192.7V194.7Z" fill="#F5CF48"/>
<path d="M327.713 224.1L329.513 225.1V223.1L327.713 222.1V224.1Z" fill="#F5CF48"/>
<path d="M325.013 222.5L326.713 223.5V221.5L325.013 220.5V222.5Z" fill="#F5CF48"/>
<path d="M322.213 220.8L323.913 221.8V219.8L322.213 218.9V220.8Z" fill="#F5CF48"/>
</g>
<g clip-path="url(#clip1_444_2824)">
<path opacity="0.3" d="M418.823 -12L481.723 24.5V139.7L418.823 103.2V-12Z" fill="url(#paint28_linear_444_2824)"/>
<path opacity="0.3" d="M418.823 -12L356.023 24.5V139.7L418.823 103.2V-12Z" fill="url(#paint29_linear_444_2824)"/>
<path d="M418.823 493.5L481.723 529.8L418.823 566.1L356.023 529.8L418.823 493.5Z" fill="#D4DBDF"/>
<path opacity="0.65" d="M478.623 528L418.823 562.5L359.123 528L418.823 493.5L478.623 528Z" fill="#B98332"/>
<path d="M418.823 471.5L481.723 507.8L418.823 544.1L356.023 507.8L418.823 471.5Z" fill="#D4DBDF"/>
<path opacity="0.65" d="M478.623 506L418.823 540.5L359.123 506L418.823 471.5L478.623 506Z" fill="#B98332"/>
<path d="M356.023 500.8L418.823 537.1V521.8L356.023 485.5V500.8Z" fill="#EDCE93"/>
<path d="M378.023 500.6L416.823 523V533.6L378.023 511.2V500.6Z" fill="#B98332"/>
<path d="M375.323 499V509.6L358.023 499.6V489L375.323 499Z" fill="#B98332"/>
<path d="M418.823 449.2L481.723 485.5L418.823 521.8L356.023 485.5L418.823 449.2Z" fill="#D4DBDF"/>
<path opacity="0.65" d="M478.623 483.7L418.823 518.2L359.123 483.7L418.823 449.2L478.623 483.7Z" fill="#B98332"/>
<path d="M481.723 501.4L418.823 537.1V521.8L481.723 485.5V501.4Z" fill="#DFC462"/>
<path d="M371.323 501L373.023 502V500L371.323 499V501Z" fill="#F5CF48"/>
<path d="M368.523 499.4L370.223 500.4V498.4L368.523 497.4V499.4Z" fill="#F5CF48"/>
<path d="M365.723 497.7L367.423 498.7V496.8L365.723 495.8V497.7Z" fill="#F5CF48"/>
<path d="M362.923 496.1L364.623 497.1V495.1L362.923 494.1V496.1Z" fill="#F5CF48"/>
<path d="M360.123 494.5L361.823 495.5V493.5L360.123 492.5V494.5Z" fill="#F5CF48"/>
<path d="M368.523 502.9L370.223 503.9V501.9L368.523 501V502.9Z" fill="#F5CF48"/>
<path d="M365.723 501.3L367.423 502.3V500.3L365.723 499.3V501.3Z" fill="#F5CF48"/>
<path d="M362.923 499.7L364.623 500.7V498.7L362.923 497.7V499.7Z" fill="#F5CF48"/>
<path d="M360.123 498.1L361.823 499.1V497.1L360.123 496.1V498.1Z" fill="#F5CF48"/>
<path opacity="0.4" d="M478.623 483.7L481.723 485.5L425.123 518.2H418.823L478.623 483.7Z" fill="url(#paint30_linear_444_2824)"/>
<path d="M356.023 478.7L418.823 515V499.6L356.023 463.3V478.7Z" fill="#EDCE93"/>
<path d="M378.023 478.4L416.823 500.8V511.4L378.023 489V478.4Z" fill="#B98332"/>
<path d="M375.323 476.9V487.5L358.023 477.5V466.9L375.323 476.9Z" fill="#B98332"/>
<path d="M418.823 427L481.723 463.3L418.823 499.6L356.023 463.3L418.823 427Z" fill="#D4DBDF"/>
<path opacity="0.65" d="M478.623 461.5L418.823 496L359.123 461.5L418.823 427L478.623 461.5Z" fill="#B98332"/>
<path d="M481.723 479.3L418.823 515V499.6L481.723 463.3V479.3Z" fill="#DFC462"/>
<path d="M371.323 478.8L373.023 479.8V477.8L371.323 476.8V478.8Z" fill="#F5CF48"/>
<path d="M368.523 477.2L370.223 478.2V476.2L368.523 475.2V477.2Z" fill="#F5CF48"/>
<path d="M365.723 475.6L367.423 476.6V474.6L365.723 473.6V475.6Z" fill="#F5CF48"/>
<path d="M362.923 474L364.623 475V473L362.923 472V474Z" fill="#F5CF48"/>
<path d="M360.123 472.4L361.823 473.4V471.4L360.123 470.4V472.4Z" fill="#F5CF48"/>
<path d="M371.323 482.4L373.023 483.4V481.4L371.323 480.4V482.4Z" fill="#F5CF48"/>
<path d="M368.523 480.8L370.223 481.8V479.8L368.523 478.8V480.8Z" fill="#F5CF48"/>
<path d="M365.723 479.2L367.423 480.2V478.2L365.723 477.2V479.2Z" fill="#F5CF48"/>
<path d="M362.923 477.6L364.623 478.6V476.6L362.923 475.6V477.6Z" fill="#F5CF48"/>
<path d="M360.123 476L361.823 477V475L360.123 474V476Z" fill="#F5CF48"/>
<path d="M410.023 503.8L411.723 504.8V502.8L410.023 501.8V503.8Z" fill="#F5CF48"/>
<path d="M407.223 502.2L408.923 503.2V501.2L407.223 500.2V502.2Z" fill="#F5CF48"/>
<path opacity="0.4" d="M478.623 461.5L481.723 463.3L425.123 496H418.823L478.623 461.5Z" fill="url(#paint31_linear_444_2824)"/>
<path d="M356.023 455.2L418.823 491.5V476.2L356.023 439.9V455.2Z" fill="#EDCE93"/>
<path d="M378.023 455L416.823 477.4V488L378.023 465.6V455Z" fill="#B98332"/>
<path d="M375.323 453.4V464L358.023 454V443.4L375.323 453.4Z" fill="#B98332"/>
<path d="M418.823 403.6L481.723 439.9L418.823 476.2L356.023 439.9L418.823 403.6Z" fill="#D4DBDF"/>
<path opacity="0.65" d="M478.623 438.1L418.823 472.6L359.123 438.1L418.823 403.6L478.623 438.1Z" fill="#B98332"/>
<path d="M481.723 455.8L418.823 491.5V476.2L481.723 439.9V455.8Z" fill="#DFC462"/>
<path d="M371.323 455.4L373.023 456.4V454.4L371.323 453.4V455.4Z" fill="#F5CF48"/>
<path d="M368.523 453.8L370.223 454.8V452.8L368.523 451.8V453.8Z" fill="#F5CF48"/>
<path d="M365.723 452.1L367.423 453.1V451.2L365.723 450.2V452.1Z" fill="#F5CF48"/>
<path d="M362.923 450.5L364.623 451.5V449.5L362.923 448.5V450.5Z" fill="#F5CF48"/>
<path d="M360.123 448.9L361.823 449.9V447.9L360.123 446.9V448.9Z" fill="#F5CF48"/>
<path d="M371.323 459L373.023 460V458L371.323 457V459Z" fill="#F5CF48"/>
<path d="M368.523 457.3L370.223 458.3V456.3L368.523 455.4V457.3Z" fill="#F5CF48"/>
<path d="M365.723 455.7L367.423 456.7V454.7L365.723 453.7V455.7Z" fill="#F5CF48"/>
<path d="M362.923 454.1L364.623 455.1V453.1L362.923 452.1V454.1Z" fill="#F5CF48"/>
<path d="M360.123 452.5L361.823 453.5V451.5L360.123 450.5V452.5Z" fill="#F5CF48"/>
<path d="M412.723 481.9L414.523 482.9V480.9L412.723 479.9V481.9Z" fill="#F5CF48"/>
<path d="M410.023 480.3L411.723 481.3V479.3L410.023 478.3V480.3Z" fill="#F5CF48"/>
<path d="M407.223 478.7L408.923 479.7V477.7L407.223 476.7V478.7Z" fill="#F5CF48"/>
<path opacity="0.4" d="M478.623 438.1L481.723 439.9L425.123 472.6H418.823L478.623 438.1Z" fill="url(#paint32_linear_444_2824)"/>
<path d="M356.023 433.2L418.823 469.5V454.2L356.023 417.9V433.2Z" fill="#EDCE93"/>
<path d="M378.023 433L416.823 455.4V466L378.023 443.6V433Z" fill="#B98332"/>
<path d="M375.323 431.4V442L358.023 432V421.4L375.323 431.4Z" fill="#B98332"/>
<path d="M418.823 381.6L481.723 417.9L418.823 454.2L356.023 417.9L418.823 381.6Z" fill="#D4DBDF"/>
<path opacity="0.65" d="M478.623 416.1L418.823 450.6L359.123 416.1L418.823 381.6L478.623 416.1Z" fill="#B98332"/>
<path d="M481.723 433.8L418.823 469.5V454.2L481.723 417.9V433.8Z" fill="#DFC462"/>
<path d="M371.323 433.4L373.023 434.4V432.4L371.323 431.4V433.4Z" fill="#F5CF48"/>
<path d="M368.523 431.8L370.223 432.8V430.8L368.523 429.8V431.8Z" fill="#F5CF48"/>
<path d="M365.723 430.1L367.423 431.1V429.2L365.723 428.2V430.1Z" fill="#F5CF48"/>
<path d="M362.923 428.5L364.623 429.5V427.5L362.923 426.5V428.5Z" fill="#F5CF48"/>
<path d="M360.123 426.9L361.823 427.9V425.9L360.123 424.9V426.9Z" fill="#F5CF48"/>
<path d="M371.323 437L373.023 438V436L371.323 435V437Z" fill="#F5CF48"/>
<path d="M368.523 435.3L370.223 436.3V434.3L368.523 433.4V435.3Z" fill="#F5CF48"/>
<path d="M365.723 433.7L367.423 434.7V432.7L365.723 431.7V433.7Z" fill="#F5CF48"/>
<path d="M362.923 432.1L364.623 433.1V431.1L362.923 430.1V432.1Z" fill="#F5CF48"/>
<path d="M360.123 430.5L361.823 431.5V429.5L360.123 428.5V430.5Z" fill="#F5CF48"/>
<path d="M412.723 459.9L414.523 460.9V458.9L412.723 457.9V459.9Z" fill="#F5CF48"/>
<path d="M410.023 458.3L411.723 459.3V457.3L410.023 456.3V458.3Z" fill="#F5CF48"/>
<path d="M407.223 456.7L408.923 457.7V455.7L407.223 454.7V456.7Z" fill="#F5CF48"/>
<path opacity="0.4" d="M478.623 416.1L481.723 417.9L425.123 450.6H418.823L478.623 416.1Z" fill="url(#paint33_linear_444_2824)"/>
<path d="M356.023 410.9L418.823 447.2V431.9L356.023 395.6V410.9Z" fill="#EDCE93"/>
<path d="M378.023 410.7L416.823 433.1V443.7L378.023 421.3V410.7Z" fill="#B98332"/>
<path d="M375.323 409.1V419.7L358.023 409.7V399.1L375.323 409.1Z" fill="#B98332"/>
<path d="M418.823 359.3L481.723 395.6L418.823 431.9L356.023 395.6L418.823 359.3Z" fill="#D4DBDF"/>
<path opacity="0.65" d="M478.623 393.8L418.823 428.3L359.123 393.8L418.823 359.3L478.623 393.8Z" fill="#B98332"/>
<path d="M481.723 411.5L418.823 447.2V431.9L481.723 395.6V411.5Z" fill="#DFC462"/>
<path d="M371.323 411.1L373.023 412.1V410.1L371.323 409.1V411.1Z" fill="#F5CF48"/>
<path d="M368.523 409.5L370.223 410.5V408.5L368.523 407.5V409.5Z" fill="#F5CF48"/>
<path d="M365.723 407.8L367.423 408.8V406.9L365.723 405.9V407.8Z" fill="#F5CF48"/>
<path d="M362.923 406.2L364.623 407.2V405.2L362.923 404.2V406.2Z" fill="#F5CF48"/>
<path d="M360.123 404.6L361.823 405.6V403.6L360.123 402.6V404.6Z" fill="#F5CF48"/>
<path d="M371.323 414.7L373.023 415.7V413.7L371.323 412.7V414.7Z" fill="#F5CF48"/>
<path d="M368.523 413L370.223 414V412L368.523 411.1V413Z" fill="#F5CF48"/>
<path d="M365.723 411.4L367.423 412.4V410.4L365.723 409.4V411.4Z" fill="#F5CF48"/>
<path d="M362.923 409.8L364.623 410.8V408.8L362.923 407.8V409.8Z" fill="#F5CF48"/>
<path d="M360.123 408.2L361.823 409.2V407.2L360.123 406.2V408.2Z" fill="#F5CF48"/>
<path d="M412.723 437.6L414.523 438.6V436.6L412.723 435.6V437.6Z" fill="#F5CF48"/>
<path d="M410.023 436L411.723 437V435L410.023 434V436Z" fill="#F5CF48"/>
<path d="M407.223 434.4L408.923 435.4V433.4L407.223 432.4V434.4Z" fill="#F5CF48"/>
<path opacity="0.4" d="M478.623 393.8L481.723 395.6L425.123 428.3H418.823L478.623 393.8Z" fill="url(#paint34_linear_444_2824)"/>
<path d="M356.023 388.8L418.823 425.1V409.7L356.023 373.4V388.8Z" fill="#EDCE93"/>
<path d="M378.023 388.5L416.823 410.9V421.5L378.023 399.1V388.5Z" fill="#B98332"/>
<path d="M375.323 387V397.6L358.023 387.6V377L375.323 387Z" fill="#B98332"/>
<path d="M418.823 337.1L481.723 373.4L418.823 409.7L356.023 373.4L418.823 337.1Z" fill="#D4DBDF"/>
<path opacity="0.65" d="M478.623 371.6L418.823 406.1L359.123 371.6L418.823 337.1L478.623 371.6Z" fill="#B98332"/>
<path d="M481.723 389.4L418.823 425.1V409.7L481.723 373.4V389.4Z" fill="#DFC462"/>
<path d="M371.323 388.9L373.023 389.9V387.9L371.323 386.9V388.9Z" fill="#F5CF48"/>
<path d="M368.523 387.3L370.223 388.3V386.3L368.523 385.3V387.3Z" fill="#F5CF48"/>
<path d="M365.723 385.7L367.423 386.7V384.7L365.723 383.7V385.7Z" fill="#F5CF48"/>
<path d="M362.923 384.1L364.623 385.1V383.1L362.923 382.1V384.1Z" fill="#F5CF48"/>
<path d="M360.123 382.5L361.823 383.5V381.5L360.123 380.5V382.5Z" fill="#F5CF48"/>
<path d="M371.323 392.5L373.023 393.5V391.5L371.323 390.5V392.5Z" fill="#F5CF48"/>
<path d="M368.523 390.9L370.223 391.9V389.9L368.523 388.9V390.9Z" fill="#F5CF48"/>
<path d="M365.723 389.3L367.423 390.3V388.3L365.723 387.3V389.3Z" fill="#F5CF48"/>
<path d="M362.923 387.7L364.623 388.7V386.7L362.923 385.7V387.7Z" fill="#F5CF48"/>
<path d="M360.123 386.1L361.823 387.1V385.1L360.123 384.1V386.1Z" fill="#F5CF48"/>
<path d="M412.723 415.5L414.523 416.5V414.5L412.723 413.5V415.5Z" fill="#F5CF48"/>
<path d="M410.023 413.9L411.723 414.9V412.9L410.023 411.9V413.9Z" fill="#F5CF48"/>
<path d="M407.223 412.3L408.923 413.3V411.3L407.223 410.3V412.3Z" fill="#F5CF48"/>
<path opacity="0.4" d="M478.623 371.6L481.723 373.4L425.123 406.1H418.823L478.623 371.6Z" fill="url(#paint35_linear_444_2824)"/>
<path d="M356.023 366.6L418.823 402.9V387.6L356.023 351.3V366.6Z" fill="#EDCE93"/>
<path d="M378.023 366.4L416.823 388.8V399.4L378.023 377V366.4Z" fill="#B98332"/>
<path d="M375.323 364.9V375.5L358.023 365.5V354.9L375.323 364.9Z" fill="#B98332"/>
<path d="M418.823 315L481.723 351.3L418.823 387.6L356.023 351.3L418.823 315Z" fill="#D4DBDF"/>
<path opacity="0.65" d="M478.623 349.5L418.823 384L359.123 349.5L418.823 315L478.623 349.5Z" fill="#B98332"/>
<path d="M481.723 367.2L418.823 402.9V387.6L481.723 351.3V367.2Z" fill="#DFC462"/>
<path d="M371.323 366.8L373.023 367.8V365.8L371.323 364.8V366.8Z" fill="#F5CF48"/>
<path d="M368.523 365.2L370.223 366.2V364.2L368.523 363.2V365.2Z" fill="#F5CF48"/>
<path d="M365.723 363.6L367.423 364.6V362.6L365.723 361.6V363.6Z" fill="#F5CF48"/>
<path d="M362.923 362L364.623 363V361L362.923 360V362Z" fill="#F5CF48"/>
<path d="M360.123 360.4L361.823 361.4V359.4L360.123 358.4V360.4Z" fill="#F5CF48"/>
<path d="M371.323 370.4L373.023 371.4V369.4L371.323 368.4V370.4Z" fill="#F5CF48"/>
<path d="M368.523 368.8L370.223 369.8V367.8L368.523 366.8V368.8Z" fill="#F5CF48"/>
<path d="M365.723 367.2L367.423 368.2V366.2L365.723 365.2V367.2Z" fill="#F5CF48"/>
<path d="M362.923 365.6L364.623 366.5V364.6L362.923 363.6V365.6Z" fill="#F5CF48"/>
<path d="M360.123 363.9L361.823 364.9V362.9L360.123 361.9V363.9Z" fill="#F5CF48"/>
<path d="M412.723 393.3L414.523 394.3V392.3L412.723 391.4V393.3Z" fill="#F5CF48"/>
<path d="M410.023 391.7L411.723 392.7V390.7L410.023 389.7V391.7Z" fill="#F5CF48"/>
<path d="M407.223 390.1L408.923 391.1V389.1L407.223 388.1V390.1Z" fill="#F5CF48"/>
<path opacity="0.4" d="M478.623 349.5L481.723 351.3L425.123 384H418.823L478.623 349.5Z" fill="url(#paint36_linear_444_2824)"/>
<path d="M356.023 343.6L418.823 379.9V364.6L356.023 328.3V343.6Z" fill="#EDCE93"/>
<path d="M378.023 343.4L416.823 365.8V376.4L378.023 354V343.4Z" fill="#B98332"/>
<path d="M375.323 341.8V352.4L358.023 342.4V331.8L375.323 341.8Z" fill="#B98332"/>
<path d="M418.823 292L481.723 328.3L418.823 364.6L356.023 328.3L418.823 292Z" fill="#D4DBDF"/>
<path opacity="0.65" d="M478.623 326.5L418.823 361L359.123 326.5L418.823 292L478.623 326.5Z" fill="#B98332"/>
<path d="M481.723 344.2L418.823 379.9V364.6L481.723 328.3V344.2Z" fill="#DFC462"/>
<path d="M371.323 343.8L373.023 344.8V342.8L371.323 341.8V343.8Z" fill="#F5CF48"/>
<path d="M368.523 342.2L370.223 343.2V341.2L368.523 340.2V342.2Z" fill="#F5CF48"/>
<path d="M365.723 340.5L367.423 341.5V339.6L365.723 338.6V340.5Z" fill="#F5CF48"/>
<path d="M362.923 338.9L364.623 339.9V337.9L362.923 336.9V338.9Z" fill="#F5CF48"/>
<path d="M360.123 337.3L361.823 338.3V336.3L360.123 335.3V337.3Z" fill="#F5CF48"/>
<path d="M371.323 347.4L373.023 348.4V346.4L371.323 345.4V347.4Z" fill="#F5CF48"/>
<path d="M368.523 345.7L370.223 346.7V344.7L368.523 343.8V345.7Z" fill="#F5CF48"/>
<path d="M365.723 344.1L367.423 345.1V343.1L365.723 342.1V344.1Z" fill="#F5CF48"/>
<path d="M362.923 342.5L364.623 343.5V341.5L362.923 340.5V342.5Z" fill="#F5CF48"/>
<path d="M360.123 340.9L361.823 341.9V339.9L360.123 338.9V340.9Z" fill="#F5CF48"/>
<path d="M412.723 370.3L414.523 371.3V369.3L412.723 368.3V370.3Z" fill="#F5CF48"/>
<path d="M410.023 368.7L411.723 369.7V367.7L410.023 366.7V368.7Z" fill="#F5CF48"/>
<path d="M407.223 367.1L408.923 368.1V366.1L407.223 365.1V367.1Z" fill="#F5CF48"/>
<path opacity="0.4" d="M478.623 326.5L481.723 328.3L425.123 361H418.823L478.623 326.5Z" fill="url(#paint37_linear_444_2824)"/>
<path d="M356.023 321.6L418.823 357.9V342.6L356.023 306.3V321.6Z" fill="#EDCE93"/>
<path d="M378.023 321.4L416.823 343.8V354.4L378.023 332V321.4Z" fill="#B98332"/>
<path d="M375.323 319.8V330.4L358.023 320.4V309.8L375.323 319.8Z" fill="#B98332"/>
<path d="M418.823 270L481.723 306.3L418.823 342.6L356.023 306.3L418.823 270Z" fill="#D4DBDF"/>
<path opacity="0.65" d="M478.623 304.5L418.823 339L359.123 304.5L418.823 270L478.623 304.5Z" fill="#B98332"/>
<path d="M481.723 322.2L418.823 357.9V342.6L481.723 306.3V322.2Z" fill="#DFC462"/>
<path d="M371.323 321.8L373.023 322.8V320.8L371.323 319.8V321.8Z" fill="#F5CF48"/>
<path d="M368.523 320.2L370.223 321.2V319.2L368.523 318.2V320.2Z" fill="#F5CF48"/>
<path d="M365.723 318.5L367.423 319.5V317.6L365.723 316.6V318.5Z" fill="#F5CF48"/>
<path d="M362.923 316.9L364.623 317.9V315.9L362.923 314.9V316.9Z" fill="#F5CF48"/>
<path d="M360.123 315.3L361.823 316.3V314.3L360.123 313.3V315.3Z" fill="#F5CF48"/>
<path d="M371.323 325.4L373.023 326.4V324.4L371.323 323.4V325.4Z" fill="#F5CF48"/>
<path d="M368.523 323.7L370.223 324.7V322.7L368.523 321.8V323.7Z" fill="#F5CF48"/>
<path d="M365.723 322.1L367.423 323.1V321.1L365.723 320.1V322.1Z" fill="#F5CF48"/>
<path d="M362.923 320.5L364.623 321.5V319.5L362.923 318.5V320.5Z" fill="#F5CF48"/>
<path d="M360.123 318.9L361.823 319.9V317.9L360.123 316.9V318.9Z" fill="#F5CF48"/>
<path d="M412.723 348.3L414.523 349.3V347.3L412.723 346.3V348.3Z" fill="#F5CF48"/>
<path d="M410.023 346.7L411.723 347.7V345.7L410.023 344.7V346.7Z" fill="#F5CF48"/>
<path d="M407.223 345.1L408.923 346.1V344.1L407.223 343.1V345.1Z" fill="#F5CF48"/>
<path opacity="0.4" d="M478.623 304.5L481.723 306.3L425.123 339H418.823L478.623 304.5Z" fill="url(#paint38_linear_444_2824)"/>
<path d="M356.023 299.3L418.823 335.6V320.3L356.023 284V299.3Z" fill="#EDCE93"/>
<path d="M378.023 299.1L416.823 321.5V332.1L378.023 309.7V299.1Z" fill="#B98332"/>
<path d="M375.323 297.5V308.1L358.023 298.1V287.5L375.323 297.5Z" fill="#B98332"/>
<path d="M418.823 247.7L481.723 284L418.823 320.3L356.023 284L418.823 247.7Z" fill="#D4DBDF"/>
<path opacity="0.65" d="M478.623 282.2L418.823 316.7L359.123 282.2L418.823 247.7L478.623 282.2Z" fill="#B98332"/>
<path d="M481.723 299.9L418.823 335.6V320.3L481.723 284V299.9Z" fill="#DFC462"/>
<path d="M371.323 299.5L373.023 300.5V298.5L371.323 297.5V299.5Z" fill="#F5CF48"/>
<path d="M368.523 297.9L370.223 298.9V296.9L368.523 295.9V297.9Z" fill="#F5CF48"/>
<path d="M365.723 296.2L367.423 297.2V295.3L365.723 294.3V296.2Z" fill="#F5CF48"/>
<path d="M362.923 294.6L364.623 295.6V293.6L362.923 292.6V294.6Z" fill="#F5CF48"/>
<path d="M360.123 293L361.823 294V292L360.123 291V293Z" fill="#F5CF48"/>
<path d="M371.323 303.1L373.023 304.1V302.1L371.323 301.1V303.1Z" fill="#F5CF48"/>
<path d="M368.523 301.4L370.223 302.4V300.4L368.523 299.5V301.4Z" fill="#F5CF48"/>
<path d="M365.723 299.8L367.423 300.8V298.8L365.723 297.8V299.8Z" fill="#F5CF48"/>
<path d="M362.923 298.2L364.623 299.2V297.2L362.923 296.2V298.2Z" fill="#F5CF48"/>
<path d="M360.123 296.6L361.823 297.6V295.6L360.123 294.6V296.6Z" fill="#F5CF48"/>
<path d="M412.723 326L414.523 327V325L412.723 324V326Z" fill="#F5CF48"/>
<path d="M410.023 324.4L411.723 325.4V323.4L410.023 322.4V324.4Z" fill="#F5CF48"/>
<path d="M407.223 322.8L408.923 323.8V321.8L407.223 320.8V322.8Z" fill="#F5CF48"/>
<path opacity="0.4" d="M478.623 282.2L481.723 284L425.123 316.7H418.823L478.623 282.2Z" fill="url(#paint39_linear_444_2824)"/>
<path d="M356.023 277.2L418.823 313.5V298.1L356.023 261.8V277.2Z" fill="#EDCE93"/>
<path d="M378.023 276.9L416.823 299.3V309.9L378.023 287.5V276.9Z" fill="#B98332"/>
<path d="M375.323 275.4V286L358.023 276V265.4L375.323 275.4Z" fill="#B98332"/>
<path d="M418.823 225.5L481.723 261.8L418.823 298.1L356.023 261.8L418.823 225.5Z" fill="#D4DBDF"/>
<path opacity="0.65" d="M478.623 260L418.823 294.5L359.123 260L418.823 225.5L478.623 260Z" fill="#B98332"/>
<path d="M481.723 277.8L418.823 313.5V298.1L481.723 261.8V277.8Z" fill="#DFC462"/>
<path d="M371.323 277.3L373.023 278.3V276.3L371.323 275.3V277.3Z" fill="#F5CF48"/>
<path d="M368.523 275.7L370.223 276.7V274.7L368.523 273.7V275.7Z" fill="#F5CF48"/>
<path d="M365.723 274.1L367.423 275.1V273.1L365.723 272.1V274.1Z" fill="#F5CF48"/>
<path d="M362.923 272.5L364.623 273.5V271.5L362.923 270.5V272.5Z" fill="#F5CF48"/>
<path d="M360.123 270.9L361.823 271.9V269.9L360.123 268.9V270.9Z" fill="#F5CF48"/>
<path d="M371.323 280.9L373.023 281.9V279.9L371.323 278.9V280.9Z" fill="#F5CF48"/>
<path d="M368.523 279.3L370.223 280.3V278.3L368.523 277.3V279.3Z" fill="#F5CF48"/>
<path d="M365.723 277.7L367.423 278.7V276.7L365.723 275.7V277.7Z" fill="#F5CF48"/>
<path d="M362.923 276.1L364.623 277.1V275.1L362.923 274.1V276.1Z" fill="#F5CF48"/>
<path d="M360.123 274.5L361.823 275.5V273.5L360.123 272.5V274.5Z" fill="#F5CF48"/>
<path d="M412.723 303.9L414.523 304.9V302.9L412.723 301.9V303.9Z" fill="#F5CF48"/>
<path d="M410.023 302.3L411.723 303.3V301.3L410.023 300.3V302.3Z" fill="#F5CF48"/>
<path d="M407.223 300.7L408.923 301.7V299.7L407.223 298.7V300.7Z" fill="#F5CF48"/>
<path opacity="0.4" d="M478.623 260L481.723 261.8L425.123 294.5H418.823L478.623 260Z" fill="url(#paint40_linear_444_2824)"/>
<path d="M356.023 255L418.823 291.3V276L356.023 239.7V255Z" fill="#EDCE93"/>
<path d="M378.023 254.8L416.823 277.2V287.8L378.023 265.4V254.8Z" fill="#B98332"/>
<path d="M375.323 253.3V263.9L358.023 253.9V243.3L375.323 253.3Z" fill="#B98332"/>
<path d="M418.823 203.4L481.723 239.7L418.823 276L356.023 239.7L418.823 203.4Z" fill="#D4DBDF"/>
<path opacity="0.65" d="M478.623 237.9L418.823 272.4L359.123 237.9L418.823 203.4L478.623 237.9Z" fill="#B98332"/>
<path d="M481.723 255.6L418.823 291.3V276L481.723 239.7V255.6Z" fill="#DFC462"/>
<path d="M371.323 255.2L373.023 256.2V254.2L371.323 253.2V255.2Z" fill="#F5CF48"/>
<path d="M368.523 253.6L370.223 254.6V252.6L368.523 251.6V253.6Z" fill="#F5CF48"/>
<path d="M365.723 252L367.423 253V251L365.723 250V252Z" fill="#F5CF48"/>
<path d="M362.923 250.4L364.623 251.4V249.4L362.923 248.4V250.4Z" fill="#F5CF48"/>
<path d="M360.123 248.8L361.823 249.8V247.8L360.123 246.8V248.8Z" fill="#F5CF48"/>
<path d="M371.323 258.8L373.023 259.8V257.8L371.323 256.8V258.8Z" fill="#F5CF48"/>
<path d="M368.523 257.2L370.223 258.2V256.2L368.523 255.2V257.2Z" fill="#F5CF48"/>
<path d="M365.723 255.6L367.423 256.6V254.6L365.723 253.6V255.6Z" fill="#F5CF48"/>
<path d="M362.923 254L364.623 254.9V253L362.923 252V254Z" fill="#F5CF48"/>
<path d="M360.123 252.3L361.823 253.3V251.3L360.123 250.3V252.3Z" fill="#F5CF48"/>
<path d="M412.723 281.7L414.523 282.7V280.7L412.723 279.8V281.7Z" fill="#F5CF48"/>
<path d="M410.023 280.1L411.723 281.1V279.1L410.023 278.1V280.1Z" fill="#F5CF48"/>
<path d="M407.223 278.5L408.923 279.5V277.5L407.223 276.5V278.5Z" fill="#F5CF48"/>
<path opacity="0.4" d="M478.623 237.9L481.723 239.7L425.123 272.4H418.823L478.623 237.9Z" fill="url(#paint41_linear_444_2824)"/>
<path d="M356.023 232.9L418.823 269.2V253.9L356.023 217.6V232.9Z" fill="#EDCE93"/>
<path d="M378.023 232.7L416.823 255.1V265.7L378.023 243.3V232.7Z" fill="#B98332"/>
<path d="M375.323 231.1V241.7L358.023 231.7V221.1L375.323 231.1Z" fill="#B98332"/>
<path d="M418.823 181.3L481.723 217.6L418.823 253.9L356.023 217.6L418.823 181.3Z" fill="#D4DBDF"/>
<path opacity="0.65" d="M478.623 215.8L418.823 250.2L359.123 215.8L418.823 181.3L478.623 215.8Z" fill="#B98332"/>
<path d="M481.723 233.5L418.823 269.2V253.9L481.723 217.6V233.5Z" fill="#DFC462"/>
<path d="M371.323 233.1L373.023 234.1V232.1L371.323 231.1V233.1Z" fill="#F5CF48"/>
<path d="M368.523 231.5L370.223 232.4V230.5L368.523 229.5V231.5Z" fill="#F5CF48"/>
<path d="M365.723 229.8L367.423 230.8V228.8L365.723 227.8V229.8Z" fill="#F5CF48"/>
<path d="M362.923 228.2L364.623 229.2V227.2L362.923 226.2V228.2Z" fill="#F5CF48"/>
<path d="M360.123 226.6L361.823 227.6V225.6L360.123 224.6V226.6Z" fill="#F5CF48"/>
<path d="M371.323 236.6L373.023 237.6V235.7L371.323 234.7V236.6Z" fill="#F5CF48"/>
<path d="M368.523 235L370.223 236V234L368.523 233V235Z" fill="#F5CF48"/>
<path d="M365.723 233.4L367.423 234.4V232.4L365.723 231.4V233.4Z" fill="#F5CF48"/>
<path d="M362.923 231.8L364.623 232.8V230.8L362.923 229.8V231.8Z" fill="#F5CF48"/>
<path d="M360.123 230.2L361.823 231.2V229.2L360.123 228.2V230.2Z" fill="#F5CF48"/>
<path d="M412.723 259.6L414.523 260.6V258.6L412.723 257.6V259.6Z" fill="#F5CF48"/>
<path d="M410.023 258L411.723 259V257L410.023 256V258Z" fill="#F5CF48"/>
<path d="M407.223 256.4L408.923 257.4V255.4L407.223 254.4V256.4Z" fill="#F5CF48"/>
<path opacity="0.4" d="M478.623 215.8L481.723 217.6L425.123 250.2H418.823L478.623 215.8Z" fill="url(#paint42_linear_444_2824)"/>
<path d="M356.023 210.8L418.823 247.1V231.7L356.023 195.4V210.8Z" fill="#EDCE93"/>
<path d="M378.023 210.5L416.823 232.9V243.5L378.023 221.1V210.5Z" fill="#B98332"/>
<path d="M375.323 209V219.6L358.023 209.6V199L375.323 209Z" fill="#B98332"/>
<path d="M418.823 159.1L481.723 195.4L418.823 231.7L356.023 195.4L418.823 159.1Z" fill="#D4DBDF"/>
<path opacity="0.65" d="M478.623 193.6L418.823 228.1L359.123 193.6L418.823 159.1L478.623 193.6Z" fill="#B98332"/>
<path d="M481.723 211.4L418.823 247.1V231.7L481.723 195.4V211.4Z" fill="#DFC462"/>
<path d="M371.323 210.9L373.023 211.9V209.9L371.323 208.9V210.9Z" fill="#F5CF48"/>
<path d="M368.523 209.3L370.223 210.3V208.3L368.523 207.3V209.3Z" fill="#F5CF48"/>
<path d="M365.723 207.7L367.423 208.7V206.7L365.723 205.7V207.7Z" fill="#F5CF48"/>
<path d="M362.923 206.1L364.623 207.1V205.1L362.923 204.1V206.1Z" fill="#F5CF48"/>
<path d="M360.123 204.5L361.823 205.5V203.5L360.123 202.5V204.5Z" fill="#F5CF48"/>
<path d="M371.323 214.5L373.023 215.5V213.5L371.323 212.5V214.5Z" fill="#F5CF48"/>
<path d="M368.523 212.9L370.223 213.9V211.9L368.523 210.9V212.9Z" fill="#F5CF48"/>
<path d="M365.723 211.3L367.423 212.3V210.3L365.723 209.3V211.3Z" fill="#F5CF48"/>
<path d="M362.923 209.7L364.623 210.7V208.7L362.923 207.7V209.7Z" fill="#F5CF48"/>
<path d="M360.123 208.1L361.823 209.1V207.1L360.123 206.1V208.1Z" fill="#F5CF48"/>
<path d="M412.723 237.5L414.523 238.5V236.5L412.723 235.5V237.5Z" fill="#F5CF48"/>
<path d="M410.023 235.9L411.723 236.9V234.9L410.023 233.9V235.9Z" fill="#F5CF48"/>
<path d="M407.223 234.3L408.923 235.2V233.3L407.223 232.3V234.3Z" fill="#F5CF48"/>
<path opacity="0.4" d="M478.623 193.6L481.723 195.4L425.123 228.1H418.823L478.623 193.6Z" fill="url(#paint43_linear_444_2824)"/>
<path d="M356.023 188.6L418.823 224.9V209.6L356.023 173.3V188.6Z" fill="#EDCE93"/>
<path d="M378.023 188.4L416.823 210.8V221.4L378.023 199V188.4Z" fill="#B98332"/>
<path d="M375.323 186.9V197.5L358.023 187.5V176.9L375.323 186.9Z" fill="#B98332"/>
<path d="M418.823 137L481.723 173.3L418.823 209.6L356.023 173.3L418.823 137Z" fill="#D4DBDF"/>
<path opacity="0.65" d="M478.623 171.5L418.823 206L359.123 171.5L418.823 137L478.623 171.5Z" fill="#B98332"/>
<path d="M481.723 189.2L418.823 224.9V209.6L481.723 173.3V189.2Z" fill="#DFC462"/>
<path d="M371.323 188.8L373.023 189.8V187.8L371.323 186.8V188.8Z" fill="#F5CF48"/>
<path d="M368.523 187.2L370.223 188.2V186.2L368.523 185.2V187.2Z" fill="#F5CF48"/>
<path d="M365.723 185.6L367.423 186.6V184.6L365.723 183.6V185.6Z" fill="#F5CF48"/>
<path d="M362.923 184L364.623 185V183L362.923 182V184Z" fill="#F5CF48"/>
<path d="M360.123 182.3L361.823 183.3V181.4L360.123 180.4V182.3Z" fill="#F5CF48"/>
<path d="M371.323 192.4L373.023 193.4V191.4L371.323 190.4V192.4Z" fill="#F5CF48"/>
<path d="M368.523 190.8L370.223 191.8V189.8L368.523 188.8V190.8Z" fill="#F5CF48"/>
<path d="M365.723 189.2L367.423 190.2V188.2L365.723 187.2V189.2Z" fill="#F5CF48"/>
<path d="M362.923 187.5L364.623 188.5V186.5L362.923 185.6V187.5Z" fill="#F5CF48"/>
<path d="M360.123 185.9L361.823 186.9V184.9L360.123 183.9V185.9Z" fill="#F5CF48"/>
<path d="M412.723 215.3L414.523 216.3V214.3L412.723 213.3V215.3Z" fill="#F5CF48"/>
<path d="M410.023 213.7L411.723 214.7V212.7L410.023 211.7V213.7Z" fill="#F5CF48"/>
<path d="M407.223 212.1L408.923 213.1V211.1L407.223 210.1V212.1Z" fill="#F5CF48"/>
<path opacity="0.4" d="M478.623 171.5L481.723 173.3L425.123 206H418.823L478.623 171.5Z" fill="url(#paint44_linear_444_2824)"/>
<path d="M356.023 166.5L418.823 202.8V187.5L356.023 151.2V166.5Z" fill="#EDCE93"/>
<path d="M378.023 166.3L416.823 188.6V199.2L378.023 176.9V166.3Z" fill="#B98332"/>
<path d="M375.323 164.7V175.3L358.023 165.3V154.7L375.323 164.7Z" fill="#B98332"/>
<path d="M418.823 114.9L481.723 151.2L418.823 187.5L356.023 151.2L418.823 114.9Z" fill="#D4DBDF"/>
<path opacity="0.65" d="M478.623 149.4L418.823 183.8L359.123 149.4L418.823 114.9L478.623 149.4Z" fill="#B98332"/>
<path d="M481.723 167.1L418.823 202.8V187.5L481.723 151.2V167.1Z" fill="#DFC462"/>
<path d="M371.323 166.7L373.023 167.7V165.7L371.323 164.7V166.7Z" fill="#F5CF48"/>
<path d="M368.523 165L370.223 166V164L368.523 163.1V165Z" fill="#F5CF48"/>
<path d="M365.723 163.4L367.423 164.4V162.4L365.723 161.4V163.4Z" fill="#F5CF48"/>
<path d="M362.923 161.8L364.623 162.8V160.8L362.923 159.8V161.8Z" fill="#F5CF48"/>
<path d="M360.123 160.2L361.823 161.2V159.2L360.123 158.2V160.2Z" fill="#F5CF48"/>
<path d="M371.323 170.2L373.023 171.2V169.2L371.323 168.2V170.2Z" fill="#F5CF48"/>
<path d="M368.523 168.6L370.223 169.6V167.6L368.523 166.6V168.6Z" fill="#F5CF48"/>
<path d="M365.723 167L367.423 168V166L365.723 165V167Z" fill="#F5CF48"/>
<path d="M362.923 165.4L364.623 166.4V164.4L362.923 163.4V165.4Z" fill="#F5CF48"/>
<path d="M360.123 163.8L361.823 164.8V162.8L360.123 161.8V163.8Z" fill="#F5CF48"/>
<path d="M412.723 193.2L414.523 194.2V192.2L412.723 191.2V193.2Z" fill="#F5CF48"/>
<path d="M410.023 191.6L411.723 192.6V190.6L410.023 189.6V191.6Z" fill="#F5CF48"/>
<path d="M407.223 190L408.923 191V189L407.223 188V190Z" fill="#F5CF48"/>
<path opacity="0.4" d="M478.623 149.4L481.723 151.2L425.123 183.8H418.823L478.623 149.4Z" fill="url(#paint45_linear_444_2824)"/>
<path d="M356.023 144.4L418.823 180.7V165.3L356.023 129V144.4Z" fill="#EDCE93"/>
<path d="M378.023 144.1L416.823 166.5V177.1L378.023 154.7V144.1Z" fill="#B98332"/>
<path d="M375.323 142.6V153.2L358.023 143.2V132.6L375.323 142.6Z" fill="#B98332"/>
<path d="M418.823 92.7L481.723 129L418.823 165.3L356.023 129L418.823 92.7Z" fill="#D4DBDF"/>
<path d="M481.723 145L418.823 180.7V165.3L481.723 129V145Z" fill="#DFC462"/>
<path d="M371.323 144.5L373.023 145.5V143.5L371.323 142.5V144.5Z" fill="#F5CF48"/>
<path d="M368.523 142.9L370.223 143.9V141.9L368.523 140.9V142.9Z" fill="#F5CF48"/>
<path d="M365.723 141.3L367.423 142.3V140.3L365.723 139.3V141.3Z" fill="#F5CF48"/>
<path d="M362.923 139.7L364.623 140.7V138.7L362.923 137.7V139.7Z" fill="#F5CF48"/>
<path d="M360.123 138.1L361.823 139.1V137.1L360.123 136.1V138.1Z" fill="#F5CF48"/>
<path d="M371.323 148.1L373.023 149.1V147.1L371.323 146.1V148.1Z" fill="#F5CF48"/>
<path d="M368.523 146.5L370.223 147.5V145.5L368.523 144.5V146.5Z" fill="#F5CF48"/>
<path d="M365.723 144.9L367.423 145.9V143.9L365.723 142.9V144.9Z" fill="#F5CF48"/>
<path d="M362.923 143.3L364.623 144.3V142.3L362.923 141.3V143.3Z" fill="#F5CF48"/>
<path d="M360.123 141.7L361.823 142.7V140.7L360.123 139.7V141.7Z" fill="#F5CF48"/>
<path d="M412.723 171.1L414.523 172.1V170.1L412.723 169.1V171.1Z" fill="#F5CF48"/>
<path d="M410.023 169.5L411.723 170.5V168.5L410.023 167.5V169.5Z" fill="#F5CF48"/>
<path d="M407.223 167.8L408.923 168.8V166.8L407.223 165.9V167.8Z" fill="#F5CF48"/>
</g>
</g>
<defs>
<linearGradient id="paint0_linear_444_2824" x1="505" y1="213.602" x2="505" y2="502" gradientUnits="userSpaceOnUse">
<stop stop-color="#C4C4C4"/>
<stop offset="1" stop-color="#C4C4C4" stop-opacity="0"/>
</linearGradient>
<linearGradient id="paint1_linear_444_2824" x1="308.931" y1="169.553" x2="261.282" y2="258.545" gradientUnits="userSpaceOnUse">
<stop stop-opacity="0"/>
<stop offset="1" stop-color="#F5B14C"/>
</linearGradient>
<linearGradient id="paint2_linear_444_2824" x1="245.286" y1="169.553" x2="197.596" y2="258.482" gradientUnits="userSpaceOnUse">
<stop stop-opacity="0"/>
<stop offset="1" stop-color="#F5B14C"/>
</linearGradient>
<linearGradient id="paint3_linear_444_2824" x1="316.46" y1="493.714" x2="252.839" y2="493.714" gradientUnits="userSpaceOnUse">
<stop stop-color="white"/>
<stop offset="1" stop-color="#8F6A0A"/>
</linearGradient>
<linearGradient id="paint4_linear_444_2824" x1="316.46" y1="471.714" x2="252.839" y2="471.714" gradientUnits="userSpaceOnUse">
<stop stop-color="white"/>
<stop offset="1" stop-color="#8F6A0A"/>
</linearGradient>
<linearGradient id="paint5_linear_444_2824" x1="316.46" y1="449.414" x2="252.839" y2="449.414" gradientUnits="userSpaceOnUse">
<stop stop-color="white"/>
<stop offset="1" stop-color="#8F6A0A"/>
</linearGradient>
<linearGradient id="paint6_linear_444_2824" x1="316.46" y1="427.278" x2="252.839" y2="427.278" gradientUnits="userSpaceOnUse">
<stop stop-color="white"/>
<stop offset="1" stop-color="#8F6A0A"/>
</linearGradient>
<linearGradient id="paint7_linear_444_2824" x1="316.46" y1="405.142" x2="252.839" y2="405.142" gradientUnits="userSpaceOnUse">
<stop stop-color="white"/>
<stop offset="1" stop-color="#8F6A0A"/>
</linearGradient>
<linearGradient id="paint8_linear_444_2824" x1="316.46" y1="383.006" x2="252.839" y2="383.006" gradientUnits="userSpaceOnUse">
<stop stop-color="white"/>
<stop offset="1" stop-color="#8F620A"/>
</linearGradient>
<linearGradient id="paint9_linear_444_2824" x1="316.46" y1="360.871" x2="252.839" y2="360.871" gradientUnits="userSpaceOnUse">
<stop stop-color="white"/>
<stop offset="1" stop-color="#8F6A0A"/>
</linearGradient>
<linearGradient id="paint10_linear_444_2824" x1="316.46" y1="338.734" x2="252.839" y2="338.734" gradientUnits="userSpaceOnUse">
<stop stop-color="white"/>
<stop offset="1" stop-color="#8F6A0A"/>
</linearGradient>
<linearGradient id="paint11_linear_444_2824" x1="316.46" y1="316.6" x2="252.839" y2="316.6" gradientUnits="userSpaceOnUse">
<stop stop-color="white"/>
<stop offset="1" stop-color="#8F620A"/>
</linearGradient>
<linearGradient id="paint12_linear_444_2824" x1="389.274" y1="72.553" x2="341.311" y2="161.068" gradientUnits="userSpaceOnUse">
<stop stop-opacity="0"/>
<stop offset="1" stop-color="#F5B14C"/>
</linearGradient>
<linearGradient id="paint13_linear_444_2824" x1="326.385" y1="72.553" x2="278.381" y2="161.004" gradientUnits="userSpaceOnUse">
<stop stop-opacity="0"/>
<stop offset="1" stop-color="#F5B14C"/>
</linearGradient>
<linearGradient id="paint14_linear_444_2824" x1="396.713" y1="508.314" x2="333.848" y2="508.314" gradientUnits="userSpaceOnUse">
<stop stop-color="white"/>
<stop offset="1" stop-color="#8F6A0A"/>
</linearGradient>
<linearGradient id="paint15_linear_444_2824" x1="396.713" y1="486.314" x2="333.848" y2="486.314" gradientUnits="userSpaceOnUse">
<stop stop-color="white"/>
<stop offset="1" stop-color="#8F6A0A"/>
</linearGradient>
<linearGradient id="paint16_linear_444_2824" x1="396.713" y1="464.014" x2="333.848" y2="464.014" gradientUnits="userSpaceOnUse">
<stop stop-color="white"/>
<stop offset="1" stop-color="#8F6A0A"/>
</linearGradient>
<linearGradient id="paint17_linear_444_2824" x1="396.713" y1="441.878" x2="333.848" y2="441.878" gradientUnits="userSpaceOnUse">
<stop stop-color="white"/>
<stop offset="1" stop-color="#8F6A0A"/>
</linearGradient>
<linearGradient id="paint18_linear_444_2824" x1="396.713" y1="419.742" x2="333.848" y2="419.742" gradientUnits="userSpaceOnUse">
<stop stop-color="white"/>
<stop offset="1" stop-color="#8F6A0A"/>
</linearGradient>
<linearGradient id="paint19_linear_444_2824" x1="396.713" y1="396.714" x2="333.848" y2="396.714" gradientUnits="userSpaceOnUse">
<stop stop-color="white"/>
<stop offset="1" stop-color="#8F6A0A"/>
</linearGradient>
<linearGradient id="paint20_linear_444_2824" x1="396.713" y1="374.714" x2="333.848" y2="374.714" gradientUnits="userSpaceOnUse">
<stop stop-color="white"/>
<stop offset="1" stop-color="#8F6A0A"/>
</linearGradient>
<linearGradient id="paint21_linear_444_2824" x1="396.713" y1="352.414" x2="333.848" y2="352.414" gradientUnits="userSpaceOnUse">
<stop stop-color="white"/>
<stop offset="1" stop-color="#8F6A0A"/>
</linearGradient>
<linearGradient id="paint22_linear_444_2824" x1="396.713" y1="330.278" x2="333.848" y2="330.278" gradientUnits="userSpaceOnUse">
<stop stop-color="white"/>
<stop offset="1" stop-color="#8F6A0A"/>
</linearGradient>
<linearGradient id="paint23_linear_444_2824" x1="396.713" y1="308.142" x2="333.848" y2="308.142" gradientUnits="userSpaceOnUse">
<stop stop-color="white"/>
<stop offset="1" stop-color="#8F6A0A"/>
</linearGradient>
<linearGradient id="paint24_linear_444_2824" x1="396.713" y1="286.006" x2="333.848" y2="286.006" gradientUnits="userSpaceOnUse">
<stop stop-color="white"/>
<stop offset="1" stop-color="#8F620A"/>
</linearGradient>
<linearGradient id="paint25_linear_444_2824" x1="396.713" y1="263.871" x2="333.848" y2="263.871" gradientUnits="userSpaceOnUse">
<stop stop-color="white"/>
<stop offset="1" stop-color="#8F6A0A"/>
</linearGradient>
<linearGradient id="paint26_linear_444_2824" x1="396.713" y1="241.734" x2="333.848" y2="241.734" gradientUnits="userSpaceOnUse">
<stop stop-color="white"/>
<stop offset="1" stop-color="#8F6A0A"/>
</linearGradient>
<linearGradient id="paint27_linear_444_2824" x1="396.713" y1="219.6" x2="333.848" y2="219.6" gradientUnits="userSpaceOnUse">
<stop stop-color="white"/>
<stop offset="1" stop-color="#8F620A"/>
</linearGradient>
<linearGradient id="paint28_linear_444_2824" x1="474.284" y1="19.553" x2="426.321" y2="108.068" gradientUnits="userSpaceOnUse">
<stop stop-opacity="0"/>
<stop offset="1" stop-color="#F5B14C"/>
</linearGradient>
<linearGradient id="paint29_linear_444_2824" x1="411.395" y1="19.553" x2="363.391" y2="108.004" gradientUnits="userSpaceOnUse">
<stop stop-opacity="0"/>
<stop offset="1" stop-color="#F5B14C"/>
</linearGradient>
<linearGradient id="paint30_linear_444_2824" x1="481.723" y1="500.914" x2="418.858" y2="500.914" gradientUnits="userSpaceOnUse">
<stop stop-color="white"/>
<stop offset="1" stop-color="#8F6A0A"/>
</linearGradient>
<linearGradient id="paint31_linear_444_2824" x1="481.723" y1="478.778" x2="418.858" y2="478.778" gradientUnits="userSpaceOnUse">
<stop stop-color="white"/>
<stop offset="1" stop-color="#8F6A0A"/>
</linearGradient>
<linearGradient id="paint32_linear_444_2824" x1="481.723" y1="455.314" x2="418.858" y2="455.314" gradientUnits="userSpaceOnUse">
<stop stop-color="white"/>
<stop offset="1" stop-color="#8F6A0A"/>
</linearGradient>
<linearGradient id="paint33_linear_444_2824" x1="481.723" y1="433.314" x2="418.858" y2="433.314" gradientUnits="userSpaceOnUse">
<stop stop-color="white"/>
<stop offset="1" stop-color="#8F6A0A"/>
</linearGradient>
<linearGradient id="paint34_linear_444_2824" x1="481.723" y1="411.014" x2="418.858" y2="411.014" gradientUnits="userSpaceOnUse">
<stop stop-color="white"/>
<stop offset="1" stop-color="#8F6A0A"/>
</linearGradient>
<linearGradient id="paint35_linear_444_2824" x1="481.723" y1="388.878" x2="418.858" y2="388.878" gradientUnits="userSpaceOnUse">
<stop stop-color="white"/>
<stop offset="1" stop-color="#8F6A0A"/>
</linearGradient>
<linearGradient id="paint36_linear_444_2824" x1="481.723" y1="366.742" x2="418.858" y2="366.742" gradientUnits="userSpaceOnUse">
<stop stop-color="white"/>
<stop offset="1" stop-color="#8F6A0A"/>
</linearGradient>
<linearGradient id="paint37_linear_444_2824" x1="481.723" y1="343.714" x2="418.858" y2="343.714" gradientUnits="userSpaceOnUse">
<stop stop-color="white"/>
<stop offset="1" stop-color="#8F6A0A"/>
</linearGradient>
<linearGradient id="paint38_linear_444_2824" x1="481.723" y1="321.714" x2="418.858" y2="321.714" gradientUnits="userSpaceOnUse">
<stop stop-color="white"/>
<stop offset="1" stop-color="#8F6A0A"/>
</linearGradient>
<linearGradient id="paint39_linear_444_2824" x1="481.723" y1="299.414" x2="418.858" y2="299.414" gradientUnits="userSpaceOnUse">
<stop stop-color="white"/>
<stop offset="1" stop-color="#8F6A0A"/>
</linearGradient>
<linearGradient id="paint40_linear_444_2824" x1="481.723" y1="277.278" x2="418.858" y2="277.278" gradientUnits="userSpaceOnUse">
<stop stop-color="white"/>
<stop offset="1" stop-color="#8F6A0A"/>
</linearGradient>
<linearGradient id="paint41_linear_444_2824" x1="481.723" y1="255.142" x2="418.858" y2="255.142" gradientUnits="userSpaceOnUse">
<stop stop-color="white"/>
<stop offset="1" stop-color="#8F6A0A"/>
</linearGradient>
<linearGradient id="paint42_linear_444_2824" x1="481.723" y1="233.006" x2="418.858" y2="233.006" gradientUnits="userSpaceOnUse">
<stop stop-color="white"/>
<stop offset="1" stop-color="#8F620A"/>
</linearGradient>
<linearGradient id="paint43_linear_444_2824" x1="481.723" y1="210.871" x2="418.858" y2="210.871" gradientUnits="userSpaceOnUse">
<stop stop-color="white"/>
<stop offset="1" stop-color="#8F6A0A"/>
</linearGradient>
<linearGradient id="paint44_linear_444_2824" x1="481.723" y1="188.734" x2="418.858" y2="188.734" gradientUnits="userSpaceOnUse">
<stop stop-color="white"/>
<stop offset="1" stop-color="#8F6A0A"/>
</linearGradient>
<linearGradient id="paint45_linear_444_2824" x1="481.723" y1="166.6" x2="418.858" y2="166.6" gradientUnits="userSpaceOnUse">
<stop stop-color="white"/>
<stop offset="1" stop-color="#8F620A"/>
</linearGradient>
<clipPath id="clip0_444_2824">
<rect width="127.515" height="489" fill="white" transform="matrix(-1 0 0 1 396.713 28)"/>
</clipPath>
<clipPath id="clip1_444_2824">
<rect width="127.515" height="514" fill="white" transform="matrix(-1 0 0 1 481.723 -12)"/>
</clipPath>
</defs>
</svg>
