<svg width="24" height="24" viewBox="0 0 24 24" fill="none" xmlns="http://www.w3.org/2000/svg">
<path d="M11.9927 23.3334C5.84141 23.2845 0.86409 18.553 0.672498 12.3747C0.472753 5.85405 5.50306 0.81279 11.6788 0.670151C18.515 0.511211 23.3537 5.94371 23.3333 12.0201C23.3089 18.2881 18.4009 23.2764 11.9927 23.3334ZM17.5448 8.21778C17.5448 7.84284 17.3858 7.60239 17.1413 7.54126C16.966 7.49643 16.807 7.56979 16.648 7.63092C15.3028 8.1485 13.9616 8.66607 12.6205 9.18365C10.6312 9.94982 8.64191 10.716 6.65669 11.4862C6.28981 11.6289 5.91071 11.7389 5.56421 11.9305C5.41746 12.012 5.28701 12.122 5.30739 12.3135C5.32778 12.4888 5.48268 12.5418 5.62943 12.5866C6.51809 12.8597 7.41083 13.1246 8.29541 13.4017C8.4544 13.4506 8.57669 13.4343 8.71529 13.3446C9.87707 12.6029 11.047 11.8693 12.2129 11.1358C13.1504 10.5448 14.088 9.95797 15.0256 9.36704C15.1479 9.28961 15.3109 9.2081 15.4129 9.34259C15.5107 9.47707 15.3354 9.56266 15.2498 9.64417C14.8218 10.0436 14.3897 10.4307 13.9576 10.826C12.7387 11.9386 11.5199 13.0512 10.301 14.1597C10.1746 14.2738 10.1135 14.3879 10.1094 14.5632C10.1053 14.8118 10.0727 15.0644 10.0524 15.313C10.0075 15.8754 9.96267 16.4338 9.91783 16.9962C9.9056 17.1429 9.96675 17.1796 10.1013 17.1307C10.2643 17.0695 10.3988 16.9676 10.5211 16.8495C10.9002 16.4868 11.2834 16.1322 11.6462 15.7573C11.7889 15.6105 11.8867 15.6228 12.0376 15.7369C12.8692 16.3686 13.713 16.9921 14.5487 17.6156C14.6465 17.689 14.7565 17.746 14.8748 17.7827C15.209 17.8928 15.4536 17.7787 15.5759 17.4526C15.6208 17.3304 15.6534 17.2081 15.6819 17.0818C16.2526 14.4083 16.8192 11.7348 17.3899 9.05731C17.4388 8.75165 17.4959 8.446 17.5448 8.21778Z" fill="white"/>
</svg>
