<svg width="60" height="60" viewBox="0 0 60 60" fill="none" xmlns="http://www.w3.org/2000/svg">
<path d="M52.5 52.5H40V60H53.865C55.492 59.998 57.0517 59.3507 58.2017 58.2C59.352 57.0493 59.9987 55.4893 60 53.8627V40H52.5V52.5Z" fill="#555860"/>
<path d="M7.5 7.5H20V0H6.1375C4.51013 0.00132413 2.94981 0.648377 1.79909 1.79909C0.648377 2.94981 0.00132413 4.51013 0 6.1375V20H7.5V7.5Z" fill="#555860"/>
<path d="M7.5 40H0V53.8627C0.00132413 55.49 0.648377 57.0503 1.79909 58.201C2.94981 59.3517 4.51013 59.9987 6.1375 60H20V52.5H7.5V40Z" fill="#555860"/>
<path d="M53.865 0H40V7.5H52.5V20H60V6.1375C59.9987 4.51057 59.352 2.95062 58.2017 1.79998C57.0517 0.64933 55.492 0.00198594 53.865 0Z" fill="#555860"/>
<path d="M30 27.5C34.8323 27.5 38.75 23.5825 38.75 18.75C38.75 13.9175 34.8323 10 30 10C25.1675 10 21.25 13.9175 21.25 18.75C21.25 23.5825 25.1675 27.5 30 27.5Z" fill="#555860"/>
<path d="M15 47.5H45C45 46.9443 45 46.3887 45 45.8327C45 38.4693 39.031 32.4999 31.6674 32.4999C30.556 32.4999 29.4447 32.4999 28.3333 32.4999C20.9695 32.5 15 38.4697 15 45.8333C15 46.389 15 46.9443 15 47.5Z" fill="#555860"/>
</svg>
