<svg width="24" height="24" viewBox="0 0 24 24" fill="none" xmlns="http://www.w3.org/2000/svg">
<path d="M23.1076 7.45237C23.1076 7.45237 22.8863 5.88392 22.2045 5.19522C21.3412 4.28881 20.3761 4.28437 19.9334 4.23105C16.7636 4 12.0045 4 12.0045 4H11.9957C11.9957 4 7.23654 4 4.06675 4.23105C3.62404 4.28437 2.65894 4.28881 1.79565 5.19522C1.11388 5.88392 0.896956 7.45237 0.896956 7.45237C0.896956 7.45237 0.666748 9.29631 0.666748 11.1358V12.8598C0.666748 14.6992 0.892529 16.5432 0.892529 16.5432C0.892529 16.5432 1.11388 18.1116 1.79123 18.8003C2.65451 19.7067 3.78784 19.6756 4.29253 19.7734C6.10763 19.9467 12.0001 20 12.0001 20C12.0001 20 16.7636 19.9911 19.9334 19.7645C20.3761 19.7112 21.3412 19.7067 22.2045 18.8003C22.8863 18.1116 23.1076 16.5432 23.1076 16.5432C23.1076 16.5432 23.3334 14.7037 23.3334 12.8598V11.1358C23.3334 9.29631 23.1076 7.45237 23.1076 7.45237ZM9.33341 16V8L16.0001 12L9.33341 16Z" fill="white"/>
</svg>
