<?xml version="1.0" encoding="utf-8"?>
<svg viewBox="244.387 7.772 82.038 43.178" xmlns="http://www.w3.org/2000/svg">
  <path d="M 252.876 34.641 L 255.981 31.429 L 252.121 26.22 L 247.206 19.266 C 245.412 22.327 244.469 25.813 244.474 29.361 C 244.474 35.461 247.206 40.923 251.514 44.591 L 257.753 40.183 C 255.618 38.855 253.922 36.928 252.876 34.642 L 252.876 34.641 Z M 259.194 17.763 L 262.406 20.868 L 267.615 17.008 L 274.569 12.093 C 271.508 10.299 268.022 9.356 264.474 9.361 C 258.374 9.361 252.912 12.093 249.244 16.401 L 253.652 22.64 C 254.98 20.505 256.907 18.809 259.193 17.763 L 259.194 17.763 Z M 272.967 27.293 L 276.827 32.502 L 281.742 39.456 C 283.536 36.395 284.48 32.909 284.474 29.361 C 284.474 23.261 281.742 17.799 277.434 14.131 L 271.194 18.539 C 273.329 19.867 275.025 21.794 276.071 24.08 L 272.966 27.293 L 272.967 27.293 Z M 279.704 42.321 L 275.296 36.082 C 273.968 38.217 272.041 39.913 269.755 40.959 L 266.542 37.854 L 261.333 41.714 L 254.379 46.629 C 257.44 48.423 260.926 49.366 264.474 49.361 C 270.574 49.361 276.036 46.629 279.704 42.321 L 279.704 42.321 Z" style="fill: rgb(255, 255, 255);"/>
  <path fill-rule="evenodd" clip-rule="evenodd" d="M 296.2 29.05 C 296.2 22.579 298.904 19.361 303.112 19.361 C 307.302 19.361 310.059 22.631 310.059 29.05 C 310.059 35.468 307.301 38.721 303.112 38.721 C 298.922 38.721 296.2 35.468 296.2 29.05 L 296.2 29.05 Z M 303.094 21.46 C 300.054 21.46 298.551 24.275 298.551 29.067 C 298.551 31.323 298.887 33.072 299.523 34.349 L 305.498 22.264 C 304.808 21.722 304.013 21.46 303.094 21.46 L 303.094 21.46 Z M 300.743 35.888 C 301.415 36.395 302.193 36.658 303.112 36.658 C 306.152 36.658 307.69 33.824 307.69 29.068 C 307.69 26.864 307.372 25.132 306.718 23.821 L 300.743 35.888 Z M 325.12 24.958 L 321.267 31.428 L 325.474 38.388 L 322.893 38.388 L 319.516 32.758 L 318.562 32.758 L 315.115 38.388 L 312.605 38.388 L 316.829 31.516 L 313.029 24.957 L 315.469 24.957 L 318.579 30.291 L 319.552 30.291 L 322.734 24.957 L 325.12 24.957 L 325.12 24.958 Z" style="fill: rgb(255, 255, 255);"/>
</svg>