<?xml version="1.0" encoding="utf-8"?>
<svg viewBox="234.024 4.318 121.762 44.041" xmlns="http://www.w3.org/2000/svg">
  <path fill-rule="evenodd" clip-rule="evenodd" d="M 290.587 18.826 C 291.601 19.284 292.377 19.92 292.921 20.723 C 293.464 21.525 293.736 22.44 293.736 23.461 L 293.736 33.893 C 293.736 34.224 293.571 34.396 293.232 34.396 L 290.6 34.396 C 290.268 34.396 290.096 34.231 290.096 33.893 L 290.096 33.11 C 290.096 33.024 290.076 32.977 290.036 32.971 C 289.996 32.957 289.943 32.977 289.877 33.017 C 288.75 34.105 287.244 34.648 285.368 34.648 C 283.823 34.648 282.549 34.251 281.561 33.455 C 280.567 32.659 280.076 31.479 280.076 29.914 C 280.076 28.282 280.646 27.016 281.787 26.107 C 282.927 25.199 284.526 24.741 286.594 24.741 L 289.917 24.741 C 290.043 24.741 290.102 24.682 290.102 24.556 L 290.102 23.833 C 290.102 23.017 289.857 22.387 289.366 21.936 C 288.876 21.485 288.146 21.26 287.191 21.26 C 286.462 21.26 285.852 21.393 285.374 21.651 C 284.89 21.91 284.572 22.274 284.406 22.732 C 284.32 23.024 284.134 23.163 283.842 23.137 L 281.024 22.792 C 280.858 22.772 280.732 22.725 280.646 22.652 C 280.56 22.58 280.533 22.493 280.553 22.387 C 280.739 21.134 281.435 20.113 282.636 19.317 C 283.836 18.521 285.328 18.123 287.098 18.123 C 288.405 18.137 289.572 18.369 290.587 18.826 Z M 289.002 30.955 C 289.731 30.411 290.096 29.721 290.096 28.886 L 290.096 27.447 C 290.096 27.321 290.036 27.261 289.91 27.261 L 287.311 27.261 C 286.203 27.261 285.328 27.473 284.678 27.891 C 284.028 28.309 283.71 28.906 283.71 29.675 C 283.71 30.345 283.962 30.862 284.459 31.227 C 284.963 31.591 285.6 31.777 286.369 31.777 C 287.39 31.77 288.272 31.499 289.002 30.955 Z M 306.601 18.389 L 309.201 18.389 C 309.532 18.389 309.705 18.554 309.705 18.892 L 309.705 33.899 C 309.705 34.231 309.539 34.403 309.201 34.403 L 306.601 34.403 C 306.27 34.403 306.097 34.237 306.097 33.899 L 306.097 33.083 C 306.097 32.997 306.071 32.951 306.018 32.924 C 305.965 32.904 305.918 32.938 305.878 33.017 C 305.043 34.085 303.77 34.615 302.059 34.615 C 300.474 34.615 299.141 34.158 298.067 33.236 C 296.992 32.314 296.455 31.015 296.455 29.317 L 296.455 18.892 C 296.455 18.561 296.621 18.389 296.959 18.389 L 299.592 18.389 C 299.923 18.389 300.096 18.554 300.096 18.892 L 300.096 28.296 C 300.096 29.277 300.354 30.06 300.865 30.643 C 301.376 31.227 302.092 31.518 303.014 31.518 C 303.955 31.518 304.705 31.227 305.268 30.643 C 305.832 30.06 306.117 29.277 306.117 28.296 L 306.117 18.892 C 306.097 18.554 306.263 18.389 306.601 18.389 Z M 325.407 18.388 L 322.775 18.388 C 322.437 18.388 322.271 18.554 322.291 18.886 L 322.291 19.449 C 322.291 19.536 322.271 19.589 322.231 19.609 C 322.185 19.635 322.132 19.609 322.072 19.549 C 321.137 18.607 319.864 18.136 318.252 18.136 C 316.873 18.136 315.673 18.514 314.651 19.277 C 313.63 20.04 312.907 21.061 312.49 22.334 C 312.151 23.256 311.986 24.582 311.986 26.313 C 311.986 27.858 312.118 29.125 312.39 30.106 C 312.828 31.525 313.61 32.579 314.738 33.269 C 315.865 33.959 317.105 34.304 318.464 34.304 C 320.01 34.304 321.21 33.853 322.065 32.957 C 322.132 32.898 322.185 32.878 322.224 32.898 C 322.264 32.924 322.284 32.971 322.284 33.057 L 322.284 33.243 C 322.284 34.701 321.913 35.743 321.17 36.359 C 320.427 36.969 319.26 37.281 317.675 37.281 C 317.403 37.281 316.913 37.261 316.203 37.221 C 316.037 37.201 315.905 37.228 315.799 37.314 C 315.693 37.4 315.64 37.513 315.64 37.659 L 315.547 39.98 C 315.547 40.331 315.693 40.524 315.984 40.544 C 316.588 40.603 317.185 40.636 317.768 40.636 C 320.189 40.636 322.151 40.073 323.657 38.945 C 325.162 37.818 325.911 35.948 325.911 33.335 L 325.911 18.892 C 325.911 18.554 325.739 18.388 325.407 18.388 Z M 322.271 26.286 C 322.271 27.102 322.258 27.692 322.224 28.057 C 322.191 28.422 322.138 28.76 322.045 29.065 C 321.88 29.735 321.548 30.278 321.044 30.696 C 320.54 31.121 319.884 31.326 319.068 31.326 C 318.292 31.326 317.629 31.114 317.079 30.683 C 316.528 30.258 316.144 29.708 315.938 29.038 C 315.732 28.514 315.626 27.606 315.626 26.313 C 315.626 25.06 315.752 24.138 316.004 23.554 C 316.236 22.865 316.608 22.314 317.132 21.896 C 317.649 21.479 318.292 21.266 319.041 21.266 C 319.831 21.266 320.487 21.479 320.998 21.896 C 321.515 22.314 321.853 22.865 322.019 23.554 C 322.125 23.892 322.191 24.231 322.224 24.575 C 322.258 24.92 322.271 25.491 322.271 26.286 Z M 338.77 18.389 L 341.369 18.389 C 341.701 18.389 341.873 18.554 341.873 18.892 L 341.873 33.899 C 341.873 34.231 341.707 34.403 341.369 34.403 L 338.77 34.403 C 338.438 34.403 338.266 34.237 338.266 33.899 L 338.266 33.083 C 338.266 32.997 338.239 32.951 338.186 32.924 C 338.133 32.904 338.087 32.938 338.047 33.017 C 337.211 34.085 335.938 34.615 334.227 34.615 C 332.642 34.615 331.309 34.158 330.235 33.236 C 329.161 32.314 328.624 31.015 328.624 29.317 L 328.624 18.892 C 328.624 18.561 328.79 18.389 329.128 18.389 L 331.76 18.389 C 332.092 18.389 332.264 18.554 332.264 18.892 L 332.264 28.296 C 332.264 29.277 332.523 30.06 333.034 30.643 C 333.544 31.227 334.26 31.518 335.182 31.518 C 336.124 31.518 336.873 31.227 337.437 30.643 C 338 30.06 338.286 29.277 338.286 28.296 L 338.286 18.892 C 338.272 18.554 338.438 18.389 338.77 18.389 Z M 353.988 19.178 C 354.048 18.879 353.955 18.674 353.703 18.548 C 353.206 18.316 352.649 18.203 352.039 18.203 C 350.494 18.203 349.28 18.866 348.405 20.179 C 348.365 20.259 348.319 20.292 348.279 20.272 C 348.239 20.252 348.219 20.199 348.219 20.113 L 348.219 18.892 C 348.219 18.554 348.047 18.388 347.715 18.388 L 345.083 18.388 C 344.744 18.388 344.579 18.561 344.579 18.892 L 344.579 33.899 C 344.579 34.237 344.751 34.403 345.083 34.403 L 347.715 34.403 C 348.053 34.403 348.219 34.231 348.219 33.899 L 348.219 25.159 C 348.219 24.237 348.511 23.495 349.095 22.918 C 349.678 22.347 350.414 22.036 351.29 21.996 C 351.435 21.976 351.634 21.963 351.886 21.963 C 352.304 21.963 352.636 22.003 352.888 22.089 C 353.08 22.129 353.219 22.129 353.312 22.089 C 353.405 22.049 353.465 21.943 353.485 21.777 L 353.988 19.178 Z" style="fill: rgb(255, 255, 255);"/>
  <g transform="matrix(1, 0, 0, 1, 234.940933, 6.77027)">
    <path d="M36.3816 27.4337L32.5156 20.9748C32.3697 20.7361 32.058 20.6632 31.8193 20.8091L29.306 22.4205C29.0806 22.5664 29.0076 22.8648 29.1469 23.0969L31.3551 26.7839C31.4214 26.8966 31.3883 27.0491 31.2755 27.1221L18.3976 35.378C18.318 35.4311 18.2119 35.4311 18.1323 35.378L5.24772 27.1221C5.13498 27.0491 5.10183 26.9032 5.16814 26.7839L7.37636 23.0969C7.51562 22.8648 7.44267 22.5664 7.21721 22.4205L4.70395 20.8091C4.46522 20.6565 4.15355 20.7295 4.00766 20.9748L0.14162 27.4337C-0.136894 27.8979 0.00899437 28.4947 0.459922 28.7799L17.7212 39.8409C18.0461 40.0531 18.4705 40.0531 18.7954 39.8409L36.0567 28.7799C36.5143 28.4947 36.6535 27.8979 36.3816 27.4337Z" style="fill: rgb(255, 255, 255);"/>
    <path d="M6.71994 17.3806L9.2332 18.992C9.47192 19.1445 9.78359 19.0716 9.92948 18.8262L18.0462 5.25198C18.1457 5.09283 18.3777 5.09283 18.4706 5.25198L26.5939 18.8262C26.7398 19.065 27.0515 19.1379 27.2902 18.992L29.8035 17.3806C30.0289 17.2347 30.1019 16.9363 29.9626 16.7042L20.261 0.484084C20.0754 0.185676 19.7571 0 19.4056 0H17.1178C16.7663 0 16.4414 0.185676 16.2624 0.484084L6.56079 16.7042C6.42153 16.9363 6.49447 17.2347 6.71994 17.3806Z" style="fill: rgb(255, 255, 255);"/>
  </g>
</svg>