<?xml version="1.0" encoding="utf-8"?>
<svg viewBox="302 229.9 207.175 57.602" width="768" height="192.2" xmlns="http://www.w3.org/2000/svg">
  <path class="st0" d="M 304.788 237.571 L 317.557 245.243 L 330.568 237.571 L 317.557 229.9 L 304.788 237.571 Z" style="fill: rgb(15, 89, 209);"/>
  <path class="st0" d="M 333.322 242.38 L 333.322 257.723 L 320.311 265.394 L 320.311 250.051 L 333.322 242.38 Z" style="fill: rgb(15, 89, 209);"/>
  <path class="st0" d="M 320.311 270.839 L 320.311 286.182 L 337.658 276.036 L 337.658 260.692 L 320.311 270.839 Z" style="fill: rgb(15, 89, 209);"/>
  <path class="st0" d="M 302 257.723 L 315.01 265.394 L 315.01 250.051 L 302 242.38 L 302 257.723 Z" style="fill: rgb(15, 89, 209);"/>
  <path class="st0" d="M 302 278.511 L 315.01 286.182 L 315.01 270.839 L 302 263.167 L 302 278.511 Z" style="fill: rgb(15, 89, 209);"/>
  <path class="st0" d="M 379.65 267.445 C 379.65 273.243 376.827 276.142 371.183 276.142 L 353.354 276.142 C 352.665 276.142 352.183 275.682 352.183 274.94 L 352.183 243.617 C 352.183 242.909 352.631 242.415 353.354 242.415 L 369.29 242.415 C 374.934 242.415 377.756 245.314 377.756 251.112 L 377.756 252.067 C 377.756 256.663 374.487 257.617 374.487 257.617 L 374.487 257.864 C 374.487 257.864 379.65 258.819 379.65 264.369 L 379.65 267.445 Z M 371.905 251.289 C 371.905 249.097 370.735 247.93 368.636 247.93 L 358.069 247.93 L 358.069 255.39 L 368.636 255.39 C 370.77 255.39 371.905 254.187 371.905 252.032 L 371.905 251.289 Z M 373.799 264.335 C 373.799 262.142 372.628 260.976 370.529 260.976 L 358.103 260.976 L 358.103 270.627 L 370.495 270.627 C 372.628 270.627 373.764 269.425 373.764 267.269 L 373.764 264.335 L 373.799 264.335 Z" style="fill: rgb(15, 89, 209);"/>
  <path class="st0" d="M 405.464 274.94 C 405.464 275.648 405.017 276.142 404.294 276.142 L 401.471 276.142 C 400.783 276.142 400.301 275.682 400.301 274.94 L 400.301 273.738 L 400.061 273.738 C 400.061 273.738 398.89 276.637 395.345 276.637 L 391.834 276.637 C 387.119 276.637 384.813 274.233 384.813 269.425 L 384.813 268.718 C 384.813 263.874 387.153 261.505 391.834 261.505 L 400.301 261.505 L 400.301 259.101 C 400.301 257.157 399.131 255.955 397.239 255.955 L 393.968 255.955 C 392.316 255.955 391.387 256.91 391.387 258.607 C 391.387 259.314 390.939 259.808 390.216 259.808 L 387.394 259.808 C 386.706 259.808 386.224 259.349 386.224 258.607 C 386.224 253.763 388.806 251.147 393.727 251.147 L 397.961 251.147 C 402.917 251.147 405.464 253.799 405.464 258.854 L 405.464 274.94 Z M 400.301 267.693 L 400.301 265.996 L 392.557 265.996 C 390.905 265.996 389.975 266.95 389.975 268.647 L 389.975 269.107 C 389.975 270.803 390.905 271.758 392.557 271.758 L 396.309 271.758 C 398.649 271.793 400.301 270.096 400.301 267.693 Z" style="fill: rgb(15, 89, 209);"/>
  <path class="st0" d="M 433.413 274.94 C 433.413 275.648 432.965 276.142 432.242 276.142 L 429.42 276.142 C 428.732 276.142 428.25 275.682 428.25 274.94 L 428.25 259.031 C 428.25 257.086 427.08 255.885 425.187 255.885 L 421.194 255.885 C 418.854 255.885 417.201 257.581 417.201 259.986 L 417.201 274.94 C 417.201 275.648 416.754 276.142 416.031 276.142 L 413.174 276.142 C 412.486 276.142 412.004 275.682 412.004 274.94 L 412.004 252.773 C 412.004 252.067 412.452 251.572 413.174 251.572 L 415.996 251.572 C 416.685 251.572 417.167 252.032 417.167 252.773 L 417.167 253.976 L 417.408 253.976 C 417.408 253.976 418.578 251.077 422.123 251.077 L 425.875 251.077 C 430.831 251.077 433.379 253.728 433.379 258.783 L 433.413 274.94 Z" style="fill: rgb(15, 89, 209);"/>
  <path class="st0" d="M 455.923 267.94 C 455.923 267.233 456.37 266.738 457.093 266.738 L 459.916 266.738 C 460.604 266.738 461.085 267.198 461.085 267.94 L 461.085 268.895 C 461.085 273.986 458.505 276.602 453.582 276.602 L 447.249 276.602 C 442.293 276.602 439.746 273.951 439.746 268.895 L 439.746 258.783 C 439.746 253.693 442.327 251.077 447.249 251.077 L 453.548 251.077 C 458.505 251.077 461.051 253.728 461.051 258.783 L 461.051 259.738 C 461.051 260.445 460.604 260.94 459.881 260.94 L 457.058 260.94 C 456.37 260.94 455.889 260.481 455.889 259.738 L 455.889 259.031 C 455.889 257.086 454.718 255.885 452.825 255.885 L 447.868 255.885 C 445.976 255.885 444.806 257.086 444.806 259.031 L 444.806 268.682 C 444.806 270.627 445.976 271.829 447.868 271.829 L 452.825 271.829 C 454.718 271.829 455.889 270.627 455.889 268.682 L 455.923 267.94 Z" style="fill: rgb(15, 89, 209);"/>
  <path class="st0" d="M 466.731 258.783 C 466.731 253.693 469.312 251.077 474.234 251.077 L 481.014 251.077 C 485.971 251.077 488.518 253.728 488.518 258.783 L 488.518 268.895 C 488.518 273.986 485.937 276.602 481.014 276.602 L 474.234 276.602 C 469.278 276.602 466.731 273.951 466.731 268.895 L 466.731 258.783 Z M 471.894 268.682 C 471.894 270.627 473.063 271.829 474.957 271.829 L 480.36 271.829 C 482.254 271.829 483.424 270.627 483.424 268.682 L 483.424 259.031 C 483.424 257.086 482.254 255.885 480.36 255.885 L 474.957 255.885 C 473.063 255.885 471.894 257.086 471.894 259.031 L 471.894 268.682 Z" style="fill: rgb(15, 89, 209);"/>
  <path class="st0" d="M 507.345 251.077 C 508.034 251.077 508.516 251.536 508.516 252.279 L 508.516 254.93 C 508.516 255.637 508.068 256.132 507.345 256.132 L 504.041 256.132 C 501.7 256.132 500.048 257.829 500.048 260.233 L 500.048 274.905 C 500.048 275.612 499.601 276.107 498.878 276.107 L 496.056 276.107 C 495.368 276.107 494.886 275.648 494.886 274.905 L 494.886 252.773 C 494.886 252.067 495.333 251.572 496.056 251.572 L 498.878 251.572 C 499.567 251.572 500.048 252.032 500.048 252.773 L 500.048 253.976 L 500.289 253.976 C 500.289 253.976 501.459 251.077 505.005 251.077 L 507.345 251.077 Z" style="fill: rgb(15, 89, 209);"/>
</svg>