<?xml version="1.0" encoding="UTF-8"?>
<svg width="149px" height="49px" viewBox="0 0 149 49" version="1.1" xmlns="http://www.w3.org/2000/svg" xmlns:xlink="http://www.w3.org/1999/xlink">
    <title>C33C2DF2-D3E4-49B8-8D47-E2FCD618318B</title>
    <g id="Page-1" stroke="none" stroke-width="1" fill="none" fill-rule="evenodd">
        <g id="BandWebsite_Desktop_UI_Home" transform="translate(-144.000000, -5628.000000)" fill-rule="nonzero">
            <g id="Group-8-Copy-2" transform="translate(0.000000, 5508.000000)">
                <g id="Group-3" transform="translate(144.000000, 120.000000)">
                    <g id="Logo3" transform="translate(0.000000, 0.400000)">
                        <g id="Group" transform="translate(57.882353, 10.823529)" fill="#FFFFFF">
                            <g>
                                <path d="M8.07529412,5.49176471 C7.77882353,5.28 7.45882353,5.11529412 7.11058824,4.99764706 C7.57647059,4.80470588 7.92941176,4.52705882 8.16941176,4.16470588 C8.40941176,3.80235294 8.53176471,3.39294118 8.53176471,2.93647059 C8.53176471,2.10352941 8.24941176,1.46823529 7.68941176,1.03529412 C7.12941176,0.597647059 6.29647059,0.381176471 5.19058824,0.381176471 L0.428235294,0.381176471 L0.428235294,10.5458824 L5.42117647,10.5458824 C5.84941176,10.5458824 6.27294118,10.4988235 6.70117647,10.4094118 C7.12941176,10.3152941 7.52,10.16 7.87764706,9.93882353 C8.23529412,9.71764706 8.52235294,9.41176471 8.74352941,9.02588235 C8.96,8.64 9.06823529,8.15058824 9.06823529,7.55764706 C9.06823529,7.07294118 8.97411765,6.66352941 8.79058824,6.32470588 C8.61176471,5.98117647 8.37176471,5.70823529 8.07529412,5.49176471 Z M2,1.89176471 L5.07764706,1.89176471 C5.6,1.89176471 6.04235294,1.99529412 6.4,2.19764706 C6.75764706,2.4 6.93647059,2.73882353 6.93647059,3.21411765 C6.93647059,3.64235294 6.76705882,3.96705882 6.42823529,4.20235294 C6.08941176,4.43294118 5.69882353,4.55529412 5.25176471,4.56470588 L2,4.56470588 L2,1.89176471 Z M6.89411765,8.66352941 C6.50823529,8.90823529 6.00941176,9.03529412 5.39764706,9.03529412 L2,9.03529412 L2,6.07529412 L5.32705882,6.07529412 C5.65647059,6.07529412 5.98588235,6.11764706 6.31529412,6.20705882 C6.64470588,6.29647059 6.92235294,6.44235294 7.14352941,6.65882353 C7.36470588,6.87058824 7.47764706,7.16235294 7.47764706,7.52941176 C7.47294118,8.03764706 7.28,8.41882353 6.89411765,8.66352941 Z" id="Shape"></path>
                                <path d="M15.1858824,0.381176471 L10.8423529,10.5458824 L12.4517647,10.5458824 L13.5105882,8.07529412 L18.4470588,8.07529412 L19.4917647,10.5458824 L21.1905882,10.5458824 L16.88,0.381176471 L15.1858824,0.381176471 Z M14.1552941,6.56941176 L15.2,4.13176471 C15.3364706,3.81176471 15.4682353,3.47764706 15.5905882,3.12941176 C15.7176471,2.78117647 15.8494118,2.42352941 15.9811765,2.05647059 C16.1082353,2.41411765 16.2305882,2.76235294 16.3576471,3.09647059 C16.4847059,3.43058824 16.6070588,3.75529412 16.7341176,4.07529412 L17.8070588,6.57411765 L14.1552941,6.57411765 L14.1552941,6.56941176 Z" id="Shape"></path>
                                <polygon id="Path" points="31.7505882 1.89176471 31.7505882 3.72235294 31.7505882 8.15058824 25.1905882 0.381176471 23.7223529 0.381176471 23.7223529 1.89176471 23.7223529 10.5458824 25.2894118 10.5458824 25.2894118 6.32 25.2894118 2.99294118 31.8258824 10.5458824 33.3223529 10.5458824 33.3223529 9.52470588 33.3223529 1.89176471 33.3223529 0.381176471 31.7505882 0.381176471"></polygon>
                                <path d="M46.2494118,3.51058824 C46.0329412,2.89411765 45.7035294,2.35294118 45.2705882,1.88235294 C44.8329412,1.41176471 44.2964706,1.04470588 43.6611765,0.781176471 C43.0211765,0.512941176 42.2823529,0.381176471 41.44,0.381176471 L36.9976471,0.381176471 L36.9976471,10.5458824 L41.44,10.5458824 C42.5647059,10.5458824 43.5058824,10.3152941 44.2729412,9.85411765 C45.04,9.39294118 45.6141176,8.78117647 46,8.00941176 C46.3858824,7.23764706 46.5788235,6.39058824 46.5788235,5.45882353 C46.5788235,4.77647059 46.4705882,4.12705882 46.2494118,3.51058824 Z M44.5835294,7.25647059 C44.3388235,7.79294118 43.9482353,8.22588235 43.4211765,8.55058824 C42.8941176,8.87529412 42.2070588,9.03529412 41.3647059,9.03529412 L38.56,9.03529412 L38.56,1.89176471 L41.3647059,1.89176471 C42.1976471,1.89176471 42.88,2.05647059 43.4117647,2.38588235 C43.9435294,2.71529412 44.3341176,3.15294118 44.5788235,3.69411765 C44.8235294,4.23529412 44.9505882,4.82823529 44.9505882,5.46352941 C44.9505882,6.12235294 44.8282353,6.72 44.5835294,7.25647059 Z" id="Shape"></path>
                            </g>
                            <g transform="translate(0.470588, 15.529412)">
                                <path d="M4.89411765,0.244705882 C5.45411765,0.244705882 5.97176471,0.381176471 6.44705882,0.658823529 C6.92235294,0.936470588 7.29882353,1.30823529 7.58588235,1.77882353 C7.87294118,2.24941176 8.01411765,2.77647059 8.01411765,3.36941176 C8.01411765,3.97176471 7.86823529,4.51294118 7.57176471,4.99764706 C7.27529412,5.48235294 6.88470588,5.86823529 6.39529412,6.15058824 C5.90588235,6.43764706 5.36470588,6.57882353 4.77647059,6.57882353 L1.60941176,6.57882353 L1.60941176,10.4141176 L0.0423529412,10.4141176 L0.0423529412,0.249411765 L4.89411765,0.249411765 L4.89411765,0.244705882 Z M4.70588235,5.06823529 C5.00705882,5.06823529 5.28470588,4.99294118 5.53882353,4.83764706 C5.79294118,4.68235294 6,4.47529412 6.15529412,4.22117647 C6.31058824,3.96235294 6.38588235,3.68 6.38588235,3.36941176 C6.38588235,3.06823529 6.30588235,2.8 6.15529412,2.55529412 C6,2.31529412 5.79294118,2.11764706 5.53882353,1.97647059 C5.28,1.83058824 5.00235294,1.76 4.70588235,1.76 L1.61411765,1.76 L1.61411765,5.06823529 L4.70588235,5.06823529 L4.70588235,5.06823529 Z" id="Shape"></path>
                                <path d="M19.1670588,3.44 C19.1670588,4.09882353 18.9694118,4.69647059 18.5694118,5.23294118 C18.1741176,5.76941176 17.6658824,6.16 17.0447059,6.4 L19.6564706,10.4235294 L17.7270588,10.4094118 L15.3035294,6.62117647 L12.5317647,6.62117647 L12.5317647,10.4094118 L10.9647059,10.4094118 L10.9647059,0.244705882 L15.9294118,0.244705882 C16.48,0.244705882 17.0023529,0.376470588 17.4964706,0.644705882 C17.9905882,0.912941176 18.3905882,1.28470588 18.7011765,1.76941176 C19.0117647,2.25411765 19.1670588,2.81411765 19.1670588,3.44 Z M15.5952941,1.75529412 L12.5317647,1.75529412 L12.5317647,5.11058824 L15.8447059,5.11058824 C16.1835294,5.11058824 16.48,5.03058824 16.7388235,4.88 C16.9929412,4.72470588 17.1952941,4.51764706 17.3317647,4.26352941 C17.4729412,4.00470588 17.5435294,3.72705882 17.5435294,3.43058824 C17.5435294,3.10117647 17.4541176,2.80941176 17.28,2.56 C17.1058824,2.31058824 16.8705882,2.11294118 16.5741176,1.97176471 C16.2823529,1.82588235 15.9529412,1.75529412 15.5952941,1.75529412 Z" id="Shape"></path>
                                <path d="M32.7294118,5.32705882 C32.7294118,6.06117647 32.5976471,6.74823529 32.3294118,7.38352941 C32.0611765,8.01882353 31.6847059,8.57411765 31.1952941,9.04470588 C30.7058824,9.52 30.1317647,9.88705882 29.4682353,10.1552941 C28.8047059,10.4235294 28.0752941,10.5552941 27.2847059,10.5552941 C26.4894118,10.5552941 25.76,10.4235294 25.0917647,10.1552941 C24.4235294,9.88705882 23.8494118,9.52 23.3647059,9.04470588 C22.88,8.56941176 22.5035294,8.01411765 22.24,7.38352941 C21.9717647,6.74823529 21.84,6.06588235 21.84,5.32705882 C21.84,4.59294118 21.9717647,3.90588235 22.24,3.27058824 C22.5082353,2.63529412 22.88,2.08 23.3647059,1.60941176 C23.8494118,1.13411765 24.4235294,0.767058824 25.0917647,0.498823529 C25.76,0.230588235 26.4894118,0.0988235294 27.2847059,0.0988235294 C28.08,0.0988235294 28.8047059,0.230588235 29.4682353,0.498823529 C30.1317647,0.767058824 30.7058824,1.13411765 31.1952941,1.60941176 C31.6847059,2.08470588 32.0611765,2.64 32.3294118,3.27058824 C32.5976471,3.91058824 32.7294118,4.59294118 32.7294118,5.32705882 Z M31.1341176,5.32705882 C31.1341176,4.62117647 30.9694118,3.99058824 30.64,3.43058824 C30.3105882,2.87529412 29.8541176,2.43294118 29.2752941,2.10823529 C28.6964706,1.78352941 28.0329412,1.62352941 27.2847059,1.62352941 C26.5176471,1.62352941 25.8494118,1.78352941 25.2752941,2.10823529 C24.7011765,2.43294118 24.2494118,2.87529412 23.9247059,3.43058824 C23.6,3.98588235 23.44,4.62117647 23.44,5.32705882 C23.44,6.03294118 23.6,6.66352941 23.9247059,7.22352941 C24.2494118,7.77882353 24.7011765,8.22117647 25.2752941,8.54588235 C25.8494118,8.87058824 26.5223529,9.03058824 27.2847059,9.03058824 C28.0282353,9.03058824 28.6917647,8.87058824 29.2752941,8.54588235 C29.8541176,8.22117647 30.3105882,7.77882353 30.64,7.21882353 C30.9694118,6.65411765 31.1341176,6.02823529 31.1341176,5.32705882 Z" id="Shape"></path>
                                <polygon id="Path" points="37.4494118 10.4094118 37.4494118 1.75529412 34.1976471 1.75529412 34.1976471 0.244705882 42.3576471 0.244705882 42.3576471 1.75529412 39.0164706 1.75529412 39.0164706 10.4094118"></polygon>
                                <path d="M54.7152941,5.32705882 C54.7152941,6.06117647 54.5835294,6.74823529 54.3152941,7.38352941 C54.0470588,8.01882353 53.6705882,8.57411765 53.1811765,9.04470588 C52.6917647,9.52 52.1176471,9.88705882 51.4541176,10.1552941 C50.7905882,10.4235294 50.0611765,10.5552941 49.2705882,10.5552941 C48.4752941,10.5552941 47.7458824,10.4235294 47.0776471,10.1552941 C46.4094118,9.88705882 45.8352941,9.52 45.3505882,9.04470588 C44.8658824,8.56941176 44.4894118,8.01411765 44.2258824,7.38352941 C43.9576471,6.74823529 43.8258824,6.06588235 43.8258824,5.32705882 C43.8258824,4.59294118 43.9576471,3.90588235 44.2258824,3.27058824 C44.4941176,2.63529412 44.8658824,2.08 45.3505882,1.60941176 C45.8352941,1.13411765 46.4094118,0.767058824 47.0776471,0.498823529 C47.7458824,0.230588235 48.4752941,0.0988235294 49.2705882,0.0988235294 C50.0658824,0.0988235294 50.7905882,0.230588235 51.4541176,0.498823529 C52.1176471,0.767058824 52.6917647,1.13411765 53.1811765,1.60941176 C53.6705882,2.08470588 54.0470588,2.64 54.3152941,3.27058824 C54.5788235,3.91058824 54.7152941,4.59294118 54.7152941,5.32705882 Z M53.1152941,5.32705882 C53.1152941,4.62117647 52.9505882,3.99058824 52.6211765,3.43058824 C52.2917647,2.87529412 51.8352941,2.43294118 51.2564706,2.10823529 C50.6776471,1.78352941 50.0141176,1.62352941 49.2658824,1.62352941 C48.4988235,1.62352941 47.8305882,1.78352941 47.2564706,2.10823529 C46.6823529,2.43294118 46.2305882,2.87529412 45.9058824,3.43058824 C45.5811765,3.98588235 45.4211765,4.62117647 45.4211765,5.32705882 C45.4211765,6.03294118 45.5811765,6.66352941 45.9058824,7.22352941 C46.2305882,7.77882353 46.6823529,8.22117647 47.2564706,8.54588235 C47.8305882,8.87058824 48.5035294,9.03058824 49.2658824,9.03058824 C50.0094118,9.03058824 50.6729412,8.87058824 51.2564706,8.54588235 C51.8352941,8.22117647 52.2917647,7.77882353 52.6211765,7.21882353 C52.9505882,6.65411765 53.1152941,6.02823529 53.1152941,5.32705882 Z" id="Shape"></path>
                                <path d="M66.1552941,9.05882353 C65.9247059,9.28941176 65.6047059,9.52 65.2047059,9.75058824 C64.8047059,9.97647059 64.3388235,10.1694118 63.8164706,10.3247059 C63.2941176,10.48 62.7388235,10.5552941 62.1458824,10.5552941 C61.4117647,10.5552941 60.7247059,10.4329412 60.0847059,10.1835294 C59.4447059,9.93882353 58.8847059,9.58588235 58.4094118,9.12941176 C57.9294118,8.67294118 57.5576471,8.12705882 57.2894118,7.48235294 C57.0211765,6.83764706 56.8894118,6.12235294 56.8894118,5.32705882 C56.8894118,4.58352941 57.0305882,3.89647059 57.3082353,3.26588235 C57.5905882,2.63529412 57.9764706,2.08941176 58.4752941,1.62352941 C58.9741176,1.15764706 59.5435294,0.8 60.1835294,0.541176471 C60.8235294,0.287058824 61.5011765,0.155294118 62.2164706,0.155294118 C62.8188235,0.155294118 63.3788235,0.24 63.9058824,0.409411765 C64.4329412,0.578823529 64.9035294,0.795294118 65.3129412,1.05411765 C65.7223529,1.31764706 66.0517647,1.59058824 66.2917647,1.88235294 L65.2894118,3.07294118 C64.8611765,2.67764706 64.3905882,2.34823529 63.8729412,2.09411765 C63.3552941,1.84 62.7811765,1.70823529 62.1505882,1.70823529 C61.5294118,1.70823529 60.9411765,1.85411765 60.3811765,2.14588235 C59.8211765,2.43764706 59.3647059,2.85176471 59.0070588,3.39294118 C58.6541176,3.93411765 58.4752941,4.57882353 58.4752941,5.32235294 C58.4752941,6.13647059 58.6588235,6.81411765 59.0211765,7.35529412 C59.3835294,7.89647059 59.8588235,8.30588235 60.4423529,8.58352941 C61.0258824,8.86117647 61.6611765,8.99764706 62.3388235,8.99764706 C63.0258824,8.99764706 63.6235294,8.86588235 64.1270588,8.59764706 C64.6305882,8.32941176 65.0447059,8.05176471 65.3741176,7.76470588 L66.1552941,9.05882353 Z" id="Path"></path>
                                <path d="M79.2517647,5.32705882 C79.2517647,6.06117647 79.12,6.74823529 78.8517647,7.38352941 C78.5835294,8.01882353 78.2070588,8.57411765 77.7176471,9.04470588 C77.2282353,9.52 76.6541176,9.88705882 75.9905882,10.1552941 C75.3270588,10.4235294 74.5976471,10.5552941 73.8070588,10.5552941 C73.0117647,10.5552941 72.2823529,10.4235294 71.6141176,10.1552941 C70.9458824,9.88705882 70.3717647,9.52 69.8870588,9.04470588 C69.4023529,8.56941176 69.0258824,8.01411765 68.7623529,7.38352941 C68.4941176,6.74823529 68.3623529,6.06588235 68.3623529,5.32705882 C68.3623529,4.59294118 68.4941176,3.90588235 68.7623529,3.27058824 C69.0305882,2.63529412 69.4023529,2.08 69.8870588,1.60941176 C70.3717647,1.13411765 70.9458824,0.767058824 71.6141176,0.498823529 C72.2823529,0.230588235 73.0117647,0.0988235294 73.8070588,0.0988235294 C74.6023529,0.0988235294 75.3270588,0.230588235 75.9905882,0.498823529 C76.6541176,0.767058824 77.2282353,1.13411765 77.7176471,1.60941176 C78.2070588,2.08470588 78.5835294,2.64 78.8517647,3.27058824 C79.12,3.91058824 79.2517647,4.59294118 79.2517647,5.32705882 Z M77.6564706,5.32705882 C77.6564706,4.62117647 77.4917647,3.99058824 77.1623529,3.43058824 C76.8329412,2.87529412 76.3764706,2.43294118 75.7976471,2.10823529 C75.2188235,1.78352941 74.5552941,1.62352941 73.8070588,1.62352941 C73.04,1.62352941 72.3717647,1.78352941 71.7976471,2.10823529 C71.2235294,2.43294118 70.7717647,2.87529412 70.4470588,3.43058824 C70.1223529,3.98588235 69.9623529,4.62117647 69.9623529,5.32705882 C69.9623529,6.03294118 70.1223529,6.66352941 70.4470588,7.22352941 C70.7717647,7.77882353 71.2235294,8.22117647 71.7976471,8.54588235 C72.3717647,8.87058824 73.0447059,9.03058824 73.8070588,9.03058824 C74.5505882,9.03058824 75.2141176,8.87058824 75.7976471,8.54588235 C76.3764706,8.22117647 76.8329412,7.77882353 77.1623529,7.21882353 C77.4917647,6.65411765 77.6564706,6.02823529 77.6564706,5.32705882 Z" id="Shape"></path>
                                <polygon id="Path" points="89.3317647 8.90352941 89.3317647 10.4141176 82.1882353 10.4141176 82.1882353 0.249411765 83.7552941 0.249411765 83.7552941 8.90352941 89.3317647 8.90352941"></polygon>
                            </g>
                        </g>
                        <g id="Group">
                            <path d="M23.8023529,47.7788235 L23.8023529,47.7788235 C10.7011765,47.7788235 0.08,37.1576471 0.08,24.0564706 L0.08,24.0564706 C0.08,10.9552941 10.7011765,0.334117647 23.8023529,0.334117647 L23.8023529,0.334117647 C36.9035294,0.334117647 47.5247059,10.9552941 47.5247059,24.0564706 L47.5247059,24.0564706 C47.52,37.1576471 36.8988235,47.7788235 23.8023529,47.7788235 Z" id="Path" fill="#FFFFFF"></path>
                            <path d="M31.7035294,19.7505882 C31.7035294,18.0705882 30.88,16.5835294 29.6141176,15.6705882 L33.0305882,12.2541176 L30.9882353,12.2635294 L28.2729412,14.9788235 C27.7694118,14.8094118 27.2329412,14.72 26.6729412,14.72 L17.3270588,14.72 L17.3270588,27.9576471 L28.5788235,16.7058824 C29.5905882,17.3411765 30.2682353,18.4705882 30.2682353,19.7552941 C30.2682353,21.7364706 28.6541176,23.3505882 26.6729412,23.3505882 L26.3764706,23.3505882 L13.8541176,35.8729412 L15.8870588,35.8729412 L18.3435294,33.4164706 L26.6729412,33.4164706 C29.4494118,33.4164706 31.7035294,31.1576471 31.7035294,28.3858824 C31.7035294,26.5552941 30.72,24.9552941 29.2564706,24.0752941 C30.72,23.1858824 31.7035294,21.5811765 31.7035294,19.7505882 Z M18.7623529,24.4847059 L18.7623529,16.1552941 L26.6729412,16.1552941 C26.8094118,16.1552941 26.9411765,16.1647059 27.0729412,16.1788235 L18.7623529,24.4847059 Z M30.2682353,28.3764706 C30.2682353,30.3576471 28.6541176,31.9717647 26.6729412,31.9717647 L19.7788235,31.9717647 L26.9411765,24.8094118 C28.7952941,24.9505882 30.2682353,26.4894118 30.2682353,28.3764706 Z" id="Shape" fill="#1400A5"></path>
                        </g>
                    </g>
                </g>
            </g>
        </g>
    </g>
</svg>