<?xml version="1.0" encoding="utf-8"?>
<svg viewBox="144.214 0 355.786 104.49" xmlns="http://www.w3.org/2000/svg">
  <g id="layer101" fill="#02216c" stroke="none" transform="matrix(0.158414, 0, 0, 0.155247, 88.085999, -25.756281)" style="">
    <path d="M592 694 c-159 -79 -159 -309 0 -388 150 -75 318 28 318 194 0 166 -168 269 -318 194z m205 -20 c94 -54 126 -180 70 -276 -65 -111 -214 -136 -307 -52 -49 45 -70 90 -70 154 0 93 59 172 147 196 59 16 105 9 160 -22z"/>
    <path d="M650 635 c0 -11 -11 -15 -36 -15 -29 0 -35 -3 -30 -16 3 -9 6 -18 6 -20 0 -2 7 -4 15 -4 12 0 15 -16 15 -84 0 -75 -2 -84 -20 -89 -33 -8 -23 -27 15 -27 24 0 35 -5 35 -15 0 -8 7 -15 15 -15 8 0 15 7 15 15 0 8 5 15 10 15 6 0 13 -7 16 -15 8 -19 24 -20 24 -1 0 7 9 16 19 19 31 8 56 54 44 80 -8 17 -7 28 3 42 31 42 10 98 -42 111 -13 3 -24 12 -24 20 0 8 -4 14 -10 14 -5 0 -10 -7 -10 -15 0 -8 -7 -15 -15 -15 -8 0 -15 7 -15 15 0 8 -7 15 -15 15 -8 0 -15 -7 -15 -15z m128 -82 c4 -29 -27 -45 -81 -41 -39 3 -42 5 -45 36 l-3 33 63 -3 c56 -3 63 -5 66 -25z m-20 -102 c5 -30 -12 -41 -65 -41 -43 0 -43 0 -43 36 l0 35 53 -3 c46 -3 52 -6 55 -27z"/>
    <path d="M1074 577 c-3 -8 -4 -47 -2 -88 l3 -74 33 -3 c18 -2 44 3 57 12 20 13 23 23 23 81 0 61 -1 67 -24 76 -36 13 -84 11 -90 -4z m66 -47 c0 -5 -4 -10 -10 -10 -5 0 -10 5 -10 10 0 6 5 10 10 10 6 0 10 -4 10 -10z m0 -60 c0 -5 -4 -10 -10 -10 -5 0 -10 5 -10 10 0 6 5 10 10 10 6 0 10 -4 10 -10z" style="fill: rgb(255, 255, 255);"/>
    <path d="M1214 577 c-3 -8 -4 -47 -2 -88 3 -68 5 -74 26 -77 21 -3 22 -1 22 87 0 85 -1 91 -20 91 -11 0 -23 -6 -26 -13z" style="fill: rgb(255, 255, 255);"/>
    <path d="M1310 526 c0 -60 -2 -66 -21 -66 -15 0 -20 -5 -17 -22 3 -20 10 -23 61 -26 55 -3 57 -2 57 23 0 15 -6 25 -15 25 -10 0 -15 16 -17 63 -3 56 -5 62 -25 65 -22 3 -23 0 -23 -62z" style="fill: rgb(255, 255, 255);"/>
    <path d="M1440 577 c-51 -26 -62 -104 -21 -141 42 -38 134 -24 118 18 -5 13 -14 16 -41 11 -28 -6 -36 -3 -45 13 -14 27 -14 28 5 47 11 11 25 14 45 10 37 -8 53 20 24 41 -23 17 -52 18 -85 1z" style="fill: rgb(255, 255, 255);"/>
    <path d="M1595 578 c-33 -17 -45 -40 -45 -80 0 -64 60 -103 121 -78 35 15 49 37 49 79 0 43 -9 60 -41 76 -33 18 -57 18 -84 3z m63 -50 c17 -17 15 -43 -4 -59 -31 -26 -70 25 -44 56 15 18 32 19 48 3z" style="fill: rgb(255, 255, 255);"/>
    <path d="M1740 500 c0 -89 1 -91 23 -88 21 3 22 7 22 88 0 81 -1 85 -22 88 -22 3 -23 1 -23 -88z" style="fill: rgb(255, 255, 255);"/>
    <path d="M1820 500 c0 -49 3 -90 7 -90 4 0 27 19 50 42 l43 42 0 -42 c0 -35 3 -42 20 -42 19 0 20 7 20 90 0 50 -3 90 -7 90 -4 0 -27 -19 -50 -42 l-43 -42 0 42 c0 35 -3 42 -20 42 -19 0 -20 -7 -20 -90z" style="fill: rgb(255, 255, 255);"/>
  </g>
  <g id="layer102" fill="#3e568f" stroke="none" transform="matrix(0.158414, 0, 0, 0.155247, 88.085999, -25.756281)" style="">
    <path d="M630 715 c0 -3 2 -5 5 -5 3 0 5 2 5 5 0 3 -2 5 -5 5 -3 0 -5 -2 -5 -5z"/>
    <path d="M740 715 c0 -3 2 -5 5 -5 3 0 5 2 5 5 0 3 -2 5 -5 5 -3 0 -5 -2 -5 -5z"/>
    <path d="M600 705 c0 -3 2 -5 5 -5 3 0 5 2 5 5 0 3 -2 5 -5 5 -3 0 -5 -2 -5 -5z"/>
    <path d="M688 703 c7 -3 16 -2 19 1 4 3 -2 6 -13 5 -11 0 -14 -3 -6 -6z"/>
    <path d="M770 705 c0 -3 2 -5 5 -5 3 0 5 2 5 5 0 3 -2 5 -5 5 -3 0 -5 -2 -5 -5z"/>
    <path d="M580 695 c0 -3 2 -5 5 -5 3 0 5 2 5 5 0 3 -2 5 -5 5 -3 0 -5 -2 -5 -5z"/>
    <path d="M633 693 c4 -3 10 -3 14 0 3 4 0 7 -7 7 -7 0 -10 -3 -7 -7z"/>
    <path d="M750 695 c0 -3 2 -5 5 -5 3 0 5 2 5 5 0 3 -2 5 -5 5 -3 0 -5 -2 -5 -5z"/>
    <path d="M600 685 c0 -3 2 -5 5 -5 3 0 5 2 5 5 0 3 -2 5 -5 5 -3 0 -5 -2 -5 -5z"/>
    <path d="M770 685 c0 -3 2 -5 5 -5 3 0 5 2 5 5 0 3 -2 5 -5 5 -3 0 -5 -2 -5 -5z"/>
    <path d="M810 685 c0 -3 2 -5 5 -5 3 0 5 2 5 5 0 3 -2 5 -5 5 -3 0 -5 -2 -5 -5z"/>
    <path d="M550 675 c0 -3 2 -5 5 -5 3 0 5 2 5 5 0 3 -2 5 -5 5 -3 0 -5 -2 -5 -5z"/>
    <path d="M580 675 c0 -3 2 -5 5 -5 3 0 5 2 5 5 0 3 -2 5 -5 5 -3 0 -5 -2 -5 -5z"/>
    <path d="M795 670 c3 -5 8 -10 11 -10 3 0 2 5 -1 10 -3 6 -8 10 -11 10 -3 0 -2 -4 1 -10z"/>
    <path d="M820 656 c0 -2 8 -10 18 -17 15 -13 16 -12 3 4 -13 16 -21 21 -21 13z"/>
    <path d="M514 638 c-4 -7 -3 -8 4 -4 12 7 16 16 8 16 -3 0 -8 -5 -12 -12z"/>
    <path d="M701 634 c0 -11 3 -14 6 -6 3 7 2 16 -1 19 -3 4 -6 -2 -5 -13z"/>
    <path d="M524 618 c-4 -7 -3 -8 4 -4 12 7 16 16 8 16 -3 0 -8 -5 -12 -12z"/>
    <path d="M870 625 c0 -3 2 -5 5 -5 3 0 5 2 5 5 0 3 -2 5 -5 5 -3 0 -5 -2 -5 -5z"/>
    <path d="M570 615 c0 -3 2 -5 5 -5 3 0 5 2 5 5 0 3 -2 5 -5 5 -3 0 -5 -2 -5 -5z"/>
    <path d="M760 615 c0 -3 2 -5 5 -5 3 0 5 2 5 5 0 3 -2 5 -5 5 -3 0 -5 -2 -5 -5z"/>
    <path d="M490 605 c0 -3 2 -5 5 -5 3 0 5 2 5 5 0 3 -2 5 -5 5 -3 0 -5 -2 -5 -5z"/>
    <path d="M780 605 c0 -3 2 -5 5 -5 3 0 5 2 5 5 0 3 -2 5 -5 5 -3 0 -5 -2 -5 -5z"/>
    <path d="M860 605 c0 -3 2 -5 5 -5 3 0 5 2 5 5 0 3 -2 5 -5 5 -3 0 -5 -2 -5 -5z"/>
    <path d="M580 595 c0 -3 2 -5 5 -5 3 0 5 2 5 5 0 3 -2 5 -5 5 -3 0 -5 -2 -5 -5z"/>
    <path d="M480 585 c0 -3 2 -5 5 -5 3 0 5 2 5 5 0 3 -2 5 -5 5 -3 0 -5 -2 -5 -5z"/>
    <path d="M500 585 c0 -3 2 -5 5 -5 3 0 5 2 5 5 0 3 -2 5 -5 5 -3 0 -5 -2 -5 -5z"/>
    <path d="M800 585 c0 -3 2 -5 5 -5 3 0 5 2 5 5 0 3 -2 5 -5 5 -3 0 -5 -2 -5 -5z"/>
    <path d="M614 495 c0 -49 1 -71 3 -48 2 23 2 64 0 90 -2 26 -3 8 -3 -42z"/>
    <path d="M765 570 c3 -5 8 -10 11 -10 3 0 2 5 -1 10 -3 6 -8 10 -11 10 -3 0 -2 -4 1 -10z"/>
    <path d="M900 570 c0 -7 3 -10 7 -7 3 4 3 10 0 14 -4 3 -7 0 -7 -7z"/>
    <path d="M880 565 c0 -3 2 -5 5 -5 3 0 5 2 5 5 0 3 -2 5 -5 5 -3 0 -5 -2 -5 -5z"/>
    <path d="M470 550 c0 -7 3 -10 7 -7 3 4 3 10 0 14 -4 3 -7 0 -7 -7z"/>
    <path d="M490 555 c0 -3 2 -5 5 -5 3 0 5 2 5 5 0 3 -2 5 -5 5 -3 0 -5 -2 -5 -5z"/>
    <path d="M810 550 c0 -7 3 -10 7 -7 3 4 3 10 0 14 -4 3 -7 0 -7 -7z"/>
    <path d="M770 535 c0 -3 2 -5 5 -5 3 0 5 2 5 5 0 3 -2 5 -5 5 -3 0 -5 -2 -5 -5z"/>
    <path d="M892 500 c0 -19 2 -27 5 -17 2 9 2 25 0 35 -3 9 -5 1 -5 -18z"/>
    <path d="M683 513 c15 -2 37 -2 50 0 12 2 0 4 -28 4 -27 0 -38 -2 -22 -4z"/>
    <path d="M800 515 c0 -3 2 -5 5 -5 3 0 5 2 5 5 0 3 -2 5 -5 5 -3 0 -5 -2 -5 -5z"/>
    <path d="M910 500 c0 -7 3 -10 7 -7 3 4 3 10 0 14 -4 3 -7 0 -7 -7z"/>
    <path d="M780 485 c0 -3 2 -5 5 -5 3 0 5 2 5 5 0 3 -2 5 -5 5 -3 0 -5 -2 -5 -5z"/>
    <path d="M730 476 c0 -2 7 -7 16 -10 8 -3 12 -2 9 4 -6 10 -25 14 -25 6z"/>
    <path d="M790 465 c0 -3 2 -5 5 -5 3 0 5 2 5 5 0 3 -2 5 -5 5 -3 0 -5 -2 -5 -5z"/>
    <path d="M470 450 c0 -7 3 -10 7 -7 3 4 3 10 0 14 -4 3 -7 0 -7 -7z"/>
    <path d="M490 445 c0 -3 2 -5 5 -5 3 0 5 2 5 5 0 3 -2 5 -5 5 -3 0 -5 -2 -5 -5z"/>
    <path d="M880 435 c0 -3 2 -5 5 -5 3 0 5 2 5 5 0 3 -2 5 -5 5 -3 0 -5 -2 -5 -5z"/>
    <path d="M900 430 c0 -7 3 -10 7 -7 3 4 3 10 0 14 -4 3 -7 0 -7 -7z"/>
    <path d="M750 425 c0 -3 2 -5 5 -5 3 0 5 2 5 5 0 3 -2 5 -5 5 -3 0 -5 -2 -5 -5z"/>
    <path d="M790 425 c0 -3 2 -5 5 -5 3 0 5 2 5 5 0 3 -2 5 -5 5 -3 0 -5 -2 -5 -5z"/>
    <path d="M480 415 c0 -3 2 -5 5 -5 3 0 5 2 5 5 0 3 -2 5 -5 5 -3 0 -5 -2 -5 -5z"/>
    <path d="M500 415 c0 -3 2 -5 5 -5 3 0 5 2 5 5 0 3 -2 5 -5 5 -3 0 -5 -2 -5 -5z"/>
    <path d="M650 415 c0 -3 2 -5 5 -5 3 0 5 2 5 5 0 3 -2 5 -5 5 -3 0 -5 -2 -5 -5z"/>
    <path d="M730 415 c0 -3 2 -5 5 -5 3 0 5 2 5 5 0 3 -2 5 -5 5 -3 0 -5 -2 -5 -5z"/>
    <path d="M774 398 c-4 -7 -3 -8 4 -4 7 4 12 9 12 12 0 8 -9 4 -16 -8z"/>
    <path d="M490 395 c0 -3 2 -5 5 -5 3 0 5 2 5 5 0 3 -2 5 -5 5 -3 0 -5 -2 -5 -5z"/>
    <path d="M860 395 c0 -3 2 -5 5 -5 3 0 5 2 5 5 0 3 -2 5 -5 5 -3 0 -5 -2 -5 -5z"/>
    <path d="M525 380 c3 -5 8 -10 11 -10 3 0 2 5 -1 10 -3 6 -8 10 -11 10 -3 0 -2 -4 1 -10z"/>
    <path d="M640 375 c0 -3 2 -5 5 -5 3 0 5 2 5 5 0 3 -2 5 -5 5 -3 0 -5 -2 -5 -5z"/>
    <path d="M730 375 c0 -3 2 -5 5 -5 3 0 5 2 5 5 0 3 -2 5 -5 5 -3 0 -5 -2 -5 -5z"/>
    <path d="M870 375 c0 -3 2 -5 5 -5 3 0 5 2 5 5 0 3 -2 5 -5 5 -3 0 -5 -2 -5 -5z"/>
    <path d="M515 360 c3 -5 8 -10 11 -10 3 0 2 5 -1 10 -3 6 -8 10 -11 10 -3 0 -2 -4 1 -10z"/>
    <path d="M700 357 c0 -10 8 -17 18 -17 9 0 13 4 7 8 -5 4 -13 11 -17 16 -5 5 -8 2 -8 -7z"/>
    <path d="M829 353 c-13 -16 -12 -17 4 -4 16 13 21 21 13 21 -2 0 -10 -8 -17 -17z"/>
    <path d="M658 343 c7 -3 16 -2 19 1 4 3 -2 6 -13 5 -11 0 -14 -3 -6 -6z"/>
    <path d="M794 328 c-4 -7 -3 -8 4 -4 7 4 12 9 12 12 0 8 -9 4 -16 -8z"/>
    <path d="M550 325 c0 -3 2 -5 5 -5 3 0 5 2 5 5 0 3 -2 5 -5 5 -3 0 -5 -2 -5 -5z"/>
    <path d="M580 325 c0 -3 2 -5 5 -5 3 0 5 2 5 5 0 3 -2 5 -5 5 -3 0 -5 -2 -5 -5z"/>
    <path d="M600 315 c0 -3 2 -5 5 -5 3 0 5 2 5 5 0 3 -2 5 -5 5 -3 0 -5 -2 -5 -5z"/>
    <path d="M770 315 c0 -3 2 -5 5 -5 3 0 5 2 5 5 0 3 -2 5 -5 5 -3 0 -5 -2 -5 -5z"/>
    <path d="M810 315 c0 -3 2 -5 5 -5 3 0 5 2 5 5 0 3 -2 5 -5 5 -3 0 -5 -2 -5 -5z"/>
    <path d="M580 305 c0 -3 2 -5 5 -5 3 0 5 2 5 5 0 3 -2 5 -5 5 -3 0 -5 -2 -5 -5z"/>
    <path d="M633 303 c4 -3 10 -3 14 0 3 4 0 7 -7 7 -7 0 -10 -3 -7 -7z"/>
    <path d="M750 305 c0 -3 2 -5 5 -5 3 0 5 2 5 5 0 3 -2 5 -5 5 -3 0 -5 -2 -5 -5z"/>
    <path d="M600 295 c0 -3 2 -5 5 -5 3 0 5 2 5 5 0 3 -2 5 -5 5 -3 0 -5 -2 -5 -5z"/>
    <path d="M688 293 c7 -3 16 -2 19 1 4 3 -2 6 -13 5 -11 0 -14 -3 -6 -6z"/>
    <path d="M770 295 c0 -3 2 -5 5 -5 3 0 5 2 5 5 0 3 -2 5 -5 5 -3 0 -5 -2 -5 -5z"/>
    <path d="M630 285 c0 -3 2 -5 5 -5 3 0 5 2 5 5 0 3 -2 5 -5 5 -3 0 -5 -2 -5 -5z"/>
    <path d="M740 285 c0 -3 2 -5 5 -5 3 0 5 2 5 5 0 3 -2 5 -5 5 -3 0 -5 -2 -5 -5z"/>
  </g>
  <g id="layer103" fill="#ffa803" stroke="none" transform="matrix(0.158414, 0, 0, 0.155247, 88.085999, -25.756281)" style="">
    <path d="M579 816 c-81 -31 -150 -91 -188 -163 -10 -19 -7 -24 21 -44 l31 -23 16 25 c63 96 134 139 232 139 208 -1 322 -216 208 -396 -26 -40 -28 -49 -15 -56 8 -5 21 -15 29 -23 13 -12 17 -11 35 8 12 12 33 49 48 82 74 160 4 352 -158 436 -54 28 -202 37 -259 15z"/>
    <path d="M370 605 c0 -3 2 -5 5 -5 3 0 5 2 5 5 0 3 -2 5 -5 5 -3 0 -5 -2 -5 -5z"/>
    <path d="M2016 568 c-37 -33 -39 -69 -3 -79 15 -4 25 -3 22 2 -11 16 15 49 38 48 12 0 16 -3 10 -6 -7 -2 -13 -12 -13 -21 0 -12 9 -17 30 -17 28 0 30 2 30 41 0 38 -2 42 -31 48 -48 9 -56 8 -83 -16z"/>
    <path d="M2176 568 c-14 -13 -28 -35 -32 -50 -5 -25 -3 -28 18 -28 15 0 27 8 33 23 13 30 56 30 70 0 5 -12 20 -24 33 -26 22 -4 24 -2 18 27 -8 40 -49 76 -86 76 -16 0 -40 -10 -54 -22z"/>
    <path d="M2337 584 c-9 -9 -9 -57 -1 -78 10 -27 44 -20 44 9 0 21 5 25 31 25 26 0 30 3 27 23 -3 19 -10 22 -48 25 -25 2 -49 0 -53 -4z"/>
    <path d="M2450 540 c0 -47 2 -50 25 -50 20 0 25 5 25 26 0 21 4 25 23 22 14 -2 23 -11 25 -25 3 -17 10 -23 28 -23 27 0 30 15 13 54 -13 28 -55 46 -105 46 l-34 0 0 -50z"/>
    <path d="M1980 475 c0 -3 2 -5 5 -5 3 0 5 2 5 5 0 3 -2 5 -5 5 -3 0 -5 -2 -5 -5z"/>
    <path d="M2534 468 c-4 -7 -3 -8 4 -4 12 7 16 16 8 16 -3 0 -8 -5 -12 -12z"/>
    <path d="M2110 465 c0 -3 2 -5 5 -5 3 0 5 2 5 5 0 3 -2 5 -5 5 -3 0 -5 -2 -5 -5z"/>
    <path d="M2590 465 c0 -3 2 -5 5 -5 3 0 5 2 5 5 0 3 -2 5 -5 5 -3 0 -5 -2 -5 -5z"/>
    <path d="M840 295 c0 -3 2 -5 5 -5 3 0 5 2 5 5 0 3 -2 5 -5 5 -3 0 -5 -2 -5 -5z"/>
  </g>
  <g id="layer104" fill="#fecd05" stroke="none" transform="matrix(0.158414, 0, 0, 0.155247, 88.085999, -25.756281)" style="">
    <path d="M510 785 c0 -3 2 -5 5 -5 3 0 5 2 5 5 0 3 -2 5 -5 5 -3 0 -5 -2 -5 -5z"/>
    <path d="M620 745 c0 -3 2 -5 5 -5 3 0 5 2 5 5 0 3 -2 5 -5 5 -3 0 -5 -2 -5 -5z"/>
    <path d="M750 745 c0 -3 2 -5 5 -5 3 0 5 2 5 5 0 3 -2 5 -5 5 -3 0 -5 -2 -5 -5z"/>
    <path d="M590 735 c0 -3 2 -5 5 -5 3 0 5 2 5 5 0 3 -2 5 -5 5 -3 0 -5 -2 -5 -5z"/>
    <path d="M570 725 c0 -3 2 -5 5 -5 3 0 5 2 5 5 0 3 -2 5 -5 5 -3 0 -5 -2 -5 -5z"/>
    <path d="M865 680 c3 -5 8 -10 11 -10 3 0 2 5 -1 10 -3 6 -8 10 -11 10 -3 0 -2 -4 1 -10z"/>
    <path d="M372 596 c-19 -52 -15 -158 9 -221 29 -78 106 -155 184 -184 50 -19 75 -22 146 -19 72 3 93 9 139 34 63 36 83 60 60 74 -44 27 -44 28 -31 47 8 10 2 5 -13 -10 -86 -92 -268 -87 -358 9 -58 63 -85 178 -58 249 7 17 7 24 0 20 -6 -3 -23 3 -38 14 l-28 20 -12 -33z"/>
    <path d="M460 615 c0 -3 2 -5 5 -5 3 0 5 2 5 5 0 3 -2 5 -5 5 -3 0 -5 -2 -5 -5z"/>
    <path d="M2090 585 c0 -3 2 -5 5 -5 3 0 5 2 5 5 0 3 -2 5 -5 5 -3 0 -5 -2 -5 -5z"/>
    <path d="M2430 585 c0 -3 2 -5 5 -5 3 0 5 2 5 5 0 3 -2 5 -5 5 -3 0 -5 -2 -5 -5z"/>
    <path d="M2535 530 c3 -5 8 -10 11 -10 3 0 2 5 -1 10 -3 6 -8 10 -11 10 -3 0 -2 -4 1 -10z"/>
    <path d="M2590 535 c0 -3 2 -5 5 -5 3 0 5 2 5 5 0 3 -2 5 -5 5 -3 0 -5 -2 -5 -5z"/>
    <path d="M1980 525 c0 -3 2 -5 5 -5 3 0 5 2 5 5 0 3 -2 5 -5 5 -3 0 -5 -2 -5 -5z"/>
    <path d="M2140 525 c0 -3 2 -5 5 -5 3 0 5 2 5 5 0 3 -2 5 -5 5 -3 0 -5 -2 -5 -5z"/>
    <path d="M942 500 c0 -14 2 -19 5 -12 2 6 2 18 0 25 -3 6 -5 1 -5 -13z"/>
    <path d="M2333 465 c2 -43 5 -50 25 -53 20 -3 22 1 22 37 0 34 -3 41 -19 41 -11 0 -22 6 -25 13 -3 6 -4 -10 -3 -38z"/>
    <path d="M1985 477 c9 -29 51 -67 75 -67 31 0 70 19 70 34 0 18 -22 26 -49 19 -12 -3 -29 1 -39 9 -9 9 -27 18 -40 21 -20 5 -22 2 -17 -16z"/>
    <path d="M2088 493 c6 -2 18 -2 25 0 6 3 1 5 -13 5 -14 0 -19 -2 -12 -5z"/>
    <path d="M2140 479 c0 -23 59 -69 88 -69 36 0 82 34 82 61 0 23 -32 26 -50 4 -7 -8 -20 -15 -30 -15 -10 0 -23 7 -30 15 -14 17 -60 20 -60 4z"/>
    <path d="M2450 450 c0 -39 1 -40 34 -40 50 0 92 18 105 46 15 33 15 34 -13 34 -13 0 -26 -7 -30 -15 -3 -8 -15 -15 -26 -15 -11 0 -20 7 -20 15 0 9 -9 15 -25 15 -22 0 -25 -4 -25 -40z"/>
  </g>
  <g id="layer105" fill="#8190b5" stroke="none" transform="matrix(0.158414, 0, 0, 0.155247, 88.085999, -25.756281)" style="">
    <path d="M673 723 c9 -2 25 -2 35 0 9 3 1 5 -18 5 -19 0 -27 -2 -17 -5z"/>
    <path d="M620 715 c0 -3 2 -5 5 -5 3 0 5 2 5 5 0 3 -2 5 -5 5 -3 0 -5 -2 -5 -5z"/>
    <path d="M750 715 c0 -3 2 -5 5 -5 3 0 5 2 5 5 0 3 -2 5 -5 5 -3 0 -5 -2 -5 -5z"/>
    <path d="M780 705 c0 -3 2 -5 5 -5 3 0 5 2 5 5 0 3 -2 5 -5 5 -3 0 -5 -2 -5 -5z"/>
    <path d="M733 693 c4 -3 10 -3 14 0 3 4 0 7 -7 7 -7 0 -10 -3 -7 -7z"/>
    <path d="M560 685 c0 -3 2 -5 5 -5 3 0 5 2 5 5 0 3 -2 5 -5 5 -3 0 -5 -2 -5 -5z"/>
    <path d="M845 660 c10 -11 20 -20 23 -20 3 0 -3 9 -13 20 -10 11 -20 20 -23 20 -3 0 3 -9 13 -20z"/>
    <path d="M564 658 c-4 -7 -3 -8 4 -4 12 7 16 16 8 16 -3 0 -8 -5 -12 -12z"/>
    <path d="M727 639 c4 -13 8 -18 11 -10 2 7 -1 18 -6 23 -8 8 -9 4 -5 -13z"/>
    <path d="M500 625 c0 -3 2 -5 5 -5 3 0 5 2 5 5 0 3 -2 5 -5 5 -3 0 -5 -2 -5 -5z"/>
    <path d="M880 615 c0 -3 2 -5 5 -5 3 0 5 2 5 5 0 3 -2 5 -5 5 -3 0 -5 -2 -5 -5z"/>
    <path d="M510 595 c0 -3 2 -5 5 -5 3 0 5 2 5 5 0 3 -2 5 -5 5 -3 0 -5 -2 -5 -5z"/>
    <path d="M890 595 c0 -3 2 -5 5 -5 3 0 5 2 5 5 0 3 -2 5 -5 5 -3 0 -5 -2 -5 -5z"/>
    <path d="M870 585 c0 -3 2 -5 5 -5 3 0 5 2 5 5 0 3 -2 5 -5 5 -3 0 -5 -2 -5 -5z"/>
    <path d="M500 575 c0 -3 2 -5 5 -5 3 0 5 2 5 5 0 3 -2 5 -5 5 -3 0 -5 -2 -5 -5z"/>
    <path d="M810 565 c0 -3 2 -5 5 -5 3 0 5 2 5 5 0 3 -2 5 -5 5 -3 0 -5 -2 -5 -5z"/>
    <path d="M880 555 c0 -3 2 -5 5 -5 3 0 5 2 5 5 0 3 -2 5 -5 5 -3 0 -5 -2 -5 -5z"/>
    <path d="M490 540 c0 -7 3 -10 7 -7 3 4 3 10 0 14 -4 3 -7 0 -7 -7z"/>
    <path d="M810 530 c0 -7 3 -10 7 -7 3 4 3 10 0 14 -4 3 -7 0 -7 -7z"/>
    <path d="M911 524 c0 -11 3 -14 6 -6 3 7 2 16 -1 19 -3 4 -6 -2 -5 -13z"/>
    <path d="M760 525 c0 -3 2 -5 5 -5 3 0 5 2 5 5 0 3 -2 5 -5 5 -3 0 -5 -2 -5 -5z"/>
    <path d="M911 474 c0 -11 3 -14 6 -6 3 7 2 16 -1 19 -3 4 -6 -2 -5 -13z"/>
    <path d="M650 469 c0 -5 5 -7 10 -4 6 3 10 8 10 11 0 2 -4 4 -10 4 -5 0 -10 -5 -10 -11z"/>
    <path d="M790 475 c0 -3 2 -5 5 -5 3 0 5 2 5 5 0 3 -2 5 -5 5 -3 0 -5 -2 -5 -5z"/>
    <path d="M490 460 c0 -7 3 -10 7 -7 3 4 3 10 0 14 -4 3 -7 0 -7 -7z"/>
    <path d="M880 445 c0 -3 2 -5 5 -5 3 0 5 2 5 5 0 3 -2 5 -5 5 -3 0 -5 -2 -5 -5z"/>
    <path d="M500 425 c0 -3 2 -5 5 -5 3 0 5 2 5 5 0 3 -2 5 -5 5 -3 0 -5 -2 -5 -5z"/>
    <path d="M585 410 c-3 -6 1 -7 9 -4 18 7 21 14 7 14 -6 0 -13 -4 -16 -10z"/>
    <path d="M678 413 c12 -2 30 -2 40 0 9 3 -1 5 -23 4 -22 0 -30 -2 -17 -4z"/>
    <path d="M870 415 c0 -3 2 -5 5 -5 3 0 5 2 5 5 0 3 -2 5 -5 5 -3 0 -5 -2 -5 -5z"/>
    <path d="M510 405 c0 -3 2 -5 5 -5 3 0 5 2 5 5 0 3 -2 5 -5 5 -3 0 -5 -2 -5 -5z"/>
    <path d="M890 405 c0 -3 2 -5 5 -5 3 0 5 2 5 5 0 3 -2 5 -5 5 -3 0 -5 -2 -5 -5z"/>
    <path d="M570 379 c0 -4 18 -9 39 -11 22 -2 37 0 35 3 -5 9 -74 17 -74 8z"/>
    <path d="M760 385 c0 -3 2 -5 5 -5 3 0 5 2 5 5 0 3 -2 5 -5 5 -3 0 -5 -2 -5 -5z"/>
    <path d="M880 385 c0 -3 2 -5 5 -5 3 0 5 2 5 5 0 3 -2 5 -5 5 -3 0 -5 -2 -5 -5z"/>
    <path d="M500 375 c0 -3 2 -5 5 -5 3 0 5 2 5 5 0 3 -2 5 -5 5 -3 0 -5 -2 -5 -5z"/>
    <path d="M683 373 c4 -3 10 -3 14 0 3 4 0 7 -7 7 -7 0 -10 -3 -7 -7z"/>
    <path d="M731 354 c0 -11 3 -14 6 -6 3 7 2 16 -1 19 -3 4 -6 -2 -5 -13z"/>
    <path d="M844 338 l-19 -23 23 19 c21 18 27 26 19 26 -2 0 -12 -10 -23 -22z"/>
    <path d="M565 340 c3 -5 8 -10 11 -10 3 0 2 5 -1 10 -3 6 -8 10 -11 10 -3 0 -2 -4 1 -10z"/>
    <path d="M560 315 c0 -3 2 -5 5 -5 3 0 5 2 5 5 0 3 -2 5 -5 5 -3 0 -5 -2 -5 -5z"/>
    <path d="M733 303 c4 -3 10 -3 14 0 3 4 0 7 -7 7 -7 0 -10 -3 -7 -7z"/>
    <path d="M780 295 c0 -3 2 -5 5 -5 3 0 5 2 5 5 0 3 -2 5 -5 5 -3 0 -5 -2 -5 -5z"/>
    <path d="M620 285 c0 -3 2 -5 5 -5 3 0 5 2 5 5 0 3 -2 5 -5 5 -3 0 -5 -2 -5 -5z"/>
    <path d="M750 285 c0 -3 2 -5 5 -5 3 0 5 2 5 5 0 3 -2 5 -5 5 -3 0 -5 -2 -5 -5z"/>
    <path d="M673 273 c9 -2 25 -2 35 0 9 3 1 5 -18 5 -19 0 -27 -2 -17 -5z"/>
  </g>
  <g id="layer106" fill="#ffe1a0" stroke="none" transform="matrix(0.158414, 0, 0, 0.155247, 88.085999, -25.756281)" style="">
    <path d="M630 745 c0 -3 2 -5 5 -5 3 0 5 2 5 5 0 3 -2 5 -5 5 -3 0 -5 -2 -5 -5z"/>
    <path d="M740 745 c0 -3 2 -5 5 -5 3 0 5 2 5 5 0 3 -2 5 -5 5 -3 0 -5 -2 -5 -5z"/>
    <path d="M600 735 c0 -3 2 -5 5 -5 3 0 5 2 5 5 0 3 -2 5 -5 5 -3 0 -5 -2 -5 -5z"/>
    <path d="M780 735 c0 -3 2 -5 5 -5 3 0 5 2 5 5 0 3 -2 5 -5 5 -3 0 -5 -2 -5 -5z"/>
    <path d="M800 725 c0 -3 2 -5 5 -5 3 0 5 2 5 5 0 3 -2 5 -5 5 -3 0 -5 -2 -5 -5z"/>
    <path d="M820 715 c0 -3 2 -5 5 -5 3 0 5 2 5 5 0 3 -2 5 -5 5 -3 0 -5 -2 -5 -5z"/>
    <path d="M540 705 c0 -3 2 -5 5 -5 3 0 5 2 5 5 0 3 -2 5 -5 5 -3 0 -5 -2 -5 -5z"/>
    <path d="M480 645 c0 -3 2 -5 5 -5 3 0 5 2 5 5 0 3 -2 5 -5 5 -3 0 -5 -2 -5 -5z"/>
    <path d="M900 635 c0 -3 2 -5 5 -5 3 0 5 2 5 5 0 3 -2 5 -5 5 -3 0 -5 -2 -5 -5z"/>
    <path d="M910 615 c0 -3 2 -5 5 -5 3 0 5 2 5 5 0 3 -2 5 -5 5 -3 0 -5 -2 -5 -5z"/>
    <path d="M920 595 c0 -3 2 -5 5 -5 3 0 5 2 5 5 0 3 -2 5 -5 5 -3 0 -5 -2 -5 -5z"/>
    <path d="M450 585 c0 -3 2 -5 5 -5 3 0 5 2 5 5 0 3 -2 5 -5 5 -3 0 -5 -2 -5 -5z"/>
    <path d="M930 565 c0 -3 2 -5 5 -5 3 0 5 2 5 5 0 3 -2 5 -5 5 -3 0 -5 -2 -5 -5z"/>
    <path d="M440 550 c0 -7 3 -10 7 -7 3 4 3 10 0 14 -4 3 -7 0 -7 -7z"/>
    <path d="M440 450 c0 -7 3 -10 7 -7 3 4 3 10 0 14 -4 3 -7 0 -7 -7z"/>
    <path d="M930 435 c0 -3 2 -5 5 -5 3 0 5 2 5 5 0 3 -2 5 -5 5 -3 0 -5 -2 -5 -5z"/>
    <path d="M450 415 c0 -3 2 -5 5 -5 3 0 5 2 5 5 0 3 -2 5 -5 5 -3 0 -5 -2 -5 -5z"/>
    <path d="M920 405 c0 -3 2 -5 5 -5 3 0 5 2 5 5 0 3 -2 5 -5 5 -3 0 -5 -2 -5 -5z"/>
    <path d="M910 385 c0 -3 2 -5 5 -5 3 0 5 2 5 5 0 3 -2 5 -5 5 -3 0 -5 -2 -5 -5z"/>
    <path d="M900 365 c0 -3 2 -5 5 -5 3 0 5 2 5 5 0 3 -2 5 -5 5 -3 0 -5 -2 -5 -5z"/>
    <path d="M480 355 c0 -3 2 -5 5 -5 3 0 5 2 5 5 0 3 -2 5 -5 5 -3 0 -5 -2 -5 -5z"/>
    <path d="M540 295 c0 -3 2 -5 5 -5 3 0 5 2 5 5 0 3 -2 5 -5 5 -3 0 -5 -2 -5 -5z"/>
    <path d="M820 285 c0 -3 2 -5 5 -5 3 0 5 2 5 5 0 3 -2 5 -5 5 -3 0 -5 -2 -5 -5z"/>
    <path d="M800 275 c0 -3 2 -5 5 -5 3 0 5 2 5 5 0 3 -2 5 -5 5 -3 0 -5 -2 -5 -5z"/>
    <path d="M600 265 c0 -3 2 -5 5 -5 3 0 5 2 5 5 0 3 -2 5 -5 5 -3 0 -5 -2 -5 -5z"/>
    <path d="M780 265 c0 -3 2 -5 5 -5 3 0 5 2 5 5 0 3 -2 5 -5 5 -3 0 -5 -2 -5 -5z"/>
    <path d="M630 255 c0 -3 2 -5 5 -5 3 0 5 2 5 5 0 3 -2 5 -5 5 -3 0 -5 -2 -5 -5z"/>
    <path d="M743 253 c4 -3 10 -3 14 0 3 4 0 7 -7 7 -7 0 -10 -3 -7 -7z"/>
  </g>
  <g id="layer107" fill="#fcfcfc" stroke="none" transform="matrix(0.158414, 0, 0, 0.155247, 88.085999, -25.756281)" style="">
    <path d="M601 733 c-64 -23 -126 -89 -145 -154 -20 -66 -20 -92 0 -158 41 -140 216 -212 350 -143 178 92 177 353 -1 444 -53 27 -147 33 -204 11z m199 -37 c53 -27 105 -97 115 -156 23 -138 -85 -265 -225 -264 -124 1 -220 98 -220 224 0 174 173 277 330 196z" style="fill: rgb(255, 255, 255);"/>
    <path d="M629 691 c-154 -50 -181 -265 -46 -358 34 -24 50 -28 108 -28 59 0 73 4 111 30 153 107 92 346 -93 360 -29 3 -66 1 -80 -4z m111 -57 c0 -8 7 -14 15 -14 24 0 65 -46 65 -73 0 -14 -6 -30 -14 -36 -10 -8 -13 -23 -9 -46 6 -38 -17 -85 -42 -85 -8 0 -15 -9 -15 -20 0 -13 -7 -20 -20 -20 -11 0 -20 7 -20 15 0 8 -4 15 -10 15 -5 0 -10 -7 -10 -15 0 -8 -6 -15 -14 -15 -8 0 -16 7 -20 15 -3 9 -19 15 -41 15 -40 0 -44 11 -15 40 16 16 20 33 20 90 0 59 -3 73 -22 93 l-23 22 43 3 c28 2 42 8 42 18 0 8 7 14 15 14 8 0 15 -7 15 -15 0 -8 5 -15 10 -15 6 0 10 6 10 14 0 15 20 26 33 19 4 -2 7 -11 7 -19z" style="fill: rgb(255, 255, 255);"/>
    <path d="M650 550 c0 -30 1 -30 54 -30 61 0 88 19 66 45 -8 10 -31 15 -66 15 -53 0 -54 0 -54 -30z" style="fill: rgb(255, 255, 255);"/>
    <path d="M662 468 c-7 -7 -12 -20 -12 -30 0 -15 9 -18 50 -18 38 0 52 4 57 16 13 34 -67 60 -95 32z" style="fill: rgb(255, 255, 255);"/>
  </g>
</svg>