<?xml version="1.0" encoding="utf-8"?>
<svg xmlns="http://www.w3.org/2000/svg">
  <path d="M 34.149 46.631 C 34.149 34.997 43.44 25.581 54.882 25.581 C 62.74 25.581 69.586 30.019 73.106 36.583 C 73.958 38.192 75.961 38.793 77.558 37.919 C 79.152 37.044 79.744 35.026 78.878 33.413 C 74.259 24.798 65.251 18.934 54.882 18.934 C 39.796 18.934 27.582 31.343 27.582 46.631 C 27.582 61.919 39.796 74.328 54.882 74.328 C 65.25 74.328 74.259 68.463 78.878 59.848 C 79.744 58.235 79.152 56.218 77.558 55.342 C 75.961 54.468 73.958 55.069 73.106 56.678 C 69.586 63.244 62.74 67.68 54.881 67.68 C 43.439 67.68 34.148 58.265 34.148 46.63 L 34.149 46.631 Z" fill="#fff"/>
  <path d="M 59.874 43.307 C 59.877 44.722 59.28 46.073 58.232 47.023 L 58.232 54.94 L 51.664 54.94 L 51.664 47.023 C 50.615 46.073 50.019 44.722 50.022 43.307 C 50.022 40.554 52.228 38.322 54.948 38.322 C 57.668 38.322 59.874 40.554 59.874 43.307 Z M 113.183 49.693 C 112.263 51.111 110.425 52.529 108.104 52.529 C 104.644 52.529 102.237 50.047 102.237 46.679 C 102.237 43.4 104.689 40.786 107.973 40.786 C 110.031 40.786 111.738 41.849 112.877 43.356 L 116.905 39.766 C 114.935 37.196 111.651 35.468 107.973 35.468 C 101.493 35.468 96.544 40.431 96.544 46.68 C 96.544 52.884 101.361 57.847 107.929 57.847 C 111.913 57.847 115.066 56.385 117.562 53.017 L 113.183 49.693 Z M 126.759 35.911 L 121.067 35.911 L 121.067 57.404 L 126.759 57.404 L 126.759 35.911 Z M 120.191 28.289 C 120.191 30.372 121.855 31.967 123.913 31.967 C 125.971 31.967 127.635 30.372 127.635 28.289 C 127.635 26.206 125.971 24.611 123.913 24.611 C 121.855 24.611 120.191 26.206 120.191 28.289 Z M 135.528 35.911 L 129.617 35.911 L 139.381 57.404 L 143.322 57.404 L 153.087 35.911 L 147.175 35.911 L 141.352 49.028 L 135.528 35.911 Z M 161.61 35.911 L 155.918 35.911 L 155.918 57.404 L 161.61 57.404 L 161.61 35.911 Z M 155.042 28.289 C 155.042 30.372 156.706 31.967 158.764 31.967 C 160.822 31.967 162.486 30.372 162.486 28.289 C 162.486 26.206 160.822 24.611 158.764 24.611 C 156.706 24.611 155.042 26.206 155.042 28.289 Z M 182.202 49.693 C 181.282 51.111 179.443 52.529 177.123 52.529 C 173.664 52.529 171.255 50.047 171.255 46.679 C 171.255 43.4 173.707 40.786 176.991 40.786 C 179.049 40.786 180.757 41.849 181.895 43.356 L 185.924 39.766 C 183.953 37.196 180.669 35.468 176.991 35.468 C 170.511 35.468 165.563 40.431 165.563 46.68 C 165.563 52.884 170.38 57.847 176.948 57.847 C 180.932 57.847 184.085 56.385 186.581 53.017 L 182.202 49.693 Z" fill="#fff"/>
</svg>