<svg width="600" height="134" viewBox="0 0 600 134" fill="none" xmlns="http://www.w3.org/2000/svg">
  <path d="M587.4 75.8261C587.4 68.0261 582.8 62.1261 575.5 62.1261C568.2 62.1261 563.6 68.0261 563.6 75.8261C563.6 83.6261 568.2 89.5261 575.5 89.5261C582.8 89.5261 587.4 83.6261 587.4 75.8261ZM587 56.9261V36.4261C587 35.0261 587.9 33.9261 589.2 33.5261L600 30.6261V99.8261H588V93.9261C585 98.3261 579.5 100.926 572.7 100.926C558.7 100.926 550.6 89.7261 550.6 75.7261C550.6 61.7261 558.8 50.5261 572.7 50.5261C579.6 50.6261 584.5 53.5261 587 56.9261ZM513 51.7261V57.6261C515.2 53.5261 520.2 50.6261 527.3 50.6261C538.9 50.6261 545 58.3261 545 69.8261V99.9261H532V71.3261C532 65.7261 529.6 61.8261 523.8 61.8261C517.5 61.8261 514 65.8261 514 72.3261V99.9261H501V51.8261H513V51.7261ZM470.5 101.026C456.4 101.026 448.6 94.9261 448.6 79.3261V51.7261H461.6V79.5261C461.6 86.2261 464.6 89.3261 470.4 89.3261C476.2 89.3261 479.2 86.2261 479.2 79.5261V51.7261H492.2V79.3261C492.3 94.9261 484.5 101.026 470.5 101.026ZM405.5 75.8261C405.5 84.4261 410.8 89.5261 417.7 89.5261C424.6 89.5261 429.9 84.4261 429.9 75.8261C429.9 67.2261 424.6 62.1261 417.7 62.1261C410.9 62.1261 405.5 67.1261 405.5 75.8261ZM417.7 101.026C402.3 101.026 392.4 89.5261 392.4 75.8261C392.4 62.1261 402.2 50.6261 417.7 50.6261C433.1 50.6261 443 62.1261 443 75.8261C443 89.5261 433.2 101.026 417.7 101.026ZM352.7 75.8261C352.7 83.6261 357.3 89.5261 364.6 89.5261C371.9 89.5261 376.5 83.6261 376.5 75.8261C376.5 68.0261 371.9 62.1261 364.6 62.1261C357.3 62.1261 352.7 68.0261 352.7 75.8261ZM353.1 94.7261V114.726C353.1 116.126 352.2 117.226 350.9 117.626L340.1 120.426V51.7261H352.1V57.6261C355.1 53.2261 360.6 50.6261 367.4 50.6261C381.4 50.6261 389.5 61.8261 389.5 75.8261C389.5 89.8261 381.3 101.026 367.4 101.026C360.5 101.026 355.6 98.0261 353.1 94.7261ZM301.3 72.5261V99.9261H288.3V71.3261C288.3 66.0261 286.4 61.8261 280.6 61.8261C274.5 61.8261 271.2 65.7261 271.2 72.2261V99.9261H258.2V51.7261H270.2V57.6261C272.4 53.5261 277.2 50.6261 284.1 50.6261C290.6 50.6261 295.3 53.2261 298.1 57.4261C302.3 52.7261 307.2 50.6261 314.1 50.6261C325.7 50.6261 331.6 58.6261 331.6 69.8261V99.9261H318.6V71.3261C318.6 66.0261 316.7 61.8261 310.9 61.8261C304.5 61.8261 301.3 65.8261 301.3 72.5261ZM214.6 75.8261C214.6 84.4261 219.9 89.5261 226.8 89.5261C233.7 89.5261 239 84.4261 239 75.8261C239 67.2261 233.7 62.1261 226.8 62.1261C219.9 62.1261 214.6 67.1261 214.6 75.8261ZM226.8 101.026C211.4 101.026 201.5 89.5261 201.5 75.8261C201.5 62.1261 211.3 50.6261 226.8 50.6261C242.3 50.6261 252.1 62.1261 252.1 75.8261C252.1 89.5261 242.2 101.026 226.8 101.026ZM133.8 67.1261C133.8 46.7261 147.9 33.2261 166.6 33.2261C182.9 33.2261 195.7 42.8261 198.2 58.7261H183.9C182 50.5261 175.4 45.9261 166.6 45.9261C154.7 45.9261 147.9 54.2261 147.9 67.0261C147.9 79.9261 154.6 88.1261 166.6 88.1261C175.3 88.1261 181.9 83.5261 183.9 75.3261H198.2C195.7 91.2261 182.9 100.826 166.6 100.826C147.9 101.126 133.8 87.5261 133.8 67.1261Z" fill="black"/>
  <path d="M5.4 103.926C2.1 101.926 0 98.2261 0 94.4261V72.7261C0 71.9261 0.2 71.1261 0.6 70.4261C1.9 68.2261 4.8 67.4261 7 68.7261L56 97.3261C58.9 99.0261 60.6 102.026 60.6 105.426V127.926C60.6 128.926 60.3 129.926 59.8 130.826C58.2 133.426 54.7 134.326 52.1 132.726L5.4 103.926ZM78.5 62.7261C81.4 64.4261 83.1 67.4261 83.1 70.8261V116.526C83.1 117.926 82.4 119.126 81.2 119.826L70.5 125.826C70.4 125.926 70.2 125.926 70.1 126.026V100.726C70.1 97.4261 68.4 94.4261 65.6 92.7261L22.6 67.0261V38.1261C22.6 37.3261 22.8 36.5261 23.2 35.8261C24.5 33.6261 27.4 32.8261 29.6 34.1261L78.5 62.7261ZM99.9 28.9261C102.8 30.6261 104.5 33.6261 104.5 37.0261V103.726C104.5 105.126 103.7 106.326 102.5 107.026L92.3 112.526V66.1261C92.3 62.8261 90.6 59.8261 87.8 58.1261L43.8 31.7261V4.62612C43.8 3.82612 44 3.02613 44.4 2.32613C45.7 0.126133 48.6 -0.673879 50.8 0.626121L99.9 28.9261Z" fill="#00D395"/>
</svg>
