<?xml version="1.0" encoding="utf-8"?>
<svg viewBox="242.66 42.314 145.941 29.361" xmlns="http://www.w3.org/2000/svg">
  <g id="layer1" transform="matrix(1, 0, 0, 1, 339.451874, -191.387634)">
    <g data-name="&lt;Group&gt;" id="_Group_" transform="matrix(0.26458333,0,0,0.26458333,-108.91974,222.35589)">
      <g data-name="&lt;Group&gt;" id="_Group_2">
        <path d="m 106.47,111.27 h 31.43 a 21.18,21.18 0 0 0 0,-42.36 h -10 L 106.47,50.32 h 31.43 a 39.78,39.78 0 0 1 15,76.62 l 24.78,21.51 H 149.3 Z" class="cls-1" data-name="&lt;Path&gt;" id="_Path_" style="fill:#2ed7a2"/>
      </g>
      <g data-name="&lt;Group&gt;" id="_Group_3">
        <path d="M 121.81,87.51 H 90.38 a 21.18,21.18 0 0 0 0,42.36 h 10 l 21.42,18.59 H 90.38 a 39.78,39.78 0 0 1 -15,-76.62 L 50.62,50.32 H 79 Z" class="cls-2" data-name="&lt;Path&gt;" id="_Path_2" style="fill:#2972ff"/>
      </g>
      <path d="m 347.21,118.38 v -0.17 c 0,-17.64 13.57,-31.47 31.9,-31.47 12.36,0 20.32,5.19 25.68,12.62 l -12.62,9.77 c -3.46,-4.32 -7.43,-7.09 -13.22,-7.09 -8.47,0 -14.44,7.18 -14.44,16 v 0.17 c 0,9.07 6,16.16 14.44,16.16 6.31,0 10,-2.94 13.66,-7.35 l 12.62,9 c -5.71,7.87 -13.4,13.66 -26.8,13.66 -17.3,0 -31.22,-13.23 -31.22,-31.3 z" class="cls-3" data-name="&lt;Compound Path&gt;" id="_Compound_Path_" style="fill: rgb(255, 255, 255);"/>
      <path d="M 411.2,87.51 H 440 c 9.31,0 15.76,2.44 19.85,6.62 3.57,3.48 5.4,8.18 5.4,14.19 v 0.17 c 0,9.31 -5,15.5 -12.54,18.72 l 14.54,21.24 h -19.5 L 435.49,130 h -7.4 v 18.46 H 411.2 Z m 28,29.25 c 5.75,0 9.05,-2.79 9.05,-7.23 v -0.17 c 0,-4.79 -3.48,-7.23 -9.14,-7.23 h -11.02 v 14.62 z" class="cls-3" data-name="&lt;Compound Path&gt;" id="_Compound_Path_2" style="fill: rgb(255, 255, 255);"/>
      <path d="m 473.19,87.52 h 49 v 14.37 h -32.3 v 9.23 h 29.25 v 13.32 h -29.23 v 9.66 h 32.74 v 14.37 h -49.46 z" class="cls-3" data-name="&lt;Compound Path&gt;" id="_Compound_Path_3" style="fill: rgb(255, 255, 255);"/>
      <path d="M 531.49,87.52 H 555 c 21.77,0 34.39,12.54 34.39,30.12 v 0.18 c 0,17.59 -12.8,30.65 -34.74,30.65 h -23.16 z m 23.77,46 c 10.1,0 16.8,-5.57 16.8,-15.41 v -0.17 c 0,-9.75 -6.7,-15.41 -16.8,-15.41 h -6.88 v 31 z" class="cls-3" data-name="&lt;Compound Path&gt;" id="_Compound_Path_4" style="fill: rgb(255, 255, 255);"/>
      <path d="m 312.76,149.61 c -17.89,0 -30.87,-13.18 -30.87,-31.34 0,-17.93 12.62,-31.46 29.36,-31.46 9,0 16.41,3.34 21.53,9.66 4.67,5.76 7.24,13.88 7.24,22.85 0,1 -0.08,2 -0.17,3.09 h -45.49 l 0.14,0.88 c 1.63,10 8.72,16.28 18.49,16.28 6.43,0 11.46,-2.12 16.71,-7.08 l 7.21,6.4 c -6.25,7.21 -14.16,10.72 -24.15,10.72 z m -1.63,-52.76 c -8.79,0 -15.37,6.63 -16.74,16.88 l -0.11,0.86 h 33.32 l -0.09,-0.83 c -1.06,-10.43 -7.34,-16.91 -16.39,-16.91 z" class="cls-3" data-name="&lt;Compound Path&gt;" id="_Compound_Path_5" style="fill: rgb(255, 255, 255);"/>
      <path d="m 239.39,149.61 c -13.89,0 -27.95,-10.81 -27.95,-31.46 0,-20.65 14.06,-31.46 27.95,-31.46 8.25,0 15,3.47 20.49,10.6 L 261.25,99 V 59.62 h 12.65 v 88.84 h -12.65 v -12.08 l -1.38,1.95 c -5.39,7.59 -12.08,11.28 -20.48,11.28 z m 3.4,-52.14 c -10.93,0 -18.57,8.5 -18.57,20.68 0,12 7.81,20.68 18.57,20.68 10.76,0 18.69,-8.89 18.69,-20.68 0,-11.79 -8.03,-20.68 -18.69,-20.68 z" class="cls-3" data-name="&lt;Compound Path&gt;" id="_Compound_Path_6" style="fill: rgb(255, 255, 255);"/>
    </g>
  </g>
</svg>