<?xml version="1.0" encoding="utf-8"?>
<svg viewBox="61.313 0 438.687 136.442" xmlns="http://www.w3.org/2000/svg">
  <path d="M 97.051 51.426 L 97.051 2.437 L 63.627 69.876 L 97.051 51.426 Z" style="" fill="#8891B1"/>
  <path d="M 97.051 93.905 L 97.051 51.426 L 63.627 69.876 L 97.051 93.905 Z M 97.051 51.426 L 130.516 69.876 L 97.051 2.437 L 97.051 51.426 Z" style="" fill="#63688E"/>
  <path fill="#464A75" d="M 97.051 51.426 L 97.051 93.905 L 130.516 69.876 L 97.051 51.426 Z" style=""/>
  <path fill="#8891B1" d="M 97.051 101.589 L 63.627 77.608 L 97.051 134.867 L 97.051 101.589 Z" style=""/>
  <path fill="#63688E" d="M 130.516 77.608 L 97.051 101.589 L 97.051 134.867 L 130.516 77.608 Z" style=""/>
  <path d="M 186.412 78.979 C 186.412 79.908 185.728 80.741 184.963 80.741 L 158.223 80.741 C 158.907 88.473 163.861 96.009 170.867 96.009 C 175.66 96.009 179.204 93.759 181.901 89.06 C 182.184 88.57 182.586 88.228 183.07 88.228 C 183.835 88.228 184.398 88.913 184.398 89.843 C 184.398 90.185 184.318 90.431 184.197 90.676 C 181.499 96.401 176.143 99.191 170.867 99.191 C 161.847 99.191 155.444 89.402 155.444 78.93 C 155.444 68.456 161.847 58.717 170.867 58.717 C 179.888 58.717 186.412 68.506 186.412 78.979 Z M 183.512 77.413 C 182.949 69.142 177.874 62.046 170.867 62.046 C 163.861 62.046 158.867 69.142 158.223 77.413 L 183.512 77.413 Z M 218.91 59.255 C 219.675 59.255 220.239 60.088 220.239 60.92 C 220.239 61.849 219.675 62.584 218.91 62.584 L 211.742 62.584 L 211.742 96.94 C 211.742 97.772 211.138 98.554 210.373 98.554 C 209.608 98.554 209.004 97.723 209.004 96.94 L 209.004 62.584 L 202.117 62.584 C 201.352 62.584 200.789 61.849 200.789 60.92 C 200.789 60.088 201.352 59.255 202.117 59.255 L 209.004 59.255 L 209.004 46.826 C 209.004 45.896 209.608 45.211 210.373 45.211 C 211.138 45.211 211.742 45.896 211.742 46.826 L 211.742 59.255 L 218.91 59.255 Z M 262.483 75.944 L 262.483 96.694 C 262.483 97.625 262.04 98.309 261.355 98.309 C 260.59 98.309 260.228 97.625 260.228 96.694 L 260.228 75.944 C 260.228 68.946 256.886 61.947 250.442 61.947 C 242.187 61.947 238.522 70.708 238.965 79.664 C 238.965 79.908 238.925 80.936 238.925 81.082 L 238.925 96.694 C 238.925 97.625 238.563 98.309 237.798 98.309 C 237.033 98.309 236.67 97.625 236.67 96.694 L 236.67 28.522 C 236.67 27.69 237.033 26.907 237.798 26.907 C 238.563 26.907 238.925 27.739 238.925 28.522 L 238.925 67.086 C 241.664 62.095 245.328 58.717 250.12 58.717 C 257.972 58.717 262.483 67.086 262.483 75.944 Z M 310.728 78.979 C 310.728 79.908 310.042 80.741 309.277 80.741 L 282.538 80.741 C 283.223 88.473 288.176 96.009 295.183 96.009 C 299.975 96.009 303.519 93.759 306.217 89.06 C 306.499 88.57 306.901 88.228 307.385 88.228 C 308.15 88.228 308.714 88.913 308.714 89.843 C 308.714 90.185 308.633 90.431 308.512 90.676 C 305.815 96.401 300.458 99.191 295.183 99.191 C 286.162 99.191 279.759 89.402 279.759 78.93 C 279.759 68.456 286.162 58.717 295.183 58.717 C 304.204 58.717 310.728 68.506 310.728 78.979 Z M 307.868 77.413 C 307.305 69.142 302.23 62.046 295.223 62.046 C 288.216 62.046 283.223 69.142 282.579 77.413 L 307.868 77.413 Z M 343.628 60.92 C 343.628 61.947 343.145 62.535 342.34 62.681 C 334.487 64.101 330.903 71.882 330.903 80.985 L 330.903 96.548 C 330.903 97.477 330.299 98.163 329.534 98.163 C 328.769 98.163 328.165 97.477 328.165 96.548 L 328.165 61.018 C 328.165 60.088 328.769 59.403 329.534 59.403 C 330.299 59.403 330.903 60.088 330.903 61.018 L 330.903 68.261 C 333.158 63.71 337.547 59.403 342.138 59.403 C 342.823 59.403 343.628 59.989 343.628 60.92 Z M 387.604 78.979 C 387.604 79.908 386.919 80.741 386.154 80.741 L 359.415 80.741 C 360.099 88.473 365.053 96.009 372.059 96.009 C 376.852 96.009 380.396 93.759 383.093 89.06 C 383.376 88.57 383.778 88.228 384.262 88.228 C 385.027 88.228 385.59 88.913 385.59 89.843 C 385.59 90.185 385.51 90.431 385.389 90.676 C 382.691 96.401 377.335 99.191 372.059 99.191 C 363.039 99.191 356.636 89.402 356.636 78.93 C 356.636 68.456 363.039 58.717 372.059 58.717 C 381.08 58.669 387.604 68.506 387.604 78.979 Z M 384.745 77.413 C 384.181 69.142 379.107 62.046 372.1 62.046 C 365.093 62.046 360.099 69.142 359.455 77.413 L 384.745 77.413 Z M 431.056 61.263 L 431.056 96.891 C 431.056 97.82 430.371 98.506 429.687 98.506 C 428.922 98.506 428.318 97.82 428.318 96.891 L 428.318 90.185 C 426.063 95.52 422.156 99.386 417.163 99.386 C 409.189 99.386 404.759 91.017 404.759 82.16 L 404.759 61.312 C 404.759 60.48 405.363 59.697 406.128 59.697 C 406.893 59.697 407.498 60.529 407.498 61.312 L 407.498 82.16 C 407.498 89.159 410.76 96.157 417.203 96.157 C 426.223 96.157 428.358 85.928 428.358 74.623 L 428.358 61.361 C 428.358 60.529 428.962 59.746 429.727 59.746 C 430.371 59.647 431.056 60.48 431.056 61.263 Z M 498.549 75.847 L 498.549 96.694 C 498.549 97.625 497.865 98.309 497.18 98.309 C 496.415 98.309 495.81 97.625 495.81 96.694 L 495.81 75.847 C 495.81 68.848 492.549 61.997 486.106 61.997 C 478.052 61.997 474.95 72.469 474.95 80.642 L 474.95 96.694 C 474.95 97.625 474.266 98.309 473.581 98.309 C 472.816 98.309 472.212 97.625 472.212 96.694 L 472.212 75.847 C 472.212 68.848 469.031 61.997 462.628 61.997 C 454.493 61.997 451.11 69.778 451.393 80.153 L 451.393 96.694 C 451.393 97.625 450.789 98.309 450.024 98.309 C 449.259 98.309 448.654 97.625 448.654 96.694 L 448.654 61.066 C 448.654 60.137 449.259 59.452 450.024 59.452 C 450.789 59.452 451.393 60.137 451.393 61.066 L 451.393 66.988 C 453.648 61.997 457.876 58.717 462.668 58.717 C 468.145 58.717 472.374 62.927 474.106 69.093 C 476.32 63.024 480.629 58.717 486.186 58.717 C 494.08 58.717 498.549 66.988 498.549 75.847 Z" style="fill: rgb(255, 255, 255);"/>
</svg>