<?xml version="1.0" encoding="utf-8"?>
<svg viewBox="287.565 5.181 145.077 37.997" xmlns="http://www.w3.org/2000/svg">
  <path d="M 316.956 39.18 C 314.309 39.18 312.156 37.026 312.156 34.379 L 312.156 25.542 C 316.527 25.204 319.689 24.278 321.757 22.766 L 321.757 34.379 C 321.757 37.026 319.603 39.18 316.956 39.18 Z M 312.156 13.98 C 312.156 11.333 314.309 9.18 316.956 9.18 C 319.603 9.18 321.757 11.333 321.757 13.98 L 321.757 16.88 C 321.71 17.9 321.488 18.947 320.59 19.849 C 319.539 20.904 317.213 22.094 312.156 22.521 L 312.156 13.98 Z M 301.325 34.379 C 301.325 37.026 299.172 39.18 296.525 39.18 C 293.878 39.18 291.724 37.026 291.724 34.379 L 291.724 31.688 C 291.772 30.708 292.008 29.639 292.978 28.662 C 294.07 27.561 296.396 26.325 301.325 25.862 L 301.325 34.379 Z M 296.525 9.18 C 299.172 9.18 301.325 11.333 301.325 13.98 L 301.325 22.844 C 296.987 23.216 293.823 24.204 291.724 25.812 L 291.724 13.98 C 291.724 11.333 293.878 9.18 296.525 9.18 Z M 324.764 15.689 L 324.756 15.179 L 324.756 13.98 C 324.756 9.679 321.257 6.18 316.956 6.18 C 312.655 6.18 309.156 9.679 309.156 13.98 L 309.156 22.665 C 308.398 22.68 305.117 22.676 304.325 22.694 L 304.325 13.98 C 304.325 9.679 300.825 6.18 296.525 6.18 C 292.224 6.18 288.724 9.679 288.724 13.98 L 288.724 31.539 C 288.7 32.016 288.71 32.441 288.718 32.791 L 288.724 33.18 L 288.724 34.379 C 288.724 38.68 292.224 42.18 296.525 42.18 C 300.825 42.18 304.325 38.68 304.325 34.379 L 304.325 25.7 C 305.091 25.681 308.373 25.687 309.156 25.673 L 309.156 34.379 C 309.156 38.68 312.655 42.18 316.956 42.18 C 321.257 42.18 324.756 38.68 324.756 34.379 L 324.756 17.042 C 324.781 16.541 324.772 16.081 324.764 15.689 Z" style="fill: rgb(255, 255, 255);"/>
  <path d="M 338.879 32.455 L 338.879 15.925 C 338.879 15.83 338.956 15.753 339.051 15.753 L 341.573 15.753 C 341.667 15.753 341.744 15.83 341.744 15.925 L 341.744 22.855 L 350.393 22.855 L 350.393 15.925 C 350.393 15.83 350.47 15.753 350.565 15.753 L 353.087 15.753 C 353.181 15.753 353.258 15.83 353.258 15.925 L 353.258 32.455 C 353.258 32.55 353.181 32.627 353.087 32.627 L 350.565 32.627 C 350.47 32.627 350.393 32.55 350.393 32.455 L 350.393 25.518 L 341.744 25.518 L 341.744 32.455 C 341.744 32.55 341.667 32.627 341.573 32.627 L 339.051 32.627 C 338.956 32.627 338.879 32.55 338.879 32.455 Z" style="fill: rgb(255, 255, 255);"/>
  <path d="M 360.636 23.719 C 358.734 23.719 357.548 25.13 357.548 27.099 C 357.548 29.068 358.712 30.456 360.614 30.456 C 362.516 30.456 363.747 29.091 363.747 27.099 C 363.747 25.107 362.538 23.719 360.636 23.719 Z M 366.522 21.742 L 366.522 32.455 C 366.522 32.55 366.445 32.627 366.351 32.627 L 364.125 32.627 C 364.037 32.627 363.964 32.56 363.955 32.473 L 363.791 30.904 C 363.098 32.045 361.777 32.917 359.987 32.917 C 356.697 32.917 354.818 30.411 354.818 26.964 C 354.818 23.496 356.899 21.235 360.01 21.235 C 361.666 21.235 363.21 21.952 363.881 23.272 L 364.023 21.727 C 364.031 21.638 364.105 21.571 364.194 21.571 L 366.351 21.571 C 366.445 21.571 366.522 21.648 366.522 21.742 Z" style="fill: rgb(255, 255, 255);"/>
  <path d="M 375.321 23.884 C 375.321 23.978 375.244 24.055 375.15 24.055 L 374.314 24.055 C 372.345 24.055 371.114 25.107 371.114 27.256 L 371.114 32.455 C 371.114 32.55 371.037 32.627 370.942 32.627 L 368.555 32.627 C 368.46 32.627 368.383 32.55 368.383 32.455 L 368.383 21.765 C 368.383 21.67 368.46 21.594 368.555 21.594 L 370.802 21.594 C 370.89 21.594 370.964 21.661 370.972 21.749 L 371.114 23.205 C 371.583 22.108 372.636 21.418 374.112 21.418 C 374.454 21.418 374.796 21.415 375.187 21.496 C 375.265 21.512 375.321 21.584 375.321 21.664 L 375.321 23.884 Z" style="fill: rgb(255, 255, 255);"/>
  <path d="M 376.738 32.455 L 376.738 21.742 C 376.738 21.648 376.814 21.571 376.909 21.571 L 379.1 21.571 C 379.183 21.571 379.254 21.631 379.269 21.713 L 379.468 22.869 C 380.027 21.952 381.146 21.235 382.735 21.235 C 384.414 21.235 385.577 22.063 386.159 23.339 C 386.719 22.063 388.017 21.235 389.695 21.235 C 392.381 21.235 393.858 22.847 393.858 25.398 L 393.858 32.455 C 393.858 32.55 393.781 32.627 393.686 32.627 L 391.321 32.627 C 391.226 32.627 391.15 32.55 391.15 32.455 L 391.15 26.114 C 391.15 24.525 390.3 23.697 389.001 23.697 C 387.681 23.697 386.674 24.548 386.674 26.36 L 386.674 32.455 C 386.674 32.55 386.597 32.627 386.503 32.627 L 384.115 32.627 C 384.021 32.627 383.944 32.55 383.944 32.455 L 383.944 26.092 C 383.944 24.548 383.116 23.719 381.818 23.719 C 380.52 23.719 379.468 24.57 379.468 26.36 L 379.468 32.455 C 379.468 32.55 379.391 32.627 379.296 32.627 L 376.909 32.627 C 376.814 32.627 376.738 32.55 376.738 32.455 Z" style="fill: rgb(255, 255, 255);"/>
  <path d="M 401.111 30.456 C 402.99 30.456 404.289 29.091 404.289 27.076 C 404.289 25.063 402.99 23.697 401.111 23.697 C 399.231 23.697 397.933 25.063 397.933 27.076 C 397.933 29.091 399.231 30.456 401.111 30.456 Z M 401.111 21.258 C 404.535 21.258 407.019 23.63 407.019 27.076 C 407.019 30.523 404.535 32.895 401.111 32.895 C 397.687 32.895 395.203 30.523 395.203 27.076 C 395.203 23.63 397.687 21.258 401.111 21.258 Z" style="fill: rgb(255, 255, 255);"/>
  <path d="M 408.445 32.455 L 408.445 21.742 C 408.445 21.648 408.522 21.571 408.617 21.571 L 410.828 21.571 C 410.912 21.571 410.984 21.633 410.997 21.716 L 411.198 23.003 C 411.892 21.885 413.235 21.235 414.734 21.235 C 417.509 21.235 418.941 22.959 418.941 25.824 L 418.941 32.455 C 418.941 32.55 418.864 32.627 418.77 32.627 L 416.382 32.627 C 416.288 32.627 416.211 32.55 416.211 32.455 L 416.211 26.472 C 416.211 24.615 415.294 23.719 413.884 23.719 C 412.205 23.719 411.176 24.883 411.176 26.674 L 411.176 32.455 C 411.176 32.55 411.099 32.627 411.004 32.627 L 408.617 32.627 C 408.522 32.627 408.445 32.55 408.445 32.455 Z" style="fill: rgb(255, 255, 255);"/>
  <path d="M 431.327 21.571 L 428.792 21.571 C 428.721 21.571 428.658 21.615 428.632 21.681 L 425.398 30.07 L 422.283 21.685 C 422.259 21.617 422.195 21.571 422.122 21.571 L 419.52 21.571 C 419.4 21.571 419.317 21.692 419.361 21.804 L 423.336 32.074 C 423.465 32.407 423.785 32.627 424.143 32.627 L 424.412 32.627 L 422.446 37.69 C 422.403 37.802 422.485 37.922 422.606 37.922 L 425.104 37.922 C 425.175 37.922 425.239 37.878 425.264 37.811 L 431.486 21.806 C 431.531 21.694 431.448 21.571 431.327 21.571 Z" style="fill: rgb(255, 255, 255);"/>
</svg>