<svg width="82" height="29" viewBox="0 0 82 29" fill="none" xmlns="http://www.w3.org/2000/svg">
<g clip-path="url(#clip0)">
<path d="M5.11855 7.79297H0.718262V26.3144H5.11855V7.79297Z" fill="white"/>
<path d="M21.3401 7.30341H28.1562V2.93188H21.3401C14.8691 2.93188 9.63477 8.16621 9.63477 14.6372C9.63477 21.1082 14.8691 26.3425 21.3401 26.3425H28.1562V21.9423H21.3401C17.3137 21.9423 14.035 18.6636 14.035 14.6372C14.0063 10.5821 17.2849 7.30341 21.3401 7.30341Z" fill="white"/>
<path d="M71.036 2.93188C65.2553 2.93188 60.5674 7.61977 60.5674 13.4005V26.3138H64.9677V13.4005C64.9677 10.0356 67.6999 7.30341 71.0648 7.30341C74.4297 7.30341 77.1619 10.0356 77.1619 13.4005V26.3138H81.5622V13.4005C81.5334 7.61977 76.8168 2.93188 71.036 2.93188Z" fill="white"/>
<path d="M5.80921 2.35801C6.21185 4.42873 4.42873 6.18309 2.35801 5.80921C1.20761 5.57913 0.287288 4.65881 0.0572079 3.50841C-0.345432 1.43769 1.43769 -0.345432 3.50841 0.0572079C4.63005 0.258528 5.57913 1.20761 5.80921 2.35801Z" fill="white"/>
<path d="M54.4129 7.65283L51.2781 10.7877C51.9683 11.9093 52.3422 13.2035 52.3422 14.584C52.3422 18.6104 49.0923 21.8603 45.0659 21.8603C43.6567 21.8603 42.3625 21.4577 41.2696 20.7962L38.1348 23.931C40.0617 25.369 42.4775 26.2318 45.0947 26.2318C51.5369 26.2318 56.7425 21.0262 56.7425 14.584C56.7138 11.9956 55.851 9.60851 54.4129 7.65283Z" fill="#32B8BB"/>
<path d="M37.7611 14.6141C37.7611 10.5877 41.011 7.33783 45.0374 7.33783C46.4467 7.33783 47.7409 7.74047 48.8337 8.40196L51.9686 5.26711C50.0417 3.82911 47.6258 2.96631 45.0087 2.96631C38.5664 2.96631 33.3608 8.17188 33.3608 14.6141C33.3608 17.2313 34.2236 19.6184 35.6616 21.574L38.854 18.4104C38.1638 17.3176 37.7611 15.9946 37.7611 14.6141Z" fill="#32B8BB"/>
<path d="M59.5619 2.38972C59.9645 4.43168 58.1814 6.2148 56.1394 5.81216C54.989 5.58208 54.0687 4.66176 53.8386 3.51136C53.4648 1.4694 55.2191 -0.284965 57.2898 0.0889158C58.4402 0.318996 59.3606 1.23932 59.5619 2.38972Z" fill="#32B8BB"/>
<path d="M36.2082 25.6847C36.6109 27.7267 34.8277 29.5098 32.7858 29.1071C31.6354 28.8771 30.715 27.9567 30.485 26.8063C30.0823 24.7644 31.8655 22.9813 33.9074 23.3839C35.0578 23.614 36.0069 24.5631 36.2082 25.6847Z" fill="#32B8BB"/>
</g>
<defs>
<clipPath id="clip0">
<rect width="81.5625" height="29" fill="white"/>
</clipPath>
</defs>
</svg>
