<?xml version="1.0" encoding="utf-8"?>
<svg viewBox="164.94 0 335.06 90.674" xmlns="http://www.w3.org/2000/svg">
  <path d="M 231.989 13.075 C 234.877 13.075 237.218 10.767 237.218 7.918 C 237.218 5.07 234.877 2.761 231.989 2.761 C 229.101 2.761 226.761 5.07 226.761 7.918 C 226.761 10.767 229.101 13.075 231.989 13.075 Z" fill="#F6F8FC" style=""/>
  <path d="M 237.868 85.924 C 240.755 85.924 243.096 83.614 243.096 80.766 C 243.096 77.918 240.755 75.609 237.868 75.609 C 234.98 75.609 232.638 77.918 232.638 80.766 C 232.638 83.614 234.98 85.924 237.868 85.924 Z" fill="#F6F8FC" style=""/>
  <path d="M 233.482 25.968 C 235.906 25.968 237.87 24.03 237.87 21.64 C 237.87 19.249 235.906 17.311 233.482 17.311 C 231.058 17.311 229.093 19.249 229.093 21.64 C 229.093 24.03 231.058 25.968 233.482 25.968 Z" fill="#F6F8FC" style=""/>
  <path d="M 245.152 27.625 C 247.576 27.625 249.541 25.687 249.541 23.296 C 249.541 20.906 247.576 18.968 245.152 18.968 C 242.728 18.968 240.764 20.906 240.764 23.296 C 240.764 25.687 242.728 27.625 245.152 27.625 Z" fill="#F6F8FC" style=""/>
  <path d="M 231.987 36.929 C 234.049 36.929 235.722 35.28 235.722 33.246 C 235.722 31.211 234.049 29.561 231.987 29.561 C 229.924 29.561 228.252 31.211 228.252 33.246 C 228.252 35.28 229.924 36.929 231.987 36.929 Z" fill="#F6F8FC" style=""/>
  <path d="M 243.657 38.495 C 245.72 38.495 247.392 36.846 247.392 34.811 C 247.392 32.776 245.72 31.127 243.657 31.127 C 241.594 31.127 239.921 32.776 239.921 34.811 C 239.921 36.846 241.594 38.495 243.657 38.495 Z" fill="#F6F8FC" style=""/>
  <path d="M 252.995 42.085 C 255.057 42.085 256.729 40.436 256.729 38.401 C 256.729 36.367 255.057 34.718 252.995 34.718 C 250.931 34.718 249.259 36.367 249.259 38.401 C 249.259 40.436 250.931 42.085 252.995 42.085 Z" fill="#F6F8FC" style=""/>
  <path d="M 240.208 47.335 C 242.013 47.335 243.476 45.892 243.476 44.112 C 243.476 42.331 242.013 40.888 240.208 40.888 C 238.403 40.888 236.94 42.331 236.94 44.112 C 236.94 45.892 238.403 47.335 240.208 47.335 Z" fill="#F6F8FC" style=""/>
  <path d="M 228.538 45.769 C 230.343 45.769 231.806 44.326 231.806 42.546 C 231.806 40.766 230.343 39.322 228.538 39.322 C 226.733 39.322 225.269 40.766 225.269 42.546 C 225.269 44.326 226.733 45.769 228.538 45.769 Z" fill="#F6F8FC" style=""/>
  <path d="M 249.639 50.925 C 251.444 50.925 252.907 49.481 252.907 47.701 C 252.907 45.921 251.444 44.478 249.639 44.478 C 247.835 44.478 246.371 45.921 246.371 47.701 C 246.371 49.481 247.835 50.925 249.639 50.925 Z" fill="#F6F8FC" style=""/>
  <path d="M 235.54 54.056 C 237.087 54.056 238.34 52.818 238.34 51.293 C 238.34 49.767 237.087 48.53 235.54 48.53 C 233.992 48.53 232.739 49.767 232.739 51.293 C 232.739 52.818 233.992 54.056 235.54 54.056 Z" fill="#F6F8FC" style=""/>
  <path d="M 244.971 57.557 C 246.518 57.557 247.772 56.32 247.772 54.794 C 247.772 53.268 246.518 52.032 244.971 52.032 C 243.424 52.032 242.169 53.268 242.169 54.794 C 242.169 56.32 243.424 57.557 244.971 57.557 Z" fill="#F6F8FC" style=""/>
  <path d="M 223.962 52.398 C 225.509 52.398 226.763 51.161 226.763 49.635 C 226.763 48.109 225.509 46.873 223.962 46.873 C 222.415 46.873 221.161 48.109 221.161 49.635 C 221.161 51.161 222.415 52.398 223.962 52.398 Z" fill="#F6F8FC" style=""/>
  <path d="M 230.4 58.569 C 231.688 58.569 232.734 57.538 232.734 56.266 C 232.734 54.995 231.688 53.964 230.4 53.964 C 229.11 53.964 228.065 54.995 228.065 56.266 C 228.065 57.538 229.11 58.569 230.4 58.569 Z" fill="#F6F8FC" style=""/>
  <path d="M 234.415 64.924 C 235.549 64.924 236.469 64.017 236.469 62.899 C 236.469 61.779 235.549 60.872 234.415 60.872 C 233.28 60.872 232.36 61.779 232.36 62.899 C 232.36 64.017 233.28 64.924 234.415 64.924 Z" fill="#F6F8FC" style=""/>
  <path d="M 229.468 66.215 C 230.397 66.215 231.149 65.473 231.149 64.557 C 231.149 63.642 230.397 62.9 229.468 62.9 C 228.54 62.9 227.788 63.642 227.788 64.557 C 227.788 65.473 228.54 66.215 229.468 66.215 Z" fill="#F6F8FC" style=""/>
  <path d="M 225.076 61.426 C 226.211 61.426 227.13 60.519 227.13 59.4 C 227.13 58.281 226.211 57.374 225.076 57.374 C 223.942 57.374 223.022 58.281 223.022 59.4 C 223.022 60.519 223.942 61.426 225.076 61.426 Z" fill="#F6F8FC" style=""/>
  <path d="M 218.729 57.006 C 220.019 57.006 221.064 55.976 221.064 54.704 C 221.064 53.433 220.019 52.402 218.729 52.402 C 217.44 52.402 216.394 53.433 216.394 54.704 C 216.394 55.976 217.44 57.006 218.729 57.006 Z" fill="#F6F8FC" style=""/>
  <path d="M 218.636 39.688 C 219.926 39.688 220.971 38.658 220.971 37.386 C 220.971 36.115 219.926 35.084 218.636 35.084 C 217.348 35.084 216.303 36.115 216.303 37.386 C 216.303 38.658 217.348 39.688 218.636 39.688 Z" fill="#F6F8FC" style=""/>
  <path d="M 219.662 31.585 C 220.797 31.585 221.716 30.678 221.716 29.56 C 221.716 28.44 220.797 27.533 219.662 27.533 C 218.528 27.533 217.608 28.44 217.608 29.56 C 217.608 30.678 218.528 31.585 219.662 31.585 Z" fill="#F6F8FC" style=""/>
  <path d="M 221.907 24.957 C 222.835 24.957 223.587 24.214 223.587 23.299 C 223.587 22.383 222.835 21.642 221.907 21.642 C 220.978 21.642 220.226 22.383 220.226 23.299 C 220.226 24.214 220.978 24.957 221.907 24.957 Z" fill="#F6F8FC" style=""/>
  <path d="M 217.986 21.825 C 219.121 21.825 220.04 20.918 220.04 19.799 C 220.04 18.68 219.121 17.773 217.986 17.773 C 216.852 17.773 215.932 18.68 215.932 19.799 C 215.932 20.918 216.852 21.825 217.986 21.825 Z" fill="#F6F8FC" style=""/>
  <path d="M 239.738 62.071 C 241.028 62.071 242.073 61.04 242.073 59.768 C 242.073 58.496 241.028 57.466 239.738 57.466 C 238.449 57.466 237.404 58.496 237.404 59.768 C 237.404 61.04 238.449 62.071 239.738 62.071 Z" fill="#F6F8FC" style=""/>
  <path d="M 212.659 19.155 C 213.948 19.155 214.993 18.123 214.993 16.852 C 214.993 15.58 213.948 14.55 212.659 14.55 C 211.37 14.55 210.325 15.58 210.325 16.852 C 210.325 18.123 211.37 19.155 212.659 19.155 Z" fill="#F6F8FC" style=""/>
  <path d="M 214.249 28.916 C 215.539 28.916 216.584 27.885 216.584 26.613 C 216.584 25.341 215.539 24.311 214.249 24.311 C 212.961 24.311 211.916 25.341 211.916 26.613 C 211.916 27.885 212.961 28.916 214.249 28.916 Z" fill="#F6F8FC" style=""/>
  <path d="M 211.635 38.219 C 213.182 38.219 214.436 36.981 214.436 35.455 C 214.436 33.93 213.182 32.693 211.635 32.693 C 210.088 32.693 208.833 33.93 208.833 35.455 C 208.833 36.981 210.088 38.219 211.635 38.219 Z" fill="#F6F8FC" style=""/>
  <path d="M 203.134 38.216 C 204.939 38.216 206.402 36.773 206.402 34.992 C 206.402 33.213 204.939 31.769 203.134 31.769 C 201.329 31.769 199.866 33.213 199.866 34.992 C 199.866 36.773 201.329 38.216 203.134 38.216 Z" fill="#F6F8FC" style=""/>
  <path d="M 193.236 40.428 C 195.299 40.428 196.971 38.778 196.971 36.744 C 196.971 34.709 195.299 33.06 193.236 33.06 C 191.174 33.06 189.502 34.709 189.502 36.744 C 189.502 38.778 191.174 40.428 193.236 40.428 Z" fill="#F6F8FC" style=""/>
  <path d="M 182.413 45.676 C 184.836 45.676 186.801 43.738 186.801 41.348 C 186.801 38.957 184.836 37.02 182.413 37.02 C 179.988 37.02 178.024 38.957 178.024 41.348 C 178.024 43.738 179.988 45.676 182.413 45.676 Z" fill="#F6F8FC" style=""/>
  <path d="M 171.203 54.518 C 174.091 54.518 176.432 52.209 176.432 49.36 C 176.432 46.513 174.091 44.203 171.203 44.203 C 168.315 44.203 165.974 46.513 165.974 49.36 C 165.974 52.209 168.315 54.518 171.203 54.518 Z" fill="#F6F8FC" style=""/>
  <path d="M 178.017 34.903 C 180.441 34.903 182.405 32.966 182.405 30.575 C 182.405 28.185 180.441 26.247 178.017 26.247 C 175.593 26.247 173.628 28.185 173.628 30.575 C 173.628 32.966 175.593 34.903 178.017 34.903 Z" fill="#F6F8FC" style=""/>
  <path d="M 188.848 29.651 C 190.911 29.651 192.583 28.002 192.583 25.967 C 192.583 23.932 190.911 22.283 188.848 22.283 C 186.786 22.283 185.113 23.932 185.113 25.967 C 185.113 28.002 186.786 29.651 188.848 29.651 Z" fill="#F6F8FC" style=""/>
  <path d="M 187.265 19.889 C 189.328 19.889 191 18.24 191 16.206 C 191 14.171 189.328 12.521 187.265 12.521 C 185.203 12.521 183.53 14.171 183.53 16.206 C 183.53 18.24 185.203 19.889 187.265 19.889 Z" fill="#F6F8FC" style=""/>
  <path d="M 197.164 17.682 C 198.969 17.682 200.432 16.238 200.432 14.459 C 200.432 12.678 198.969 11.235 197.164 11.235 C 195.359 11.235 193.896 12.678 193.896 14.459 C 193.896 16.238 195.359 17.682 197.164 17.682 Z" fill="#F6F8FC" style=""/>
  <path d="M 205.657 17.682 C 207.204 17.682 208.458 16.444 208.458 14.918 C 208.458 13.393 207.204 12.156 205.657 12.156 C 204.11 12.156 202.855 13.393 202.855 14.918 C 202.855 16.444 204.11 17.682 205.657 17.682 Z" fill="#F6F8FC" style=""/>
  <path d="M 207.248 27.442 C 208.795 27.442 210.049 26.205 210.049 24.68 C 210.049 23.153 208.795 21.916 207.248 21.916 C 205.701 21.916 204.446 23.153 204.446 24.68 C 204.446 26.205 205.701 27.442 207.248 27.442 Z" fill="#F6F8FC" style=""/>
  <path d="M 198.748 27.534 C 200.552 27.534 202.016 26.091 202.016 24.311 C 202.016 22.531 200.552 21.087 198.748 21.087 C 196.942 21.087 195.48 22.531 195.48 24.311 C 195.48 26.091 196.942 27.534 198.748 27.534 Z" fill="#F6F8FC" style=""/>
  <path d="M 189.506 52.032 C 190.434 52.032 191.187 51.29 191.187 50.374 C 191.187 49.459 190.434 48.717 189.506 48.717 C 188.578 48.717 187.826 49.459 187.826 50.374 C 187.826 51.29 188.578 52.032 189.506 52.032 Z" fill="#F6F8FC" style=""/>
  <path d="M 196.227 51.204 C 197.362 51.204 198.282 50.297 198.282 49.178 C 198.282 48.058 197.362 47.151 196.227 47.151 C 195.093 47.151 194.174 48.058 194.174 49.178 C 194.174 50.297 195.093 51.204 196.227 51.204 Z" fill="#F6F8FC" style=""/>
  <path d="M 203.607 48.441 C 204.896 48.441 205.94 47.411 205.94 46.139 C 205.94 44.867 204.896 43.836 203.607 43.836 C 202.317 43.836 201.272 44.867 201.272 46.139 C 201.272 47.411 202.317 48.441 203.607 48.441 Z" fill="#F6F8FC" style=""/>
  <path d="M 205.378 55.808 C 206.925 55.808 208.179 54.571 208.179 53.046 C 208.179 51.52 206.925 50.282 205.378 50.282 C 203.831 50.282 202.577 51.52 202.577 53.046 C 202.577 54.571 203.831 55.808 205.378 55.808 Z" fill="#F6F8FC" style=""/>
  <path d="M 196.415 57.557 C 197.704 57.557 198.749 56.526 198.749 55.255 C 198.749 53.983 197.704 52.952 196.415 52.952 C 195.126 52.952 194.081 53.983 194.081 55.255 C 194.081 56.526 195.126 57.557 196.415 57.557 Z" fill="#F6F8FC" style=""/>
  <path d="M 188.474 57.467 C 189.608 57.467 190.528 56.56 190.528 55.44 C 190.528 54.322 189.608 53.415 188.474 53.415 C 187.339 53.415 186.419 54.322 186.419 55.44 C 186.419 56.56 187.339 57.467 188.474 57.467 Z" fill="#F6F8FC" style=""/>
  <path d="M 188.568 63.821 C 189.858 63.821 190.903 62.789 190.903 61.518 C 190.903 60.246 189.858 59.215 188.568 59.215 C 187.28 59.215 186.235 60.246 186.235 61.518 C 186.235 62.789 187.28 63.821 188.568 63.821 Z" fill="#F6F8FC" style=""/>
  <path d="M 198.096 65.016 C 199.643 65.016 200.897 63.778 200.897 62.252 C 200.897 60.726 199.643 59.49 198.096 59.49 C 196.548 59.49 195.294 60.726 195.294 62.252 C 195.294 63.778 196.548 65.016 198.096 65.016 Z" fill="#F6F8FC" style=""/>
  <path d="M 209.206 63.821 C 211.01 63.821 212.474 62.377 212.474 60.598 C 212.474 58.817 211.01 57.374 209.206 57.374 C 207.4 57.374 205.938 58.817 205.938 60.598 C 205.938 62.377 207.4 63.821 209.206 63.821 Z" fill="#F6F8FC" style=""/>
  <path d="M 215.743 71.829 C 217.806 71.829 219.478 70.18 219.478 68.146 C 219.478 66.112 217.806 64.462 215.743 64.462 C 213.681 64.462 212.008 66.112 212.008 68.146 C 212.008 70.18 213.681 71.829 215.743 71.829 Z" fill="#F6F8FC" style=""/>
  <path d="M 202.015 72.937 C 203.819 72.937 205.283 71.494 205.283 69.713 C 205.283 67.933 203.819 66.49 202.015 66.49 C 200.209 66.49 198.747 67.933 198.747 69.713 C 198.747 71.494 200.209 72.937 202.015 72.937 Z" fill="#F6F8FC" style=""/>
  <path d="M 194.267 79.199 C 196.072 79.199 197.535 77.756 197.535 75.976 C 197.535 74.196 196.072 72.753 194.267 72.753 C 192.462 72.753 190.999 74.196 190.999 75.976 C 190.999 77.756 192.462 79.199 194.267 79.199 Z" fill="#F6F8FC" style=""/>
  <path d="M 200.705 87.303 C 202.768 87.303 204.441 85.654 204.441 83.619 C 204.441 81.585 202.768 79.936 200.705 79.936 C 198.642 79.936 196.97 81.585 196.97 83.619 C 196.97 85.654 198.642 87.303 200.705 87.303 Z" fill="#F6F8FC" style=""/>
  <path d="M 217.888 88.776 C 220.311 88.776 222.276 86.839 222.276 84.448 C 222.276 82.057 220.311 80.12 217.888 80.12 C 215.464 80.12 213.499 82.057 213.499 84.448 C 213.499 86.839 215.464 88.776 217.888 88.776 Z" fill="#F6F8FC" style=""/>
  <path d="M 208.46 81.04 C 210.522 81.04 212.194 79.391 212.194 77.357 C 212.194 75.322 210.522 73.673 208.46 73.673 C 206.397 73.673 204.725 75.322 204.725 77.357 C 204.725 79.391 206.397 81.04 208.46 81.04 Z" fill="#F6F8FC" style=""/>
  <path d="M 225.078 79.569 C 227.501 79.569 229.466 77.631 229.466 75.24 C 229.466 72.85 227.501 70.912 225.078 70.912 C 222.654 70.912 220.689 72.85 220.689 75.24 C 220.689 77.631 222.654 79.569 225.078 79.569 Z" fill="#F6F8FC" style=""/>
  <path d="M 190.34 71.278 C 191.887 71.278 193.142 70.042 193.142 68.515 C 193.142 66.99 191.887 65.753 190.34 65.753 C 188.793 65.753 187.539 66.99 187.539 68.515 C 187.539 70.042 188.793 71.278 190.34 71.278 Z" fill="#F6F8FC" style=""/>
  <path d="M 300.832 18.116 L 294.41 18.116 L 294.41 73.701 L 300.832 73.701 L 300.832 18.116 Z" fill="#F6F8FC" style=""/>
  <path d="M 321.505 45.864 C 321.505 30.289 334.727 17.099 350.277 17.099 C 365.917 17.099 378.951 30.191 378.951 45.864 C 378.951 61.538 365.827 74.631 350.277 74.631 C 334.818 74.72 321.505 61.538 321.505 45.864 Z M 372.529 45.864 C 372.529 33.513 362.382 23.002 350.277 23.002 C 338.173 23.002 327.936 33.513 327.936 45.864 C 327.936 58.314 338.173 68.816 350.277 68.816 C 362.382 68.816 372.529 58.314 372.529 45.864 Z" fill="#F6F8FC" style=""/>
  <path d="M 411.909 24.109 L 393.012 24.109 L 393.012 18.116 L 437.145 18.116 L 437.145 24.109 L 418.24 24.109 L 418.24 73.701 L 411.819 73.701 L 411.909 24.109 Z" fill="#F6F8FC" style=""/>
  <path d="M 470.842 25.859 L 449.52 73.701 L 442.539 73.701 L 465.909 21.251 C 466.748 19.313 468.705 18.116 470.752 18.116 C 472.89 18.116 474.757 19.313 475.596 21.251 L 498.965 73.701 L 491.985 73.701 L 470.842 25.859 Z" fill="#F6F8FC" style=""/>
</svg>