<?xml version="1.0" encoding="utf-8"?>
<svg viewBox="0 12.09 500 81.174" xmlns="http://www.w3.org/2000/svg">
  <path d="M 12.155 29.774 L 12.155 91.75 L 1.571 91.75 L 1.571 19.754 C 1.571 13.98 7.388 10.689 11.458 14.16 L 61.73 57.055 C 63.28 58.378 64.191 60.449 64.191 62.649 L 64.191 91.75 L 53.607 91.75 L 53.607 65.144 L 12.155 29.774 Z" fill="#1AAB9B" style=""/>
  <path d="M 182.84 23.75 C 178.686 23.75 175.319 27.568 175.319 32.278 L 175.319 86.196 L 185.085 86.196 L 185.085 39.482 L 198.253 63.846 C 199.753 66.619 202.415 68.31 205.285 68.31 C 208.147 68.31 210.805 66.627 212.306 63.863 L 225.549 39.482 L 225.549 86.196 L 235.316 86.196 L 235.316 31.882 C 235.316 27.39 232.106 23.75 228.144 23.75 C 225.6 23.75 223.246 25.277 221.959 27.765 L 205.472 59.609 L 189.351 28.008 C 188.006 25.372 185.525 23.75 182.84 23.75 Z" fill="#1AAB9B" style=""/>
  <path fill-rule="evenodd" clip-rule="evenodd" d="M 280.424 23.75 C 277.197 23.75 274.297 25.984 273.108 29.386 L 253.257 86.196 L 262.713 86.196 L 268.877 69.848 L 291.356 69.848 L 297.519 86.196 L 307.557 86.196 L 287.743 29.391 C 286.555 25.986 283.654 23.75 280.424 23.75 Z M 280.116 36.538 L 287.946 59.697 L 272.248 59.697 L 280.116 36.538 Z" fill="#1AAB9B" style=""/>
  <path d="M 333.986 52.358 L 357.807 25.223 C 358.635 24.28 359.761 23.75 360.935 23.75 C 364.87 23.75 366.837 29.149 364.048 32.298 L 345.148 53.632 L 373.015 86.196 L 360.341 86.196 L 333.986 55.962 L 333.986 86.196 L 324.218 86.196 L 324.218 29.287 C 324.218 26.229 326.405 23.75 329.102 23.75 C 331.8 23.75 333.986 26.229 333.986 29.287 L 333.986 52.358 Z" fill="#1AAB9B" style=""/>
  <path d="M 390.297 76.196 C 390.297 81.719 394.246 86.196 399.117 86.196 L 424.443 86.196 C 426.926 86.196 428.939 83.914 428.939 81.098 C 428.939 78.283 426.926 76.001 424.443 76.001 L 400.103 76.001 L 400.103 59.126 L 422.312 59.126 C 424.794 59.126 426.807 56.843 426.807 54.028 C 426.807 51.213 424.794 48.93 422.312 48.93 L 400.103 48.93 L 400.103 33.945 L 424.443 33.945 C 426.926 33.945 428.939 31.663 428.939 28.847 C 428.939 26.032 426.926 23.75 424.443 23.75 L 399.117 23.75 C 394.246 23.75 390.297 28.227 390.297 33.75 L 390.297 76.196 Z" fill="#1AAB9B" style=""/>
  <path fill-rule="evenodd" clip-rule="evenodd" d="M 493.854 41.635 C 493.854 43.628 493.635 45.532 493.195 47.348 C 492.783 49.135 492.11 50.864 491.18 52.534 C 490.276 54.204 489.023 55.698 487.42 57.016 C 485.844 58.335 483.971 59.36 481.8 60.092 L 498.428 86.196 L 485.715 86.196 L 470.29 61.982 L 460.949 61.982 L 460.949 86.196 L 451.182 86.196 L 451.182 33.75 C 451.182 28.227 455.13 23.75 460.002 23.75 L 474.631 23.75 C 475.793 23.75 476.852 23.794 477.808 23.881 C 478.79 23.94 479.966 24.116 481.335 24.409 C 482.731 24.672 483.958 25.039 485.018 25.507 C 486.103 25.976 487.214 26.665 488.351 27.573 C 489.514 28.481 490.47 29.55 491.219 30.781 C 491.994 31.982 492.627 33.52 493.118 35.395 C 493.609 37.241 493.854 39.321 493.854 41.635 Z M 460.949 33.901 L 460.949 51.787 L 469.94 51.787 C 471.491 51.787 472.861 51.728 474.049 51.611 C 475.238 51.494 476.465 51.259 477.731 50.908 C 478.997 50.527 480.031 50.014 480.832 49.37 C 481.658 48.725 482.33 47.832 482.847 46.689 C 483.39 45.546 483.661 44.199 483.661 42.646 C 483.661 36.816 479.695 33.901 471.763 33.901 L 460.949 33.901 Z" fill="#1AAB9B" style=""/>
  <path d="M 124.164 91.75 L 124.164 29.774 L 82.712 65.144 L 82.712 91.75 L 72.128 91.75 L 72.128 62.649 C 72.128 60.449 73.04 58.378 74.59 57.055 L 124.862 14.16 C 128.931 10.689 134.748 13.98 134.748 19.754 L 134.748 91.75 L 124.164 91.75 Z" fill="#1AAB9B" style=""/>
</svg>