<?xml version="1.0" encoding="utf-8"?>
<svg viewBox="140.76 23.316 283.247 75.129" xmlns="http://www.w3.org/2000/svg">
  <path d="M 178.731 23.978 C 158.354 23.978 141.828 40.502 141.828 60.88 C 141.828 64.954 142.488 68.872 143.708 72.537 L 154.744 72.537 L 154.744 41.488 L 178.731 65.475 L 202.718 41.488 L 202.718 72.537 L 213.755 72.537 C 214.975 68.872 215.635 64.954 215.635 60.88 C 215.635 40.502 199.109 23.978 178.731 23.978" id="path22" style="fill:#ff6600"/>
  <path d="M 162.747 60.521 L 162.747 80.058 L 147.197 80.058 C 153.675 90.686 165.375 97.784 178.73 97.784 C 192.085 97.784 203.786 90.686 210.263 80.058 L 194.714 80.058 L 194.714 60.521 L 178.73 76.505 L 162.747 60.521 Z" id="path26" style="fill:#4c4c4c"/>
  <path d="M 414.139 71.386 C 412.188 73.395 409.822 74.396 407.04 74.396 C 404.582 74.396 402.409 73.624 400.507 72.072 C 398.062 70.093 396.841 67.398 396.841 63.988 C 396.841 60.935 397.813 58.412 399.757 56.432 C 401.694 54.445 404.088 53.458 406.941 53.458 C 409.758 53.458 412.153 54.474 414.118 56.503 C 416.091 58.533 417.077 61.015 417.077 63.952 C 417.077 66.897 416.099 69.37 414.139 71.386 M 418.236 52.449 C 415.104 49.298 411.359 47.718 406.998 47.718 C 404.124 47.718 401.437 48.441 398.95 49.884 C 396.454 51.328 394.495 53.286 393.073 55.76 C 391.65 58.233 390.936 60.943 390.936 63.887 C 390.936 68.284 392.465 72.079 395.526 75.276 C 398.584 78.478 402.424 80.072 407.04 80.072 C 411.451 80.072 415.205 78.521 418.3 75.404 C 421.395 72.294 422.939 68.485 422.939 63.988 C 422.939 59.455 421.373 55.61 418.236 52.449" id="path30" style="fill: rgb(255, 255, 255);"/>
  <path d="M 379.737 59.595 C 378.994 60.113 378.643 60.368 376.677 60.368 L 368.941 60.368 L 368.941 53.75 L 376.437 53.75 C 377.94 53.75 378.206 53.863 378.822 54.095 C 379.436 54.32 379.924 54.696 380.292 55.213 C 380.66 55.731 380.84 56.346 380.84 57.051 C 380.84 58.237 380.472 59.085 379.737 59.595 M 380.667 65.688 C 382.716 64.952 384.254 63.872 385.274 62.447 C 386.295 61.014 386.798 59.242 386.798 57.112 C 386.798 55.093 386.341 53.337 385.417 51.859 C 384.494 50.381 383.271 49.323 381.756 48.685 C 380.24 48.047 377.696 47.725 374.117 47.725 L 362.788 47.725 L 362.788 80.065 L 368.941 80.065 L 368.941 66.371 L 374.311 66.371 L 381.591 80.065 L 388.321 80.065 L 380.667 65.688 L 380.667 65.688 Z" id="path34" style="fill: rgb(255, 255, 255);"/>
  <path d="M 335.206 47.718 L 356.174 47.718 L 356.174 53.743 L 341.322 53.743 L 341.322 60.362 L 356.174 60.362 L 356.174 66.282 L 341.322 66.282 L 341.322 74.01 L 356.174 74.01 L 356.174 80.059 L 335.206 80.059 L 335.206 47.718 Z" id="path38" style="fill: rgb(255, 255, 255);"/>
  <path d="M 302.717 47.718 L 308.608 47.718 L 322.482 68.998 L 322.482 47.718 L 328.635 47.718 L 328.635 80.058 L 322.722 80.058 L 308.87 58.846 L 308.87 80.058 L 302.717 80.058 L 302.717 47.718 L 302.717 47.718 Z" id="path42" style="fill: rgb(255, 255, 255);"/>
  <path d="M 289.081 71.386 C 287.13 73.395 284.764 74.396 281.982 74.396 C 279.524 74.396 277.351 73.624 275.449 72.072 C 273.004 70.093 271.783 67.398 271.783 63.988 C 271.783 60.935 272.755 58.412 274.699 56.432 C 276.636 54.445 279.03 53.458 281.883 53.458 C 284.7 53.458 287.095 54.474 289.06 56.503 C 291.033 58.533 292.019 61.015 292.019 63.952 C 292.019 66.897 291.041 69.37 289.081 71.386 M 293.178 52.449 C 290.046 49.298 286.301 47.718 281.94 47.718 C 279.066 47.718 276.379 48.441 273.892 49.884 C 271.396 51.328 269.437 53.286 268.015 55.76 C 266.592 58.233 265.878 60.943 265.878 63.887 C 265.878 68.284 267.407 72.079 270.468 75.276 C 273.526 78.478 277.366 80.072 281.982 80.072 C 286.393 80.072 290.147 78.521 293.242 75.404 C 296.337 72.294 297.881 68.485 297.881 63.988 C 297.881 59.455 296.315 55.61 293.178 52.449" id="use46" style="fill: rgb(255, 255, 255);"/>
  <path d="M 231.119 47.717 L 237.144 47.717 L 244.617 70.274 L 252.204 47.717 L 258.139 47.717 L 263.588 80.058 L 257.652 80.058 L 254.178 59.633 L 247.297 80.058 L 241.871 80.058 L 235.081 59.633 L 231.539 80.058 L 225.536 80.058 L 231.119 47.717 Z" id="path50" style="fill: rgb(255, 255, 255);"/>
</svg>