<?xml version="1.0" encoding="utf-8"?>
<svg viewBox="151.123 100.173 348.877 56.995" xmlns="http://www.w3.org/2000/svg">
  <path class="st1" d="M 328.121 104.154 C 327.573 104.154 327.116 104.339 326.773 104.73 C 326.43 105.121 326.27 105.604 326.27 106.203 L 326.27 142.941 L 298.458 105.121 C 298.023 104.477 297.475 104.154 296.811 104.154 C 296.172 104.154 295.668 104.339 295.304 104.73 C 294.938 105.121 294.756 105.604 294.756 106.203 L 294.756 147.959 C 294.756 148.603 294.892 149.11 295.188 149.478 C 295.486 149.846 295.944 150.031 296.584 150.031 C 297.131 150.031 297.589 149.846 297.932 149.455 C 298.274 149.064 298.434 148.58 298.434 147.982 L 298.434 111.152 L 326.317 149.064 C 326.819 149.708 327.391 150.031 328.031 150.031 C 328.625 150.031 329.081 149.846 329.424 149.455 C 329.766 149.064 329.926 148.58 329.926 147.982 L 329.926 106.203 C 329.926 105.559 329.766 105.052 329.446 104.707 C 329.174 104.339 328.716 104.154 328.121 104.154 Z M 474.269 103.832 C 461.608 103.832 451.324 114.19 451.324 126.943 C 451.324 139.695 461.608 150.053 474.269 150.053 C 486.93 150.053 497.214 139.695 497.214 126.943 C 497.214 114.19 486.907 103.832 474.269 103.832 Z M 474.269 146.278 C 463.689 146.278 455.073 137.6 455.073 126.943 C 455.073 116.285 463.689 107.607 474.269 107.607 C 484.851 107.607 493.467 116.285 493.467 126.943 C 493.467 137.6 484.851 146.278 474.269 146.278 Z M 368.504 105.512 C 368.344 105.075 368.047 104.753 367.635 104.477 C 367.224 104.223 366.79 104.085 366.332 104.085 C 365.304 104.085 364.618 104.546 364.23 105.489 L 345.628 147.567 C 345.537 147.729 345.49 147.982 345.49 148.281 C 345.49 148.787 345.673 149.202 346.038 149.524 C 346.404 149.846 346.838 150.008 347.341 150.008 C 348.141 150.008 348.735 149.593 349.124 148.787 L 354.038 137.624 L 378.742 137.624 L 383.587 148.787 C 383.747 149.179 383.998 149.478 384.318 149.685 C 384.638 149.893 384.958 150.008 385.301 150.008 C 385.804 150.008 386.261 149.846 386.65 149.524 C 387.038 149.202 387.22 148.81 387.22 148.35 C 387.22 148.097 387.151 147.844 387.038 147.59 L 368.504 105.512 Z M 355.499 134.171 L 366.378 109.356 L 377.211 134.171 L 355.499 134.171 Z M 436.058 104.154 C 435.51 104.154 435.053 104.339 434.734 104.73 C 434.39 105.121 434.23 105.604 434.23 106.203 L 434.23 142.941 L 406.395 105.098 C 405.96 104.453 405.411 104.131 404.75 104.131 C 404.109 104.131 403.607 104.315 403.241 104.707 C 402.875 105.098 402.693 105.582 402.693 106.18 L 402.693 147.936 C 402.693 148.58 402.829 149.087 403.127 149.455 C 403.423 149.823 403.881 150.008 404.521 150.008 C 405.068 150.008 405.526 149.823 405.869 149.432 C 406.211 149.041 406.371 148.557 406.371 147.959 L 406.371 111.152 L 434.254 149.064 C 434.755 149.708 435.328 150.031 435.967 150.031 C 436.562 150.031 437.018 149.846 437.361 149.455 C 437.703 149.064 437.863 148.58 437.863 147.982 L 437.863 106.203 C 437.863 105.559 437.703 105.052 437.383 104.707 C 437.111 104.339 436.653 104.154 436.058 104.154 Z" id="path3715" style="fill: rgb(255, 255, 255);"/>
  <g id="g3723" transform="matrix(0.228535, 0, 0, 0.230188, 125.250229, 38.29718)" style="">
    <path class="st0" d="m 391.2,385.1 c 0,18.4 -14.9,33.2 -33.2,33.2 -18.3,0 -33.2,-14.9 -33.2,-33.2 0,-24.9 -8.3,-33.2 -33.2,-33.2 -24.9,0 -33.2,8.3 -33.2,33.2 0,18.4 -14.9,33.2 -33.2,33.2 -18.3,0 -33.2,-14.9 -33.2,-33.2 0,-18.4 14.9,-33.2 33.2,-33.2 24.9,0 33.2,-8.3 33.2,-33.2 0,-18.4 14.9,-33.2 33.2,-33.2 18.3,0 33.2,14.9 33.2,33.2 0,24.9 8.3,33.2 33.2,33.2 18.4,0 33.2,14.8 33.2,33.2 z" id="path3717" style="fill:#4a90e2"/>
    <circle class="st0" cx="158.60001" cy="451.60001" r="33.200001" id="circle3719" style="fill:#4a90e2"/>
    <path class="st0" d="m 590.7,318.6 c 0,18.4 -14.9,33.2 -33.2,33.2 -24.9,0 -33.2,8.3 -33.2,33.2 0,18.4 -14.9,33.2 -33.2,33.2 -24.9,0 -33.2,8.3 -33.2,33.2 0,18.4 -14.9,33.2 -33.2,33.2 -18.3,0 -33.2,-14.9 -33.2,-33.2 0,-18.4 14.9,-33.2 33.2,-33.2 24.9,0 33.2,-8.3 33.2,-33.2 0,-18.4 14.9,-33.2 33.2,-33.2 24.9,0 33.2,-8.3 33.2,-33.2 0,-18.4 14.9,-33.2 33.2,-33.2 18.3,0 33.2,14.9 33.2,33.2 z" id="path3721" style="fill:#4a90e2"/>
  </g>
</svg>