<?xml version="1.0" encoding="utf-8"?>
<svg viewBox="210.708 0 141.624 52.677" xmlns="http://www.w3.org/2000/svg">
  <path id="Path_1" data-name="Path 1" d="M 234.156 37.709 L 243.643 32.239 L 243.643 21.299 L 234.156 26.769 L 234.156 37.709 Z" fill="#4f88ce"/>
  <path id="Path_2" data-name="Path 2" d="M 255.694 14.347 C 255.296 13.679 254.738 13.121 254.07 12.723 L 245.21 7.595 L 236.35 2.469 C 234.986 1.671 233.298 1.671 231.934 2.469 L 223.074 7.597 L 216.379 11.469 L 214.214 12.723 C 212.854 13.514 212.019 14.968 212.02 16.541 L 212.02 26.769 L 212.02 36.996 C 212.019 38.569 212.854 40.023 214.214 40.814 L 223.074 45.942 L 231.934 51.07 C 233.298 51.868 234.986 51.868 236.35 51.07 L 245.21 45.942 L 254.07 40.814 C 255.429 40.023 256.265 38.569 256.264 36.996 L 256.264 26.769 L 256.264 16.541 C 256.264 15.773 256.068 15.018 255.694 14.347 Z M 245.21 27.908 L 245.21 33.15 L 234.156 39.532 L 223.102 33.15 L 223.102 20.387 L 232.247 15.087 L 234.156 13.976 L 245.21 20.358 L 245.21 27.908 Z" fill="#4f88ce"/>
  <path id="Path_3" data-name="Path 3" d="M 243.643 21.299 L 243.643 32.239 L 234.156 26.769 L 243.643 21.299 Z" fill="#3ba3d0"/>
  <path id="Path_4" data-name="Path 4" d="M 243.643 32.239 L 234.156 37.709 L 234.156 26.769 L 243.643 32.239 Z" fill="#4891cf"/>
  <path id="Path_5" data-name="Path 5" d="M 245.21 20.387 L 245.21 33.15 L 256.264 26.768 L 245.21 20.387 Z" fill="#19ced4"/>
  <path id="Path_6" data-name="Path 6" d="M 223.074 33.15 L 223.074 45.942 L 234.156 39.532 L 223.074 33.15 Z" fill="#4891cf"/>
  <path id="Path_7" data-name="Path 7" d="M 223.074 7.595 L 223.074 20.387 L 234.156 14.005 L 223.074 7.595 Z" fill="#6b65cb"/>
  <path id="Path_8" data-name="Path 8" d="M 245.21 33.15 L 234.156 39.532 L 245.21 45.942 L 245.21 33.15 Z" fill="#1fc6d3"/>
  <path id="Path_9" data-name="Path 9" d="M 223.074 20.387 L 212.02 26.769 L 223.074 33.151 L 223.074 20.387 Z" fill="#715dca"/>
  <path id="Path_10" data-name="Path 10" d="M 245.21 7.595 L 234.156 14.005 L 245.21 20.387 L 245.21 7.595 Z" fill="#429acf"/>
  <path id="Path_11" data-name="Path 11" d="M 223.074 7.595 L 216.379 11.47 L 214.214 12.723 C 213.539 13.112 212.979 13.673 212.59 14.347 L 223.074 20.387 L 223.074 7.595 Z" fill="#7854ca"/>
  <path id="Path_12" data-name="Path 12" d="M 223.074 20.387 L 212.62 14.347 C 212.223 15.01 212.016 15.769 212.02 16.541 L 212.02 26.768 L 223.074 20.387 Z" fill="#7f4bc9"/>
  <path id="Path_13" data-name="Path 13" d="M 212.02 26.769 L 212.02 36.997 C 212.016 37.769 212.223 38.528 212.62 39.191 L 223.104 33.151 L 212.02 26.769 Z" fill="#646ecc"/>
  <path id="Path_14" data-name="Path 14" d="M 223.074 33.15 L 212.618 39.19 C 213.015 39.858 213.574 40.416 214.242 40.814 L 223.102 45.942 L 223.102 33.15 L 223.074 33.15 Z" fill="#5680cd"/>
  <path id="Path_15" data-name="Path 15" d="M 223.074 45.942 L 231.934 51.07 C 232.598 51.463 233.356 51.67 234.128 51.67 L 234.128 39.56 L 223.074 45.942 Z" fill="#3ba3d0"/>
  <path id="Path_16" data-name="Path 16" d="M 234.156 51.64 C 234.928 51.644 235.687 51.436 236.35 51.04 L 245.21 45.912 L 234.156 39.532 L 234.156 51.64 Z" fill="#2db4d1"/>
  <path id="Path_17" data-name="Path 17" d="M 245.21 33.15 L 245.21 45.913 L 254.07 40.785 C 254.738 40.387 255.296 39.829 255.694 39.161 L 245.21 33.15 Z" fill="#12d7d4"/>
  <path id="Path_18" data-name="Path 18" d="M 255.694 39.19 C 256.087 38.526 256.294 37.768 256.294 36.996 L 256.294 26.769 L 245.238 33.151 L 255.694 39.19 Z" fill="#0be0d5"/>
  <path id="Path_19" data-name="Path 19" d="M 256.263 26.768 L 256.263 16.541 C 256.267 15.769 256.059 15.01 255.663 14.347 L 245.181 20.387 L 256.263 26.768 Z" fill="#26bdd2"/>
  <path id="Path_20" data-name="Path 20" d="M 255.694 14.347 C 255.296 13.679 254.738 13.121 254.07 12.723 L 245.21 7.595 L 245.21 20.387 L 255.694 14.347 Z" fill="#34abd1"/>
  <path id="Path_21" data-name="Path 21" d="M 245.21 7.597 L 236.35 2.467 C 235.678 2.096 234.923 1.9 234.156 1.897 L 234.156 14.005 L 245.21 7.597 Z" fill="#4f88ce"/>
  <path id="Path_22" data-name="Path 22" d="M 234.156 14.005 L 234.156 1.897 C 233.383 1.893 232.625 2.101 231.962 2.497 L 223.074 7.597 L 234.156 14.005 Z" fill="#5d77cd"/>
  <path id="Path_23" data-name="Path 23" class="logo-text" d="M 276.463 22.523 C 277.626 24.188 278.198 26.195 278.087 28.223 L 278.087 37.738 L 273.873 37.738 L 273.873 28.563 C 273.966 27.332 273.687 26.101 273.073 25.03 C 272.47 24.236 271.502 23.805 270.509 23.89 C 269.271 23.861 268.087 24.396 267.29 25.343 L 267.29 37.736 L 263.073 37.736 L 263.073 20.7 L 267.033 20.7 L 267.09 21.9 C 268.427 20.962 270.015 20.445 271.648 20.415 C 273.5 20.294 275.295 21.08 276.463 22.523 Z" style="fill: rgb(255, 255, 255);"/>
  <path id="Path_24" data-name="Path 24" class="logo-text" d="M 284.81 36.882 C 283.469 36.131 282.379 35.001 281.676 33.634 C 280.974 32.227 280.614 30.674 280.626 29.102 C 280.597 27.589 280.94 26.092 281.626 24.743 C 282.259 23.433 283.258 22.334 284.503 21.581 C 285.853 20.771 287.402 20.355 288.976 20.381 C 290.392 20.322 291.795 20.669 293.021 21.381 C 294.102 22.007 294.974 22.94 295.526 24.062 C 296.098 25.232 296.381 26.521 296.352 27.823 C 296.343 28.601 296.247 29.375 296.067 30.131 L 285.038 30.131 C 285.164 31.439 285.798 32.646 286.804 33.493 C 287.796 34.239 289.01 34.63 290.251 34.604 C 292.056 34.616 293.83 34.132 295.379 33.204 L 295.579 36.794 C 294.78 37.22 293.927 37.536 293.043 37.734 C 292.008 37.987 290.946 38.111 289.881 38.104 C 288.114 38.136 286.368 37.716 284.81 36.882 Z M 292.018 27.282 C 292.022 26.436 291.763 25.61 291.277 24.917 C 290.725 24.214 289.861 23.83 288.969 23.891 C 288.035 23.839 287.12 24.168 286.433 24.803 C 285.778 25.478 285.332 26.33 285.151 27.253 L 292.017 27.253 L 292.018 27.282 Z" style="fill: rgb(255, 255, 255);"/>
  <path id="Path_25" data-name="Path 25" class="logo-text" d="M 311.903 21.612 C 313.072 22.406 313.983 23.525 314.524 24.831 C 315.692 27.669 315.692 30.853 314.524 33.691 C 313.975 34.992 313.066 36.109 311.903 36.91 C 310.673 37.729 309.221 38.148 307.744 38.11 C 306.004 38.142 304.299 37.623 302.872 36.629 L 302.815 37.74 L 298.855 37.74 L 298.855 13.863 L 303.071 13.863 L 303.071 21.954 C 304.411 20.93 306.057 20.388 307.743 20.416 C 309.22 20.376 310.673 20.794 311.903 21.612 Z M 310.055 33.15 C 310.791 31.987 311.15 30.625 311.081 29.25 C 311.146 27.876 310.788 26.514 310.055 25.35 C 309.401 24.391 308.305 23.831 307.145 23.863 C 305.91 23.776 304.714 24.31 303.954 25.287 C 303.196 26.453 302.827 27.829 302.9 29.218 C 302.821 30.608 303.191 31.986 303.954 33.15 C 304.718 34.122 305.911 34.655 307.145 34.574 C 308.294 34.623 309.389 34.087 310.055 33.15 Z" style="fill: rgb(255, 255, 255);"/>
  <path id="Path_26" data-name="Path 26" class="logo-text" d="M 319.026 36.854 C 318.283 35.95 317.898 34.804 317.943 33.635 L 317.943 13.863 L 322.188 13.863 L 322.188 31.868 C 322.164 32.517 322.212 33.166 322.33 33.805 C 322.38 34.111 322.585 34.369 322.871 34.489 C 323.311 34.583 323.76 34.622 324.21 34.603 L 323.84 38.079 L 322.302 38.079 C 321.082 38.178 319.881 37.729 319.026 36.854 Z" style="fill: rgb(255, 255, 255);"/>
  <path id="Path_27" data-name="Path 27" class="logo-text" d="M 326.717 20.7 L 330.933 20.7 L 330.933 37.765 L 326.717 37.765 L 326.717 20.7 Z" style="fill: rgb(255, 255, 255);"/>
  <path id="Path_28" class="logo-text" data-name="Path 28" d="M 337.573 36.91 C 336.283 36.134 335.23 35.021 334.525 33.691 C 333.809 32.32 333.447 30.793 333.471 29.247 C 333.45 27.692 333.812 26.156 334.525 24.774 C 335.213 23.433 336.271 22.317 337.573 21.558 C 340.483 19.963 344.006 19.963 346.917 21.558 C 348.214 22.337 349.27 23.462 349.965 24.806 C 350.667 26.181 351.029 27.706 351.019 29.25 C 351.043 30.796 350.681 32.323 349.965 33.694 C 349.277 35.036 348.219 36.153 346.917 36.913 C 343.999 38.48 340.49 38.48 337.573 36.913 L 337.573 36.91 Z M 345.493 33.149 C 346.328 32.026 346.741 30.646 346.661 29.249 C 346.724 27.844 346.312 26.459 345.493 25.317 C 343.778 23.338 340.708 23.338 338.993 25.317 C 338.173 26.459 337.762 27.844 337.825 29.249 C 337.758 30.644 338.17 32.02 338.993 33.149 C 339.784 34.124 340.986 34.672 342.241 34.63 C 343.494 34.661 344.692 34.115 345.492 33.15 L 345.493 33.149 Z" style="fill: rgb(255, 255, 255);"/>
  <path id="Path_29" data-name="Path 29" d="M 326.717 18.909 L 326.717 12.609 L 332.187 15.743 L 326.717 18.909 Z" style="fill: rgb(255, 255, 255);"/>
</svg>