<?xml version="1.0" encoding="utf-8"?>
<svg viewBox="288.429 -1.727 110.535 25.907" xmlns="http://www.w3.org/2000/svg">
  <path d="M 360.144 9.008 C 360.699 9.008 361.254 9.125 361.729 9.32 C 362.244 9.514 362.64 9.787 363.036 10.137 C 363.393 10.487 363.67 10.915 363.908 11.382 C 364.106 11.888 364.225 12.394 364.225 12.938 C 364.225 13.483 364.106 14.028 363.908 14.495 C 363.71 15.001 363.393 15.39 363.036 15.74 C 362.68 16.09 362.244 16.363 361.729 16.557 C 361.214 16.752 360.699 16.868 360.144 16.868 C 359.59 16.868 359.075 16.752 358.56 16.557 C 358.084 16.363 357.649 16.051 357.292 15.701 C 356.936 15.351 356.658 14.923 356.421 14.456 C 356.223 13.989 356.104 13.483 356.104 12.938 C 356.104 12.394 356.223 11.888 356.421 11.382 C 356.619 10.915 356.896 10.487 357.292 10.098 C 357.649 9.748 358.084 9.436 358.56 9.242 C 359.035 9.086 359.59 9.008 360.144 9.008 Z M 360.065 9.67 C 359.59 9.67 359.194 9.748 358.797 9.942 C 358.401 10.137 358.045 10.37 357.767 10.643 C 357.49 10.954 357.252 11.304 357.094 11.693 C 356.936 12.082 356.856 12.51 356.856 12.938 C 356.856 13.366 356.936 13.794 357.094 14.184 C 357.252 14.573 357.49 14.923 357.767 15.234 C 358.045 15.545 358.401 15.779 358.797 15.935 C 359.194 16.129 359.629 16.207 360.065 16.207 C 360.54 16.207 360.976 16.129 361.372 15.973 C 361.768 15.818 362.125 15.584 362.442 15.273 C 362.759 14.962 362.997 14.612 363.155 14.222 C 363.313 13.833 363.432 13.405 363.432 12.938 C 363.432 12.471 363.353 12.043 363.155 11.615 C 362.997 11.226 362.759 10.876 362.442 10.565 C 362.125 10.254 361.768 10.02 361.372 9.865 C 361.016 9.748 360.58 9.67 360.065 9.67 Z" style="fill: rgb(255, 255, 255);"/>
  <path d="M 367.116 3.172 L 366.364 3.172 L 366.364 16.791 L 367.116 16.791 L 367.116 3.172 Z" style="fill: rgb(255, 255, 255);"/>
  <path d="M 373.336 9.008 C 373.891 9.008 374.445 9.125 374.921 9.32 C 375.436 9.514 375.832 9.787 376.228 10.137 C 376.584 10.487 376.862 10.915 377.099 11.382 C 377.297 11.888 377.416 12.394 377.416 12.938 C 377.416 13.483 377.297 14.028 377.099 14.495 C 376.901 15.001 376.584 15.39 376.228 15.74 C 375.871 16.09 375.436 16.363 374.921 16.557 C 374.406 16.752 373.891 16.868 373.336 16.868 C 372.781 16.868 372.266 16.752 371.751 16.557 C 371.276 16.363 370.84 16.051 370.484 15.701 C 370.127 15.351 369.85 14.923 369.612 14.456 C 369.414 13.989 369.295 13.483 369.295 12.938 C 369.295 12.394 369.414 11.888 369.612 11.382 C 369.81 10.915 370.088 10.487 370.484 10.098 C 370.84 9.748 371.276 9.436 371.751 9.242 C 372.266 9.086 372.781 9.008 373.336 9.008 Z M 373.296 9.67 C 372.821 9.67 372.425 9.748 372.029 9.942 C 371.633 10.137 371.276 10.37 370.999 10.643 C 370.721 10.954 370.484 11.304 370.325 11.693 C 370.167 12.082 370.088 12.51 370.088 12.938 C 370.088 13.366 370.167 13.794 370.325 14.184 C 370.484 14.573 370.721 14.923 370.999 15.234 C 371.276 15.545 371.633 15.779 372.029 15.935 C 372.425 16.129 372.861 16.207 373.296 16.207 C 373.772 16.207 374.207 16.129 374.604 15.973 C 375 15.818 375.356 15.584 375.673 15.273 C 375.99 14.962 376.228 14.612 376.386 14.222 C 376.545 13.833 376.664 13.405 376.664 12.938 C 376.664 12.471 376.584 12.043 376.386 11.615 C 376.228 11.226 375.99 10.876 375.673 10.565 C 375.356 10.254 375 10.02 374.604 9.865 C 374.207 9.748 373.772 9.67 373.296 9.67 Z" style="fill: rgb(255, 255, 255);"/>
  <path d="M 386.527 16.401 C 386.527 16.985 386.488 17.569 386.408 18.075 C 386.329 18.619 386.131 19.125 385.735 19.631 C 385.379 20.137 384.943 20.487 384.388 20.721 C 383.834 20.954 383.279 21.071 382.645 21.071 C 382.13 21.071 381.655 20.993 381.219 20.837 C 380.783 20.682 380.348 20.487 380.031 20.215 C 379.674 19.942 379.397 19.592 379.199 19.203 C 379.001 18.814 378.882 18.347 378.842 17.802 L 379.595 17.802 C 379.634 18.191 379.714 18.542 379.872 18.892 C 380.031 19.203 380.268 19.475 380.546 19.709 C 380.823 19.942 381.14 20.098 381.496 20.215 C 381.853 20.331 382.209 20.409 382.606 20.409 C 383.081 20.409 383.556 20.331 383.992 20.137 C 384.428 19.942 384.784 19.67 385.101 19.281 C 385.418 18.853 385.577 18.386 385.656 17.88 C 385.735 17.413 385.775 16.907 385.775 16.363 L 385.775 15.429 L 385.735 15.429 C 385.379 15.896 384.943 16.246 384.428 16.518 C 383.873 16.791 383.319 16.907 382.724 16.907 C 382.17 16.907 381.655 16.791 381.179 16.596 C 380.704 16.363 380.308 16.09 379.991 15.74 C 379.674 15.39 379.397 14.962 379.238 14.456 C 379.04 13.989 378.961 13.483 378.961 12.938 C 378.961 12.394 379.04 11.888 379.238 11.382 C 379.436 10.915 379.714 10.487 380.031 10.137 C 380.387 9.787 380.783 9.514 381.259 9.281 C 381.734 9.086 382.249 8.97 382.804 8.97 C 383.437 8.97 383.992 9.086 384.467 9.359 C 384.943 9.631 385.379 9.981 385.735 10.448 L 385.775 10.448 L 385.775 9.125 L 386.527 9.125 L 386.527 16.401 Z M 382.724 9.67 C 382.289 9.67 381.853 9.748 381.496 9.942 C 381.14 10.137 380.823 10.37 380.546 10.682 C 380.268 10.993 380.07 11.343 379.951 11.732 C 379.793 12.121 379.714 12.51 379.714 12.938 C 379.714 13.366 379.793 13.794 379.912 14.184 C 380.07 14.573 380.268 14.923 380.506 15.234 C 380.783 15.545 381.1 15.779 381.457 15.973 C 381.813 16.168 382.249 16.246 382.724 16.246 C 383.2 16.246 383.635 16.168 384.032 15.973 C 384.428 15.779 384.745 15.545 384.982 15.234 C 385.26 14.923 385.418 14.573 385.577 14.145 C 385.695 13.717 385.775 13.289 385.775 12.822 C 385.775 12.394 385.695 11.966 385.537 11.577 C 385.379 11.187 385.18 10.876 384.903 10.565 C 384.626 10.293 384.309 10.059 383.913 9.903 C 383.596 9.748 383.16 9.67 382.724 9.67 Z" style="fill: rgb(255, 255, 255);"/>
  <path d="M 388.033 9.164 L 388.825 9.164 L 392.113 16.051 L 395.084 9.164 L 395.876 9.164 L 390.687 21.226 L 389.894 21.226 L 391.756 16.907 L 388.033 9.164 Z" style="fill: rgb(255, 255, 255);"/>
  <path d="M 325.125 4.962 C 325.918 4.962 326.71 5.117 327.423 5.429 C 328.136 5.74 328.77 6.168 329.324 6.674 C 329.879 7.219 330.275 7.802 330.592 8.503 C 330.909 9.203 331.068 9.942 331.068 10.759 C 331.068 11.577 330.909 12.355 330.592 13.055 C 330.275 13.756 329.839 14.378 329.324 14.884 C 328.77 15.39 328.176 15.818 327.423 16.09 C 326.71 16.401 325.918 16.518 325.125 16.518 C 324.293 16.518 323.541 16.363 322.828 16.09 C 322.115 15.779 321.481 15.39 320.926 14.884 C 320.372 14.378 319.976 13.756 319.659 13.055 C 319.342 12.355 319.183 11.577 319.183 10.759 C 319.183 9.981 319.342 9.203 319.659 8.503 C 319.976 7.802 320.411 7.18 320.926 6.674 C 321.481 6.129 322.075 5.74 322.828 5.429 C 323.541 5.117 324.293 4.962 325.125 4.962 Z M 325.125 15.273 C 325.72 15.273 326.314 15.156 326.868 14.923 C 327.423 14.689 327.898 14.378 328.295 13.989 C 328.691 13.6 329.047 13.094 329.285 12.549 C 329.523 12.005 329.641 11.421 329.641 10.759 C 329.641 10.137 329.523 9.553 329.324 9.008 C 329.087 8.464 328.81 7.997 328.374 7.569 C 327.978 7.18 327.502 6.829 326.948 6.596 C 326.393 6.363 325.799 6.246 325.125 6.246 C 324.452 6.246 323.858 6.363 323.303 6.596 C 322.749 6.829 322.273 7.18 321.877 7.569 C 321.481 7.958 321.164 8.464 320.966 9.008 C 320.728 9.553 320.649 10.137 320.649 10.759 C 320.649 11.382 320.768 12.005 321.006 12.549 C 321.243 13.094 321.56 13.561 321.996 13.989 C 322.392 14.378 322.907 14.728 323.422 14.923 C 323.937 15.156 324.492 15.273 325.125 15.273 Z" style="fill: rgb(255, 255, 255);"/>
  <path d="M 332.969 4.65 L 341.486 13.405 L 341.486 5.195 L 342.872 5.195 L 342.872 16.791 L 334.395 8.036 L 334.395 16.557 L 332.969 16.557 L 332.969 4.65 Z" style="fill: rgb(255, 255, 255);"/>
  <path d="M 350.439 16.557 L 349.052 16.557 L 349.052 6.479 L 344.814 6.479 L 344.814 5.195 L 354.638 5.195 L 354.638 6.479 L 350.439 6.479 L 350.439 16.557 Z" style="fill: rgb(255, 255, 255);"/>
  <path d="M 292.681 4.067 L 289.789 1.226 L 289.789 10.915 C 289.789 13.405 290.74 15.896 292.681 17.763 C 296.524 21.538 302.783 21.538 306.626 17.763 L 292.681 4.067 Z" fill="#48A3FF"/>
  <path d="M 307.537 17.763 L 310.428 20.604 L 310.428 10.915 C 310.428 8.425 309.478 5.935 307.537 4.067 C 303.694 0.293 297.435 0.293 293.592 4.067 L 307.537 17.763 Z" fill="#48A3FF"/>
</svg>