<?xml version="1.0" encoding="utf-8"?>
<svg viewBox="270.294 0 120.034 47.496" xmlns="http://www.w3.org/2000/svg">
  <path fill-rule="evenodd" clip-rule="evenodd" d="M 293.71 1.248 C 281.297 1.248 271.234 11.322 271.234 23.748 C 271.234 36.174 281.297 46.248 293.71 46.248 C 306.123 46.248 316.186 36.174 316.186 23.748 C 316.186 11.322 306.123 1.248 293.71 1.248 Z" fill="#4360DF"/>
  <path fill-rule="evenodd" clip-rule="evenodd" d="M 294.465 22.762 C 295.593 22.879 296.722 22.997 298.109 22.919 C 301.869 22.71 304.146 20.778 303.985 17.891 C 303.82 14.953 300.79 13.143 297.759 13.312 C 292.819 13.588 289.186 17.93 288.777 22.892 C 289.448 22.735 290.154 22.641 290.82 22.604 C 292.207 22.527 293.336 22.644 294.465 22.762 Z M 284.78 29.184 C 284.936 31.877 287.806 33.536 290.678 33.381 C 295.358 33.128 298.8 29.148 299.188 24.599 C 298.552 24.743 297.883 24.829 297.252 24.863 C 295.938 24.934 294.868 24.827 293.799 24.719 C 292.73 24.611 291.66 24.503 290.346 24.574 C 286.784 24.767 284.627 26.537 284.78 29.184 Z" fill="white"/>
  <path d="M 324.933 27.484 L 328.182 27.484 C 328.182 28.035 328.337 28.43 328.647 28.671 C 328.958 28.911 329.356 29.031 329.843 29.031 C 330.245 29.031 330.573 28.957 330.827 28.808 C 331.088 28.653 331.219 28.402 331.219 28.056 C 331.219 27.851 331.163 27.685 331.05 27.558 C 330.944 27.424 330.778 27.307 330.552 27.209 C 330.327 27.103 330.037 26.997 329.684 26.891 C 329.332 26.785 328.908 26.651 328.415 26.488 C 327.97 26.347 327.55 26.202 327.155 26.054 C 326.767 25.898 326.425 25.708 326.129 25.482 C 325.832 25.256 325.6 24.98 325.43 24.655 C 325.268 24.331 325.187 23.928 325.187 23.448 C 325.187 22.897 325.296 22.42 325.515 22.018 C 325.734 21.615 326.041 21.283 326.436 21.022 C 326.831 20.76 327.303 20.566 327.854 20.439 C 328.404 20.305 329.011 20.238 329.674 20.238 C 330.485 20.238 331.184 20.33 331.769 20.513 C 332.355 20.697 332.835 20.947 333.209 21.265 C 333.583 21.583 333.858 21.957 334.034 22.388 C 334.217 22.819 334.309 23.282 334.309 23.776 L 331.039 23.776 C 331.039 23.345 330.926 23.01 330.7 22.77 C 330.482 22.53 330.147 22.41 329.695 22.41 C 329.349 22.41 329.053 22.487 328.806 22.643 C 328.559 22.791 328.436 23.017 328.436 23.321 C 328.436 23.525 328.492 23.691 328.605 23.818 C 328.725 23.939 328.898 24.048 329.124 24.147 C 329.349 24.246 329.628 24.348 329.96 24.454 C 330.291 24.553 330.672 24.673 331.103 24.814 C 331.568 24.941 332.002 25.083 332.404 25.238 C 332.806 25.393 333.159 25.584 333.463 25.81 C 333.773 26.029 334.016 26.308 334.193 26.647 C 334.376 26.979 334.468 27.403 334.468 27.918 C 334.468 28.526 334.341 29.045 334.087 29.476 C 333.833 29.899 333.491 30.245 333.06 30.514 C 332.637 30.782 332.143 30.973 331.579 31.086 C 331.014 31.206 330.422 31.266 329.801 31.266 C 328.256 31.266 327.056 30.945 326.203 30.302 C 325.356 29.652 324.933 28.713 324.933 27.484 Z" style="fill: rgb(255, 255, 255);"/>
  <path d="M 335.293 22.992 L 335.293 20.524 L 336.934 20.524 L 336.934 17.42 L 340.236 17.42 L 340.236 20.524 L 342.617 20.524 L 342.617 22.992 L 340.236 22.992 L 340.236 26.732 C 340.236 27.12 340.271 27.431 340.341 27.664 C 340.412 27.89 340.511 28.07 340.638 28.204 C 340.772 28.332 340.931 28.416 341.114 28.459 C 341.304 28.494 341.516 28.512 341.749 28.512 C 341.89 28.512 342.07 28.508 342.289 28.501 C 342.507 28.487 342.698 28.466 342.86 28.437 L 342.86 30.98 C 342.613 31.022 342.303 31.061 341.929 31.097 C 341.562 31.132 341.128 31.149 340.627 31.149 C 340.239 31.149 339.83 31.121 339.4 31.065 C 338.969 31.008 338.571 30.86 338.204 30.62 C 337.837 30.38 337.534 30.012 337.294 29.518 C 337.054 29.017 336.934 28.332 336.934 27.463 L 336.934 22.992 L 335.293 22.992 Z" style="fill: rgb(255, 255, 255);"/>
  <path fill-rule="evenodd" clip-rule="evenodd" d="M 344.183 23.564 C 343.936 24.235 343.813 24.963 343.813 25.747 C 343.813 26.531 343.936 27.258 344.183 27.929 C 344.437 28.6 344.786 29.179 345.231 29.666 C 345.682 30.154 346.208 30.539 346.807 30.821 C 347.414 31.104 348.063 31.245 348.755 31.245 C 349.559 31.245 350.25 31.075 350.829 30.736 C 351.407 30.397 351.827 29.988 352.089 29.507 L 352.089 30.98 L 355.401 30.98 L 355.401 20.524 L 352.089 20.524 L 352.089 22.018 C 351.799 21.509 351.365 21.089 350.787 20.757 C 350.215 20.425 349.538 20.259 348.755 20.259 C 348.056 20.259 347.407 20.4 346.807 20.683 C 346.208 20.965 345.682 21.35 345.231 21.837 C 344.786 22.318 344.437 22.893 344.183 23.564 Z M 347.284 26.785 C 347.164 26.453 347.104 26.107 347.104 25.747 C 347.104 25.386 347.164 25.047 347.284 24.73 C 347.411 24.412 347.58 24.129 347.792 23.882 C 348.01 23.635 348.271 23.441 348.575 23.299 C 348.878 23.158 349.217 23.087 349.591 23.087 C 349.972 23.087 350.314 23.158 350.617 23.299 C 350.921 23.441 351.178 23.635 351.39 23.882 C 351.609 24.129 351.778 24.412 351.898 24.73 C 352.024 25.047 352.089 25.386 352.089 25.747 C 352.089 26.114 352.024 26.46 351.898 26.785 C 351.778 27.11 351.609 27.392 351.39 27.632 C 351.178 27.865 350.917 28.056 350.607 28.204 C 350.303 28.346 349.965 28.416 349.591 28.416 C 349.217 28.416 348.878 28.346 348.575 28.204 C 348.271 28.056 348.01 27.865 347.792 27.632 C 347.58 27.392 347.411 27.11 347.284 26.785 Z" style="fill: rgb(255, 255, 255);"/>
  <path d="M 357.178 22.992 L 357.178 20.524 L 358.818 20.524 L 358.818 17.42 L 362.121 17.42 L 362.121 20.524 L 364.502 20.524 L 364.502 22.992 L 362.121 22.992 L 362.121 26.732 C 362.121 27.12 362.156 27.431 362.226 27.664 C 362.297 27.89 362.395 28.07 362.523 28.204 C 362.657 28.332 362.815 28.416 362.999 28.459 C 363.189 28.494 363.401 28.512 363.634 28.512 C 363.775 28.512 363.955 28.508 364.173 28.501 C 364.393 28.487 364.583 28.466 364.745 28.437 L 364.745 30.98 C 364.498 31.022 364.188 31.061 363.814 31.097 C 363.447 31.132 363.013 31.149 362.512 31.149 C 362.124 31.149 361.715 31.121 361.284 31.065 C 360.854 31.008 360.455 30.86 360.088 30.62 C 359.721 30.38 359.418 30.012 359.179 29.518 C 358.939 29.017 358.818 28.332 358.818 27.463 L 358.818 22.992 L 357.178 22.992 Z" style="fill: rgb(255, 255, 255);"/>
  <path d="M 366.386 26.732 L 366.386 20.524 L 369.677 20.524 L 369.677 25.884 C 369.677 26.633 369.811 27.244 370.079 27.717 C 370.347 28.183 370.826 28.416 371.519 28.416 C 372.21 28.416 372.718 28.18 373.042 27.706 C 373.374 27.226 373.54 26.58 373.54 25.768 L 373.54 20.524 L 376.852 20.524 L 376.852 30.98 L 373.54 30.98 L 373.54 29.486 C 373.25 30.037 372.809 30.468 372.217 30.779 C 371.624 31.089 370.915 31.245 370.09 31.245 C 369.369 31.245 368.777 31.132 368.311 30.906 C 367.853 30.68 367.479 30.394 367.19 30.048 C 366.858 29.645 366.639 29.179 366.533 28.649 C 366.435 28.12 366.386 27.48 366.386 26.732 Z" style="fill: rgb(255, 255, 255);"/>
  <path d="M 378.99 27.484 L 382.239 27.484 C 382.239 28.035 382.394 28.43 382.705 28.671 C 383.014 28.911 383.413 29.031 383.9 29.031 C 384.302 29.031 384.63 28.957 384.885 28.808 C 385.146 28.653 385.276 28.402 385.276 28.056 C 385.276 27.851 385.22 27.685 385.106 27.558 C 385.001 27.424 384.835 27.307 384.609 27.209 C 384.384 27.103 384.094 26.997 383.742 26.891 C 383.389 26.785 382.965 26.651 382.472 26.488 C 382.027 26.347 381.607 26.202 381.212 26.054 C 380.824 25.898 380.482 25.708 380.186 25.482 C 379.889 25.256 379.657 24.98 379.487 24.655 C 379.325 24.331 379.244 23.928 379.244 23.448 C 379.244 22.897 379.353 22.42 379.572 22.018 C 379.791 21.615 380.097 21.283 380.492 21.022 C 380.888 20.76 381.36 20.566 381.911 20.439 C 382.461 20.305 383.067 20.238 383.731 20.238 C 384.542 20.238 385.24 20.33 385.826 20.513 C 386.412 20.697 386.892 20.947 387.266 21.265 C 387.64 21.583 387.914 21.957 388.091 22.388 C 388.275 22.819 388.366 23.282 388.366 23.776 L 385.096 23.776 C 385.096 23.345 384.984 23.01 384.757 22.77 C 384.539 22.53 384.203 22.41 383.752 22.41 C 383.406 22.41 383.11 22.487 382.863 22.643 C 382.616 22.791 382.493 23.017 382.493 23.321 C 382.493 23.525 382.549 23.691 382.662 23.818 C 382.782 23.939 382.955 24.048 383.181 24.147 C 383.406 24.246 383.685 24.348 384.016 24.454 C 384.349 24.553 384.729 24.673 385.159 24.814 C 385.625 24.941 386.059 25.083 386.461 25.238 C 386.864 25.393 387.216 25.584 387.519 25.81 C 387.83 26.029 388.073 26.308 388.25 26.647 C 388.433 26.979 388.525 27.403 388.525 27.918 C 388.525 28.526 388.398 29.045 388.144 29.476 C 387.89 29.899 387.547 30.245 387.117 30.514 C 386.694 30.782 386.2 30.973 385.636 31.086 C 385.071 31.206 384.479 31.266 383.858 31.266 C 382.313 31.266 381.114 30.945 380.26 30.302 C 379.413 29.652 378.99 28.713 378.99 27.484 Z" style="fill: rgb(255, 255, 255);"/>
</svg>