<svg width="318" height="278" viewBox="0 0 318 278" fill="none" xmlns="http://www.w3.org/2000/svg">
  <path d="M266.163 0H51.4922V204.066H266.163V0Z" fill="url(#paint0_linear_313_49)"/>
  <g opacity="0.1">
    <g opacity="0.1">
      <path opacity="0.1" d="M144.037 192.034L92.486 2.52043C91.7727 0.998618 90.1082 0.142599 88.729 0.0474854H57.0563C53.5846 0.0474854 51.5397 3.56668 52.9664 6.46764L144.037 192.034Z" fill="white"/>
    </g>
  </g>
  <g opacity="0.1">
    <g opacity="0.1">
      <path opacity="0.1" d="M159.018 137.153L52.9189 6.42015C51.6349 3.32897 53.5371 0.28534 56.5808 0H88.7291C90.4887 0.14267 91.8678 1.23647 92.486 2.47295L159.018 137.153Z" fill="white"/>
    </g>
  </g>
  <path d="M138.664 264.605C135.477 272.405 127.488 277.779 118.404 277.018C108.703 276.162 100.904 268.172 100.285 258.471C99.5719 246.914 108.75 237.26 120.164 237.26C128.534 237.26 135.715 242.444 138.664 249.768C138.996 250.576 138.568 251.48 137.712 251.765L136.571 252.146C135.81 252.383 135.049 252.003 134.716 251.29C132.243 245.202 126.013 241.017 118.928 241.54C111.509 242.111 105.374 248.008 104.518 255.427C103.472 264.891 110.89 272.928 120.116 272.928C126.679 272.928 132.291 268.886 134.669 263.179C134.954 262.465 135.763 262.085 136.523 262.323L137.665 262.703C138.568 262.893 138.996 263.797 138.664 264.605ZM18.1549 267.031L3.93545 238.83C3.45988 237.926 2.31852 237.593 1.4625 238.164L0.796705 238.592C0.0357976 239.067 -0.201985 240.019 0.178468 240.827L18.1549 276.447C18.6305 277.351 19.9145 277.351 20.3901 276.447L38.3665 240.827C38.7469 240.019 38.5092 239.067 37.7482 238.592L37.0825 238.164C36.2264 237.641 35.0851 237.926 34.6095 238.83L20.3901 267.031C19.9145 267.982 18.6305 267.982 18.1549 267.031ZM233.824 244.965C229.877 239.876 223.505 236.737 216.419 237.308C206.622 238.069 198.775 245.963 198.014 255.712C197.111 267.459 206.432 277.303 217.988 277.303C224.408 277.303 230.115 274.259 233.777 269.551V275.876C233.777 276.59 234.348 277.113 235.013 277.113H236.725C237.439 277.113 237.962 276.542 237.962 275.876V242.872C237.962 242.159 237.391 241.636 236.725 241.636H235.013C234.3 241.636 233.777 242.206 233.777 242.872V244.965H233.824ZM218.036 273.071C209.333 273.071 202.247 265.985 202.247 257.282C202.247 248.579 209.333 241.493 218.036 241.493C226.739 241.493 233.824 248.579 233.824 257.282C233.824 265.985 226.739 273.071 218.036 273.071ZM259.505 277.113H261.217C261.93 277.113 262.454 276.542 262.454 275.876V242.872C262.454 242.159 261.883 241.636 261.217 241.636H259.505C258.792 241.636 258.269 242.206 258.269 242.872V275.876C258.269 276.59 258.839 277.113 259.505 277.113ZM168.482 238.877C162.775 238.735 157.639 241.303 154.262 245.345V232.98C154.262 232.267 153.691 231.744 153.026 231.744H151.314C150.6 231.744 150.077 232.314 150.077 232.98V275.876C150.077 276.59 150.648 277.113 151.314 277.113H153.026C153.739 277.113 154.262 276.542 154.262 275.876V257.234C154.262 249.482 160.587 242.967 168.339 243.11C175.853 243.252 181.94 249.387 181.94 256.949V275.876C181.94 276.59 182.511 277.113 183.177 277.113H184.889C185.602 277.113 186.125 276.542 186.125 275.876V257.282C186.173 247.39 178.373 239.068 168.482 238.877ZM259.505 237.118H261.217C261.93 237.118 262.454 236.547 262.454 235.881V233.028C262.454 232.314 261.883 231.791 261.217 231.791H259.505C258.792 231.791 258.269 232.362 258.269 233.028V235.881C258.269 236.547 258.839 237.118 259.505 237.118ZM300.356 238.925C294.649 238.782 289.513 241.35 286.137 245.393V242.872C286.137 242.159 285.566 241.636 284.9 241.636H283.188C282.475 241.636 281.952 242.206 281.952 242.872V275.876C281.952 276.59 282.523 277.113 283.188 277.113H284.9C285.614 277.113 286.137 276.542 286.137 275.876V257.282C286.137 249.53 292.462 243.015 300.214 243.157C307.728 243.3 313.815 249.435 313.815 256.996V275.876C313.815 276.59 314.385 277.113 315.051 277.113H316.763C317.477 277.113 318 276.542 318 275.876V257.329C318.047 247.437 310.248 239.115 300.356 238.925ZM87.7303 264.415C88.0157 263.702 87.6352 262.846 86.8743 262.656L85.4 262.18C84.7342 261.99 84.0209 262.323 83.7831 262.989C81.4053 268.981 75.6985 272.928 69.1832 272.928C60.5279 272.928 53.4419 265.889 53.4419 257.187C53.4419 256.14 53.5371 255.047 53.7749 254C55.2491 246.724 61.7644 241.445 69.1832 241.445C75.2705 241.445 80.7395 245.012 83.3551 250.291C83.7356 251.099 83.3075 252.05 82.4515 252.193L69.8966 254.809C69.1832 254.951 68.7076 255.665 68.8503 256.378L69.1832 257.9C69.3259 258.613 70.0392 259.089 70.7526 258.946L87.8254 255.427C88.5388 255.284 89.0143 254.571 88.8717 253.858L88.729 253.097C86.8267 243.918 78.5994 237.26 69.1832 237.26C59.767 237.26 51.5397 243.966 49.6374 253.192C49.3521 254.523 49.2094 255.855 49.2094 257.187C49.2094 268.172 58.1501 277.113 69.1357 277.113C77.5056 277.113 84.7818 272.072 87.7303 264.415Z" fill="#15BDFF"/>
  <path d="M266.163 0H51.4922V204.066H266.163V0Z" fill="url(#paint1_linear_313_49)"/>
  <g opacity="0.1">
    <g opacity="0.1">
      <path opacity="0.1" d="M144.037 192.034L92.486 2.52043C91.7727 0.998618 90.1082 0.142599 88.729 0.0474854H57.0563C53.5846 0.0474854 51.5397 3.56668 52.9664 6.46764L144.037 192.034Z" fill="white"/>
    </g>
  </g>
  <g opacity="0.1">
    <g opacity="0.1">
      <path opacity="0.1" d="M159.018 137.153L52.9189 6.42015C51.6349 3.32897 53.5371 0.28534 56.5808 0H88.7291C90.4887 0.14267 91.8678 1.23647 92.486 2.47295L159.018 137.153Z" fill="white"/>
    </g>
  </g>
  <path d="M138.664 264.605C135.477 272.405 127.488 277.779 118.404 277.018C108.703 276.162 100.904 268.172 100.285 258.471C99.5719 246.914 108.75 237.26 120.164 237.26C128.534 237.26 135.715 242.444 138.664 249.768C138.996 250.576 138.568 251.48 137.712 251.765L136.571 252.146C135.81 252.383 135.049 252.003 134.716 251.29C132.243 245.202 126.013 241.017 118.928 241.54C111.509 242.111 105.374 248.008 104.518 255.427C103.472 264.891 110.89 272.928 120.116 272.928C126.679 272.928 132.291 268.886 134.669 263.179C134.954 262.465 135.763 262.085 136.523 262.323L137.665 262.703C138.568 262.893 138.996 263.797 138.664 264.605ZM18.1549 267.031L3.93545 238.83C3.45988 237.926 2.31852 237.593 1.4625 238.164L0.796705 238.592C0.0357976 239.067 -0.201985 240.019 0.178468 240.827L18.1549 276.447C18.6305 277.351 19.9145 277.351 20.3901 276.447L38.3665 240.827C38.7469 240.019 38.5092 239.067 37.7482 238.592L37.0825 238.164C36.2264 237.641 35.0851 237.926 34.6095 238.83L20.3901 267.031C19.9145 267.982 18.6305 267.982 18.1549 267.031ZM233.824 244.965C229.877 239.876 223.505 236.737 216.419 237.308C206.622 238.069 198.775 245.963 198.014 255.712C197.111 267.459 206.432 277.303 217.988 277.303C224.408 277.303 230.115 274.259 233.777 269.551V275.876C233.777 276.59 234.348 277.113 235.013 277.113H236.725C237.439 277.113 237.962 276.542 237.962 275.876V242.872C237.962 242.159 237.391 241.636 236.725 241.636H235.013C234.3 241.636 233.777 242.206 233.777 242.872V244.965H233.824ZM218.036 273.071C209.333 273.071 202.247 265.985 202.247 257.282C202.247 248.579 209.333 241.493 218.036 241.493C226.739 241.493 233.824 248.579 233.824 257.282C233.824 265.985 226.739 273.071 218.036 273.071ZM259.505 277.113H261.217C261.93 277.113 262.454 276.542 262.454 275.876V242.872C262.454 242.159 261.883 241.636 261.217 241.636H259.505C258.792 241.636 258.269 242.206 258.269 242.872V275.876C258.269 276.59 258.839 277.113 259.505 277.113ZM168.482 238.877C162.775 238.735 157.639 241.303 154.262 245.345V232.98C154.262 232.267 153.691 231.744 153.026 231.744H151.314C150.6 231.744 150.077 232.314 150.077 232.98V275.876C150.077 276.59 150.648 277.113 151.314 277.113H153.026C153.739 277.113 154.262 276.542 154.262 275.876V257.234C154.262 249.482 160.587 242.967 168.339 243.11C175.853 243.252 181.94 249.387 181.94 256.949V275.876C181.94 276.59 182.511 277.113 183.177 277.113H184.889C185.602 277.113 186.125 276.542 186.125 275.876V257.282C186.173 247.39 178.373 239.068 168.482 238.877ZM259.505 237.118H261.217C261.93 237.118 262.454 236.547 262.454 235.881V233.028C262.454 232.314 261.883 231.791 261.217 231.791H259.505C258.792 231.791 258.269 232.362 258.269 233.028V235.881C258.269 236.547 258.839 237.118 259.505 237.118ZM300.356 238.925C294.649 238.782 289.513 241.35 286.137 245.393V242.872C286.137 242.159 285.566 241.636 284.9 241.636H283.188C282.475 241.636 281.952 242.206 281.952 242.872V275.876C281.952 276.59 282.523 277.113 283.188 277.113H284.9C285.614 277.113 286.137 276.542 286.137 275.876V257.282C286.137 249.53 292.462 243.015 300.214 243.157C307.728 243.3 313.815 249.435 313.815 256.996V275.876C313.815 276.59 314.385 277.113 315.051 277.113H316.763C317.477 277.113 318 276.542 318 275.876V257.329C318.047 247.437 310.248 239.115 300.356 238.925ZM87.7303 264.415C88.0157 263.702 87.6352 262.846 86.8743 262.656L85.4 262.18C84.7342 261.99 84.0209 262.323 83.7831 262.989C81.4053 268.981 75.6985 272.928 69.1832 272.928C60.5279 272.928 53.4419 265.889 53.4419 257.187C53.4419 256.14 53.5371 255.047 53.7749 254C55.2491 246.724 61.7644 241.445 69.1832 241.445C75.2705 241.445 80.7395 245.012 83.3551 250.291C83.7356 251.099 83.3075 252.05 82.4515 252.193L69.8966 254.809C69.1832 254.951 68.7076 255.665 68.8503 256.378L69.1832 257.9C69.3259 258.613 70.0392 259.089 70.7526 258.946L87.8254 255.427C88.5388 255.284 89.0143 254.571 88.8717 253.858L88.729 253.097C86.8267 243.918 78.5994 237.26 69.1832 237.26C59.767 237.26 51.5397 243.966 49.6374 253.192C49.3521 254.523 49.2094 255.855 49.2094 257.187C49.2094 268.172 58.1501 277.113 69.1357 277.113C77.5056 277.113 84.7818 272.072 87.7303 264.415Z" fill="#15BDFF"/>
  <defs>
    <linearGradient id="paint0_linear_313_49" x1="52.5168" y1="102.048" x2="265.487" y2="102.048" gradientUnits="userSpaceOnUse">
      <stop stop-color="#9D4ABE"/>
      <stop offset="0.0328232" stop-color="#9155C4"/>
      <stop offset="0.146" stop-color="#6B74D6"/>
      <stop offset="0.2641" stop-color="#4C8FE5"/>
      <stop offset="0.3868" stop-color="#34A3F0"/>
      <stop offset="0.5161" stop-color="#22B2F9"/>
      <stop offset="0.6561" stop-color="#18BAFD"/>
      <stop offset="0.8268" stop-color="#15BDFF"/>
      <stop offset="1" stop-color="#28BAD5"/>
    </linearGradient>
    <linearGradient id="paint1_linear_313_49" x1="52.5168" y1="102.048" x2="265.487" y2="102.048" gradientUnits="userSpaceOnUse">
      <stop stop-color="#9D4ABE"/>
      <stop offset="0.0328232" stop-color="#9155C4"/>
      <stop offset="0.146" stop-color="#6B74D6"/>
      <stop offset="0.2641" stop-color="#4C8FE5"/>
      <stop offset="0.3868" stop-color="#34A3F0"/>
      <stop offset="0.5161" stop-color="#22B2F9"/>
      <stop offset="0.6561" stop-color="#18BAFD"/>
      <stop offset="0.8268" stop-color="#15BDFF"/>
      <stop offset="1" stop-color="#28BAD5"/>
    </linearGradient>
  </defs>
</svg>
