<?xml version="1.0" encoding="utf-8"?>
<svg viewBox="247.841 42.314 98.446 26.771" xmlns="http://www.w3.org/2000/svg">
  <path d="M 286.644 68.026 C 285.894 68.026 285.464 68.014 285.355 67.991 L 285.355 65.354 C 285.425 65.369 285.71 65.377 286.21 65.377 C 286.843 65.377 287.323 65.268 287.652 65.049 C 287.98 64.838 288.202 64.483 288.319 63.983 C 288.319 63.975 288.339 63.877 288.378 63.69 C 288.417 63.502 288.433 63.401 288.425 63.385 L 284.054 50.811 L 287.816 50.811 L 290.487 60.631 L 290.546 60.631 L 293.218 50.811 L 296.827 50.811 L 292.503 63.655 C 291.964 65.264 291.253 66.393 290.37 67.041 C 289.495 67.698 288.253 68.026 286.644 68.026 Z M 303.355 53.073 C 302.612 53.073 301.991 53.326 301.491 53.834 C 300.999 54.342 300.722 54.991 300.659 55.78 L 305.991 55.78 C 305.952 54.975 305.691 54.323 305.206 53.823 C 304.73 53.323 304.112 53.073 303.355 53.073 Z M 306.038 59.53 L 309.179 59.53 C 308.991 60.764 308.374 61.76 307.327 62.518 C 306.288 63.268 304.995 63.643 303.448 63.643 C 301.519 63.643 300.003 63.065 298.902 61.909 C 297.808 60.752 297.261 59.166 297.261 57.151 C 297.261 55.143 297.808 53.541 298.902 52.346 C 299.995 51.143 301.468 50.541 303.319 50.541 C 305.14 50.541 306.589 51.112 307.667 52.252 C 308.745 53.393 309.284 54.92 309.284 56.834 L 309.284 57.877 L 300.624 57.877 L 300.624 58.088 C 300.624 58.987 300.886 59.717 301.409 60.28 C 301.941 60.834 302.64 61.112 303.507 61.112 C 304.132 61.112 304.671 60.971 305.124 60.69 C 305.577 60.401 305.882 60.014 306.038 59.53 Z M 315.905 61.1 C 316.663 61.1 317.304 60.881 317.827 60.444 C 318.359 59.998 318.624 59.44 318.624 58.768 L 318.624 57.854 L 315.976 58.018 C 315.335 58.065 314.839 58.225 314.487 58.498 C 314.144 58.772 313.972 59.131 313.972 59.576 C 313.972 60.045 314.148 60.416 314.499 60.69 C 314.851 60.963 315.319 61.1 315.905 61.1 Z M 314.78 63.573 C 313.569 63.573 312.566 63.217 311.769 62.506 C 310.972 61.795 310.573 60.881 310.573 59.764 C 310.573 58.623 310.995 57.729 311.839 57.08 C 312.683 56.432 313.89 56.061 315.46 55.967 L 318.624 55.78 L 318.624 54.948 C 318.624 54.369 318.433 53.916 318.05 53.588 C 317.675 53.26 317.163 53.096 316.515 53.096 C 315.89 53.096 315.378 53.237 314.98 53.518 C 314.589 53.799 314.351 54.178 314.265 54.655 L 311.136 54.655 C 311.198 53.42 311.726 52.428 312.718 51.678 C 313.71 50.92 315.027 50.541 316.667 50.541 C 318.277 50.541 319.566 50.924 320.534 51.69 C 321.503 52.455 321.987 53.471 321.987 54.737 L 321.987 63.373 L 318.683 63.373 L 318.683 61.451 L 318.612 61.451 C 318.269 62.108 317.745 62.627 317.042 63.01 C 316.339 63.385 315.585 63.573 314.78 63.573 Z M 324.202 63.373 L 324.202 50.811 L 327.507 50.811 L 327.507 53.073 L 327.577 53.073 C 327.796 52.276 328.163 51.666 328.679 51.244 C 329.194 50.823 329.823 50.612 330.566 50.612 C 330.925 50.612 331.249 50.655 331.538 50.741 L 331.538 53.752 C 331.218 53.619 330.804 53.553 330.296 53.553 C 329.452 53.553 328.796 53.799 328.327 54.291 C 327.859 54.784 327.624 55.471 327.624 56.354 L 327.624 63.373 L 324.202 63.373 Z M 332.944 63.373 L 332.944 50.811 L 336.249 50.811 L 336.249 53.049 L 336.319 53.049 C 336.663 52.252 337.163 51.643 337.819 51.221 C 338.484 50.791 339.292 50.576 340.245 50.576 C 341.636 50.576 342.71 50.991 343.468 51.819 C 344.226 52.647 344.605 53.799 344.605 55.276 L 344.605 63.373 L 341.183 63.373 L 341.183 55.991 C 341.183 55.162 340.987 54.526 340.597 54.08 C 340.206 53.635 339.632 53.412 338.874 53.412 C 338.116 53.412 337.507 53.666 337.046 54.174 C 336.593 54.682 336.366 55.346 336.366 56.166 L 336.366 63.373 L 332.944 63.373 Z" style="fill: rgb(0, 106, 227);"/>
  <circle cx="259.796" cy="55.373" r="12" style="fill: rgb(0, 106, 227);"/>
  <path fill-rule="evenodd" clip-rule="evenodd" d="M 259.097 50.222 L 260.337 50.222 L 260.337 61.059 L 259.097 61.059 L 259.097 50.222 Z" fill="white"/>
  <path fill-rule="evenodd" clip-rule="evenodd" d="M 258.393 55.32 L 258.393 54.025 C 257.398 53.536 256.713 52.512 256.713 51.328 C 256.713 49.67 258.058 48.325 259.717 48.325 C 261.58 48.325 262.925 49.67 262.925 51.328 C 262.925 51.746 262.839 52.144 262.632 52.617 L 262.103 50.895 L 261.041 51.227 L 261.983 54.811 L 265.638 53.466 L 265.193 52.418 L 263.83 52.885 C 264.077 52.35 264.125 51.956 264.125 51.328 C 264.125 49.006 262.243 47.123 259.717 47.123 C 257.395 47.123 255.512 49.006 255.512 51.328 C 255.512 53.188 256.72 54.765 258.393 55.32 Z" fill="white"/>
  <path fill-rule="evenodd" clip-rule="evenodd" d="M 261.041 55.961 L 261.041 57.256 C 262.036 57.746 262.721 58.769 262.721 59.953 C 262.721 61.611 261.376 62.956 259.717 62.956 C 257.854 62.956 256.509 61.611 256.509 59.953 C 256.509 59.535 256.595 59.137 256.801 58.664 L 257.331 60.386 L 258.393 60.054 L 257.451 56.47 L 253.796 57.815 L 254.24 58.863 L 255.603 58.396 C 255.357 58.931 255.308 59.325 255.308 59.953 C 255.308 62.275 257.191 64.158 259.717 64.158 C 262.039 64.158 263.922 62.275 263.922 59.953 C 263.922 58.093 262.714 56.516 261.041 55.961 Z" fill="white"/>
</svg>