<?xml version="1.0" encoding="utf-8"?>
<svg viewBox="99.309 0 400.691 164.076" xmlns="http://www.w3.org/2000/svg">
  <path d="M 330.749 51.295 L 330.749 56.37 L 290.985 106.67 L 331.578 106.67 L 331.578 111.572 L 284.548 111.572 L 284.548 106.498 L 324.31 56.197 L 287.247 56.197 L 287.247 51.295 L 330.749 51.295 Z" style="fill: rgb(255, 255, 255);"/>
  <path d="M 363.66 74.011 C 361.687 72.147 358.918 71.216 355.354 71.216 C 353.035 71.18 350.716 71.732 348.674 72.838 C 346.806 73.874 345.144 75.323 343.899 77.05 C 342.618 78.844 341.615 80.847 341.026 82.987 C 339.746 87.441 339.746 92.136 341.026 96.589 C 341.649 98.731 342.618 100.732 343.899 102.527 C 345.179 104.253 346.806 105.703 348.674 106.739 C 350.716 107.844 353.035 108.396 355.354 108.326 C 356.946 108.326 358.537 108.016 360.025 107.394 C 361.479 106.773 362.794 105.911 363.901 104.806 C 365.044 103.666 366.013 102.355 366.704 100.869 C 367.431 99.316 367.916 97.625 368.054 95.899 L 373.384 95.899 C 372.657 101.18 370.72 105.324 367.535 108.258 C 364.351 111.192 360.302 112.677 355.354 112.677 C 352.031 112.677 349.089 112.055 346.529 110.882 C 344.037 109.743 341.823 108.05 340.057 105.945 C 338.258 103.804 336.908 101.319 336.078 98.66 C 334.279 92.86 334.279 86.646 336.078 80.847 C 336.908 78.188 338.258 75.702 340.057 73.563 C 341.823 71.457 344.037 69.765 346.529 68.59 C 349.089 67.349 352.031 66.727 355.354 66.727 C 360.025 66.727 364.005 67.97 367.224 70.455 C 370.476 72.941 372.415 76.669 373.003 81.675 L 367.673 81.675 C 366.981 78.43 365.632 75.875 363.66 74.011 Z" style="fill: rgb(255, 255, 255);"/>
  <path d="M 381.066 74.771 C 381.897 72.975 383.178 71.422 384.734 70.213 C 386.361 69.005 388.23 68.108 390.203 67.59 C 392.452 67.003 394.805 66.727 397.124 66.761 C 399.061 66.761 401 66.968 402.904 67.314 C 404.737 67.66 406.502 68.35 408.06 69.385 C 409.651 70.455 410.932 71.94 411.797 73.665 C 412.766 75.496 413.251 77.877 413.251 80.777 L 413.251 103.908 C 413.251 106.049 414.289 107.118 416.365 107.118 C 416.954 107.118 417.506 107.015 418.061 106.773 L 418.061 111.227 C 417.438 111.331 416.884 111.434 416.4 111.469 C 415.812 111.538 415.188 111.572 414.6 111.538 C 413.493 111.572 412.385 111.4 411.347 110.984 C 410.586 110.674 409.928 110.122 409.445 109.432 C 408.96 108.706 408.682 107.878 408.544 107.015 C 408.406 105.98 408.335 104.978 408.335 103.943 L 408.163 103.943 C 407.263 105.255 406.294 106.498 405.256 107.705 C 404.288 108.776 403.18 109.709 401.969 110.433 C 400.689 111.192 399.269 111.78 397.816 112.125 C 396.017 112.539 394.148 112.746 392.279 112.711 C 390.341 112.711 388.438 112.469 386.568 111.987 C 384.874 111.538 383.281 110.778 381.931 109.709 C 380.582 108.637 379.544 107.292 378.817 105.737 C 378.021 103.943 377.64 102.01 377.675 100.042 C 377.675 97.004 378.367 94.621 379.716 92.93 C 381.136 91.169 382.97 89.822 385.081 88.993 C 387.503 88.062 390.029 87.407 392.625 87.096 C 395.427 86.715 398.232 86.371 401.138 86.059 C 402.279 85.955 403.25 85.818 404.115 85.645 C 404.876 85.508 405.603 85.197 406.225 84.748 C 406.814 84.299 407.263 83.712 407.541 83.021 C 407.887 82.09 408.025 81.123 407.991 80.156 C 407.991 78.361 407.678 76.877 407.09 75.738 C 406.537 74.632 405.672 73.665 404.633 73.01 C 403.526 72.319 402.279 71.837 401 71.629 C 399.546 71.353 398.058 71.249 396.57 71.249 C 393.179 71.249 390.411 72.044 388.264 73.665 C 386.119 75.288 385.012 77.843 384.874 81.399 L 379.544 81.399 C 379.578 79.086 380.132 76.842 381.066 74.771 Z M 407.713 87.751 C 407.367 88.373 406.709 88.821 405.775 89.098 C 404.945 89.34 404.08 89.546 403.25 89.685 C 401 90.064 398.681 90.444 396.259 90.72 C 394.043 90.997 391.829 91.445 389.718 92.101 C 387.919 92.619 386.257 93.516 384.838 94.759 C 383.558 95.899 382.935 97.555 382.935 99.696 C 382.901 100.938 383.178 102.181 383.73 103.287 C 384.25 104.323 384.977 105.255 385.877 105.98 C 386.811 106.739 387.849 107.326 388.992 107.705 C 390.168 108.085 391.379 108.292 392.625 108.292 C 394.598 108.292 396.57 107.982 398.473 107.36 C 400.273 106.773 401.9 105.876 403.353 104.668 C 406.294 102.181 407.956 98.488 407.887 94.621 L 407.887 87.717 L 407.713 87.751 Z" style="fill: rgb(255, 255, 255);"/>
  <path d="M 448.169 76.497 C 447.58 75.323 446.716 74.287 445.677 73.494 C 444.604 72.7 443.393 72.112 442.078 71.767 C 440.66 71.387 439.206 71.216 437.752 71.216 C 436.541 71.216 435.33 71.353 434.153 71.595 C 432.977 71.837 431.834 72.251 430.795 72.872 C 429.793 73.424 428.962 74.218 428.34 75.185 C 427.681 76.255 427.37 77.498 427.405 78.741 C 427.37 79.811 427.681 80.847 428.305 81.744 C 428.893 82.574 429.689 83.263 430.554 83.817 C 431.489 84.402 432.492 84.851 433.495 85.197 C 434.568 85.576 435.572 85.853 436.471 86.095 L 443.565 87.682 C 445.123 87.924 446.646 88.338 448.1 88.89 C 449.553 89.443 450.869 90.236 452.079 91.203 C 453.256 92.17 454.225 93.379 454.918 94.759 C 455.678 96.313 456.059 98.004 456.024 99.731 C 456.024 102.079 455.471 104.115 454.398 105.771 C 453.36 107.394 451.941 108.811 450.279 109.847 C 448.55 110.916 446.646 111.676 444.638 112.09 C 442.597 112.539 440.555 112.781 438.479 112.781 C 433.356 112.781 429.205 111.572 426.021 109.156 C 422.836 106.739 421.037 102.872 420.553 97.521 L 425.883 97.521 C 426.123 101.111 427.439 103.839 429.827 105.669 C 432.215 107.499 435.192 108.396 438.755 108.396 C 440.106 108.396 441.454 108.258 442.771 107.982 C 444.119 107.705 445.435 107.222 446.612 106.532 C 447.754 105.876 448.758 105.013 449.518 103.943 C 450.315 102.803 450.694 101.457 450.66 100.11 C 450.694 98.971 450.418 97.832 449.865 96.866 C 449.311 95.967 448.584 95.243 447.719 94.656 C 446.75 94.034 445.712 93.552 444.638 93.171 C 443.497 92.791 442.32 92.447 441.109 92.17 L 434.257 90.652 C 432.596 90.236 431.004 89.685 429.412 89.064 C 428.027 88.51 426.747 87.786 425.571 86.854 C 424.498 85.991 423.598 84.887 422.975 83.643 C 422.318 82.158 422.006 80.57 422.04 78.947 C 421.971 76.945 422.49 75.012 423.529 73.286 C 424.498 71.732 425.813 70.42 427.37 69.489 C 428.997 68.522 430.795 67.797 432.665 67.383 C 434.568 66.934 436.507 66.692 438.444 66.692 C 440.521 66.657 442.597 66.968 444.569 67.52 C 446.403 68.039 448.1 68.937 449.553 70.145 C 451.006 71.353 452.183 72.838 452.979 74.529 C 453.879 76.463 454.363 78.568 454.432 80.674 L 449.103 80.674 C 449.138 79.258 448.791 77.809 448.169 76.497 Z" style="fill: rgb(255, 255, 255);"/>
  <path d="M 468.136 51.295 L 468.136 75.53 L 468.311 75.53 C 469.348 72.872 471.252 70.628 473.709 69.143 C 476.27 67.555 479.246 66.692 482.256 66.727 C 485.302 66.727 487.863 67.106 489.904 67.9 C 491.809 68.59 493.503 69.731 494.854 71.249 C 496.133 72.768 497.033 74.564 497.484 76.531 C 498.002 78.844 498.279 81.192 498.245 83.54 L 498.245 111.572 L 492.915 111.572 L 492.915 84.402 C 492.915 82.676 492.743 80.916 492.397 79.224 C 492.085 77.74 491.497 76.29 490.631 75.046 C 489.766 73.838 488.59 72.872 487.206 72.251 C 485.752 71.56 483.987 71.249 481.84 71.249 C 479.868 71.216 477.931 71.595 476.131 72.389 C 474.505 73.113 473.085 74.184 471.909 75.53 C 470.697 76.911 469.798 78.534 469.21 80.26 C 468.552 82.158 468.172 84.196 468.136 86.197 L 468.136 111.606 L 462.807 111.606 L 462.807 51.295 L 468.136 51.295 Z" style="fill: rgb(255, 255, 255);"/>
  <path d="M 181.213 14.147 C 143.906 14.147 113.556 44.425 113.556 81.606 C 113.556 118.788 143.906 149.099 181.213 149.099 C 218.519 149.099 248.868 118.857 248.868 81.641 C 248.868 44.425 218.519 14.147 181.213 14.147 Z M 181.213 145.336 C 145.948 145.336 117.363 116.82 117.363 81.641 C 117.363 46.461 145.948 17.911 181.213 17.911 C 216.477 17.911 245.062 46.427 245.062 81.606 C 245.062 116.785 216.477 145.336 181.213 145.336 Z" fill="none" style=""/>
  <path d="M 181.213 17.911 C 145.948 17.911 117.363 46.427 117.363 81.606 C 117.363 116.785 145.948 145.336 181.213 145.336 C 216.477 145.336 245.062 116.82 245.062 81.641 C 245.062 46.461 216.477 17.911 181.213 17.911 Z M 210.11 56.439 L 203.88 64.344 L 175.848 102.837 L 210.11 102.837 L 210.11 119.167 L 187.996 119.167 L 187.996 132.665 L 186.369 132.665 L 186.369 132.735 L 176.057 132.735 L 176.057 132.665 L 174.43 132.665 L 174.43 119.167 L 152.316 119.167 L 152.316 106.843 L 158.546 98.937 L 186.576 60.443 L 152.316 60.443 L 152.316 44.115 L 174.43 44.115 L 174.43 30.546 L 187.996 30.546 L 187.996 44.08 L 210.11 44.08 L 210.11 56.439 Z" fill="#f4b728" style=""/>
  <path d="M 181.213 0.788 C 136.535 0.788 100.199 37.037 100.199 81.606 C 100.199 126.175 136.535 162.424 181.213 162.424 C 225.89 162.424 262.227 126.175 262.227 81.606 C 262.227 37.037 225.89 0.788 181.213 0.788 Z M 181.213 149.099 C 143.906 149.099 113.556 118.822 113.556 81.606 C 113.556 44.391 143.906 14.147 181.213 14.147 C 218.519 14.147 248.868 44.425 248.868 81.641 C 248.868 118.857 218.519 149.099 181.213 149.099 Z M 187.996 44.115 L 210.11 44.115 L 210.11 56.439 L 175.848 102.837 L 210.11 102.837 L 210.11 119.167 L 187.996 119.167 L 187.996 132.665 L 174.43 132.665 L 174.43 119.167 L 152.316 119.167 L 152.316 106.843 L 186.576 60.443 L 152.316 60.443 L 152.316 44.115 L 174.43 44.115 L 174.43 30.546 L 187.996 30.546 L 187.996 44.115 Z" fill="#231f20" style=""/>
</svg>